<svg width="265" height="186" viewBox="0 0 265 186" fill="none" xmlns="http://www.w3.org/2000/svg">
<g clip-path="url(#clip0_219_562)">
<path d="M80.5336 71.0055H80.011C79.8614 70.3312 79.6146 69.6919 79.2824 69.1087L79.7157 68.6766C80.3626 68.0314 80.3626 66.9852 79.7157 66.34C79.0687 65.6948 78.0196 65.6948 77.3726 66.34L77.0035 66.7081C76.4342 66.3439 75.8087 66.0629 75.1442 65.8808V65.2705C75.1442 64.3579 74.4021 63.6178 73.487 63.6178C72.5719 63.6178 71.8298 64.3579 71.8298 65.2705V65.7917C71.1537 65.9409 70.5125 66.1869 69.9278 66.5182L69.4945 66.0862C68.8475 65.441 67.7984 65.441 67.1515 66.0862C66.5045 66.7314 66.5045 67.7776 67.1515 68.4228L67.5206 68.7909C67.1554 69.3586 66.8736 69.9825 66.691 70.647H66.079C65.164 70.647 64.4218 71.3872 64.4218 72.2997C64.4218 73.2123 65.164 73.9524 66.079 73.9524H66.6017C66.7512 74.6286 66.998 75.266 67.3302 75.8512L66.897 76.2832C66.25 76.9284 66.25 77.9747 66.897 78.6199C67.5439 79.265 68.593 79.265 69.24 78.6199L69.6091 78.2517C70.1784 78.614 70.804 78.895 71.4703 79.079V79.6874C71.4703 80.6 72.2125 81.3401 73.1276 81.3401C74.0426 81.3401 74.7848 80.6 74.7848 79.6874V79.1662C75.4628 79.017 76.102 78.771 76.6888 78.4397L77.122 78.8717C77.769 79.5169 78.8181 79.5169 79.465 78.8717C80.112 78.2265 80.112 77.1803 79.465 76.5351L79.0959 76.167C79.4592 75.5993 79.7409 74.9735 79.9255 74.3109H80.5355C81.4506 74.3109 82.1927 73.5707 82.1927 72.6582C82.1927 71.7456 81.4486 71.0055 80.5336 71.0055ZM78.2372 72.4799C78.2372 75.1963 76.0282 77.3992 73.3044 77.3992C70.5805 77.3992 68.3716 75.1963 68.3716 72.4799C68.3716 69.7635 70.5805 67.5606 73.3044 67.5606C76.0282 67.5606 78.2372 69.7616 78.2372 72.4799Z" fill="#BFE6F5"/>
<path d="M70.1881 72.4799C70.1881 74.1966 71.583 75.5877 73.3044 75.5877C75.0257 75.5877 76.4226 74.1966 76.4226 72.4799C76.4226 70.7633 75.0257 69.3702 73.3044 69.3702C71.585 69.3683 70.1881 70.7614 70.1881 72.4799ZM59.386 63.2826H59.0694C58.98 62.8738 58.8284 62.4882 58.6283 62.1337L58.8906 61.8721C59.2831 61.4807 59.2831 60.8491 58.8906 60.4577C58.4982 60.0664 57.8648 60.0664 57.4724 60.4577L57.2489 60.6806C56.9051 60.4597 56.5262 60.2911 56.124 60.1787V59.8087C56.124 59.2565 55.6753 58.8089 55.1216 58.8089C54.5679 58.8089 54.1191 59.2565 54.1191 59.8087V60.1245C53.7091 60.2136 53.3225 60.3647 52.967 60.5643L52.7047 60.3027C52.3122 59.9114 51.6789 59.9114 51.2864 60.3027C50.894 60.6941 50.894 61.3257 51.2864 61.7171L51.5099 61.9399C51.2884 62.2829 51.1174 62.6607 51.0067 63.0637H50.6356C50.0819 63.0637 49.6331 63.5112 49.6331 64.0634C49.6331 64.6156 50.0819 65.0632 50.6356 65.0632H50.9523C51.0416 65.472 51.1932 65.8595 51.3933 66.2121L51.131 66.4737C50.7386 66.8651 50.7386 67.4967 51.131 67.8881C51.5235 68.2794 52.1568 68.2794 52.5493 67.8881L52.7727 67.6652C53.1166 67.8842 53.4974 68.0547 53.8995 68.1671V68.5352C53.8995 69.0874 54.3483 69.5349 54.902 69.5349C55.4557 69.5349 55.9045 69.0874 55.9045 68.5352V68.2194C56.3144 68.1302 56.703 67.9791 57.0566 67.7796L57.3189 68.0411C57.7113 68.4325 58.3447 68.4325 58.7371 68.0411C59.1296 67.6497 59.1296 67.0181 58.7371 66.6267L58.5137 66.4039C58.7332 66.061 58.9042 65.6812 59.0169 65.2802H59.386C59.9397 65.2802 60.3885 64.8326 60.3885 64.2804C60.3885 63.7282 59.9397 63.2826 59.386 63.2826ZM57.9969 64.1739C57.9969 65.8169 56.6603 67.1518 55.0108 67.1518C53.3633 67.1518 52.0247 65.8188 52.0247 64.1739C52.0247 62.5289 53.3614 61.1959 55.0108 61.1959C56.6603 61.1959 57.9969 62.5289 57.9969 64.1739Z" fill="#BFE6F5"/>
<path d="M53.1243 64.1739C53.1243 65.2124 53.9695 66.0552 55.0108 66.0552C56.0522 66.0552 56.8992 65.2124 56.8992 64.1739C56.8992 63.1354 56.0541 62.2906 55.0108 62.2906C53.9695 62.2906 53.1243 63.1335 53.1243 64.1739ZM228.364 72.7163H228.048C227.958 72.3075 227.807 71.922 227.607 71.5674L227.869 71.3058C228.261 70.9145 228.261 70.2828 227.869 69.8915C227.476 69.5001 226.843 69.5001 226.451 69.8915L226.227 70.1143C225.883 69.8934 225.505 69.7248 225.102 69.6125V69.2424C225.102 68.6902 224.654 68.2427 224.1 68.2427C223.546 68.2427 223.097 68.6902 223.097 69.2424V69.5582C222.687 69.6473 222.301 69.7985 221.945 69.998L221.683 69.7365C221.291 69.3451 220.657 69.3451 220.265 69.7365C219.872 70.1278 219.872 70.7595 220.265 71.1508L220.488 71.3737C220.267 71.7166 220.096 72.0944 219.985 72.4974H219.614C219.06 72.4974 218.611 72.945 218.611 73.4971C218.611 74.0493 219.06 74.4969 219.614 74.4969H219.931C220.02 74.9057 220.171 75.2932 220.372 75.6458L220.109 75.9074C219.717 76.2988 219.717 76.9304 220.109 77.3218C220.502 77.7131 221.135 77.7131 221.528 77.3218L221.751 77.099C222.095 77.3179 222.476 77.4884 222.878 77.6008V77.9689C222.878 78.5211 223.327 78.9686 223.88 78.9686C224.434 78.9686 224.883 78.5211 224.883 77.9689V77.6531C225.293 77.564 225.681 77.4128 226.035 77.2133L226.297 77.4748C226.69 77.8662 227.323 77.8662 227.715 77.4748C228.108 77.0835 228.108 76.4518 227.715 76.0605L227.492 75.8377C227.712 75.4947 227.883 75.115 227.995 74.7139H228.364C228.918 74.7139 229.367 74.2663 229.367 73.7141C229.367 73.162 228.918 72.7163 228.364 72.7163ZM226.973 73.6076C226.973 75.2506 225.637 76.5855 223.987 76.5855C222.34 76.5855 221.001 75.2525 221.001 73.6076C221.001 71.9627 222.338 70.6297 223.987 70.6297C225.637 70.6316 226.973 71.9646 226.973 73.6076Z" fill="#BFE6F5"/>
<path d="M222.103 73.6076C222.103 74.6461 222.948 75.4889 223.989 75.4889C225.03 75.4889 225.878 74.6461 225.878 73.6076C225.878 72.5691 225.032 71.7243 223.989 71.7243C222.946 71.7262 222.103 72.5691 222.103 73.6076Z" fill="#BFE6F5"/>
<path d="M43.9387 128.861C42.1902 126.97 41.3159 124.302 41.3159 120.855V97.1559C41.3159 93.711 42.1902 91.0412 43.9387 89.1502C45.6872 87.2592 48.2265 86.3137 51.5545 86.3137C54.8826 86.3137 57.4218 87.2592 59.1704 89.1502C60.9189 91.0412 61.7932 93.7091 61.7932 97.1559V101.819H55.2206V96.7142C55.2206 93.9823 54.0608 92.6163 51.7449 92.6163C49.4272 92.6163 48.2692 93.9823 48.2692 96.7142V121.359C48.2692 124.048 49.4272 125.393 51.7449 125.393C54.0627 125.393 55.2206 124.048 55.2206 121.359V114.615H61.7932V120.855C61.7932 124.302 60.9189 126.97 59.1704 128.861C57.4218 130.752 54.8826 131.698 51.5545 131.698C48.2265 131.698 45.6872 130.752 43.9387 128.861ZM68.3036 128.799C66.4909 126.867 65.5856 124.136 65.5856 120.605V97.4078C65.5856 93.8777 66.4909 91.1477 68.3036 89.2141C70.1143 87.2824 72.7273 86.3137 76.1409 86.3137C79.5544 86.3137 82.1655 87.2805 83.9782 89.2141C85.7889 91.1477 86.6962 93.8777 86.6962 97.4078V120.604C86.6962 124.134 85.7889 126.866 83.9782 128.797C82.1655 130.731 79.5544 131.696 76.1409 131.696C72.7293 131.698 70.1162 130.731 68.3036 128.799ZM79.7448 121.045V96.968C79.7448 94.0675 78.5441 92.6183 76.1428 92.6183C73.7415 92.6183 72.5408 94.0675 72.5408 96.968V121.045C72.5408 123.946 73.7415 125.395 76.1428 125.395C78.5441 125.395 79.7448 123.946 79.7448 121.045ZM96.6201 86.9453H106.037L113.243 131.068H106.289L105.025 122.307V122.433H97.1233L95.8585 131.068H89.4122L96.6201 86.9453ZM104.205 116.444L101.108 94.6352H100.982L97.947 116.444H104.205ZM118.646 128.861C116.897 126.97 116.023 124.302 116.023 120.855V97.1559C116.023 93.711 116.897 91.0412 118.646 89.1502C120.394 87.2592 122.934 86.3137 126.262 86.3137C129.59 86.3137 132.129 87.2592 133.877 89.1502C135.626 91.0412 136.5 93.7091 136.5 97.1559V101.819H129.928V96.7142C129.928 93.9823 128.768 92.6163 126.452 92.6163C124.134 92.6163 122.976 93.9823 122.976 96.7142V121.359C122.976 124.048 124.134 125.393 126.452 125.393C128.77 125.393 129.928 124.048 129.928 121.359V114.615H136.5V120.855C136.5 124.302 135.626 126.97 133.877 128.861C132.129 130.752 129.59 131.698 126.262 131.698C122.934 131.698 120.394 130.752 118.646 128.861ZM140.671 86.9453H147.625V104.91H155.083V86.9453H162.037V131.068H155.083V111.212H147.625V131.068H140.671V86.9453ZM167.218 86.9453H174.171V131.068H167.218V86.9453ZM179.353 86.9453H188.076L194.839 113.355H194.965V86.9453H201.159V131.068H194.017L185.675 98.859H185.549V131.068H179.355V86.9453H179.353ZM208.489 128.83C206.719 126.918 205.835 124.176 205.835 120.605V97.4078C205.835 93.837 206.719 91.0954 208.489 89.1812C210.259 87.2689 212.83 86.3137 216.2 86.3137C219.571 86.3137 222.141 87.2708 223.911 89.1812C225.681 91.0935 226.565 93.835 226.565 97.4078V101.19H219.993V96.966C219.993 94.0656 218.792 92.6163 216.391 92.6163C213.989 92.6163 212.789 94.0656 212.789 96.966V121.107C212.789 123.965 213.989 125.393 216.391 125.393C218.792 125.393 219.993 123.965 219.993 121.107V112.472H216.517V106.169H226.567V120.604C226.567 124.176 225.683 126.918 223.913 128.828C222.143 130.741 219.573 131.696 216.202 131.696C212.828 131.698 210.259 130.742 208.489 128.83Z" fill="#AED6E6"/>
<path d="M223.241 106.407L224.593 106.677C224.593 106.677 224.858 107.932 224.36 108.541C223.979 109.004 222.719 108.465 222.775 108.345C222.952 107.971 223.14 107.771 223.064 107.487C223.027 107.349 222.435 107.872 222.415 107.578C222.4 107.336 223.241 106.407 223.241 106.407Z" fill="#FFD4C2"/>
<path d="M226.241 110.74H220.292V110.42C220.292 108.829 221.59 107.535 223.185 107.535H223.346C224.941 107.535 226.239 108.829 226.239 110.42V110.74H226.241ZM220.958 110.098H225.574C225.417 109.012 224.479 108.175 223.346 108.175H223.185C222.054 108.175 221.114 109.012 220.958 110.098Z" fill="#205D73"/>
<path d="M227.251 119.321H218.961C218.143 119.321 217.481 118.66 217.481 117.845V111.501C217.481 110.686 218.143 110.025 218.961 110.025H227.251C228.069 110.025 228.732 110.686 228.732 111.501V117.845C228.732 118.658 228.069 119.321 227.251 119.321Z" fill="#205D73"/>
<path d="M226.884 111.865H219.649V112.826H226.884V111.865Z" fill="#124659"/>
<path d="M226.964 114.03H219.569V117.877H226.964V114.03Z" fill="#124659"/>
<path d="M221.957 90.9424C221.656 91.3008 221.877 91.7523 221.8 91.8414C221.51 92.1688 220.014 89.6094 219.804 90.0376C219.552 90.553 220.449 91.3144 220.478 91.6302C220.508 91.9441 219.383 92.4556 220.103 93.3023C220.824 94.149 221.724 93.9688 221.724 93.9688L222.689 92.6009C222.689 92.599 222.258 90.582 221.957 90.9424Z" fill="#FFD4C2"/>
<path d="M239.382 96.3422C239.201 95.6776 238.762 95.1681 238.341 94.643C237.88 94.0656 237.437 93.4708 237.033 92.8528C236.596 92.1843 236.235 91.4132 236.357 90.5956C236.359 90.5839 236.353 90.5781 236.345 90.5743C236.371 90.1906 236.425 89.7547 236.512 89.2548C237.185 86.4648 236.39 84.1146 233.4 83.3822C230.942 82.5046 227.288 84.1437 228.442 87.1158L229.332 86.304C228.807 86.8756 228.339 87.7184 228.063 88.5515C227.663 88.9778 227.453 89.5668 227.455 90.1499C227.455 90.4813 227.533 90.8048 227.667 91.1071C227.82 91.4481 228.028 91.76 228.168 92.1068C228.242 92.2909 228.294 92.4866 228.308 92.6842C228.304 92.6978 228.302 92.7133 228.298 92.7268C228.1 93.5677 226.61 93.6181 226.42 95.0421C225.609 101.097 228.881 102.585 230.552 102.275C232.639 101.887 233.758 100.839 235.819 101.227C236.649 101.316 238.041 100.603 238.667 99.2523C239.347 98.4579 239.662 97.3729 239.382 96.3422ZM227.949 91.4054C227.781 91.0974 227.632 90.7816 227.581 90.4309C227.535 90.1093 227.56 89.7799 227.647 89.4679C227.721 89.2044 227.844 88.9564 228.003 88.7356C227.842 89.2742 227.766 89.8012 227.813 90.2352C227.914 91.1943 228.259 91.6496 228.327 92.1882C228.232 91.915 228.088 91.6612 227.949 91.4054ZM238.856 98.735C239.052 98.0336 239.048 97.1966 238.704 96.2414C237.855 93.8758 236.635 93.5909 236.375 91.8104C236.452 92.0487 236.559 92.2812 236.68 92.4982C237.023 93.1182 237.457 93.6975 237.886 94.2633C238.1 94.5461 238.323 94.8193 238.543 95.0983C238.753 95.3638 238.957 95.6389 239.096 95.9469C239.366 96.5398 239.4 97.2276 239.236 97.8554C239.159 98.1712 239.027 98.4638 238.856 98.735Z" fill="#232E38"/>
<path d="M222.944 106.497L224.924 107.134C224.914 107.183 228.04 102.742 227.851 100.859L225.063 101.535C224.611 102.657 223.416 105.326 222.944 106.497Z" fill="#CF493E"/>
<path d="M227.807 93.6432C226.482 94.1741 225.761 100.107 225.011 101.649C225.038 101.942 226.604 102.589 227.109 102.441C229.221 101.827 230.086 96.5476 230.307 96.1639C230.529 95.7784 227.807 93.6432 227.807 93.6432Z" fill="#CF493E"/>
<path d="M235.211 131.151C235.848 131.386 237.387 130.977 237.581 130.51C237.775 130.043 238.045 129.098 238.387 128.869C238.727 128.64 239.456 128.166 239.351 127.739C239.256 127.35 238.669 126.908 238.261 126.534H238.259C237.929 126.234 237.134 124.632 237.134 124.632L235.271 126.149C235.271 126.149 236.563 127.251 236.674 127.842C236.742 128.208 236.584 128.76 236.33 129.152C236.229 129.307 235.819 130.026 235.51 130.266V130.268C235.026 130.64 234.822 131.01 235.211 131.151Z" fill="#FFD4C2"/>
<path d="M234.95 131.175C235.588 131.409 237.385 130.977 237.581 130.51C237.775 130.043 238.045 129.098 238.387 128.869C238.727 128.64 239.456 128.166 239.351 127.739C239.256 127.35 238.669 126.908 238.261 126.534H238.259C238.259 126.534 238.395 127.015 238.382 127.453C238.368 127.892 237.025 130.204 236.058 129.586C235.574 129.96 234.564 131.033 234.95 131.175Z" fill="#124659"/>
<path d="M235.737 127.03C236.697 126.577 237.027 126.41 237.799 125.558C236.814 123.523 234.28 118.466 230.894 115.568C230.764 115.458 227.987 116.469 227.987 116.469C228.98 120.022 234.768 125.784 235.737 127.03Z" fill="#EB9D0C"/>
<path d="M228.473 117.102C228.494 117.197 231.877 116.554 231.826 116.374C231.325 114.622 234.566 105.569 232.102 102.087C232.062 102.029 227.527 100.676 227.445 102.996C227.445 102.996 226.134 115.165 228.473 117.102Z" fill="#EB9D0C"/>
<path d="M225.606 131.318C225.757 131.547 228.93 131.221 229.359 131.134C229.79 131.047 231.071 131.295 231.671 131.033C232.271 130.772 231.739 130.055 231.599 129.406C231.597 129.402 231.597 129.398 231.597 129.394V129.388C231.587 129.34 231.582 129.284 231.58 129.224C231.58 129.222 231.58 129.222 231.58 129.222C231.566 128.945 231.974 127.377 231.974 127.377L229.621 127.166C229.619 127.389 229.905 128.472 229.505 129.084C229.136 129.65 228.1 129.747 227.628 129.88C227.628 129.88 227.576 129.894 227.486 129.919C227.457 129.927 227.428 129.937 227.397 129.944C227.352 129.956 227.304 129.971 227.253 129.985C227.226 129.991 227.199 129.999 227.171 130.008C226.967 130.062 226.775 130.117 226.6 130.169C226.462 130.21 226.338 130.25 226.229 130.289C225.238 130.646 225.454 131.089 225.606 131.318Z" fill="#FFD4C2"/>
<path d="M229.297 127.691C230.35 127.922 230.894 127.966 232.081 127.778C232.157 125.432 233.868 119.474 233.305 115.248C233.284 115.086 229.173 113.185 229.173 113.185C229.59 118.102 229.427 126.166 229.297 127.691Z" fill="#FFBA30"/>
<path d="M233.589 113.863C233.381 114.783 233.27 115.498 233.363 115.886C233.408 116.068 230.218 116.92 230.198 116.825C227.943 114.805 229.992 102.825 229.992 102.825C230.173 100.51 234.426 101.895 234.465 101.955C234.785 102.449 234.987 103.042 235.1 103.699C235.619 106.739 234.195 111.172 233.589 113.863Z" fill="#FFBA30"/>
<path d="M225.606 131.318C226.103 131.64 228.93 131.221 229.359 131.134C229.79 131.047 231.071 131.295 231.671 131.033C232.271 130.772 231.739 130.055 231.599 129.406C231.597 129.402 231.597 129.398 231.597 129.394C231.615 129.696 231.343 130.206 230.781 130.318C230.024 130.469 227.871 130.744 227.508 130.429C227.156 130.122 227.626 129.878 227.626 129.878C227.626 129.878 227.574 129.892 227.484 129.917C227.457 129.925 227.428 129.933 227.395 129.942C227.35 129.954 227.302 129.969 227.251 129.983C227.224 129.991 227.197 129.998 227.17 130.006C227.002 130.055 226.802 130.109 226.598 130.167C226.46 130.208 226.336 130.248 226.227 130.287C225.238 130.646 225.369 131.165 225.606 131.318Z" fill="#124659"/>
<path d="M233.33 92.9806C232.79 93.1162 232.471 93.1182 232.077 93.0058C231.667 93.0368 231.356 92.969 230.857 92.7268C230.562 92.7539 229.738 92.7268 229.027 93.1531C227.589 93.3332 227.682 95.1932 228.005 96.5379C228.506 98.2448 229.398 99.2581 229.151 100.454C228.974 101.312 228.153 102.48 228.019 102.893C227.789 104.408 234.177 104.71 234.342 103.075C234.296 102.643 233.408 101.769 233.412 100.891C233.416 99.6708 234.55 98.7641 235.391 97.1947C235.984 95.945 233.612 93.0678 233.33 92.9806Z" fill="white"/>
<path d="M233.033 93.0019C232.157 93.6665 230.898 93.2848 230.321 92.8702C230.505 92.7074 230.604 92.5001 230.661 92.2482C230.735 91.9305 230.744 91.5468 230.791 91.1051C230.799 91.0295 230.806 90.952 230.818 90.8745L231.009 90.8629L231.457 90.8338L232.891 90.7408C232.879 90.8803 232.862 91.0295 232.844 91.1826C232.79 91.6941 232.732 92.2443 232.813 92.6163C232.852 92.7888 232.918 92.9263 233.033 93.0019Z" fill="#F5B79D"/>
<path d="M234.982 85.8332C235.613 91.0334 232.821 92.4265 230.463 91.7832C228.671 91.295 226.979 88.9506 229.687 84.6261L234.982 85.8332Z" fill="#FFD4C2"/>
<path d="M235.77 88.2744C235.654 87.7784 234.91 88.2337 234.91 88.2337L234.269 89.8264C235.494 90.1131 235.885 88.7685 235.77 88.2744Z" fill="#FFD4C2"/>
<path d="M235.32 88.5185C235.232 88.4701 235.098 88.4837 235.046 88.5786C235.022 88.6193 235.079 88.6619 235.108 88.6212C235.129 88.5902 235.17 88.5767 235.205 88.5902C235.236 88.6018 235.263 88.6406 235.277 88.6716C235.318 88.7646 235.269 88.8731 235.228 88.9564C235.189 89.0397 235.137 89.1211 235.079 89.1928C235.017 89.2703 234.933 89.3245 234.871 89.4001C234.813 89.4718 234.908 89.5842 234.989 89.5377C235.052 89.5028 235.098 89.4447 235.145 89.3923C235.187 89.3439 235.226 89.2897 235.261 89.2354C235.333 89.123 235.393 88.9971 235.423 88.8673C235.45 88.751 235.438 88.5844 235.32 88.5185Z" fill="#F2E0D5"/>
<path d="M233.291 92.9767C233.06 93.3546 232.6 93.8292 231.762 93.7421C230.775 93.6394 230.229 93.1007 230.025 92.8004C230.173 92.7772 230.342 92.7365 230.453 92.7268C230.888 93.4534 232.413 93.6297 232.911 92.938C233.029 92.9283 233.163 92.9593 233.291 92.9767ZM233.383 92.9981C233.383 92.9981 229.388 107.337 231.451 109.143C233.517 110.949 235.922 109.901 235.922 109.901C234.304 105.113 237.305 97.1482 235.508 94.364C234.781 93.2402 233.383 92.9981 233.383 92.9981ZM229.771 92.8547C229.878 93.1724 229.219 101.182 228.875 105.679C228.761 107.175 227.379 106.874 226.855 106.634C226.971 100.523 228.094 100.558 227.712 93.9009C227.673 93.2402 229.771 92.8547 229.771 92.8547Z" fill="#CF493E"/>
<path d="M235.314 88.2512C235.314 88.2512 234.91 88.9158 234.797 88.8886C234.541 88.8286 234.548 86.7961 234.548 86.7961C234.548 86.7961 234.389 87.9606 234.183 87.9741C233.997 87.9877 233.058 87.4839 232.957 87.0054C232.93 86.8756 233.056 85.9649 233.056 85.9649C233.056 85.9649 232.732 86.7884 232.582 86.8562C232.431 86.924 230.907 86.5811 230.785 86.3854C230.733 86.3021 230.803 85.343 230.803 85.343C230.803 85.343 230.55 86.3505 230.437 86.4144C230.327 86.4784 229.252 86.5268 229.188 86.3931C229.122 86.2556 229.227 85.6317 229.227 85.6317C229.227 85.6317 228.864 86.645 228.545 86.5539C228.292 86.4823 228.805 84.7463 228.805 84.7463C228.805 84.7463 230.55 83.5644 232.526 84.227C234.504 84.8896 236.275 86.3369 235.314 88.2512Z" fill="#232E38"/>
<path d="M232.961 88.5905C232.994 88.3305 232.874 88.1009 232.692 88.0777C232.51 88.0545 232.335 88.2465 232.302 88.5066C232.268 88.7666 232.389 88.9962 232.571 89.0194C232.753 89.0426 232.928 88.8506 232.961 88.5905Z" fill="#3D1A10"/>
<path d="M229.731 88.0953C229.746 87.8625 229.627 87.6652 229.464 87.6546C229.301 87.6439 229.157 87.824 229.142 88.0568C229.126 88.2896 229.246 88.4869 229.409 88.4975C229.572 88.5081 229.716 88.328 229.731 88.0953Z" fill="#3D1A10"/>
<path d="M230.523 88.6097C230.707 88.3617 231.012 88.1737 231.061 87.8405C231.073 87.7862 231.154 87.7901 231.158 87.8463C231.298 88.2861 230.744 88.4818 230.694 88.7976C230.63 89.1909 231.137 89.3498 230.939 89.342C230.698 89.3304 230.278 89.063 230.523 88.6097Z" fill="#EDD0BE"/>
<path d="M232.244 87.699C232.264 87.6816 232.287 87.6661 232.308 87.6506C232.357 87.6176 232.409 87.5944 232.466 87.5769C232.571 87.544 232.683 87.5421 232.788 87.5653C232.996 87.6118 233.14 87.7784 233.206 87.9722C233.229 88.0419 233.113 88.0826 233.083 88.0148C233.052 87.9412 233.01 87.8869 232.944 87.8424C232.883 87.8036 232.813 87.7707 232.747 87.7629C232.71 87.7591 232.677 87.7591 232.648 87.7629C232.627 87.7668 232.606 87.7707 232.586 87.7765C232.565 87.7823 232.565 87.7823 232.547 87.7901C232.51 87.8056 232.479 87.823 232.456 87.8404C232.411 87.8734 232.38 87.9199 232.322 87.9315C232.254 87.947 232.17 87.8869 232.182 87.8114C232.19 87.7629 232.209 87.73 232.244 87.699ZM229.87 87.3231C229.854 87.3057 229.837 87.2902 229.818 87.2747C229.777 87.2398 229.734 87.2146 229.685 87.1933C229.596 87.1526 229.497 87.1391 229.4 87.1487C229.211 87.1681 229.068 87.2999 228.988 87.4665C228.961 87.5246 229.06 87.5731 229.091 87.5169C229.126 87.4549 229.169 87.4103 229.233 87.3793C229.289 87.3502 229.355 87.3289 229.413 87.3289C229.446 87.3289 229.476 87.3309 229.503 87.3386C229.522 87.3444 229.54 87.3502 229.557 87.3561C229.575 87.3638 229.575 87.3638 229.59 87.3716C229.621 87.389 229.647 87.4084 229.666 87.4258C229.703 87.4607 229.724 87.5033 229.775 87.5207C229.835 87.5401 229.913 87.4956 229.911 87.4277C229.913 87.3851 229.899 87.3541 229.87 87.3231Z" fill="#70301D"/>
<path d="M230.091 89.8652C230.08 90.0434 230.144 90.2081 230.261 90.336C230.385 90.4735 230.569 90.5665 230.777 90.5801C231.003 90.5956 231.209 90.5142 231.352 90.3786C231.467 90.2701 231.541 90.1228 231.552 89.9601C231.576 89.59 231.09 89.838 230.816 89.8206C230.589 89.8051 230.115 89.4951 230.091 89.8652Z" fill="#942525"/>
<path d="M230.26 90.3359C230.385 90.4735 230.569 90.5665 230.777 90.58C231.003 90.5955 231.209 90.5142 231.352 90.3785C231.249 90.2603 231.057 90.1751 230.832 90.1615C230.589 90.1441 230.371 90.2158 230.26 90.3359Z" fill="#FF7878"/>
<path d="M233.408 89.5089C233.42 89.3263 233.068 89.1547 232.622 89.1256C232.175 89.0964 231.804 89.2208 231.792 89.4034C231.78 89.586 232.132 89.7576 232.578 89.7868C233.025 89.8159 233.396 89.6915 233.408 89.5089Z" fill="#FFB394"/>
<path d="M229.891 89.0623C229.901 88.917 229.622 88.7806 229.269 88.7576C228.915 88.7345 228.621 88.8335 228.612 88.9788C228.602 89.124 228.881 89.2604 229.234 89.2834C229.587 89.3065 229.882 89.2075 229.891 89.0623Z" fill="#FFB394"/>
<path d="M232.549 88.4837C232.601 88.4837 232.642 88.442 232.642 88.3907C232.642 88.3393 232.601 88.2977 232.549 88.2977C232.498 88.2977 232.456 88.3393 232.456 88.3907C232.456 88.442 232.498 88.4837 232.549 88.4837Z" fill="white"/>
<path d="M229.386 88.0128C229.431 88.0128 229.468 87.9764 229.468 87.9315C229.468 87.8865 229.431 87.8501 229.386 87.8501C229.341 87.8501 229.305 87.8865 229.305 87.9315C229.305 87.9764 229.341 88.0128 229.386 88.0128Z" fill="white"/>
<path d="M234.529 93.9843C232.639 94.2013 228.877 95.5556 227.238 95.6951C227.01 95.8617 227.191 98.5897 227.535 98.9559C228.232 99.7018 233.068 98.3165 234.521 97.7256C236.027 97.1153 235.473 93.8777 234.529 93.9843Z" fill="#CF493E"/>
<path d="M222.802 92.3297L221.374 93.9823C221.331 93.961 226.252 98.8145 228.042 99.1419L228.368 95.7842C228.368 95.7842 223.758 93.0737 222.802 92.3297Z" fill="#CF493E"/>
<path d="M224.261 108.512C224.246 108.672 223.756 108.659 223.379 108.622C223.002 108.585 222.711 108.424 222.726 108.264C222.742 108.103 223.06 108 223.437 108.037C223.814 108.072 224.277 108.349 224.261 108.512ZM222.668 107.214C222.668 107.214 222.256 107.586 222.363 107.725C222.47 107.865 223.059 107.456 223.059 107.456L222.668 107.214Z" fill="#FFD4C2"/>
<path d="M50.8415 89.6036C50.2839 89.2316 50.1557 90.7816 49.4388 90.954C49.2989 90.8688 49.2309 90.2604 49.0444 90.3689C48.6675 90.5878 49.0367 91.543 49.0211 91.9673L50.1441 92.5176C50.6783 92.0797 51.8693 90.2895 50.8415 89.6036Z" fill="#FFD0BD"/>
<path d="M45.1724 96.5359C46.2895 95.8617 47.7563 93.6781 49.1979 91.6069L50.2529 92.194C50.2529 92.194 49.6156 96.9428 47.8749 98.1286L45.1724 96.5359Z" fill="#FFD0BD"/>
<path d="M46.8685 95.8268L47.8768 98.1286C46.4197 98.9675 40.0259 97.6868 39.8569 96.7684C39.5071 94.8736 41.244 93.0988 41.244 93.0988L46.8685 95.8268Z" fill="#FFD0BD"/>
<path d="M42.5904 98.082C43.8416 98.5354 45.1743 98.516 45.1743 98.516C45.6154 98.2409 46.1224 96.5998 45.9184 94.9956C43.7872 94.2613 41.5141 92.8702 40.1813 92.9167C40.1813 92.9167 38.6698 94.9704 38.9865 96.0903C39.1613 96.7161 41.0012 97.5066 42.5904 98.082Z" fill="#CF493E"/>
<path d="M45.1724 98.5161C45.1724 98.5161 43.5832 97.7198 43.1422 96.255C42.7011 94.7903 41.3101 94.6062 41.3101 94.6062L42.5885 98.0801C43.8416 98.5354 45.1724 98.5161 45.1724 98.5161Z" fill="#D4C8BC"/>
<path d="M46.0136 130.525C46.0136 130.514 46.0117 130.506 46.0059 130.496C45.967 129.76 43.9659 129.919 43.6045 128.524C43.0023 127.331 42.0347 130.006 41.4305 128.392C40.9837 128.334 41.0556 129.189 41.0206 129.222C40.8982 129.349 40.7991 129.888 40.906 129.987C40.667 131.709 41.9512 130.593 44.3059 131.029C46.3789 131.316 45.9961 130.783 46.0136 130.525ZM36.556 128.402L34.3237 128.588C34.3237 128.588 33.2435 130.57 33.906 131.087C34.5685 131.605 36.7367 131.299 36.9737 130.959C37.3759 130.384 36.556 128.402 36.556 128.402Z" fill="#244B63"/>
<path d="M44.0592 128.974C43.0081 129.163 41.9493 129.15 40.8865 128.974L39.1788 116.126L43.4355 114.632C43.7755 119.625 44.0592 128.974 44.0592 128.974Z" fill="#FFB53D"/>
<path d="M43.554 117.378L39.4275 117.833L37.1661 103.966C37.1661 103.966 42.8022 102.873 43.0508 105.038L43.554 117.378ZM37.3293 128.974C36.2316 129.163 34.7647 129.15 33.5854 128.974L33.6923 115.388L38.322 114.396C38.0112 119.639 37.3293 128.974 37.3293 128.974Z" fill="#FFB53D"/>
<path d="M39.4761 104.91L38.0597 117.436L33.704 117.329L33.6923 112.945V112.937L33.6768 107.119L33.6729 105.842C33.6729 105.84 39.5052 102.624 39.4761 104.91Z" fill="#FFB53D"/>
<path d="M37.5896 108.087C37.5896 108.087 35.7808 108.791 34.7317 109.056C33.9468 109.254 33.7428 111.71 33.6904 112.935L33.6748 107.117L37.5896 108.087Z" fill="#D4C8BC"/>
<path d="M36.6182 92.5737C37.9257 94.2477 39.4294 93.806 39.2779 92.657C39.1186 92.5079 39.0506 92.3296 39.0273 92.1165C38.9981 91.8472 39.0389 91.5275 39.0506 91.1555C39.0525 91.0935 39.0545 91.0276 39.0545 90.9617L38.8719 90.9385L38.4367 90.8823L37.0514 90.704C37.0456 90.8222 37.0417 90.9462 37.0378 91.0741C37.0242 91.5042 37.0067 91.9654 36.8785 92.2695C36.8222 92.409 36.7367 92.5175 36.6182 92.5737Z" fill="#FFD0BD"/>
<path d="M40.9371 107.824L40.9312 107.826C38.0675 108.295 33.8108 108.202 33.1172 106.993C34.4597 104.015 34.211 101.961 33.7098 100.244C33.1503 98.332 32.274 96.8362 32.9268 94.9414C33.3776 93.6336 34.8794 92.6571 36.5249 92.4284C36.659 92.411 36.7814 92.3354 36.9174 92.2947C37.1719 92.7501 38.1841 93.1666 38.6426 93.0678C39.002 92.9922 39.173 92.4362 39.173 92.4362C39.2429 92.4517 39.3109 92.4691 39.3809 92.4827C40.6107 92.721 41.3179 93.0058 41.7977 93.2887C43.6667 94.3892 41.9551 102.207 43.556 106.572C43.7483 107.103 42.571 107.556 40.9371 107.824Z" fill="#CF493E"/>
<path d="M40.9371 107.824L40.9312 107.826C38.0675 108.295 33.8108 108.202 33.1172 106.993C34.4597 104.015 34.211 101.961 33.7098 100.244L35.7983 97.1792C35.7983 97.1792 36.2005 99.6747 35.7983 101.192C35.3961 102.707 35.5011 104.084 37.44 105.598C39.3809 107.109 40.9371 107.824 40.9371 107.824Z" fill="#D4C8BC"/>
<path d="M36.5249 92.4265C36.9543 92.8566 37.7431 93.5057 38.5396 93.4301C39.2779 93.3604 39.3945 92.8527 39.377 92.4827C39.309 92.4652 39.241 92.4497 39.1691 92.4362C39.1691 92.4362 38.9981 92.9922 38.6407 93.0697C38.1841 93.1686 37.1699 92.7501 36.9154 92.2947C36.7814 92.3335 36.6512 92.3781 36.5249 92.4265Z" fill="white"/>
<path d="M40.3678 84.2851C40.3678 84.2851 42.0989 86.8038 41.654 89.1676C41.4266 90.3747 40.4669 91.6999 38.9806 91.758C36.624 91.851 35.8624 90.3127 35.6079 89.3768C35.2019 87.885 35.0464 86.3175 35.2543 85.3875L40.3678 84.2851Z" fill="#FFDBCC"/>
<path d="M37.5707 88.6093C37.7508 88.5885 37.8728 88.364 37.8432 88.1079C37.8135 87.8517 37.6434 87.6608 37.4633 87.6816C37.2831 87.7023 37.1612 87.9268 37.1908 88.183C37.2205 88.4392 37.3906 88.63 37.5707 88.6093Z" fill="#222731"/>
<path d="M40.6779 88.1594C40.8387 88.1509 40.9591 87.9587 40.947 87.73C40.9348 87.5013 40.7947 87.3228 40.634 87.3313C40.4732 87.3398 40.3528 87.5321 40.3649 87.7607C40.3771 87.9894 40.5172 88.1679 40.6779 88.1594Z" fill="#222731"/>
<path d="M39.5868 88.2473C39.41 87.9993 39.1108 87.8133 39.0661 87.4839C39.0564 87.4316 38.9748 87.4335 38.9709 87.4878C38.8291 87.9199 39.3692 88.1194 39.4178 88.4294C39.4761 88.8169 38.9748 88.968 39.171 88.9622C39.4061 88.9545 39.8199 88.6968 39.5868 88.2473Z" fill="#F2E0D5"/>
<path d="M37.9024 87.3309C37.883 87.3134 37.8616 87.2979 37.8402 87.2824C37.7916 87.2495 37.7411 87.2263 37.6867 87.2069C37.5838 87.172 37.473 87.1681 37.3681 87.1914C37.1641 87.234 37.0203 87.3968 36.9523 87.5866C36.929 87.6544 37.0437 87.6971 37.0728 87.6293C37.1039 87.5576 37.1466 87.5033 37.2127 87.4626C37.271 87.4258 37.3409 87.3929 37.407 87.3851C37.4439 87.3813 37.475 87.3813 37.506 87.3851C37.5274 87.389 37.5468 87.3929 37.5682 87.3987C37.5896 87.4045 37.5896 87.4045 37.6071 87.4123C37.644 87.4278 37.6731 87.4452 37.6964 87.4626C37.7411 87.4956 37.7703 87.5401 37.8266 87.5537C37.8946 87.5692 37.9762 87.5111 37.9665 87.4355C37.9548 87.3948 37.9374 87.3619 37.9024 87.3309ZM40.2435 86.9879C40.259 86.9705 40.2765 86.955 40.294 86.9395C40.3348 86.9066 40.3775 86.8814 40.4242 86.8601C40.5116 86.8213 40.6107 86.8097 40.7059 86.8213C40.8904 86.8426 41.0323 86.9744 41.108 87.1391C41.1352 87.1972 41.0361 87.2437 41.0051 87.1875C40.972 87.1255 40.9293 87.0829 40.8671 87.0499C40.8108 87.0209 40.7467 86.9996 40.6903 86.9976C40.6573 86.9976 40.6301 86.9996 40.6029 87.0054C40.5854 87.0093 40.566 87.0151 40.5485 87.0228C40.531 87.0306 40.531 87.0306 40.5155 87.0383C40.4844 87.0558 40.4591 87.0732 40.4397 87.0906C40.4028 87.1236 40.3814 87.1662 40.3309 87.1817C40.2726 87.2011 40.1949 87.1565 40.1988 87.0887C40.2007 87.0499 40.2143 87.0189 40.2435 86.9879Z" fill="#232E38"/>
<path d="M39.818 89.6016C39.8394 89.776 39.785 89.9426 39.6781 90.0744C39.5635 90.2158 39.3886 90.3185 39.1827 90.3437C38.9632 90.3708 38.7553 90.303 38.6057 90.1771C38.4872 90.0763 38.4056 89.9368 38.3861 89.7779C38.3415 89.4156 38.8349 89.6326 39.1011 89.5997C39.3245 89.5706 39.7733 89.2413 39.818 89.6016Z" fill="#942525"/>
<path d="M39.6762 90.0744C39.5615 90.2158 39.3867 90.3185 39.1808 90.3437C38.9612 90.3708 38.7533 90.303 38.6037 90.1771C38.6989 90.0569 38.8835 89.962 39.103 89.9349C39.344 89.9039 39.5615 89.9639 39.6762 90.0744Z" fill="#FF7878"/>
<path d="M37.5422 89.3706C37.9526 89.3489 38.278 89.1953 38.2691 89.0276C38.2602 88.8598 37.9203 88.7414 37.5099 88.7631C37.0996 88.7847 36.7741 88.9383 36.783 89.1061C36.7919 89.2738 37.1318 89.3923 37.5422 89.3706Z" fill="#FFB394"/>
<path d="M40.8387 88.8098C41.186 88.7788 41.4573 88.6387 41.4445 88.4969C41.4318 88.3552 41.1399 88.2655 40.7925 88.2965C40.4452 88.3276 40.174 88.4677 40.1867 88.6094C40.1995 88.7512 40.4914 88.8409 40.8387 88.8098Z" fill="#FFB394"/>
<path d="M37.5935 88.0981C37.6439 88.0981 37.6848 88.0574 37.6848 88.0071C37.6848 87.9568 37.6439 87.916 37.5935 87.916C37.543 87.916 37.5022 87.9568 37.5022 88.0071C37.5022 88.0574 37.543 88.0981 37.5935 88.0981Z" fill="white"/>
<path d="M40.7117 87.6757C40.7568 87.6757 40.7933 87.6393 40.7933 87.5944C40.7933 87.5494 40.7568 87.513 40.7117 87.513C40.6666 87.513 40.6301 87.5494 40.6301 87.5944C40.6301 87.6393 40.6666 87.6757 40.7117 87.6757Z" fill="white"/>
<path d="M34.5996 87.7068C34.7861 87.2553 35.2621 87.6719 35.3573 87.8385C35.5593 88.1911 35.7828 89.4098 35.7828 89.4098C34.5782 89.4931 34.4131 88.1582 34.5996 87.7068Z" fill="#FFDBCC"/>
<path d="M34.8289 88.04C34.9085 87.9857 35.0367 87.9877 35.095 88.0749C35.1203 88.1117 35.0698 88.1562 35.0387 88.1214C35.0154 88.0942 34.9765 88.0845 34.9415 88.1C34.9124 88.1136 34.8891 88.1524 34.8794 88.1834C34.8483 88.2744 34.9046 88.3752 34.9493 88.4527C34.994 88.5302 35.0503 88.6019 35.1106 88.6658C35.1766 88.7336 35.2602 88.7801 35.3262 88.8479C35.3884 88.9119 35.3048 89.0262 35.2252 88.9894C35.163 88.9603 35.1125 88.9099 35.0639 88.8634C35.0192 88.8189 34.9784 88.7724 34.9396 88.722C34.8619 88.6212 34.7919 88.505 34.7531 88.3829C34.7239 88.2725 34.722 88.1117 34.8289 88.04Z" fill="#F2E0D5"/>
<path d="M34.5569 86.0541C34.6967 85.8448 34.9027 85.6918 35.1047 85.5426C35.0659 85.0989 35.2388 84.6397 35.5652 84.3316C35.8896 84.0236 36.3578 83.8744 36.8008 83.9364C36.931 83.4598 37.337 83.0665 37.8188 82.9521C38.3007 82.8378 38.8408 83.0045 39.173 83.3726C39.2565 83.2156 39.7481 83.0219 40.4203 83.2156C40.9701 83.3745 41.3081 83.8918 41.0886 84.4053C41.0886 84.4053 41.6151 84.5971 41.5121 85.2965C41.3684 86.2595 40.1832 85.9281 40.0647 85.8003C39.8666 86.0425 39.7617 86.4571 39.1302 86.4048C38.8175 86.3796 38.5493 86.1258 38.4425 85.8313C38.4095 86.1141 38.2346 86.3776 37.984 86.5171C37.7334 86.6566 37.4167 86.6663 37.1583 86.5443C37.4147 87.2146 36.2413 87.4704 36.0295 87.1216C35.8275 87.3755 35.8741 88.2512 35.9732 88.7317C35.4719 88.6523 34.8968 87.8986 34.6113 87.482C34.3218 87.0635 34.2751 86.4745 34.5569 86.0541Z" fill="#232E38"/>
<path d="M32.206 101.938L37.5915 105.136L37.1835 106.384C35.9518 106.066 31.0481 105.15 30.8869 103.763L32.206 101.938Z" fill="#FFDBCC"/>
<path d="M30.9626 104.007L33.4728 102.908L35.7964 95.883C35.7964 95.883 33.7836 94.1664 32.7384 95.3657C31.6232 96.6483 30.3992 102.829 30.9626 104.007Z" fill="#FFDBCC"/>
<path d="M30.8849 99.4732C31.5494 100.363 33.8885 100.934 34.4869 100.934C34.4869 100.934 37.5663 94.7883 35.6487 93.7033C32.4489 91.8918 30.8849 99.4732 30.8849 99.4732Z" fill="#CF493E"/>
<path d="M39.8627 105.973C39.8743 105.603 38.8621 105.731 38.73 105.609C38.3764 105.284 39.546 104.991 38.9029 104.782C38.6795 104.71 37.7489 105.166 37.4555 105.055L36.9931 106.287C38.5591 107.514 39.8122 107.638 39.8627 105.973Z" fill="#FFDBCC"/>
<path d="M57.5209 86.3951C58.3117 86.3951 58.9528 85.7557 58.9528 84.9671C58.9528 84.1785 58.3117 83.5392 57.5209 83.5392C56.7301 83.5392 56.0891 84.1785 56.0891 84.9671C56.0891 85.7557 56.7301 86.3951 57.5209 86.3951Z" fill="#B32020"/>
<path d="M47.2124 84.8334L48.0206 88.8344C47.0589 88.8169 46.204 88.1349 46.0059 87.1565C45.8077 86.1761 46.3323 85.2209 47.2124 84.8334Z" fill="#FFBC47"/>
<path d="M46.8238 85.0582L47.2182 87.0092C47.3367 87.5982 46.6548 88.0303 46.1827 87.6583C46.1788 87.6564 46.1749 87.6525 46.1729 87.6506C46.5129 88.3577 47.2318 88.8208 48.0206 88.8344L47.2124 84.8334C47.0725 84.8935 46.9442 84.971 46.8238 85.0582Z" fill="#FFB129"/>
<path d="M50.1149 86.3311C50.3442 87.4626 49.6098 88.565 48.4732 88.7937C48.3198 88.8247 48.1682 88.8382 48.0186 88.8343L47.2104 84.8334C47.3464 84.7733 47.4921 84.7268 47.6456 84.6958C48.7821 84.4672 49.8857 85.1996 50.1149 86.3311Z" fill="#FFBC47"/>
<path d="M58.1776 89.9C56.1163 88.4643 51.7313 88.6038 48.7141 88.6038L47.9429 84.7792C50.6725 83.6806 54.6048 82.241 56.1668 79.9335L58.1776 89.9Z" fill="#FFBC47"/>
<path d="M55.0652 81.1386C55.6869 84.2154 53.2856 87.0732 50.1402 87.0015C49.5437 86.988 48.9551 86.986 48.3897 86.986L48.7161 88.6019C51.7333 88.6019 56.1202 88.4624 58.1795 89.8981L56.1687 79.9316C55.8754 80.3636 55.4985 80.7647 55.0652 81.1386Z" fill="#FFB129"/>
<path d="M50.4491 83.6399L51.4671 88.6833C51.4904 88.8034 51.4127 88.9177 51.2942 88.9429L48.3858 89.5261C48.2654 89.5493 48.1488 89.4738 48.1255 89.3536L47.1074 84.3103C47.0841 84.1921 47.1618 84.0759 47.2804 84.0507L50.1887 83.4675C50.3092 83.4443 50.4258 83.5218 50.4491 83.6399Z" fill="#CF493E"/>
<path d="M51.6847 93.5541L49.8138 93.93C49.5651 93.9803 49.33 93.7982 49.3164 93.5444L49.1085 89.3691L50.5656 89.0765L51.9936 93.0077C52.0791 93.2441 51.9334 93.5037 51.6847 93.5541Z" fill="#CF493E"/>
<path d="M51.9936 93.0058L50.5657 89.0746L50.0061 89.187L50.7114 92.382C50.7968 92.6203 50.6511 92.878 50.4025 92.9283L49.2951 93.1511L49.3145 93.5445C49.3261 93.7963 49.5612 93.9804 49.8118 93.93L51.6828 93.5541C51.9334 93.5038 52.0791 93.2441 51.9936 93.0058Z" fill="#B32020"/>
<path d="M56.5637 79.8501L56.1695 79.9292L58.1813 89.8973L58.5756 89.8182L56.5637 79.8501Z" fill="#CF493E"/>
<path d="M49.9284 84.4208L47.8885 84.8296C47.8379 84.8393 47.7913 84.8083 47.7797 84.7579L47.7719 84.725C47.7622 84.6746 47.7933 84.6281 47.8438 84.6165L49.8837 84.2076C49.9342 84.198 49.9809 84.229 49.9925 84.2793L50.0003 84.3123C50.0119 84.3626 49.9789 84.4111 49.9284 84.4208ZM50.0799 85.1706L48.04 85.5794C47.9895 85.5891 47.9429 85.5581 47.9312 85.5077L47.9234 85.4748C47.9137 85.4244 47.9448 85.3779 47.9953 85.3663L50.0353 84.9575C50.0858 84.9478 50.1324 84.9788 50.1441 85.0291L50.1518 85.0621C50.1615 85.1125 50.1305 85.1609 50.0799 85.1706ZM50.2315 85.9204L48.1915 86.3292C48.141 86.3389 48.0944 86.3079 48.0827 86.2575L48.075 86.2246C48.0652 86.1742 48.0963 86.1277 48.1468 86.1161L50.1868 85.7073C50.2373 85.6976 50.2839 85.7286 50.2956 85.779L50.3034 85.8119C50.3131 85.8623 50.282 85.9107 50.2315 85.9204ZM50.383 86.6702L48.3431 87.079C48.2926 87.0887 48.2459 87.0577 48.2343 87.0073L48.2265 86.9744C48.2168 86.924 48.2479 86.8775 48.2984 86.8659L50.3383 86.4571C50.3889 86.4474 50.4355 86.4784 50.4471 86.5288L50.4549 86.5617C50.4646 86.6121 50.4335 86.6605 50.383 86.6702ZM50.5346 87.42L48.4946 87.8288C48.4441 87.8385 48.3975 87.8075 48.3858 87.7571L48.378 87.7242C48.3683 87.6738 48.3994 87.6273 48.4499 87.6157L50.4899 87.2069C50.5404 87.1972 50.587 87.2282 50.5987 87.2786L50.6065 87.3115C50.6162 87.3619 50.5851 87.4103 50.5346 87.42ZM50.6861 88.1698L48.6462 88.5786C48.5956 88.5883 48.549 88.5573 48.5374 88.507L48.5296 88.474C48.5199 88.4236 48.551 88.3771 48.6015 88.3655L50.6414 87.9567C50.6919 87.947 50.7386 87.978 50.7502 88.0284L50.758 88.0613C50.7677 88.1117 50.7347 88.1601 50.6861 88.1698Z" fill="#B32020"/>
<path d="M59.3608 82.4813C59.3239 82.4484 59.2714 82.4503 59.2364 82.4852C59.0868 82.6305 58.9431 82.7855 58.811 82.9463C58.7818 82.9812 58.776 83.0374 58.8148 83.0703C58.8479 83.0994 58.9081 83.1052 58.9392 83.0664C59.0732 82.9056 59.2151 82.7506 59.3647 82.6053C59.3957 82.5724 59.3957 82.5104 59.3608 82.4813Z" fill="#CF493E"/>
<path d="M60.2164 84.0323C156.15 52.4515 233.907 26.813 233.892 26.7673C233.877 26.7216 156.095 52.2859 60.1616 83.8667C-35.7717 115.448 -113.529 141.086 -113.514 141.132C-113.499 141.177 -35.7169 115.613 60.2164 84.0323Z" fill="#CF493E"/>
<path d="M60.1632 85.4709C59.9514 85.4399 59.7396 85.4108 59.5298 85.3798C59.4832 85.374 59.4385 85.4108 59.4327 85.4573C59.4268 85.5058 59.4618 85.5464 59.5104 85.5542C59.7221 85.5852 59.9339 85.6143 60.1437 85.6453C60.1904 85.6511 60.235 85.6143 60.2409 85.5678C60.2448 85.5193 60.2098 85.4786 60.1632 85.4709Z" fill="#CF493E"/>
<path d="M59.6755 88.0264C59.7732 88.0264 59.8523 87.9475 59.8523 87.8501C59.8523 87.7528 59.7732 87.6738 59.6755 87.6738C59.5779 87.6738 59.4987 87.7528 59.4987 87.8501C59.4987 87.9475 59.5779 88.0264 59.6755 88.0264Z" fill="#FFC257"/>
<path d="M51.1894 90.808C51.3211 90.7657 51.3383 90.454 51.2277 90.1117C51.1171 89.7695 50.9207 89.5264 50.7889 89.5688C50.6572 89.6111 50.64 89.9229 50.7506 90.2651C50.8612 90.6073 51.0576 90.8504 51.1894 90.808Z" fill="#FFD0BD"/>
<path d="M49.2251 90.0976C48.9551 90.1848 48.8579 90.8068 48.8579 90.8068L49.1921 91.0044C49.1901 91.0044 49.4952 90.0105 49.2251 90.0976Z" fill="#FFD0BD"/>
<path d="M147.318 79.9354C147.318 79.9354 142.585 80.6329 142.665 80.5864C142.746 80.5399 151.328 84.9284 151.328 84.9284L159.783 81.1502L155.59 79.9354H147.318Z" fill="#C22323"/>
<path d="M149.136 86.3757C149.113 86.3757 149.088 86.3757 149.066 86.3757C149.051 86.3757 149.037 86.3757 149.022 86.3757C147.817 86.3892 147.03 86.3602 147.03 86.3602C147.03 86.3602 146.972 86.3737 146.867 86.3951C145.837 86.6082 140.287 87.6622 140.759 85.5774C141.173 83.7465 144.505 83.9732 145.839 84.1417C145.845 84.1417 145.849 84.1417 145.853 84.1437C146.187 84.1863 146.391 84.2231 146.391 84.2231C146.391 84.2231 147.054 83.9383 148.099 83.5353C148.142 83.5179 148.186 83.5004 148.231 83.483C151.676 82.15 158.922 79.6216 160.797 81.1406C160.797 81.1425 160.797 81.1425 160.797 81.1425C160.818 81.158 160.838 81.1754 160.857 81.1929C160.859 81.1929 160.861 81.1929 160.861 81.1948C160.881 81.2142 160.9 81.2336 160.92 81.2529C160.935 81.2684 160.953 81.2859 160.966 81.3072C160.972 81.313 160.978 81.3207 160.984 81.3266C161.005 81.3517 161.024 81.3789 161.042 81.4079C161.042 81.4099 161.042 81.4099 161.042 81.4099C161.061 81.4389 161.081 81.4699 161.098 81.5029C161.116 81.5339 161.129 81.5649 161.143 81.5959C161.174 81.6637 161.197 81.7373 161.213 81.8148C161.23 81.8923 161.244 81.9698 161.254 82.0454C161.271 82.181 161.277 82.3108 161.271 82.4406C161.122 85.808 153.061 86.3234 149.136 86.3757Z" fill="#FFD4C2"/>
<path d="M149.199 86.769L149.064 86.3776L149.006 86.2071C149.006 86.2051 149.006 86.2051 149.006 86.2051L148.101 83.5353L147.971 83.1516C151.419 81.8167 158.889 79.5537 160.797 81.1386V81.1405C160.818 81.158 160.838 81.1754 160.857 81.1948C160.859 81.1948 160.861 81.1948 160.861 81.1967C160.881 81.2161 160.9 81.2355 160.92 81.2548C160.935 81.2703 160.953 81.2878 160.966 81.3091C160.972 81.3149 160.978 81.3226 160.984 81.3285C161.005 81.3536 161.024 81.3808 161.042 81.4098C161.042 81.4118 161.042 81.4118 161.042 81.4118C161.061 81.4408 161.081 81.4718 161.098 81.5048C161.116 81.5358 161.129 81.5668 161.143 81.5978C161.174 81.6656 161.197 81.7392 161.213 81.8167C161.23 81.8942 161.244 81.9717 161.254 82.0473C161.271 82.1829 161.277 82.3127 161.271 82.4425C161.133 85.8486 153.127 86.7166 149.199 86.769Z" fill="#C22323"/>
<path d="M146.391 84.2328C146.391 84.2328 140.112 83.0083 139.838 85.6569C139.545 88.5011 147.03 86.3718 147.03 86.3718C147.03 86.3718 144.143 87.0015 144.281 85.3876C144.411 83.824 146.391 84.2328 146.391 84.2328Z" fill="#1C5063"/>
<path d="M155.721 73.4855C154.489 75.2118 155.59 79.9354 155.59 79.9354H147.318C147.547 79.6119 148.19 75.5412 146.739 73.2956C144.398 69.6744 146.92 66.8592 146.92 66.8592L150.36 66.2354L150.58 65.1426L150.731 64.3909L150.766 64.2165H152.315L152.371 64.5439L152.492 65.2589L152.67 66.3148L155.833 66.9987C155.833 66.9987 158.543 69.5311 155.721 73.4855Z" fill="#FFD4C2"/>
<path d="M155.721 73.4874C154.487 75.2137 155.592 79.9354 155.592 79.9354H147.318C147.512 79.6603 148.008 76.6649 147.254 74.3981C147.122 74.0009 146.953 73.6289 146.739 73.2956C144.398 69.6764 146.92 66.8612 146.92 66.8612L150.362 66.2373C150.494 67.0046 152.371 66.96 152.672 66.3167L155.835 67.0026C155.833 67.0007 158.543 69.5311 155.721 73.4874Z" fill="#FFBC47"/>
<path d="M147.318 79.9354C147.512 79.6603 148.008 76.6649 147.254 74.398C148.886 73.9253 148.61 78.4416 151.328 79.9354H147.318Z" fill="#C4626E"/>
<path d="M160.22 77.0757C160.135 77.6104 159.756 78.1897 159.198 78.7632C157.768 80.228 154.858 80.1621 152.861 80.693L152.653 79.6312C152.653 79.6312 156.218 78.6276 156.985 77.3818C157.067 77.2481 157.123 77.1241 157.147 77.0137C157.407 75.7717 155.963 74.2159 155.963 74.2159L155.81 67.0007C155.808 67.0026 160.653 74.3593 160.22 77.0757Z" fill="#FFD4C2"/>
<path d="M160.267 77.0757C160.173 77.5794 159.872 78.211 159.369 78.7613C159.317 78.8194 159.227 78.8291 159.163 78.7865L158.551 78.3893L156.945 77.3508C157.026 77.219 157.067 77.0854 157.09 76.973C157.351 75.731 155.039 73.8071 155.039 73.8071L155.594 66.9561C156.338 66.9232 157.562 68.6165 158.578 70.6955C158.578 70.6955 158.578 70.6974 158.58 70.7032C159.678 72.9527 160.531 75.6439 160.267 77.0757Z" fill="#FFBC47"/>
<path d="M150.226 79.6506L150.263 80.3559C150.327 80.3346 150.321 80.2416 150.255 80.228C148.476 79.8618 145.55 80.3694 144.126 79.1624C143.248 78.4184 142.77 77.5019 142.655 76.7967C142.222 74.0784 146.949 66.867 146.949 66.867L146.774 74.0726C146.774 74.0726 145.33 75.6264 145.591 76.8703C145.635 77.0912 145.812 77.3644 146.069 77.6628C147.135 78.9105 150.226 79.6506 150.226 79.6506Z" fill="#FFD4C2"/>
<path d="M145.591 76.8684C145.635 77.0893 145.938 77.283 146.193 77.5814L144.701 78.8195L144.101 79.3174C143.222 78.5734 142.708 77.6201 142.515 76.9304C142.216 75.8706 142.641 74.059 143.358 72.261C143.362 72.2513 143.364 72.2455 143.364 72.2455C144.444 69.5311 146.183 66.8515 147.091 66.8302L147.615 74.1423C147.613 74.1423 145.33 75.6265 145.591 76.8684Z" fill="#FFBC47"/>
<path d="M161.928 85.3449C162.425 87.4665 156.764 86.4377 155.715 86.2284C155.608 86.2071 155.548 86.1955 155.548 86.1955C155.548 86.1955 154.728 86.2342 153.477 86.2284C153.451 86.2284 153.428 86.2284 153.403 86.2284C151.586 86.2187 148.899 86.1199 146.49 85.6917C143.535 85.1667 141.002 84.1495 141.006 82.1984C141.006 82.1945 141.006 82.1907 141.006 82.1887C141.006 82.1093 141.011 82.0279 141.021 81.9465C141.021 81.9446 141.021 81.9427 141.021 81.9427C141.031 81.8574 141.046 81.7722 141.064 81.685C141.081 81.6055 141.103 81.5319 141.134 81.4622C141.147 81.4292 141.161 81.3982 141.179 81.3672C141.196 81.3343 141.214 81.3033 141.235 81.2723C141.235 81.2723 141.237 81.2723 141.235 81.2703C141.252 81.2413 141.274 81.2142 141.295 81.187C141.301 81.1793 141.307 81.1715 141.313 81.1657C141.328 81.1464 141.344 81.127 141.359 81.1115C141.379 81.0921 141.398 81.0708 141.418 81.0514C141.418 81.0495 141.419 81.0475 141.421 81.0495C141.651 80.8364 141.969 80.693 142.362 80.6058C145.062 80.0071 151.192 82.1035 154.298 83.2757C154.343 83.2931 154.388 83.3105 154.432 83.328C155.501 83.731 156.179 84.0158 156.179 84.0158C156.179 84.0158 156.389 83.9751 156.727 83.9305C156.731 83.9305 156.735 83.9305 156.741 83.9286C158.1 83.7426 161.491 83.483 161.928 85.3449Z" fill="#FFD4C2"/>
<path d="M154.565 82.9347L154.436 83.3261L153.479 86.2284L153.346 86.6295C151.697 86.6218 149.342 86.4784 147.131 86.0696C147.131 86.0696 147.131 86.0696 147.129 86.0696C143.91 85.4748 140.996 84.3181 141.008 82.1984C141.008 82.1946 141.008 82.1907 141.008 82.1888C141.008 82.1093 141.013 82.028 141.023 81.9466C141.023 81.9446 141.023 81.9427 141.023 81.9427C141.033 81.8574 141.048 81.7722 141.066 81.685C141.083 81.6056 141.105 81.532 141.136 81.4622C141.149 81.4293 141.163 81.3983 141.181 81.3673C141.198 81.3343 141.215 81.3033 141.237 81.2723C141.237 81.2723 141.239 81.2723 141.237 81.2704C141.254 81.2413 141.276 81.2142 141.297 81.1871C141.303 81.1793 141.309 81.1716 141.315 81.1658C141.33 81.1464 141.346 81.127 141.361 81.1115C141.381 81.0921 141.4 81.0708 141.419 81.0514C141.419 81.0495 141.421 81.0476 141.423 81.0495C141.66 80.8228 141.996 80.6659 142.41 80.5651C145.187 79.887 151.464 81.7644 154.565 82.9347Z" fill="#CF493E"/>
<path d="M156.183 84.0216C156.183 84.0216 162.569 82.7235 162.87 85.4166C163.193 88.3112 155.552 86.2052 155.552 86.2052C155.552 86.2052 158.343 86.7322 158.19 85.0892C158.04 83.4985 156.183 84.0216 156.183 84.0216Z" fill="#1C5063"/>
<path d="M157.238 73.5688V80.3403C157.238 80.7046 156.941 81.001 156.575 81.001H146.172C145.806 81.001 145.509 80.7046 145.509 80.3403V73.5688C145.509 73.2045 145.806 72.9081 146.172 72.9081H156.575C156.943 72.91 157.238 73.2045 157.238 73.5688Z" fill="white"/>
<path d="M150.339 76.9555C150.339 76.384 150.803 75.9229 151.374 75.9229C151.948 75.9229 152.41 76.3859 152.41 76.9555C152.41 77.5271 151.946 77.9882 151.374 77.9882C150.803 77.9882 150.339 77.5252 150.339 76.9555Z" fill="#E2EDF0"/>
<path d="M157.238 73.5688V80.3403C157.238 80.7046 156.941 81.001 156.575 81.001H146.172C145.806 81.001 145.509 80.7046 145.509 80.3403C156.031 80.8228 157.238 79.2825 156.575 72.9081C156.943 72.91 157.238 73.2045 157.238 73.5688Z" fill="white"/>
<path d="M148.571 58.1521C148.571 58.1521 147.038 60.8859 147.714 63.2593C148.058 64.4703 149.164 65.7355 150.687 65.656C153.102 65.532 153.735 63.891 153.908 62.9106C154.184 61.3509 154.195 59.735 153.896 58.8031L148.571 58.1521Z" fill="#FFD4C2"/>
<path d="M152.158 61.9939C152.164 61.7446 152.027 61.5392 151.852 61.5351C151.677 61.531 151.531 61.7297 151.525 61.9789C151.519 62.2282 151.656 62.4336 151.831 62.4377C152.006 62.4419 152.152 62.2431 152.158 61.9939Z" fill="#222731"/>
<path d="M148.795 62.2737C148.951 62.2679 149.07 62.0829 149.062 61.8605C149.054 61.6381 148.921 61.4625 148.765 61.4683C148.61 61.4741 148.49 61.6591 148.499 61.8815C148.507 62.104 148.64 62.2796 148.795 62.2737Z" fill="#222731"/>
<path d="M149.851 62.2596C150.001 62.0058 150.273 61.7985 150.286 61.4769C150.292 61.4245 150.37 61.4187 150.38 61.473C150.555 61.876 150.051 62.1162 150.032 62.4204C150.009 62.8002 150.506 62.9009 150.318 62.9125C150.088 62.9261 149.665 62.7149 149.851 62.2596Z" fill="#F2E0D5"/>
<path d="M151.396 61.2269C151.413 61.2076 151.433 61.1921 151.452 61.1746C151.495 61.1378 151.542 61.1126 151.594 61.0894C151.689 61.0467 151.796 61.0351 151.899 61.0467C152.101 61.07 152.253 61.2134 152.336 61.3916C152.365 61.4556 152.258 61.5059 152.225 61.4439C152.19 61.3781 152.144 61.3296 152.076 61.2947C152.016 61.2637 151.946 61.2386 151.883 61.2386C151.848 61.2386 151.817 61.2405 151.788 61.2482C151.769 61.2541 151.749 61.2599 151.73 61.2676C151.711 61.2754 151.711 61.2754 151.695 61.2851C151.66 61.3044 151.635 61.3238 151.613 61.3432C151.575 61.38 151.549 61.4246 151.497 61.442C151.433 61.4633 151.349 61.4129 151.353 61.3413C151.349 61.2928 151.365 61.2599 151.396 61.2269ZM149.107 61.1029C149.09 61.0874 149.072 61.0739 149.053 61.0623C149.012 61.0332 148.967 61.0138 148.921 60.9983C148.833 60.9692 148.738 60.9654 148.647 60.9848C148.47 61.0216 148.346 61.1611 148.287 61.3257C148.266 61.3839 148.365 61.4207 148.39 61.3626C148.417 61.3006 148.454 61.2541 148.511 61.2192C148.561 61.1863 148.621 61.1591 148.678 61.1533C148.709 61.1494 148.736 61.1494 148.763 61.1533C148.781 61.1553 148.798 61.1611 148.816 61.1649C148.833 61.1708 148.833 61.1708 148.849 61.1766C148.88 61.1901 148.905 61.2056 148.926 61.2211C148.963 61.2502 148.989 61.2889 149.039 61.3006C149.097 61.3141 149.167 61.2637 149.16 61.1998C149.154 61.1591 149.138 61.1301 149.107 61.1029Z" fill="#0A2036"/>
<path d="M149.748 63.5868C149.742 63.7554 149.81 63.9123 149.925 64.0305C150.048 64.1584 150.226 64.2397 150.426 64.2456C150.642 64.2514 150.836 64.17 150.966 64.0344C151.071 63.9259 151.137 63.7844 151.143 63.6294C151.153 63.2768 150.698 63.5287 150.438 63.5209C150.22 63.5132 149.76 63.2342 149.748 63.5868Z" fill="white"/>
<path d="M149.925 64.0305C150.048 64.1584 150.226 64.2397 150.426 64.2455C150.642 64.2514 150.836 64.17 150.966 64.0344C150.865 63.9259 150.679 63.8503 150.463 63.8445C150.232 63.8367 150.028 63.9123 149.925 64.0305Z" fill="white"/>
<path d="M151.928 63.1864C152.354 63.1705 152.693 63.0163 152.687 62.842C152.68 62.6677 152.33 62.5393 151.904 62.5552C151.479 62.5711 151.139 62.7253 151.145 62.8996C151.152 63.0739 151.502 63.2023 151.928 63.1864Z" fill="#FFBA9E"/>
<path d="M148.708 63.0334C149.046 63.0208 149.315 62.8987 149.31 62.7608C149.305 62.6229 149.027 62.5213 148.689 62.5339C148.352 62.5465 148.082 62.6685 148.087 62.8065C148.092 62.9444 148.37 63.046 148.708 63.0334Z" fill="#FFBA9E"/>
<path d="M151.751 61.9399C151.8 61.9399 151.839 61.9009 151.839 61.8527C151.839 61.8046 151.8 61.7656 151.751 61.7656C151.703 61.7656 151.664 61.8046 151.664 61.8527C151.664 61.9009 151.703 61.9399 151.751 61.9399Z" fill="white"/>
<path d="M148.709 61.8062C148.752 61.8062 148.787 61.7715 148.787 61.7287C148.787 61.6859 148.752 61.6512 148.709 61.6512C148.666 61.6512 148.631 61.6859 148.631 61.7287C148.631 61.7715 148.666 61.8062 148.709 61.8062Z" fill="white"/>
<path d="M147.281 58.3284C147.028 58.8128 146.914 60.3144 148.375 60.5372C149.83 60.76 150.933 59.8997 151.448 59.8164C153.298 59.5219 151.911 62.1899 153.762 62.5328C153.795 62.0019 153.904 61.7404 154.1 61.2482C154.491 61.1785 154.769 61.6105 154.852 61.7888C154.852 61.7888 156.294 58.5299 154.129 57.7297C154.129 57.7297 153.684 56.8927 152.948 56.6738C151.697 56.2999 148.379 56.2224 147.281 58.3284Z" fill="#0A2036"/>
<path d="M154.78 61.1087C154.66 60.8782 154.44 60.9344 154.256 61.0409C154.087 61.1397 153.988 61.3296 154.011 61.5234C154.071 61.9903 153.807 62.4766 153.729 62.959C154.971 62.9319 155.013 61.5524 154.78 61.1087Z" fill="#FFD4C2"/>
<path d="M154.578 61.471C154.491 61.4245 154.361 61.4381 154.31 61.5311C154.287 61.5718 154.343 61.6125 154.37 61.5737C154.392 61.5427 154.43 61.5292 154.467 61.5427C154.498 61.5544 154.526 61.5912 154.539 61.6222C154.58 61.7132 154.532 61.8198 154.493 61.9031C154.454 61.9864 154.405 62.0659 154.347 62.1356C154.287 62.2112 154.205 62.2674 154.143 62.341C154.085 62.4127 154.182 62.5212 154.26 62.4766C154.32 62.4417 154.366 62.3855 154.411 62.3332C154.452 62.2848 154.491 62.2325 154.524 62.1782C154.594 62.0678 154.654 61.9419 154.681 61.814C154.706 61.6977 154.695 61.535 154.578 61.471Z" fill="#F2E0D5"/>
<path d="M96.7483 61.1068C97.302 60.4519 99.2604 59.797 100.772 61.3219C102.252 62.8157 101.514 64.8965 101.763 65.6347C102.011 66.371 103.218 66.5473 102.497 68.1438C101.252 70.9009 94.2382 70.9958 93.9099 67.8164C93.6903 65.6929 95.0483 66.1133 95.0678 64.8345C95.0872 63.5539 94.9512 61.4284 96.7483 61.1068Z" fill="#232E38"/>
<path d="M114.142 102.596C113.833 103.108 112.588 102.998 112.184 102.751C111.78 102.505 111.047 101.94 110.676 101.949C110.307 101.959 109.528 101.986 109.355 101.612C109.198 101.269 109.351 100.632 109.419 100.136C109.476 99.7367 109.103 98.1189 109.103 98.1189L111.275 98.272C111.275 98.272 111.012 99.7774 111.275 100.277C111.438 100.587 111.867 100.917 112.269 101.076C112.429 101.138 114.331 102.286 114.142 102.596Z" fill="#FAC9B4"/>
<path d="M114.506 102.633C114.197 103.145 112.59 102.997 112.184 102.751C111.78 102.505 111.047 101.94 110.676 101.949C110.307 101.959 109.528 101.986 109.355 101.612C109.198 101.269 109.351 100.632 109.419 100.136C109.419 100.136 109.602 100.568 109.864 100.888C110.127 101.209 112.396 102.23 112.71 101.258C113.26 101.283 114.692 102.323 114.506 102.633Z" fill="#CF493E"/>
<path d="M99.7247 102.325C99.1438 102.47 98.3375 101.519 98.2248 101.058C98.1122 100.599 97.9917 99.6824 97.7236 99.4305C97.4555 99.1787 96.8824 98.6497 97.0242 98.2622C97.1544 97.9077 97.7139 97.5628 98.1122 97.2605H98.1141C98.4366 97.0164 99.3148 95.6078 99.3148 95.6078L100.747 97.2431C100.747 97.2431 99.4954 98.1266 99.3303 98.6672C99.2273 99.0024 99.2973 99.5371 99.4721 99.9324C99.5401 100.085 100.078 102.236 99.7247 102.325Z" fill="#FFD4C2"/>
<path d="M99.9559 102.606C99.375 102.751 98.3395 101.517 98.2268 101.058C98.1141 100.599 97.9937 99.6824 97.7255 99.4306C97.4574 99.1787 96.8843 98.6497 97.0261 98.2622C97.1563 97.9077 97.7158 97.5628 98.1141 97.2606H98.116C98.116 97.2606 97.9393 97.6946 97.9004 98.1072C97.8596 98.5199 98.7475 100.839 99.6587 100.37C100.028 100.773 100.308 102.519 99.9559 102.606Z" fill="#CF493E"/>
<path d="M111.143 99.6417C110.206 99.7638 110.379 99.787 109.365 99.5042C108.978 97.4427 107.593 89.2838 108.471 85.3662C108.504 85.2151 111.329 83.824 111.329 83.824C113.039 85.682 111.17 98.2002 111.143 99.6417Z" fill="#FAC9B4"/>
<path d="M111.329 83.826C111.417 83.857 108.438 85.4438 108.275 85.376C106.694 84.723 99.8044 86.8911 96.8377 84.3278C96.7872 84.2851 96.0334 80.3559 98.219 80.5768C98.219 80.5787 109.313 81.9388 111.329 83.826ZM100.842 68.5836C100.859 71.889 98.3881 70.806 97.199 68.6108C97.3972 68.4306 97.5002 68.202 97.5565 67.9268C97.6304 67.58 97.6342 67.1615 97.675 66.6791C97.6809 66.5977 97.6906 66.5125 97.7003 66.4272L97.9062 66.4098L98.3958 66.3691L99.9559 66.2412C99.9442 66.3943 99.9307 66.557 99.9151 66.7217C99.8646 67.2797 99.8141 67.8784 99.9093 68.2833C99.952 68.4771 100.716 68.5042 100.842 68.5836ZM105.021 75.64L108.798 79.825L107.888 80.9604C105.542 79.2186 102.4 77.7267 102.009 75.7815L105.021 75.64Z" fill="#FAC9B4"/>
<path d="M105.318 75.3726C104.452 76.2832 102.94 77.1939 101.634 77.6666L99.884 74.1849L101.986 69.5601C103.523 70.4921 104.327 73.0147 105.318 75.3726Z" fill="#EBA52A"/>
<path d="M100.117 97.8476C99.1788 97.402 99.3303 97.5105 98.559 96.6445C100.022 94.6895 102.39 88.6949 105.549 85.5949C105.67 85.4767 108.469 85.3663 108.469 85.3663C109.604 88.6503 101.178 96.7743 100.117 97.8476Z" fill="#FFD4C2"/>
<path d="M104.007 87.4452C104.007 87.4452 108.557 85.4244 108.471 85.3682C107.327 83.3978 102.239 82.3515 100.615 80.8073C99.0447 80.261 95.5904 79.2147 95.4447 81.3983C95.3786 82.3903 95.2485 85.3682 96.5482 86.3621C98.493 87.8501 104.007 87.4452 104.007 87.4452Z" fill="#FFD4C2"/>
<path d="M111.034 83.5276C108.918 84.5351 105.475 85.4147 104.007 87.4433C104.007 87.4433 98.3103 88.133 96.486 86.5191C94.6617 84.9051 95.3398 82.2876 95.3398 82.2876L102.973 81.0282C106.002 81.8342 109.652 82.5879 111.034 83.5276Z" fill="#CF493E"/>
<path d="M94.4616 74.4407C94.5957 74.6887 94.7569 74.927 94.9298 75.1634C95.6992 76.2213 96.6687 77.2462 96.2004 78.9066C95.8352 80.2028 94.6812 82.2508 95.1202 82.834C95.4719 83.3009 96.1052 83.5876 96.8746 83.7465C99.2798 84.2445 103.222 81.563 103.651 80.9856C103.354 80.3152 102.647 78.8931 102.61 78.2498C102.526 76.8219 102.687 75.9965 103.437 74.0803C104.001 72.6388 103.645 68.8936 100.1 68.4209C100.467 70.711 98.1374 69.9748 97.199 68.6108C96.556 68.727 95.4097 69.4652 94.9881 69.9593C93.8613 71.2768 93.7894 72.4838 94.4616 74.4407Z" fill="#FFBC47"/>
<path d="M99.6509 70.5831C98.0811 70.9183 96.8843 69.442 96.5307 68.8239C96.6628 68.8084 97.0708 68.634 97.1971 68.6146C98.1374 69.9767 100.465 70.713 100.098 68.4248C100.253 68.388 100.552 68.4693 100.76 68.5604C100.904 69.2501 100.644 70.37 99.6509 70.5831Z" fill="white"/>
<path d="M98.3434 66.9096C100.267 66.9096 101.827 65.3543 101.827 63.4357C101.827 61.5171 100.267 59.9618 98.3434 59.9618C96.4195 59.9618 94.8599 61.5171 94.8599 63.4357C94.8599 65.3543 96.4195 66.9096 98.3434 66.9096Z" fill="#232E38"/>
<path d="M101.737 61.0991C101.737 61.0991 102.858 63.891 101.92 66.0687C101.442 67.1789 100.335 68.0334 98.8932 67.7699C96.6084 67.3533 96.3598 66.0629 96.317 65.1077C96.249 63.5887 96.6861 62.0407 97.0883 61.1921L101.737 61.0991Z" fill="#FFDBCC"/>
<path d="M95.8371 63.891C96.0878 63.5345 96.5327 64.1313 96.5327 64.1313V65.5999C95.4699 65.4391 95.5865 64.2475 95.8371 63.891Z" fill="#FFDBCC"/>
<path d="M102.26 63.3698C101.901 62.9281 101.071 61.3451 99.4469 61.1979C99.206 63.7689 96.4627 63.0307 96.1752 64.6815C96.1752 64.6815 95.5943 63.0908 96.4316 61.2327C97.1582 59.6246 100.513 58.7334 101.988 61.2734C102.559 62.2538 102.439 63.3407 102.26 63.3698Z" fill="#232E38"/>
<path d="M100.653 80.0439L106.22 81.9039L106.587 83.5295C103.641 83.3551 99.8607 82.9018 98.3608 81.7509L100.653 80.0439Z" fill="#FFDBCC"/>
<path d="M100.653 80.044C100.653 80.044 98.4697 81.873 98.3609 81.749C96.6803 79.8444 95.3262 74.8088 95.2232 73.999C94.924 71.6275 97.7528 72.4586 98.2229 73.6134C98.9204 75.3223 100.653 80.044 100.653 80.044Z" fill="#FFDBCC"/>
<path d="M100.1 76.601C98.7805 77.6317 97.37 77.8197 96.0586 78.027C96.0586 78.027 92.6529 72.7705 95.7031 71.3988C98.8485 69.9864 100.1 76.601 100.1 76.601Z" fill="#EBA52A"/>
<path d="M98.9184 83.8259H103.579H111.49L113.422 77.8003H105.512L103.719 83.3629H98.9184V83.8259Z" fill="#205D73"/>
<path d="M103.719 83.8259H111.49L113.422 77.8003H112.499C110.993 83.5702 105.926 82.7157 103.719 83.8259Z" fill="#154759"/>
<path d="M98.3201 65.082C98.4863 65.0773 98.6157 64.8819 98.609 64.6455C98.6022 64.4091 98.462 64.2212 98.2958 64.2259C98.1295 64.2306 98.0002 64.4261 98.0069 64.6625C98.0136 64.8988 98.1538 65.0867 98.3201 65.082Z" fill="#222731"/>
<path d="M101.476 64.5372C101.483 64.3265 101.369 64.1518 101.221 64.147C101.073 64.1422 100.947 64.3091 100.94 64.5198C100.933 64.7304 101.048 64.9051 101.196 64.91C101.344 64.9148 101.469 64.7479 101.476 64.5372Z" fill="#222731"/>
<path d="M100.191 64.9082C100.047 64.6679 99.7888 64.4722 99.7752 64.168C99.7694 64.1196 99.6956 64.1138 99.6878 64.1642C99.5227 64.5478 100.003 64.7745 100.022 65.0632C100.045 65.4235 99.5732 65.5224 99.7539 65.532C99.9695 65.5417 100.37 65.3383 100.191 64.9082Z" fill="#F2E0D5"/>
<path d="M98.7203 63.9356C98.7047 63.9181 98.6853 63.9026 98.6678 63.8871C98.627 63.8522 98.5823 63.8271 98.5338 63.8057C98.4425 63.7651 98.3414 63.7534 98.2443 63.767C98.0539 63.7902 97.9082 63.9278 97.8324 64.0964C97.8052 64.1564 97.9082 64.2049 97.9393 64.1448C97.9723 64.0809 98.017 64.0363 98.0811 64.0034C98.1374 63.9743 98.2035 63.9491 98.2637 63.9491C98.2967 63.9491 98.3259 63.9511 98.3531 63.9569C98.3725 63.9607 98.39 63.9666 98.4094 63.9743C98.4289 63.9821 98.4289 63.9821 98.4444 63.9898C98.4774 64.0072 98.5027 64.0247 98.5221 64.0441C98.559 64.0789 98.5823 64.1216 98.6348 64.1371C98.695 64.1564 98.7747 64.1099 98.7708 64.0402C98.765 63.9995 98.7494 63.9666 98.7203 63.9356ZM100.892 63.8077C100.908 63.7922 100.925 63.7806 100.943 63.7689C100.982 63.7418 101.023 63.7224 101.069 63.7069C101.153 63.6779 101.244 63.674 101.329 63.6934C101.497 63.7282 101.615 63.86 101.671 64.015C101.691 64.0712 101.598 64.1061 101.574 64.0518C101.549 63.9937 101.514 63.9491 101.46 63.9162C101.411 63.8852 101.355 63.86 101.3 63.8542C101.271 63.8503 101.244 63.8522 101.221 63.8561C101.203 63.8581 101.186 63.8619 101.17 63.8677C101.153 63.8736 101.153 63.8736 101.139 63.8794C101.108 63.8929 101.085 63.9065 101.067 63.922C101.032 63.9491 101.007 63.9859 100.96 63.9976C100.906 64.0111 100.838 63.9627 100.846 63.9026C100.848 63.86 100.863 63.8329 100.892 63.8077Z" fill="#232E38"/>
<path d="M100.296 66.1676C100.302 66.3284 100.238 66.4776 100.131 66.5899C100.014 66.712 99.8452 66.7895 99.6567 66.7972C99.4527 66.805 99.2681 66.7275 99.1419 66.5996C99.0408 66.4989 98.9787 66.3632 98.9728 66.216C98.9612 65.8808 99.3944 66.1191 99.6431 66.1094C99.8471 66.0997 100.284 65.8324 100.296 66.1676Z" fill="#942525"/>
<path d="M100.129 66.588C100.012 66.7101 99.8432 66.7876 99.6548 66.7953C99.4508 66.8031 99.2662 66.7256 99.1399 66.5977C99.2351 66.495 99.4119 66.4214 99.6159 66.4156C99.8374 66.4078 100.032 66.4776 100.129 66.588Z" fill="#FF7878"/>
<path d="M98.9208 65.5164C98.9259 65.3624 98.6239 65.2276 98.2464 65.2153C97.869 65.203 97.5589 65.3179 97.5538 65.4719C97.5488 65.6259 97.8507 65.7607 98.2282 65.773C98.6057 65.7853 98.9158 65.6704 98.9208 65.5164Z" fill="#FFB394"/>
<path d="M101.05 65.9C101.37 65.9 101.63 65.7933 101.63 65.6617C101.63 65.53 101.37 65.4233 101.05 65.4233C100.729 65.4233 100.469 65.53 100.469 65.6617C100.469 65.7933 100.729 65.9 101.05 65.9Z" fill="#FFB394"/>
<path d="M98.3842 64.6156C98.4303 64.6156 98.4677 64.5783 98.4677 64.5323C98.4677 64.4863 98.4303 64.449 98.3842 64.449C98.338 64.449 98.3006 64.4863 98.3006 64.5323C98.3006 64.5783 98.338 64.6156 98.3842 64.6156Z" fill="white"/>
<path d="M101.273 64.4723C101.314 64.4723 101.347 64.4393 101.347 64.3986C101.347 64.358 101.314 64.325 101.273 64.325C101.232 64.325 101.199 64.358 101.199 64.3986C101.199 64.4393 101.232 64.4723 101.273 64.4723Z" fill="white"/>
<path d="M189.774 126.643V130.338H179.007C177.985 130.338 177.154 129.51 177.154 128.491C177.154 127.472 177.985 126.643 179.007 126.643H189.774Z" fill="#FFF4E3"/>
<path d="M178.127 130.338H189.776V131.068H159.321C158.885 131.068 158.532 130.715 158.532 130.281V126.699C158.532 126.265 158.885 125.912 159.321 125.912H189.774V126.641H179.007C177.391 126.643 176.25 128.72 178.127 130.338Z" fill="#CF493E"/>
<path d="M174.848 125.914H174.154V131.068H174.848V125.914Z" fill="#ED6A5F"/>
<path d="M172.66 125.914H171.966V131.068H172.66V125.914Z" fill="#ED6A5F"/>
<path d="M178.127 130.338H182.252L182.17 131.068H159.323C158.887 131.068 158.534 130.715 158.534 130.281V130.2C162.231 130.572 174.886 130.795 175.308 130.024C175.656 129.384 175.294 129.101 175.291 128.189C175.287 127.04 176.029 126.319 176.676 125.914H182.749L182.667 126.643H179.007C177.391 126.643 176.25 128.72 178.127 130.338Z" fill="#DEDEDE"/>
<path d="M177.154 128.491C177.154 129.51 177.985 130.338 179.007 130.338H189.774V131.068H179.007C177.581 131.068 176.423 129.911 176.423 128.491C176.423 127.069 177.583 125.914 179.007 125.914H189.774V126.645H179.007C177.985 126.643 177.154 127.472 177.154 128.491Z" fill="#ED6A5F"/>
<path d="M184.595 127.389H178.931C178.854 127.389 178.791 127.327 178.791 127.249C178.791 127.172 178.854 127.11 178.931 127.11H184.595C184.672 127.11 184.735 127.172 184.735 127.249C184.735 127.327 184.672 127.389 184.595 127.389ZM188.665 130.022H182.238C182.16 130.022 182.098 129.96 182.098 129.882C182.098 129.805 182.16 129.743 182.238 129.743H188.665C188.743 129.743 188.805 129.805 188.805 129.882C188.805 129.96 188.741 130.022 188.665 130.022ZM184.595 128.733H181.068C180.991 128.733 180.929 128.671 180.929 128.594C180.929 128.516 180.991 128.454 181.068 128.454H184.595C184.672 128.454 184.735 128.516 184.735 128.594C184.735 128.671 184.672 128.733 184.595 128.733ZM180.375 128.733H178.867C178.79 128.733 178.727 128.671 178.727 128.594C178.727 128.516 178.79 128.454 178.867 128.454H180.375C180.453 128.454 180.515 128.516 180.515 128.594C180.515 128.671 180.453 128.733 180.375 128.733ZM188.053 128.733H186.545C186.468 128.733 186.405 128.671 186.405 128.594C186.405 128.516 186.468 128.454 186.545 128.454H188.053C188.131 128.454 188.193 128.516 188.193 128.594C188.193 128.671 188.131 128.733 188.053 128.733ZM187.023 127.528H186.545C186.468 127.528 186.405 127.466 186.405 127.389C186.405 127.311 186.468 127.249 186.545 127.249H187.023C187.101 127.249 187.163 127.311 187.163 127.389C187.163 127.464 187.101 127.528 187.023 127.528ZM181.504 130.022H181.026C180.948 130.022 180.886 129.96 180.886 129.882C180.886 129.805 180.948 129.743 181.026 129.743H181.504C181.581 129.743 181.644 129.805 181.644 129.882C181.644 129.96 181.581 130.022 181.504 130.022ZM189.421 128.733H188.943C188.865 128.733 188.803 128.671 188.803 128.594C188.803 128.516 188.865 128.454 188.943 128.454H189.421C189.498 128.454 189.56 128.516 189.56 128.594C189.56 128.671 189.498 128.733 189.421 128.733Z" fill="#F5DAC2"/>
<path d="M185.007 127.964V129.568L185.824 129.003L186.642 129.568V127.964H185.007Z" fill="#C24E4E"/>
<path d="M161.491 121.489V125.184H172.258C173.28 125.184 174.111 124.357 174.111 123.337C174.111 122.318 173.28 121.489 172.258 121.489H161.491Z" fill="#FFF4E3"/>
<path d="M192.733 121.334V125.339C192.733 125.657 192.475 125.914 192.158 125.914H161.491V125.184H173.14C175.015 123.566 173.876 121.489 172.26 121.489H161.493V120.759H192.158C192.475 120.761 192.733 121.016 192.733 121.334Z" fill="#FFBC47"/>
<path d="M176.422 125.913H177.115V120.759H176.422V125.913Z" fill="#FFD894"/>
<path d="M178.156 125.913H178.849V120.759H178.156V125.913Z" fill="#FFD894"/>
<path d="M192.733 125.184V125.339C192.733 125.657 192.475 125.914 192.158 125.914H169.443L169.256 125.184H172.258C173.28 125.184 174.111 124.357 174.111 123.337C174.111 122.318 173.28 121.489 172.258 121.489H168.945L169.569 120.759H175.073C175.533 121.148 175.825 122.64 175.405 123.886C174.816 125.631 175.761 125.106 177.954 125.182C179.994 125.256 191.177 125.194 192.733 125.184Z" fill="#EBCF9D"/>
<path d="M172.761 121.559C172.421 121.158 171.912 120.902 171.345 120.902H161.491V121.491H172.258C172.433 121.489 172.602 121.514 172.761 121.559Z" fill="#FFB32E"/>
<path d="M174.844 123.337C174.844 124.758 173.684 125.914 172.26 125.914H161.493V125.184H172.26C173.282 125.184 174.113 124.357 174.113 123.337C174.113 122.318 173.282 121.489 172.26 121.489H161.493V120.759H172.26C173.684 120.761 174.844 121.915 174.844 123.337Z" fill="#FFD894"/>
<path d="M168.322 122.196H161.98C161.903 122.196 161.84 122.134 161.84 122.057C161.84 121.979 161.903 121.917 161.98 121.917H168.322C168.399 121.917 168.462 121.979 168.462 122.057C168.46 122.134 168.397 122.196 168.322 122.196ZM172.856 124.831H165.664C165.586 124.831 165.524 124.769 165.524 124.692C165.524 124.614 165.586 124.552 165.664 124.552H172.856C172.934 124.552 172.996 124.614 172.996 124.692C172.994 124.769 172.932 124.831 172.856 124.831ZM168.322 123.543H164.36C164.283 123.543 164.22 123.481 164.22 123.403C164.22 123.326 164.283 123.264 164.36 123.264H168.322C168.399 123.264 168.462 123.326 168.462 123.403C168.46 123.479 168.397 123.543 168.322 123.543ZM163.62 123.543H161.908C161.831 123.543 161.769 123.481 161.769 123.403C161.769 123.326 161.831 123.264 161.908 123.264H163.62C163.698 123.264 163.76 123.326 163.76 123.403C163.758 123.479 163.696 123.543 163.62 123.543ZM172.174 123.543H170.463C170.385 123.543 170.323 123.481 170.323 123.403C170.323 123.326 170.385 123.264 170.463 123.264H172.174C172.252 123.264 172.314 123.326 172.314 123.403C172.314 123.479 172.252 123.543 172.174 123.543ZM171.18 122.196H170.616C170.538 122.196 170.476 122.134 170.476 122.057C170.476 121.979 170.538 121.917 170.616 121.917H171.18C171.257 121.917 171.319 121.979 171.319 122.057C171.317 122.134 171.255 122.196 171.18 122.196ZM164.877 124.831H164.314C164.236 124.831 164.174 124.769 164.174 124.692C164.174 124.614 164.236 124.552 164.314 124.552H164.877C164.955 124.552 165.017 124.614 165.017 124.692C165.015 124.769 164.953 124.831 164.877 124.831ZM173.697 123.543H173.134C173.056 123.543 172.994 123.481 172.994 123.403C172.994 123.326 173.056 123.264 173.134 123.264H173.697C173.775 123.264 173.837 123.326 173.837 123.403C173.837 123.479 173.775 123.543 173.697 123.543Z" fill="#F5DAC2"/>
<path d="M170.173 122.529V124.143L169.448 123.574L168.724 124.143V122.529H170.173Z" fill="#C24E4E"/>
<path d="M190.001 120.605C189.842 120.549 163.272 120.714 163.158 120.549C162.513 120.249 161.965 119.743 161.615 119.125H161.611V115.738H161.613C161.984 115.082 162.577 114.551 163.276 114.258H189.953C189.323 116.314 189.568 118.532 190.001 120.605Z" fill="#FFF4E3"/>
<path d="M190.409 119.906C190.503 119.999 190.561 120.127 190.561 120.268C190.561 120.551 190.332 120.782 190.046 120.782H164.137C163.663 120.782 163.21 120.687 162.798 120.514C162.755 120.497 162.713 120.478 162.672 120.458C162.629 120.439 162.586 120.418 162.546 120.396C162.511 120.379 162.478 120.359 162.443 120.34C162.406 120.319 162.371 120.299 162.336 120.276C162.307 120.259 162.276 120.239 162.246 120.22C162.215 120.199 162.184 120.179 162.155 120.158C162.128 120.139 162.103 120.121 162.075 120.102C162.048 120.08 162.021 120.061 161.994 120.04C161.971 120.02 161.947 120.003 161.924 119.984C161.899 119.962 161.875 119.943 161.85 119.922C161.829 119.904 161.809 119.885 161.79 119.865C161.767 119.844 161.745 119.823 161.722 119.801C161.712 119.792 161.702 119.782 161.693 119.772C161.683 119.763 161.675 119.755 161.666 119.745C161.644 119.724 161.625 119.705 161.607 119.683C161.59 119.666 161.572 119.646 161.555 119.627C161.537 119.606 161.518 119.586 161.5 119.565C161.485 119.548 161.469 119.528 161.454 119.509C161.436 119.488 161.419 119.466 161.403 119.445C161.388 119.428 161.374 119.408 161.361 119.389C161.345 119.367 161.329 119.348 161.316 119.327C161.302 119.307 161.289 119.29 161.277 119.271C161.261 119.249 161.248 119.228 161.234 119.209C161.223 119.189 161.211 119.172 161.199 119.152C161.186 119.131 161.174 119.11 161.16 119.088C161.149 119.069 161.139 119.052 161.127 119.032C161.125 119.03 161.124 119.026 161.124 119.025C160.842 118.527 160.682 117.951 160.682 117.339C160.682 116.727 160.844 116.151 161.124 115.651C161.124 115.649 161.125 115.647 161.125 115.646C161.135 115.626 161.147 115.609 161.158 115.589C161.17 115.568 161.184 115.547 161.197 115.525C161.209 115.506 161.221 115.489 161.232 115.469C161.246 115.448 161.259 115.427 161.273 115.407C161.287 115.388 161.298 115.37 161.312 115.351C161.327 115.33 161.341 115.308 161.357 115.289C161.37 115.27 161.384 115.252 161.399 115.233C161.415 115.212 161.432 115.19 161.45 115.169C161.465 115.15 161.481 115.132 161.497 115.113C161.514 115.091 161.533 115.07 161.551 115.051C161.566 115.031 161.584 115.012 161.603 114.995C161.623 114.973 161.642 114.952 161.662 114.933C161.679 114.913 161.699 114.896 161.718 114.876C161.739 114.855 161.763 114.834 161.784 114.814C161.803 114.795 161.825 114.778 161.846 114.758C161.87 114.737 161.895 114.716 161.92 114.694C161.941 114.675 161.965 114.657 161.988 114.638C162.015 114.617 162.041 114.595 162.07 114.576C162.095 114.557 162.12 114.539 162.147 114.52C162.177 114.499 162.208 114.477 162.239 114.458C162.268 114.438 162.297 114.421 162.328 114.402C162.363 114.38 162.4 114.359 162.435 114.338C162.47 114.318 162.503 114.299 162.538 114.282C162.579 114.26 162.619 114.239 162.662 114.22C162.703 114.2 162.746 114.181 162.788 114.163C163.202 113.989 163.657 113.892 164.135 113.892H190.042C190.184 113.892 190.314 113.95 190.406 114.043C190.499 114.136 190.557 114.264 190.557 114.406C190.557 114.69 190.328 114.919 190.042 114.919H164.226C164.139 114.919 164.053 114.923 163.97 114.933C163.845 114.944 163.723 114.965 163.603 114.995C163.536 115.01 163.472 115.029 163.408 115.051C163.35 115.07 163.294 115.089 163.239 115.113C163.198 115.13 163.156 115.15 163.115 115.169C163.072 115.188 163.031 115.21 162.991 115.233C162.958 115.25 162.926 115.268 162.895 115.289C162.862 115.308 162.829 115.33 162.796 115.351C162.769 115.368 162.742 115.388 162.715 115.407C162.686 115.429 162.66 115.448 162.633 115.469C162.61 115.487 162.588 115.506 162.565 115.525C162.542 115.547 162.516 115.566 162.493 115.589C162.474 115.607 162.454 115.626 162.435 115.646C162.414 115.667 162.392 115.686 162.373 115.708C162.355 115.727 162.338 115.744 162.322 115.764C162.303 115.785 162.285 115.804 162.27 115.826C162.254 115.843 162.239 115.863 162.225 115.882C162.208 115.903 162.192 115.925 162.177 115.946C162.161 115.965 162.147 115.983 162.136 116.002C162.122 116.023 162.109 116.043 162.095 116.064C162.081 116.083 162.07 116.101 162.06 116.12C162.046 116.142 162.035 116.163 162.023 116.184C162.011 116.204 162.002 116.221 161.994 116.24C161.982 116.262 161.973 116.281 161.961 116.302C161.951 116.322 161.941 116.339 161.934 116.359C161.924 116.38 161.914 116.399 161.905 116.421C161.897 116.44 161.889 116.457 161.883 116.477C161.873 116.498 161.866 116.519 161.86 116.541C161.852 116.558 161.846 116.577 161.84 116.597C161.833 116.618 161.825 116.638 161.821 116.659C161.813 116.678 161.809 116.696 161.803 116.715C161.798 116.736 161.792 116.758 161.788 116.777C161.782 116.794 161.778 116.814 161.774 116.833C161.769 116.855 161.765 116.876 161.761 116.897C161.757 116.915 161.753 116.934 161.751 116.953C161.747 116.975 161.743 116.994 161.741 117.015C161.737 117.035 161.735 117.052 161.734 117.072C161.732 117.093 161.73 117.112 161.728 117.134C161.726 117.153 161.724 117.17 161.724 117.19C161.722 117.211 161.722 117.23 161.722 117.252C161.72 117.269 161.72 117.289 161.72 117.308C161.72 117.318 161.72 117.327 161.72 117.337C161.72 117.349 161.72 117.358 161.72 117.37C161.72 117.389 161.72 117.407 161.722 117.426C161.722 117.447 161.722 117.469 161.724 117.488C161.724 117.507 161.726 117.525 161.73 117.544C161.73 117.566 161.732 117.587 161.735 117.606C161.737 117.626 161.739 117.643 161.743 117.662C161.745 117.684 161.749 117.705 161.753 117.726C161.755 117.746 161.759 117.763 161.763 117.783C161.767 117.804 161.77 117.823 161.776 117.845C161.78 117.864 161.784 117.881 161.79 117.901C161.796 117.922 161.8 117.943 161.805 117.965C161.811 117.984 161.817 118.002 161.823 118.021C161.829 118.042 161.835 118.064 161.844 118.083C161.85 118.102 161.856 118.12 161.864 118.139C161.871 118.16 161.879 118.182 161.887 118.203C161.895 118.222 161.903 118.24 161.91 118.259C161.918 118.281 161.928 118.302 161.939 118.321C161.947 118.341 161.957 118.358 161.967 118.377C161.976 118.399 161.988 118.42 162 118.439C162.009 118.459 162.019 118.476 162.029 118.496C162.041 118.517 162.052 118.538 162.066 118.56C162.077 118.579 162.087 118.596 162.101 118.616C162.114 118.637 162.128 118.658 162.142 118.678C162.155 118.697 162.169 118.715 162.182 118.734C162.198 118.755 162.213 118.777 162.229 118.796C162.245 118.815 162.258 118.833 162.274 118.852C162.291 118.873 162.309 118.895 162.328 118.916C162.344 118.935 162.361 118.953 162.38 118.972C162.4 118.994 162.421 119.015 162.441 119.034C162.46 119.054 162.482 119.073 162.501 119.09C162.524 119.112 162.548 119.133 162.573 119.154C162.596 119.174 162.618 119.191 162.641 119.211C162.668 119.232 162.695 119.253 162.724 119.273C162.752 119.292 162.779 119.311 162.806 119.329C162.839 119.35 162.872 119.371 162.905 119.391C162.936 119.41 162.969 119.429 163.002 119.447C163.043 119.47 163.084 119.491 163.127 119.511C163.167 119.53 163.208 119.55 163.251 119.567C163.307 119.59 163.366 119.612 163.424 119.629C163.49 119.65 163.556 119.67 163.622 119.685C163.75 119.716 163.884 119.738 164.018 119.747C164.088 119.755 164.158 119.757 164.228 119.757H190.046C190.188 119.755 190.316 119.813 190.409 119.906Z" fill="#34B6BA"/>
<path d="M177.202 116.225H163.902C163.824 116.225 163.762 116.163 163.762 116.085C163.762 116.008 163.824 115.946 163.902 115.946H177.202C177.28 115.946 177.342 116.008 177.342 116.085C177.342 116.163 177.28 116.225 177.202 116.225ZM186.504 118.858H171.459C171.382 118.858 171.319 118.796 171.319 118.718C171.319 118.641 171.382 118.579 171.459 118.579H186.504C186.582 118.579 186.644 118.641 186.644 118.718C186.642 118.796 186.58 118.858 186.504 118.858ZM177.202 117.569H168.786C168.708 117.569 168.646 117.507 168.646 117.43C168.646 117.352 168.708 117.29 168.786 117.29H177.202C177.28 117.29 177.342 117.352 177.342 117.43C177.342 117.507 177.28 117.569 177.202 117.569ZM167.558 117.569H163.754C163.676 117.569 163.614 117.507 163.614 117.43C163.614 117.352 163.676 117.29 163.754 117.29H167.558C167.636 117.29 167.698 117.352 167.698 117.43C167.698 117.507 167.636 117.569 167.558 117.569ZM185.106 117.569H181.304C181.226 117.569 181.164 117.507 181.164 117.43C181.164 117.352 181.226 117.29 181.304 117.29H185.108C185.185 117.29 185.247 117.352 185.247 117.43C185.245 117.507 185.183 117.569 185.106 117.569ZM182.753 116.364H181.304C181.226 116.364 181.164 116.302 181.164 116.225C181.164 116.147 181.226 116.085 181.304 116.085H182.753C182.831 116.085 182.893 116.147 182.893 116.225C182.891 116.302 182.829 116.364 182.753 116.364ZM170.138 118.858H168.689C168.611 118.858 168.549 118.796 168.549 118.718C168.549 118.641 168.611 118.579 168.689 118.579H170.138C170.216 118.579 170.278 118.641 170.278 118.718C170.276 118.796 170.214 118.858 170.138 118.858ZM188.232 117.569H186.782C186.705 117.569 186.642 117.507 186.642 117.43C186.642 117.352 186.705 117.29 186.782 117.29H188.232C188.309 117.29 188.371 117.352 188.371 117.43C188.371 117.507 188.307 117.569 188.232 117.569Z" fill="#F5DAC2"/>
<path d="M179.844 118.046L178.976 117.554L178.11 118.046V115.948H179.844V118.046Z" fill="#D45151"/>
<path d="M196.36 95.3482C203.984 95.3482 210.164 89.185 210.164 81.5823C210.164 73.9796 203.984 67.8163 196.36 67.8163C188.737 67.8163 182.557 73.9796 182.557 81.5823C182.557 89.185 188.737 95.3482 196.36 95.3482Z" fill="#CF493E"/>
<path d="M188.004 77.4031C190.314 72.8093 195.943 70.9454 200.549 73.2491C205.155 75.5528 207.024 81.1657 204.714 85.7595C202.404 90.3533 196.776 92.2172 192.17 89.9135C187.563 87.6098 185.694 81.9988 188.004 77.4031Z" fill="white"/>
<path d="M208.282 82.7683C208.934 76.2046 204.128 70.3565 197.546 69.7061C190.964 69.0557 185.1 73.8493 184.448 80.413C183.796 86.9767 188.603 92.8248 195.184 93.4752C201.766 94.1256 207.63 89.3319 208.282 82.7683Z" fill="#FFC257"/>
<path d="M206.335 82.5759C206.881 77.0845 202.859 72.1918 197.353 71.6476C191.847 71.1035 186.94 75.114 186.395 80.6053C185.849 86.0967 189.871 90.9895 195.377 91.5336C200.884 92.0777 205.79 88.0672 206.335 82.5759Z" fill="#CF493E"/>
<path d="M201.256 83.1933C202.143 80.497 200.671 77.5939 197.967 76.7091C195.263 75.8242 192.352 77.2926 191.465 79.9889C190.578 82.6852 192.05 85.5883 194.754 86.4732C197.458 87.3581 200.369 85.8896 201.256 83.1933Z" fill="white"/>
<path d="M193.844 80.3248C194.54 78.9415 196.234 78.3796 197.621 79.0732C199.008 79.7668 199.572 81.4563 198.876 82.8397C198.181 84.2231 196.487 84.785 195.099 84.0913C193.71 83.3977 193.149 81.7082 193.844 80.3248Z" fill="#FFC257"/>
<path d="M197.843 80.6334L214.459 71.6586L214.308 71.3809L197.693 80.3557L197.843 80.6334Z" fill="#00436E"/>
<path d="M198.105 79.453L198.835 80.7996L195.795 81.5726L198.105 79.453Z" fill="#00436E"/>
<path d="M198.989 78.9744L199.721 80.321L196.679 81.0941L198.989 78.9744Z" fill="#00436E"/>
<path d="M212.556 73.8071L212.387 73.4951L210.99 73.3634L211.641 72.1234L211.472 71.8115L210.525 73.6133L212.556 73.8071Z" fill="#FFC257"/>
<path d="M212.925 73.6075L212.756 73.2956L211.361 73.1561L212.017 71.92L211.848 71.608L210.895 73.406L212.925 73.6075Z" fill="#FFC257"/>
<path d="M214.092 72.9779L213.923 72.6659L212.527 72.5322L213.177 71.2942L213.008 70.9822L212.06 72.7841L214.092 72.9779Z" fill="#FFC257"/>
<path d="M214.46 72.7783L214.293 72.4664L212.896 72.3269L213.552 71.0907L213.385 70.7788L212.429 72.5768L214.46 72.7783Z" fill="#FFC257"/>
<path d="M162.783 50.4234C164.776 48.9103 167.375 48.2922 169.872 48.5014C171.485 48.6371 173.095 49.1137 174.41 50.0573C175.726 50.9989 176.72 52.4346 176.95 54.033C177.177 55.6314 176.563 57.3674 175.263 58.3304C173.888 59.3476 172.023 59.3883 170.329 59.1383C168.186 58.8225 166.115 58.1134 163.968 57.8208C163.08 57.7007 162.142 57.6581 161.322 58.0184C160.502 58.3788 159.851 58.8031 159.583 59.9928C158.258 54.8933 160.787 51.9366 162.783 50.4234Z" fill="#34B6BA"/>
<path d="M174.696 53.9652C174.696 53.5409 174.352 53.1979 173.927 53.1979C173.501 53.1979 173.157 53.5409 173.157 53.9652C173.157 54.3895 173.501 54.7324 173.927 54.7324C174.352 54.7324 174.696 54.3895 174.696 53.9652ZM171.588 53.9652C171.588 53.5409 171.244 53.1979 170.818 53.1979C170.393 53.1979 170.049 53.5409 170.049 53.9652C170.049 54.3895 170.393 54.7324 170.818 54.7324C171.242 54.7344 171.588 54.3895 171.588 53.9652ZM168.479 53.9652C168.479 53.5409 168.135 53.1979 167.71 53.1979C167.284 53.1979 166.94 53.5409 166.94 53.9652C166.94 54.3895 167.284 54.7324 167.71 54.7324C168.135 54.7324 168.479 54.3895 168.479 53.9652ZM165.37 53.9652C165.37 53.5409 165.027 53.1979 164.601 53.1979C164.176 53.1979 163.832 53.5409 163.832 53.9652C163.832 54.3895 164.176 54.7324 164.601 54.7324C165.027 54.7344 165.37 54.3895 165.37 53.9652Z" fill="white"/>
<path d="M80.3626 52.8589C82.7348 48.7339 91.3706 49.1641 92.1827 54.6026C92.5771 56.5731 90.8849 58.2432 89.3384 59.1557C86.9468 60.5682 89.1228 61.9554 91.3823 61.6357C86.397 64.1816 77.1764 58.3982 80.3626 52.8589Z" fill="#34B6BA"/>
<path d="M85.2468 57.2376C85.2468 56.9044 85.2954 56.5382 85.3945 56.1449C85.4936 55.7496 85.6354 55.2711 85.8239 54.7073L85.9016 54.4689C86.0473 53.9923 86.1192 53.5932 86.1192 53.2696C86.1192 52.7601 85.9637 52.5063 85.651 52.5063C85.4528 52.5063 85.3537 52.6303 85.3537 52.8763C85.3537 52.9364 85.3906 53.0836 85.4625 53.32C85.4625 53.3258 85.4372 53.3413 85.3848 53.3684C85.208 53.4498 85.0778 53.4924 84.9943 53.4924C84.7029 53.4924 84.5572 53.3084 84.5572 52.9422V52.8608C84.5572 52.7194 84.5863 52.5973 84.6426 52.4946C84.699 52.3939 84.8058 52.3048 84.9632 52.2273C85.14 52.1498 85.3576 52.1129 85.6179 52.1129C85.8472 52.1129 86.0434 52.1343 86.2105 52.1788C86.3776 52.2234 86.5116 52.2834 86.6165 52.359C86.7836 52.4908 86.8866 52.6845 86.9293 52.9422C86.939 53.0023 86.9449 53.1088 86.9449 53.2619C86.9449 53.7443 86.7894 54.2694 86.4766 54.839C86.3407 55.0754 86.228 55.3718 86.1328 55.7303C86.0395 56.0887 85.9929 56.4607 85.9929 56.8443C85.9929 57.1466 85.9987 57.3287 86.0084 57.3946C85.8219 57.3946 85.717 57.4004 85.6956 57.4101C85.6743 57.4159 85.649 57.4178 85.6179 57.4178C85.412 57.4178 85.2876 57.3578 85.2468 57.2376ZM85.2468 58.249C85.1322 58.1948 85.0759 58.125 85.0759 58.0436C85.0759 57.9661 85.138 57.8944 85.2624 57.8266C85.3867 57.7588 85.5266 57.7239 85.684 57.7239C85.8083 57.7239 85.9327 57.7588 86.0589 57.8305C86.1833 57.9022 86.2455 57.97 86.2455 58.0359C86.2455 58.2432 86.0376 58.3478 85.6218 58.3478C85.4644 58.3478 85.3401 58.3149 85.2468 58.249Z" fill="white"/>
<path d="M78.2877 54.8467C78.2974 54.5697 78.3304 54.2946 78.3829 54.0233C78.4897 53.4808 78.6801 52.9538 78.9424 52.4675C79.4417 51.5433 80.2208 50.7857 81.1495 50.2936C81.6624 50.0224 82.2161 49.8402 82.7931 49.7802C82.8572 49.7744 82.8669 49.8732 82.8086 49.8887C81.8586 50.1483 80.961 50.5823 80.2422 51.2643C79.5 51.9696 78.9871 52.8782 78.7656 53.8761C78.7015 54.1628 78.6607 54.4554 78.6452 54.7499C78.6296 55.0424 78.6782 55.3389 78.6588 55.6295C78.6471 55.8116 78.3887 55.8581 78.3343 55.6741C78.2624 55.4164 78.278 55.1122 78.2877 54.8467ZM78.4975 56.7164C78.4995 56.6932 78.5033 56.6699 78.5072 56.6467C78.5111 56.6215 78.5267 56.6079 78.5344 56.5866C78.5441 56.5614 78.581 56.5421 78.6024 56.5692C78.6141 56.5847 78.6316 56.5924 78.6452 56.6079C78.6568 56.6234 78.6665 56.6428 78.6762 56.6602C78.6976 56.6951 78.717 56.7319 78.7365 56.7687C78.7792 56.8501 78.8103 56.9392 78.8453 57.0226C78.8375 57.0051 78.8589 57.0555 78.8628 57.0594C78.8725 57.0787 78.8802 57.0981 78.89 57.1175C78.9094 57.1562 78.9288 57.1931 78.9502 57.2318C78.9716 57.2686 78.9929 57.3054 79.0162 57.3422C79.0279 57.3597 79.0396 57.3771 79.0512 57.3965C79.0745 57.4333 79.0804 57.4643 79.0842 57.5069C79.0998 57.6309 78.9385 57.7026 78.8433 57.6445C78.7559 57.5922 78.7112 57.474 78.6685 57.3849C78.6277 57.2977 78.5888 57.2086 78.5577 57.1175C78.5267 57.0303 78.5014 56.9392 78.4956 56.8482C78.4897 56.8075 78.4917 56.761 78.4975 56.7164ZM90.0087 59.8881C90.1272 59.8203 90.2729 59.7874 90.3973 59.7312C90.5255 59.6731 90.6498 59.6091 90.7703 59.5374C91.0073 59.396 91.2268 59.2294 91.4269 59.0414C91.629 58.8516 91.8116 58.6442 91.969 58.4156C92.1244 58.1889 92.274 57.9448 92.3847 57.6929C92.4061 57.6445 92.4819 57.6794 92.4683 57.7278C92.3848 58.0126 92.2837 58.2761 92.1283 58.5299C91.9748 58.7799 91.7922 59.0163 91.5824 59.2236C91.3764 59.4289 91.1472 59.6111 90.9024 59.7661C90.7742 59.8474 90.642 59.9211 90.5041 59.985C90.3701 60.0489 90.2243 60.1226 90.0767 60.1419C89.9368 60.1574 89.8999 59.9501 90.0087 59.8881Z" fill="#34B6BA"/>
<path d="M126.691 69.8198L128.193 68.386C128.348 68.2368 128.564 68.1845 128.772 68.2446C128.978 68.3047 129.133 68.4655 129.184 68.6747L129.677 70.6897C129.728 70.899 129.665 71.1121 129.51 71.2593C129.355 71.4085 129.139 71.4608 128.931 71.4008L126.936 70.8195C126.73 70.7595 126.574 70.5987 126.524 70.3894C126.485 70.2305 126.512 70.0717 126.594 69.938C126.621 69.8953 126.654 69.8566 126.691 69.8198ZM129.222 70.8002L128.729 68.7852C128.713 68.7212 128.663 68.6999 128.642 68.6941C128.62 68.6883 128.566 68.6786 128.519 68.7232L127.017 70.1569C126.971 70.2015 126.977 70.2557 126.982 70.277C126.988 70.2983 127.006 70.3487 127.07 70.3681L129.065 70.9493C129.127 70.9668 129.172 70.9338 129.188 70.9203C129.193 70.9145 129.201 70.9067 129.209 70.8951C129.221 70.8738 129.232 70.8408 129.222 70.8002Z" fill="#E54E67"/>
<path d="M36.5618 67.2216L35.8275 66.4892C35.6604 66.3226 35.6604 66.0533 35.8275 65.8866C35.9945 65.72 36.2646 65.72 36.4317 65.8866L37.1661 66.619L37.9004 65.8866C38.0675 65.72 38.3376 65.72 38.5047 65.8866C38.6717 66.0533 38.6717 66.3226 38.5047 66.4892L37.7703 67.2216L38.5027 67.952C38.6698 68.1186 38.6698 68.3879 38.5027 68.5546C38.4192 68.6379 38.3104 68.6786 38.2016 68.6786C38.0928 68.6786 37.984 68.6379 37.9004 68.5546L37.168 67.8241L36.4356 68.5546C36.352 68.6379 36.2432 68.6786 36.1344 68.6786C36.0256 68.6786 35.9168 68.6379 35.8333 68.5546C35.6662 68.3879 35.6662 68.1186 35.8333 67.952L36.5618 67.2216Z" fill="#FFBC47"/>
<path d="M25.2799 122.965C25.2799 122.043 26.0318 121.293 26.9566 121.293C27.8813 121.293 28.6332 122.043 28.6332 122.965C28.6332 123.888 27.8813 124.637 26.9566 124.637C26.0318 124.637 25.2799 123.888 25.2799 122.965ZM25.8045 122.965C25.8045 123.599 26.3213 124.114 26.9566 124.114C27.5919 124.114 28.1086 123.599 28.1086 122.965C28.1086 122.332 27.5919 121.816 26.9566 121.816C26.3213 121.816 25.8045 122.332 25.8045 122.965Z" fill="#3D70B3"/>
<path d="M210.232 62.5347C210.232 61.6125 210.984 60.8627 211.909 60.8627C212.833 60.8627 213.585 61.6125 213.585 62.5347C213.585 63.457 212.833 64.2068 211.909 64.2068C210.984 64.2068 210.232 63.457 210.232 62.5347ZM210.757 62.5347C210.757 63.1683 211.273 63.6837 211.909 63.6837C212.544 63.6837 213.061 63.1683 213.061 62.5347C213.061 61.9012 212.544 61.3858 211.909 61.3858C211.273 61.3858 210.757 61.9012 210.757 62.5347Z" fill="#3D70B3"/>
<path d="M124.412 121.586C123.553 116.862 119.017 113.712 114.3 114.564C109.583 115.417 106.445 119.954 107.304 124.68C108.162 129.404 112.699 132.554 117.416 131.702C122.133 130.847 125.271 126.309 124.412 121.586ZM108.619 124.442C107.89 120.437 110.54 116.605 114.539 115.882C118.535 115.159 122.366 117.819 123.095 121.822C123.823 125.827 121.173 129.657 117.175 130.382C113.179 131.105 109.347 128.447 108.619 124.442Z" fill="#34B6BA"/>
<path d="M108.452 125.703L108.021 123.329L105.652 123.758L106.084 126.131L108.452 125.703Z" fill="#34B6BA"/>
<path d="M84.8797 131.157C83.5644 131.438 82.2782 130.574 82.0373 129.251C81.7964 127.927 82.6979 126.666 84.0268 126.47L102.042 123.802L103.045 123.653L103.797 123.543L104.799 123.394L106.054 123.208L106.653 126.495L105.413 126.761L104.42 126.972L103.676 127.133L102.684 127.344L84.8797 131.157Z" fill="#34B6BA"/>
<path d="M104.422 126.972L103.799 123.543L104.801 123.394L105.413 126.761L104.422 126.972Z" fill="#F7BD5A"/>
<path d="M102.686 127.344L102.042 123.802L103.045 123.653L103.678 127.133L102.686 127.344Z" fill="#F7BD5A"/>
<path d="M119.619 119.147C117.82 117.705 115.811 117.831 115.838 117.628C115.871 117.387 118.72 116.835 120.577 118.43C122.405 120.001 122.325 122.845 122.075 122.925C121.842 122.996 121.579 120.72 119.619 119.147ZM115.226 118.087C115.085 118.29 114.807 118.341 114.603 118.199C114.399 118.058 114.348 117.779 114.488 117.573C114.63 117.37 114.908 117.32 115.112 117.461C115.318 117.602 115.368 117.881 115.226 118.087Z" fill="white"/>
<path d="M245.393 131.808H19.6069C19.434 131.808 19.296 131.669 19.296 131.498V131.378C19.296 131.206 19.4359 131.068 19.6069 131.068H245.393C245.566 131.068 245.704 131.208 245.704 131.378V131.498C245.704 131.671 245.566 131.808 245.393 131.808ZM129.335 137.537H87.5394C87.3684 137.537 87.2305 137.4 87.2305 137.229V137.111C87.2305 136.941 87.3684 136.803 87.5394 136.803H129.335C129.506 136.803 129.644 136.941 129.644 137.111V137.229C129.644 137.4 129.506 137.537 129.335 137.537ZM159.179 137.537H143.172C143.001 137.537 142.863 137.4 142.863 137.229V137.111C142.863 136.941 143.001 136.803 143.172 136.803H159.179C159.35 136.803 159.488 136.941 159.488 137.111V137.229C159.486 137.4 159.348 137.537 159.179 137.537Z" fill="#82BDD1"/>
</g>
<defs>
<clipPath id="clip0_219_562">
<rect width="265" height="186" fill="white"/>
</clipPath>
</defs>
</svg>
