<svg width="193" height="193" viewBox="0 0 193 193" fill="none" xmlns="http://www.w3.org/2000/svg">
<path d="M54.2 63.8564L53.3431 63.8178C53.3808 62.9772 53.5429 61.9251 53.7303 60.7066C54.2737 57.1808 55.0174 52.3519 52.8777 50.0329C51.8527 48.9221 50.2709 48.4606 48.0428 48.6231L47.9802 47.7675C50.4523 47.5874 52.3111 48.1544 53.5077 49.4513C55.9284 52.0735 55.1478 57.1391 54.5782 60.8375C54.3943 62.0311 54.2356 63.0621 54.2 63.8564V63.8564Z" fill="#D7DAF4"/>
<path d="M51.486 69.6271C53.5264 69.6271 55.1804 67.5059 55.1804 64.8892C55.1804 62.2725 53.5264 60.1512 51.486 60.1512C49.4456 60.1512 47.7915 62.2725 47.7915 64.8892C47.7915 67.5059 49.4456 69.6271 51.486 69.6271Z" fill="#FE6081"/>
<path d="M51.486 60.1517C53.5262 60.1517 55.1804 62.2725 55.1804 64.8892C55.1804 67.5058 53.5262 69.6271 51.486 69.6271" fill="#FE6081"/>
<path d="M52.0946 69.6271C54.1352 69.6271 55.789 67.5058 55.789 64.8892C55.789 62.273 54.1352 60.1517 52.0946 60.1517H51.486C53.5262 60.1517 55.1804 62.2725 55.1804 64.8892C55.1804 67.5058 53.5262 69.6271 51.486 69.6271H52.095H52.0946Z" fill="#B94768"/>
<path d="M103.141 116.186L101.281 124.693H62.1928L61.9895 124.286L58.2041 116.712L52.7255 105.75L50.9005 102.105L64.691 99.0523L70.4682 112.201L103.141 116.186Z" fill="#FEC3BD"/>
<path d="M102.803 117.727L101.28 124.693H62.1932L61.9899 124.286L58.2045 116.712L52.7259 105.75L50.901 102.105L56.8141 100.797L61.2887 109.747C62.4881 112.145 64.3314 114.161 66.6123 115.571C68.8931 116.98 71.5213 117.727 74.2025 117.727H102.803H102.803Z" fill="#F18B89"/>
<path d="M23.3007 152.443H28.0532V168.913H23.3007V152.443ZM37.3494 152.443H42.1019V168.913H37.3494V152.443ZM64.4397 152.443H69.1922V168.913H64.4397V152.443Z" fill="#06112D"/>
<path d="M41.0841 86.6064H11.6812C7.0355 86.6064 3.58809 90.9142 4.6067 95.4471L17.2439 150.244C17.6049 151.851 18.5022 153.287 19.788 154.316C21.0738 155.345 22.6716 155.905 24.3184 155.905H53.7213C58.3671 155.905 61.8145 151.597 60.7959 147.065L48.1582 92.2669C47.7971 90.6602 46.8999 89.2244 45.6142 88.1955C44.3285 87.1666 42.7308 86.606 41.0841 86.606V86.6064Z" fill="#FE6081"/>
<path d="M28.9684 155.903H24.3189C22.6723 155.903 21.0747 155.343 19.7886 154.315C18.5026 153.286 17.6046 151.851 17.2422 150.245L4.60712 95.4462C3.58723 90.9159 7.03378 86.6047 11.6795 86.6047H16.3299C11.6838 86.6047 8.23724 90.9159 9.25328 95.4462L21.8922 150.245C22.2541 151.852 23.152 153.287 24.4382 154.316C25.7243 155.344 27.3222 155.904 28.9689 155.903H28.9684Z" fill="#B94768"/>
<path d="M80.4617 147.708C78.1854 145.593 75.1924 144.42 72.0855 144.424H34.1932C29.1477 144.424 25.0574 148.514 25.0574 153.559V155.905H80.4617V147.708V147.708Z" fill="#FE6081"/>
<path d="M68.2641 98.873L61.039 104.289L54.6048 109.108L54.0108 109.552L47.4746 95.4145L48.9444 80.5608C48.9444 80.5608 51.8762 80.9172 53.7325 81.8504C57.8695 83.9305 68.2641 98.873 68.2641 98.873Z" fill="#37C092"/>
<path d="M61.0395 104.289L54.6048 109.108L57.2146 90.1005L61.0395 104.289Z" fill="#238A6F"/>
<path d="M55.7946 57.0345C55.7946 57.0345 55.5377 64.6782 51.4216 63.7603C47.9738 62.9913 50.4905 57.5226 50.4905 57.5226L53.7496 56.4765L55.7946 57.0341V57.0345Z" fill="#06112D"/>
<path d="M83.382 140.426L82.3321 168.913H67.5286L63.66 144.201L48.7033 133.333L42.1075 128.873L50.3494 126.889L56.2745 124.693L58.5043 127.805L75.6633 131.023C80.2417 131.758 83.5531 135.792 83.3824 140.426H83.382Z" fill="#0E1738"/>
<path d="M74.1648 139.222L73.0647 168.913H67.5277L63.6595 144.201L48.7029 133.333L42.107 128.873L50.349 126.889L53.6004 127.665L65.7036 129.133C70.7049 129.806 74.3728 134.18 74.1648 139.222Z" fill="#06112D"/>
<path d="M71.6116 139.222L70.5136 168.913H54.7906L54.6048 146.074H43.9521C36.6464 146.074 30.6042 140.374 30.1805 133.08L30.3988 122.296L52.8477 127.666L63.1513 129.133C68.1539 129.806 71.82 134.179 71.6116 139.222V139.222Z" fill="#0E1738"/>
<path d="M28.1368 111.077C28.157 111.277 29.8421 124.554 29.921 128.59C30.2084 132.263 59.4311 129.977 59.1438 126.303C59.1438 126.303 58.6145 90.5423 55.662 85.3635C54.5152 83.3546 51.5962 81.3963 48.9426 80.5616C48.6079 80.4545 48.2681 80.3639 47.9245 80.2901C44.5989 79.5911 39.1897 79.0618 35.9349 79.5469C35.005 79.6863 33.814 79.8454 32.5346 80.1949C30.0338 80.864 27.3048 82.3008 26.4384 84.1424C23.5413 90.3013 27.5733 105.583 28.1368 111.077V111.077Z" fill="#37C092"/>
<path d="M33.4589 86.5609C33.4589 86.5609 35.5931 89.4242 37.3858 94.0064C39.1786 98.5887 41.3805 112.665 41.3805 112.665L58.7792 117.014L50.4781 118.973L32.7011 116.716L29.8918 98.3867L33.4589 86.5609Z" fill="#238A6F"/>
<path d="M36.079 79.3607C36.079 79.3607 38.7209 86.4567 43.7162 86.0008C46.4354 85.752 44.6006 80.8323 44.6006 80.8323L44.7348 79.2261L44.9514 76.5936L39.0645 72.4951L36.5169 70.7208L36.0794 79.3607H36.079Z" fill="#FEC3BD"/>
<path d="M39.1275 73.5716C41.0815 76.992 44.0876 78.8529 44.7348 79.2261L44.9514 76.5935L39.0645 72.4951C38.8453 72.7297 38.8462 73.0767 39.1275 73.5716V73.5716Z" fill="#F18B89"/>
<path d="M34.7709 68.4687C34.7709 68.4687 35.4348 69.4281 36.519 70.7319C39.0366 73.7599 43.8273 78.6574 47.8516 77.7477C53.1741 76.5494 53.1226 66.8496 52.4981 60.5368C52.1868 57.3973 51.7377 55.0951 51.7377 55.0951L47.113 54.2888L42.5582 53.7175L37.9777 59.3887L36.5624 65.0058C36.5624 65.0058 34.9609 59.6241 32.8083 61.5996C30.235 63.9589 34.7709 68.4687 34.7709 68.4687V68.4687Z" fill="#FEC3BD"/>
<path d="M36.4157 72.7391L36.519 70.7319C35.4348 69.4281 34.7709 68.4687 34.7709 68.4687C34.7709 68.4687 30.2349 63.9589 32.8083 61.5996C34.9613 59.6241 36.5628 65.0058 36.5628 65.0058L37.0903 66.5773C37.0903 66.5773 37.3734 61.7814 39.1657 60.9674C40.9546 60.1538 41.1931 57.7602 41.1931 57.7602C43.235 60.1332 49.1755 60.8426 52.4981 60.5368C53.5103 60.4442 54.278 60.258 54.6233 59.9968C56.0987 58.8787 57.8168 53.5253 48.4541 48.7381C39.0915 43.9508 35.5549 50.7311 35.5549 50.7311C22.7148 57.5693 32.6402 70.6346 36.4161 72.7391H36.4157Z" fill="#06112D"/>
<path d="M45.2685 67.1735C45.5878 67.1329 45.7958 66.6992 45.7329 66.2048C45.6701 65.7104 45.3602 65.3426 45.0409 65.3832C44.7216 65.4238 44.5137 65.8575 44.5765 66.3519C44.6394 66.8462 44.9492 67.2141 45.2685 67.1735Z" fill="#06112D"/>
<path d="M44.2356 64.9329C44.1906 64.9329 44.1467 64.9188 44.1102 64.8924C44.0737 64.8661 44.0464 64.829 44.0322 64.7863C44.0179 64.7436 44.0175 64.6975 44.0309 64.6545C44.0443 64.6116 44.0709 64.5739 44.1069 64.5469C45.0402 63.8495 45.7925 64.1588 46.0609 64.4195C46.1019 64.4591 46.1255 64.5132 46.1265 64.5701C46.1275 64.627 46.1058 64.682 46.0663 64.723C46.0268 64.7639 45.9726 64.7875 45.9157 64.7885C45.8588 64.7895 45.8038 64.7679 45.7629 64.7283C45.7388 64.706 45.2246 64.2471 44.3638 64.8905C44.3269 64.9183 44.2819 64.9333 44.2356 64.9333V64.9329Z" fill="#06112D"/>
<path d="M50.2372 67.5372C50.5565 67.4966 50.7644 67.0629 50.7016 66.5685C50.6387 66.0741 50.3289 65.7063 50.0096 65.7469C49.6903 65.7875 49.4823 66.2212 49.5452 66.7155C49.608 67.2099 49.9179 67.5778 50.2372 67.5372Z" fill="#06112D"/>
<path d="M49.2043 65.2966C49.1593 65.2966 49.1154 65.2825 49.0789 65.2561C49.0424 65.2298 49.0151 65.1927 49.0008 65.15C48.9866 65.1073 48.9862 65.0612 48.9996 65.0182C49.013 64.9753 49.0396 64.9376 49.0756 64.9106C50.0089 64.2132 50.7616 64.522 51.0292 64.7828C51.0678 64.8227 51.0893 64.8761 51.0894 64.9316C51.0894 64.9871 51.0679 65.0405 51.0294 65.0805C50.9909 65.1204 50.9384 65.144 50.883 65.146C50.8275 65.1481 50.7734 65.1286 50.732 65.0916C50.708 65.0697 50.1929 64.61 49.3325 65.2537C49.2955 65.2815 49.2505 65.2966 49.2043 65.2966V65.2966Z" fill="#06112D"/>
<path d="M48.7286 71.2719C48.6847 71.2719 48.6418 71.2585 48.6057 71.2333C48.5697 71.2081 48.5422 71.1725 48.5271 71.1312C48.512 71.0899 48.5099 71.045 48.5212 71.0025C48.5325 70.96 48.5565 70.922 48.5901 70.8936C48.7304 70.7752 48.8131 70.6097 48.8243 70.4283C48.8372 70.2194 48.7565 70.011 48.5987 69.8411C48.5288 69.7665 48.4473 69.6987 48.3662 69.631C48.3088 69.5825 48.2513 69.534 48.1964 69.4834C47.8104 69.1275 47.5462 68.6471 47.433 68.0955C47.3343 67.6139 47.3545 67.143 47.3738 66.6875C47.3777 66.6312 47.4031 66.5786 47.4447 66.5405C47.4862 66.5023 47.5408 66.4816 47.5972 66.4825C47.654 66.4849 47.7074 66.5098 47.7459 66.5516C47.7843 66.5934 47.8046 66.6488 47.8022 66.7055C47.7838 67.1353 47.7649 67.5796 47.8529 68.0093C47.9481 68.4725 48.1677 68.8731 48.4876 69.1686C48.5374 69.2145 48.5897 69.2587 48.642 69.3024C48.7364 69.3818 48.8307 69.4611 48.9122 69.5486C49.1511 69.8051 49.2721 70.1268 49.2523 70.4536C49.2439 70.6011 49.2054 70.7453 49.1391 70.8774C49.0728 71.0094 48.9801 71.1265 48.8668 71.2213C48.8281 71.2539 48.7792 71.2718 48.7286 71.2719V71.2719ZM47.3794 73.6492H47.3716C46.5739 73.6209 45.7659 73.1479 45.3121 72.444C45.2841 72.3963 45.2756 72.3396 45.2885 72.2858C45.3013 72.232 45.3344 72.1852 45.381 72.1552C45.4275 72.1253 45.4838 72.1144 45.5381 72.125C45.5924 72.1356 45.6405 72.1668 45.6724 72.212C46.0524 72.8013 46.7253 73.1972 47.3867 73.2208C47.4435 73.2217 47.4977 73.2453 47.5372 73.2862C47.5768 73.3271 47.5984 73.382 47.5975 73.4389C47.5965 73.4957 47.573 73.5499 47.5321 73.5894C47.4912 73.629 47.4362 73.6506 47.3794 73.6497V73.6492Z" fill="#F18B89"/>
<path d="M113.833 127.705H117.087V168.912H113.833V127.705ZM31.2596 127.705H34.5135V168.912H31.2596V127.705Z" fill="#FE8B70"/>
<path d="M21.9917 124.693H126.355V130.408H21.9917V124.693Z" fill="#FCC283"/>
<path d="M62.7477 124.693H109.497V124.41C109.497 123.595 109.173 122.814 108.597 122.237C108.02 121.661 107.239 121.337 106.424 121.337H65.8216C65.0064 121.337 64.2246 121.661 63.6482 122.237C63.0717 122.813 62.7478 123.595 62.7477 124.41V124.693Z" fill="#1C5AB5"/>
<path d="M78.4403 124.693H111.665L115.875 95.7675C116.072 94.4379 115.037 93.2387 113.689 93.2387H84.926C84.3951 93.2391 83.8821 93.4304 83.4806 93.7778C83.0791 94.1251 82.8159 94.6053 82.7391 95.1306L78.4403 124.693V124.693Z" fill="#1C5AB5"/>
<path d="M80.5475 124.693H113.773L117.983 95.7675C118.179 94.4379 117.145 93.2387 115.796 93.2387H87.0331C86.5023 93.2392 85.9894 93.4306 85.588 93.7779C85.1866 94.1252 84.9235 94.6053 84.8467 95.1306L80.5475 124.693Z" fill="#3A6DC9"/>
<path d="M98.6732 114.485C100.509 114.485 102.269 112.99 102.607 111.155C102.939 109.315 101.722 107.826 99.8814 107.826C98.0457 107.826 96.2847 109.315 95.9476 111.155C95.6152 112.995 96.8328 114.485 98.6732 114.485V114.485Z" fill="#1C5AB5"/>
<path d="M71.3221 121.255C72.1747 121.379 74.6816 121.736 74.2312 122.792C73.9482 123.457 72.0396 122.975 71.1831 123.003C71.8084 123.206 74.4624 124.159 73.2907 124.684C73.2823 124.685 73.2742 124.688 73.2671 124.693H30.9383C28.1969 124.693 25.8899 122.633 25.5789 119.907L24.2524 103.168L38.3255 103.866L38.6244 113.827L58.7792 117.014C58.7792 117.014 66.175 113.811 67.4621 114.624C68.1076 115.034 66.7012 116.768 65.9678 117.513C68.2272 117.15 73.0158 116.712 72.6894 117.959C72.5298 118.572 71.2028 119.278 70.6093 119.429C72.4423 119.473 75.0521 119.381 74.8849 120.218C74.6576 121.346 72.1631 121.327 71.3221 121.256V121.255Z" fill="#FEC3BD"/>
<path d="M39.6443 109.108L23.0472 108.375C22.7864 104.856 21.9132 99.1239 22.3211 95.0568C23.4225 84.0772 27.7221 82.5547 27.7221 82.5547C36.5358 83.6012 39.1777 102.736 39.6443 109.108Z" fill="#37C092"/>
<path d="M35.1719 63.9838L34.3656 63.69C34.5938 63.0638 40.0415 48.3456 47.9802 47.7675L48.0429 48.6231C40.6518 49.161 35.2259 63.8358 35.1719 63.9838Z" fill="#D7DAF4"/>
<path d="M34.4599 69.8197C36.5003 69.8197 38.1544 67.6984 38.1544 65.0817C38.1544 62.4651 36.5003 60.3438 34.4599 60.3438C32.4195 60.3438 30.7655 62.4651 30.7655 65.0817C30.7655 67.6984 32.4195 69.8197 34.4599 69.8197Z" fill="#FE6081"/>
<path d="M42.7984 73.9104C38.8367 73.3962 36.0112 68.5386 35.8933 68.3319L36.2651 68.1187C36.2934 68.1676 39.1044 72.9986 42.8533 73.4854L42.7984 73.9108V73.9104Z" fill="#06112D"/>
<path d="M34.4599 60.3442C36.5002 60.3442 38.1539 62.4651 38.1539 65.0817C38.1539 67.6984 36.5002 69.8197 34.4599 69.8197" fill="#FE6081"/>
<path d="M35.0685 69.8197C37.1087 69.8197 38.7625 67.6984 38.7625 65.0817C38.7625 62.4655 37.1087 60.3442 35.0685 60.3442H34.4595C36.5002 60.3442 38.154 62.4651 38.154 65.0817C38.154 67.6984 36.5002 69.8197 34.4599 69.8197H35.0685Z" fill="#B94768"/>
<path d="M34.4599 67.9326C35.6876 67.9326 36.6829 66.6562 36.6829 65.0817C36.6829 63.5073 35.6876 62.2309 34.4599 62.2309C33.2322 62.2309 32.237 63.5073 32.237 65.0817C32.237 66.6562 33.2322 67.9326 34.4599 67.9326Z" fill="#B94768"/>
<path d="M44.548 73.8279C44.6033 73.2533 44.0439 72.7294 43.2986 72.6577C42.5533 72.5861 41.9043 72.9937 41.8491 73.5683C41.7938 74.1429 42.3532 74.6669 43.0985 74.7385C43.8438 74.8102 44.4928 74.4025 44.548 73.8279Z" fill="#06112D"/>
<path d="M186.664 72.0456C183.43 79.3273 176.472 84.4645 168.95 87.0859C166.224 88.0354 163.419 88.6921 160.574 89.1428C155.568 89.9346 150.431 90.0881 145.35 90.0658C142.16 90.0529 138.97 90.0615 135.78 90.0572C124.967 90.0396 114.198 89.8342 103.533 87.878C99.2101 87.0859 94.6674 84.377 91.3109 81.5416C87.9548 78.7058 86.2174 73.4635 88.6286 69.7875C91.8187 64.9303 99.5202 65.7397 103.804 61.8059C110.259 55.8808 102.549 49.4393 102.509 42.9455C102.465 35.7908 106.242 28.5486 112.478 24.9073C120.543 20.199 131.837 22.0415 137.986 29.0735C139.963 31.3316 141.442 34.0315 143.709 36.0005C147.241 39.0683 152.177 39.9214 156.855 40.0659C161.532 40.2105 166.281 39.7769 170.853 40.7835C177.374 42.219 183.159 46.7043 186.174 52.6646C189.189 58.6244 189.372 65.9412 186.664 72.046V72.0456Z" fill="#EAE8FE"/>
<path d="M143.158 61.2269C144.353 62.013 145.547 62.7992 146.741 63.5858H158.092C159.961 63.5858 161.316 61.8797 160.983 60.0406C160.98 60.0249 160.978 60.0092 160.975 59.9934C160.63 57.8966 162.583 56.154 163.097 54.0919C163.554 52.2614 162.829 50.3335 161.832 48.7308C160.835 47.1289 159.559 45.6977 158.733 44.001C157.488 41.4362 157.319 39.7143 158.393 37.0749L146.006 30.063C144.423 31.8682 143.067 33.8788 142.016 36.0382C140.787 38.5718 139.986 41.2915 139.645 44.0868C139.462 45.5978 139.417 47.1233 139.368 48.6454L139.256 52.3099C139.183 54.6979 139.18 57.3107 140.667 59.1819C141.339 60.0273 142.256 60.6359 143.158 61.2269V61.2269Z" fill="#070D2B"/>
<path d="M116.74 64.2476L115.392 70.3614C115.392 70.3614 105.888 70.6106 105.034 69.3415C104.369 68.3525 106.259 68.2735 106.767 68.2036C106.115 68.0638 104.054 67.5256 103.931 66.9787C103.725 66.0772 105.739 66.3311 106.356 66.3611C105.752 66.3088 103.804 65.8452 103.787 64.9175C103.77 64.2527 105.839 64.1867 107.253 64.4054C106.819 64.2085 105.896 63.4867 105.861 62.9918C105.752 61.6399 110.793 63.1672 111.471 63.3726C111.471 63.3726 109.135 60.94 110.22 60.4931C111.318 60.047 116.74 64.248 116.74 64.248V64.2476Z" fill="#FEC3BD"/>
<path d="M145.18 65.2014C145.18 65.2014 144.519 66.0154 143.508 67.197C141.014 70.1113 136.397 75.2447 134.327 75.8134C133.972 75.9095 133.535 75.9532 133.032 75.9532C127.649 75.9271 114.6 70.698 114.6 70.698L116.714 63.5871L129.75 65.3155C133.907 59.863 138.441 53.2157 140.178 52.2181L145.18 65.2014Z" fill="#47ADF7"/>
<path d="M143.508 67.197C141.014 70.1113 136.397 75.2447 134.327 75.8134C133.972 75.9095 133.535 75.9532 133.032 75.9532C135.806 73.6956 134.856 69.3676 134.909 68.265C134.983 66.8076 137.893 62.2129 137.893 62.2129L138.585 55.8894C139.329 57.5964 141.644 62.9 143.508 67.197V67.197Z" fill="#218AE5"/>
<path d="M161.021 66.4267C160.618 71.2273 159.87 75.5642 159.87 75.5642L160.465 87.0511L160.574 89.1428C155.568 89.9346 150.431 90.0881 145.35 90.0658C142.16 90.0529 138.97 90.0615 135.78 90.0572C135.92 88.9893 136.086 87.6812 136.261 86.2809C136.585 83.6595 136.944 80.7057 137.189 78.3559C137.438 76.0013 137.579 74.2514 137.473 74.0412C136.436 72.0109 134.883 67.2408 138.497 63.4249C138.497 63.4249 137.775 54.6336 139.648 52.5813C140.589 51.5529 144.738 51.3998 144.987 51.3869C146.821 51.2771 149.354 51.3341 151.306 51.4564C151.748 51.4873 152.159 51.5177 152.531 51.5529C152.907 51.588 153.341 51.6361 153.805 51.7017C156.233 52.0517 159.331 52.9532 160.364 54.9184C161.48 57.0491 161.401 61.9414 161.02 66.4267H161.021Z" fill="#47ADF7"/>
<path d="M159.87 75.5642L160.465 87.0511L136.261 86.2809C136.585 83.6595 136.944 80.7057 137.189 78.3559L153.197 73.5686C153.197 73.5686 152.978 64.2171 153.197 61.5914C153.415 58.9658 155.533 56.187 155.533 56.187L161.021 66.4267C160.618 71.2273 159.87 75.5642 159.87 75.5642V75.5642Z" fill="#218AE5"/>
<path d="M145.745 60.46L152.53 51.5529L152.085 44.4818L149.397 43.9727L147.078 45.5682L144.936 47.0418L145.211 49.8836L144.989 51.3873L145.745 60.46Z" fill="#FEC3BD"/>
<path d="M144.936 47.0418L145.211 49.8836C145.211 49.8836 150.327 47.9584 151.077 45.762C151.581 44.2781 148.883 44.9651 147.078 45.5686L144.936 47.0418V47.0418Z" fill="#F18B89"/>
<path d="M143.005 48.7003C148.423 50.2413 152.085 44.4809 152.085 44.4809C152.085 44.4809 155.198 44.0019 155.318 41.6473C155.438 39.2931 153.562 39.013 152.923 39.6907C152.923 39.6907 152.084 29.6315 145.7 29.7919C143.189 29.8545 141.496 32.587 140.689 35.952C139.444 41.1467 139.825 47.7962 143.005 48.7008L143.005 48.7003Z" fill="#FEC3BD"/>
<path d="M139.672 33.3946C140.198 39.0585 150.431 33.6318 149.432 35.4425C148.432 37.2507 150.006 37.0466 151.14 39.2811C151.985 40.9456 151.895 41.7669 152.109 41.8561C152.375 41.9668 152.578 41.4315 152.714 40.8658C153.047 39.4839 155.094 39.5521 155.293 40.9602C155.321 41.166 155.331 41.3942 155.318 41.6464C155.199 44.0027 152.085 44.4796 152.085 44.4796L152.205 46.3903C161.415 41.2235 160.905 26.7777 146.887 26.2055C141.483 25.9851 139.15 27.7307 139.672 33.3946V33.3946Z" fill="#070D2B"/>
<path d="M146.634 39.3029C146.652 38.8997 146.449 38.5629 146.18 38.5506C145.912 38.5383 145.679 38.8552 145.66 39.2584C145.642 39.6616 145.845 39.9984 146.113 40.0107C146.382 40.023 146.615 39.7062 146.634 39.3029Z" fill="#06112D"/>
<path d="M146.887 38.2762C146.839 38.2761 146.792 38.2596 146.754 38.2294C146.051 37.6697 145.652 37.991 145.636 38.0047C145.592 38.041 145.537 38.059 145.481 38.0548C145.424 38.0507 145.372 38.0247 145.335 37.9824C145.298 37.9404 145.279 37.8856 145.282 37.8297C145.285 37.7738 145.31 37.7214 145.351 37.6839C145.378 37.6599 146.023 37.098 147.021 37.894C147.056 37.9218 147.081 37.9596 147.093 38.0024C147.106 38.0451 147.104 38.0906 147.09 38.1326C147.075 38.1746 147.048 38.211 147.011 38.2367C146.975 38.2624 146.932 38.2762 146.887 38.2762V38.2762Z" fill="#06112D"/>
<path d="M142.516 39.3029C142.534 38.8997 142.331 38.5629 142.063 38.5506C141.794 38.5383 141.561 38.8551 141.542 39.2583C141.524 39.6615 141.727 39.9984 141.996 40.0107C142.264 40.023 142.497 39.7061 142.516 39.3029Z" fill="#06112D"/>
<path d="M142.769 38.2762C142.721 38.2761 142.674 38.2596 142.636 38.2294C141.933 37.6697 141.535 37.991 141.518 38.0047C141.475 38.041 141.419 38.059 141.363 38.0548C141.307 38.0507 141.254 38.0247 141.217 37.9824C141.18 37.9404 141.161 37.8856 141.164 37.8297C141.167 37.7738 141.192 37.7214 141.234 37.6839C141.261 37.6599 141.905 37.098 142.903 37.894C142.938 37.9218 142.963 37.9596 142.976 38.0024C142.988 38.0451 142.987 38.0906 142.972 38.1326C142.957 38.1746 142.93 38.211 142.894 38.2367C142.857 38.2624 142.814 38.2762 142.769 38.2762V38.2762Z" fill="#06112D"/>
<path d="M143.251 43.1844C143.198 43.1845 143.147 43.1651 143.108 43.1299C143.005 43.0411 142.922 42.932 142.864 42.8096C142.805 42.6871 142.773 42.554 142.768 42.4184C142.76 42.1525 142.863 41.8986 143.057 41.7043C143.125 41.6357 143.204 41.5739 143.284 41.513C143.326 41.4808 143.368 41.4487 143.408 41.4152C143.724 41.1463 143.848 40.7908 143.897 40.5399C143.963 40.201 143.941 39.8395 143.92 39.4899C143.918 39.4618 143.922 39.4336 143.931 39.407C143.94 39.3803 143.955 39.3558 143.973 39.3347C143.992 39.3136 144.015 39.2964 144.04 39.2841C144.065 39.2718 144.093 39.2645 144.121 39.2628C144.149 39.2612 144.177 39.265 144.204 39.2742C144.231 39.2834 144.255 39.2978 144.276 39.3165C144.297 39.3352 144.315 39.3579 144.327 39.3832C144.339 39.4086 144.346 39.4361 144.348 39.4642C144.371 39.8403 144.394 40.2298 144.318 40.6214C144.23 41.0781 144.011 41.4654 143.685 41.7425C143.64 41.7811 143.592 41.8171 143.545 41.854C143.48 41.9029 143.416 41.9513 143.36 42.0071C143.307 42.0588 143.265 42.1209 143.237 42.1895C143.209 42.2582 143.195 42.3318 143.197 42.406C143.201 42.5578 143.271 42.701 143.393 42.8095C143.426 42.8384 143.449 42.8765 143.459 42.9188C143.469 42.961 143.467 43.0054 143.451 43.0461C143.436 43.0868 143.408 43.1218 143.372 43.1465C143.337 43.1712 143.294 43.1844 143.251 43.1844V43.1844ZM144.465 45.2075C144.442 45.2075 144.419 45.207 144.397 45.2062C144.34 45.2041 144.286 45.1796 144.247 45.1379C144.208 45.0962 144.188 45.0409 144.19 44.984C144.192 44.9271 144.216 44.8734 144.258 44.8346C144.3 44.7959 144.355 44.7752 144.412 44.7773C144.942 44.7987 145.48 44.5242 145.776 44.0812C145.791 44.0573 145.811 44.0366 145.835 44.0205C145.858 44.0044 145.885 43.9931 145.913 43.9874C145.941 43.9816 145.969 43.9814 145.997 43.9869C146.025 43.9923 146.052 44.0033 146.075 44.0191C146.099 44.0349 146.119 44.0553 146.135 44.0791C146.151 44.1028 146.162 44.1295 146.167 44.1575C146.172 44.1854 146.172 44.2142 146.166 44.242C146.16 44.2699 146.149 44.2963 146.132 44.3197C145.768 44.8644 145.12 45.2075 144.465 45.2075V45.2075Z" fill="#F18B89"/>
<path d="M129.173 86.0651C130.176 87.0927 138.612 85.541 138.612 85.541L139.111 79.3796C139.111 79.3796 133.396 76.4224 132.457 77.0207C131.53 77.6143 134.102 79.4632 134.102 79.4632C133.441 79.3882 128.53 78.8371 128.858 80.0663C128.976 80.5132 129.949 81.0261 130.383 81.1342C129.043 81.1719 127.144 81.5828 127.27 82.1944C127.446 83.0458 129.072 82.9587 129.639 82.9021C129.063 82.9806 127.41 83.2752 127.753 84.0717C127.962 84.5567 129.952 84.7004 130.578 84.7214C130.122 84.8707 128.392 85.2661 129.173 86.0651V86.0651Z" fill="#FEC3BD"/>
<path d="M158.395 53.0849C158.395 53.0849 163.691 54.1159 164.157 61.1175C164.425 65.1491 164.346 74.0987 164.257 79.9157C164.211 82.9373 161.778 85.3781 158.757 85.4372L138.185 85.8417L137.893 78.3297L154.822 75.777C154.822 75.777 153.105 65.4124 153.8 61.1904C154.821 54.9908 158.395 53.0849 158.395 53.0849V53.0849Z" fill="#47ADF7"/>
<path d="M73.6677 66.3809C73.6677 66.3809 72.5002 68.1788 69.0503 68.2251C69.0503 68.2251 69.2068 67.9986 69.3779 67.5903C70.1148 65.8289 69.7228 63.8092 68.4923 62.3493C67.1666 60.7753 65.2404 57.4647 68.3207 53.8307C72.5993 48.7698 84.8578 49.9664 88.6518 52.237C92.4461 54.5079 91.9615 69.492 73.6677 66.3809V66.3809Z" fill="#F9DAE0"/>
<path d="M86.9516 58.0703V56.9912L86.1067 56.6129C86.0312 56.3386 85.9219 56.0749 85.7812 55.8276L86.111 54.9621L85.348 54.1991L84.4825 54.5294C84.2354 54.3886 83.9718 54.2791 83.6977 54.2034L83.3189 53.3585H82.2399L81.8612 54.2034C81.587 54.2791 81.3234 54.3886 81.0763 54.5294L80.2108 54.1991L79.4478 54.9625L79.7776 55.8276C79.6368 56.0747 79.5273 56.3384 79.4517 56.6125L78.6072 56.9912V58.0703L79.4521 58.449C79.5284 58.726 79.6382 58.9894 79.7776 59.2338L79.4478 60.0993L80.2108 60.8628L81.0763 60.5325C81.3208 60.6719 81.5841 60.7817 81.8612 60.8585L82.2399 61.703H83.3189L83.6977 60.858C83.9718 60.7825 84.2354 60.6731 84.4825 60.5325L85.348 60.8628L86.111 60.0993L85.7812 59.2338C85.9202 58.9894 86.03 58.726 86.1067 58.449L86.9516 58.0703V58.0703Z" fill="white"/>
<path d="M84.6897 57.5299C84.6898 57.9253 84.5726 58.3118 84.353 58.6406C84.1333 58.9695 83.8211 59.2257 83.4558 59.3771C83.0905 59.5285 82.6886 59.5681 82.3008 59.491C81.9129 59.4138 81.5567 59.2234 81.2771 58.9438C80.9975 58.6642 80.8071 58.308 80.73 57.9202C80.6529 57.5324 80.6925 57.1304 80.8438 56.7651C80.9952 56.3998 81.2515 56.0876 81.5803 55.868C81.9091 55.6483 82.2957 55.5312 82.6911 55.5313C83.2211 55.5313 83.7295 55.7418 84.1043 56.1166C84.4791 56.4914 84.6897 56.9998 84.6897 57.5299Z" fill="#F9DAE0"/>
<path d="M78.3143 61.0682V60.1826L77.6207 59.8716C77.5589 59.6465 77.4693 59.43 77.354 59.227L77.6242 58.5167L76.998 57.8906L76.2878 58.1608C76.0848 58.0454 75.8682 57.9558 75.6431 57.894L75.3322 57.2005H74.4465L74.136 57.894C73.9109 57.956 73.6943 58.0457 73.4914 58.1612L72.7812 57.8906L72.155 58.5167L72.4252 59.227C72.3097 59.4299 72.22 59.6465 72.158 59.8716L71.4649 60.1826V61.0682L72.158 61.3787C72.221 61.6065 72.3111 61.8226 72.4252 62.0233L72.155 62.734L72.7812 63.3602L73.4914 63.0896C73.6921 63.2036 73.9083 63.2937 74.136 63.3568L74.4465 64.0498H75.3322L75.6431 63.3568C75.8683 63.2948 76.0848 63.205 76.2878 63.0896L76.998 63.3598L77.6242 62.7336L77.354 62.0233C77.4681 61.8226 77.5581 61.6065 77.6207 61.3787L78.3143 61.0682V61.0682Z" fill="white"/>
<path d="M76.4576 60.6247C76.4612 60.8425 76.4215 61.0588 76.3407 61.261C76.2599 61.4632 76.1397 61.6474 75.987 61.8027C75.8344 61.958 75.6523 62.0814 75.4515 62.1656C75.2507 62.2499 75.0351 62.2934 74.8173 62.2935C74.5995 62.2936 74.3839 62.2504 74.183 62.1663C73.9821 62.0823 73.7999 61.9591 73.6471 61.8039C73.4943 61.6488 73.3739 61.4648 73.2929 61.2626C73.2119 61.0605 73.1719 60.8442 73.1753 60.6264C73.182 60.1958 73.3578 59.785 73.6647 59.4828C73.9715 59.1805 74.3849 59.011 74.8156 59.0108C75.2463 59.0105 75.6599 59.1796 75.9671 59.4816C76.2742 59.7835 76.4504 60.1941 76.4576 60.6247V60.6247Z" fill="#F9DAE0"/>
<path d="M171.948 126.094C171.948 126.094 171.53 129.787 170.985 131.469C170.439 133.151 169.921 134.758 170.368 138.78C170.816 142.802 171.076 143.135 171.179 144.178C171.283 145.221 171.169 149.621 171.399 150.345C171.628 151.07 170.141 156.114 170.047 158.277C170.018 158.927 169.964 159.668 169.916 160.423L170.19 160.421C170.28 159.403 170.467 158.396 170.748 157.414C171.908 153.379 171.382 152.862 173.374 150.329C175.367 147.797 175.473 142.578 175.473 142.578C175.473 142.578 176.394 136.644 175.404 134.043C174.413 131.441 174.318 128.833 171.947 126.094H171.948ZM165.815 146.626C166.749 144.605 165.309 139.417 166.643 137.088C167.977 134.759 167.254 131.127 166.932 129.732C166.609 128.336 166.945 127.383 167.212 125.907C167.48 124.432 166.872 122.296 166.872 122.296C166.836 124.123 165.466 126.631 164.473 128.242C163.48 129.853 161.614 134.229 161.854 136.202C162.093 138.176 161.982 138.326 161.982 138.326C161.296 140.978 162.01 141.718 161.81 144.59C161.61 147.461 163.434 147.223 163.523 149.048C163.613 150.874 166.024 153.948 167.146 156.138C167.73 157.277 167.957 159.025 168.04 160.439L168.927 160.431C168.555 156.853 167.082 154.372 166.197 152.381C165.058 149.819 164.88 148.646 165.815 146.626V146.626Z" fill="#238A6F"/>
<path d="M170.08 158.325C170.06 158.577 170.045 158.833 170.024 159.08V159.085C169.843 159.216 169.677 159.347 169.521 159.478C169.36 159.613 169.211 159.763 169.078 159.926C169.018 159.996 168.957 160.072 168.902 160.147C168.801 160.273 168.706 160.409 168.615 160.55C168.335 160.974 168.083 161.417 167.86 161.874L167.321 161.637C167.609 161.114 167.943 160.617 168.318 160.152C168.408 160.031 168.509 159.911 168.61 159.8C168.766 159.614 168.932 159.437 169.093 159.271C169.425 158.924 169.758 158.612 170.079 158.325H170.08Z" fill="#37C092"/>
<path d="M169.924 161.617L169.39 161.864C169.168 161.441 168.907 160.978 168.615 160.55C168.523 160.412 168.424 160.28 168.318 160.152C168.408 160.031 168.509 159.911 168.61 159.8C168.706 159.911 168.806 160.026 168.902 160.148C168.962 160.218 169.017 160.288 169.068 160.359C169.108 160.399 169.138 160.444 169.168 160.485C169.446 160.844 169.699 161.222 169.923 161.617H169.924Z" fill="#37C092"/>
<path d="M168.61 159.8C168.509 159.911 168.408 160.031 168.318 160.152C168.116 159.895 167.905 159.669 167.689 159.493C166.415 158.466 164.125 157.253 163.576 156.17C163.032 155.083 161.99 155.723 161.336 153.926C160.682 152.129 160.052 151.872 159.75 150.08C159.75 150.08 159.78 149.959 159.101 148.826C158.426 147.694 158.376 144.533 158.547 143.289C158.713 142.046 158.869 140.154 158.396 139.036C158.396 139.036 159.343 140.168 159.579 141.135C159.811 142.101 159.866 142.771 160.44 143.531C161.009 144.291 162.428 146.3 162.247 148.071C162.066 149.843 164.336 152.602 164.316 154.082C164.291 155.556 164.719 156.221 166.098 157.47C166.803 158.109 167.723 158.808 168.61 159.8V159.8ZM170.08 158.325C169.738 158.627 169.409 158.943 169.093 159.271C169.148 156.83 169.229 154.469 168.912 153.543C168.328 151.837 167.633 149.556 167.668 147.427C167.704 145.298 164.679 143.868 164.698 140.022C164.724 136.177 163.772 134.213 162.972 131.672C162.171 129.135 163.173 124.453 163.173 124.453C169.078 128.817 168.856 133.599 170.291 137.586C171.726 141.573 171.071 144.437 170.996 147.608C170.915 150.775 170.099 152.239 170.215 154.056C170.276 154.967 170.2 156.674 170.08 158.325V158.325ZM177.932 148.67C177.323 149.732 177.303 149.914 177.303 149.934C177.036 151.736 176.407 152.003 175.783 153.81C175.159 155.617 174.107 154.993 173.578 156.085C173.115 157.042 171.308 158.124 170.024 159.08C170.045 158.833 170.06 158.577 170.08 158.325C170.437 158.003 170.779 157.711 171.081 157.429C172.441 156.161 172.853 155.491 172.808 154.011C172.762 152.536 174.988 149.738 174.776 147.971C174.57 146.199 175.954 144.17 176.513 143.4C177.072 142.63 177.117 141.961 177.333 140.989C177.555 140.017 178.481 138.87 178.481 138.87C178.028 139.997 178.214 141.885 178.4 143.128C178.591 144.372 178.591 147.528 177.932 148.67V148.67Z" fill="#37C092"/>
<path d="M170.08 158.325C170.06 158.577 170.045 158.833 170.024 159.08V159.085C169.986 159.55 169.946 160.015 169.903 160.48L169.168 160.485H169.068V160.359C169.073 160.213 169.073 160.067 169.078 159.925L169.093 159.271C169.425 158.924 169.758 158.612 170.079 158.325H170.08Z" fill="#37C092"/>
<path d="M161.871 153.358C161.699 153.359 161.529 153.395 161.371 153.464C161.213 153.534 161.071 153.634 160.953 153.76C160.836 153.886 160.745 154.035 160.687 154.197C160.628 154.359 160.604 154.532 160.615 154.704C160.886 159.061 161.9 169.364 165.419 169.028L172.999 168.966C176.523 169.246 177.37 158.927 177.571 154.566C177.579 154.394 177.552 154.222 177.491 154.061C177.43 153.899 177.337 153.752 177.217 153.628C177.098 153.504 176.954 153.406 176.795 153.339C176.636 153.272 176.465 153.239 176.293 153.241L161.871 153.357V153.358Z" fill="#FE8B70"/>
<path d="M144.735 117.407H143.141C143.11 117.408 143.079 117.401 143.051 117.39C143.022 117.378 142.996 117.36 142.974 117.339C142.952 117.317 142.935 117.291 142.923 117.262C142.911 117.233 142.905 117.203 142.905 117.172V111.929C142.905 111.898 142.911 111.867 142.923 111.838C142.935 111.81 142.952 111.784 142.974 111.762C142.996 111.74 143.022 111.722 143.05 111.711C143.079 111.699 143.11 111.693 143.141 111.693H144.735C144.766 111.692 144.797 111.699 144.825 111.71C144.854 111.722 144.88 111.74 144.902 111.761C144.924 111.783 144.941 111.809 144.953 111.838C144.965 111.867 144.971 111.897 144.971 111.928V117.171C144.971 117.202 144.965 117.233 144.953 117.262C144.942 117.29 144.924 117.316 144.902 117.338C144.88 117.36 144.854 117.378 144.826 117.389C144.797 117.401 144.766 117.407 144.735 117.407H144.735ZM151.834 112.832L150.585 116.702C150.529 116.871 150.422 117.019 150.278 117.125C150.134 117.23 149.961 117.288 149.783 117.289H145.699V111.965C146.576 110.636 147.348 110.197 147.834 108.391C147.834 108.391 148.841 108.002 148.999 109.009C149.158 110.025 148.226 111.732 148.226 111.732H151.023C151.156 111.732 151.287 111.763 151.406 111.823C151.524 111.883 151.627 111.97 151.706 112.077C151.785 112.184 151.838 112.308 151.86 112.439C151.882 112.571 151.873 112.705 151.834 112.832V112.832Z" fill="#F9DAE0"/>
<path d="M81.4053 31.7078C81.4053 35.6064 76.8243 39.8708 76.8243 39.8708C76.8243 39.8708 72.2429 35.6068 72.2429 31.7078C72.2429 29.1773 74.2938 27.1268 76.8243 27.1268C79.3543 27.1268 81.4053 29.1777 81.4053 31.7078Z" fill="#EAE8FE"/>
<path d="M76.8243 34.2416C78.2237 34.2416 79.3582 33.1072 79.3582 31.7078C79.3582 30.3083 78.2237 29.1739 76.8243 29.1739C75.4249 29.1739 74.2904 30.3083 74.2904 31.7078C74.2904 33.1072 75.4249 34.2416 76.8243 34.2416Z" fill="white"/>
<path d="M185.041 98.6612C181.468 103.568 177.041 99.9556 177.041 99.9556C178.79 98.3734 179.631 94.8831 180.779 93.6981C181.974 92.4646 184.029 92.676 185.169 93.9605C186.308 95.2455 186.051 97.2729 185.04 98.6612H185.041Z" fill="#F9DAE0"/>
<path d="M174.088 91.289C173.109 93.4836 174.018 96.0797 176.188 97.1648C178.359 98.2499 180.981 97.42 182.149 95.3206L174.088 91.289V91.289Z" fill="#F9DAE0"/>
<path d="M179.4 88.9005C177.358 89.8291 176.388 92.2064 177.234 94.308C178.079 96.4095 180.426 97.4517 182.542 96.7063L179.4 88.9005H179.4Z" fill="#F9DAE0"/>
<path d="M183.982 96.3473C184.326 96.3473 184.605 96.0683 184.605 95.7241C184.605 95.38 184.326 95.101 183.982 95.101C183.638 95.101 183.359 95.38 183.359 95.7241C183.359 96.0683 183.638 96.3473 183.982 96.3473Z" fill="white"/>
<path d="M187.085 96.8504C187.085 96.8504 186.079 97.3136 185.152 96.6728L185.561 95.6221C185.561 95.6221 186.475 95.9815 187.039 95.7713C187.039 95.7713 186.709 96.2868 186.352 96.4159C186.352 96.4159 186.789 96.8564 187.085 96.8504V96.8504Z" fill="#F9DAE0"/>
<path d="M4.39439 168.982H188.606V170.698H4.39439V168.982Z" fill="#1A3A49"/>
</svg>
