<svg width="219" height="192" viewBox="0 0 219 192" fill="none" xmlns="http://www.w3.org/2000/svg">
<g opacity="0.5">
<path opacity="0.5" d="M194.362 171.632C198.923 175.499 20.0713 175.499 24.6375 171.632C20.0741 167.761 198.926 167.761 194.362 171.632Z" fill="#CCECFC"/>
<g opacity="0.3">
<path opacity="0.8" d="M187.554 93.877C185.813 195.76 33.2004 195.744 31.4758 93.877C33.2168 -8.00914 185.827 -7.99269 187.554 93.877Z" fill="#CCECFC"/>
<path opacity="0.6" d="M94.17 125.848C93.1489 185.543 3.73121 185.532 2.72107 125.848C3.74763 66.1495 93.1653 66.1605 94.17 125.848ZM124.83 125.848C125.851 185.543 215.269 185.532 216.279 125.848C215.252 66.1495 125.835 66.1605 124.83 125.848V125.848Z" fill="#CCECFC"/>
<path opacity="0.5" d="M153.618 79.6087C154.316 120.507 215.578 120.502 216.271 79.6087C215.573 38.7072 154.31 38.7127 153.618 79.6087ZM65.3825 79.6087C64.6845 120.507 3.42195 120.502 2.73758 79.6059C3.42743 38.7072 64.6899 38.7127 65.3825 79.6087V79.6087Z" fill="#CCECFC"/>
</g>
</g>
<g opacity="0.5">
<path opacity="0.6" d="M44.8649 109.05C44.3174 108.867 43.6905 108.381 42.4778 107.764C38.3332 105.488 38.3223 105.444 38.2511 105.194C38.2232 105.086 38.2379 104.971 38.2921 104.873C38.6781 104.294 40.9119 105.468 41.7742 105.584C39.9675 104.341 26.28 97.7444 27.3202 96.8475C27.3969 96.6007 27.8677 96.6144 28.1798 96.8256C30.9912 98.1257 33.9696 99.5438 37.1698 101.036C31.7769 97.813 25.0864 94.4914 20.5011 91.3371C20.5011 89.8231 23.6794 92.0969 24.9633 92.5659C28.908 94.5545 34.4432 97.5031 38.7685 99.744C35.8421 97.8377 21.1225 90.6459 22.3599 90.144C22.8718 89.5954 23.5398 90.4183 24.2761 90.6569C27.6898 92.4096 31.2568 94.2775 35.3767 96.373C32.1656 94.4201 25.3958 91.0628 23.7259 89.4171C23.5863 88.9152 24.2515 88.7863 24.4924 88.97C28.4399 90.7584 33.1018 93.2571 37.4435 95.4048C34.5117 93.611 28.4262 90.6103 26.5318 89.0606C26.0938 87.1899 33.5207 91.7211 34.7854 92.1106C32.6803 90.9175 27.5639 88.1746 27.9663 87.8921C27.8623 87.3243 28.4235 87.2283 28.8532 87.5136C32.6474 89.3348 36.6141 91.3536 41.0214 93.4299L38.1991 91.8857C30.7257 87.8702 29.8853 87.3326 29.7703 86.9486C29.7101 86.6057 29.899 86.2793 30.4136 86.4658C33.5782 87.8784 36.8139 89.4144 40.3781 91.0272C37.6132 89.4528 34.6047 87.7604 32.1054 86.3314C31.5333 85.994 31.4895 85.9831 31.6126 85.5662C32.1601 84.6802 38.1005 88.213 39.6664 88.7534C37.7008 87.541 35.4342 86.6935 34.0353 85.5113C33.6767 83.8382 39.8443 87.2859 40.9585 87.5355C39.4884 86.6002 36.1706 85.1054 35.4041 84.2441C35.207 82.6862 40.025 85.4098 41.0132 85.6155C40.1153 85.1163 38.9272 84.458 38.2401 84.0713C37.0712 83.3444 37.1232 83.616 37.219 82.9988C37.5612 82.3022 41.7961 84.6446 43.2717 85.0423L42.1767 84.4416C39.7129 83.1003 39.7129 83.1003 39.6527 82.8891C39.5103 81.5451 42.9076 83.3417 43.7808 83.4377C40.942 81.8688 40.9393 81.866 40.8763 81.6384C40.6573 80.4178 43.7918 81.8798 44.6048 81.8962C43.5974 81.29 43.6412 81.5012 43.7425 80.9335C43.8602 80.7305 43.8712 80.714 45.5575 80.6153C44.6678 80.053 45.3357 79.7924 46.4034 79.2658C46.3801 79.2274 46.3626 79.1858 46.3513 79.1424L46.751 79.0327L46.8003 79.0628L46.751 79.0327L46.9728 78.6898C48.0678 79.2384 47.794 79.5456 46.4253 80.171C46.9591 80.4974 47.5641 80.6729 47.2985 81.1447C46.9344 81.5616 46.0612 81.323 45.4753 81.4409C47.4929 82.645 47.4217 82.2638 47.3368 83.0016C46.6935 83.5913 44.8731 82.6642 43.9122 82.5764L44.2708 82.7739C47.4655 84.5376 47.4682 84.5458 47.5312 84.779C47.7256 86.1092 44.2955 84.2907 43.4441 84.1947C47.3806 86.3451 47.4053 86.4384 47.4737 86.6825C47.5777 88.1088 44.2654 86.1339 43.206 85.8926C46.5922 87.7879 46.6114 87.8564 46.6716 88.0704C46.7866 88.5641 46.2172 88.6958 45.9024 88.4955C44.1367 87.7961 42.2451 86.9897 40.2303 86.1778C46.8304 90.0535 46.636 89.3623 46.6196 90.3332C46.1953 91.0958 41.4457 88.4352 40.181 88.0896C41.1255 88.6107 42.0808 89.1428 42.9568 89.6366C46.8304 91.9707 46.7319 91.5703 46.6744 92.4123C46.1542 93.2352 41.0269 90.1001 39.5076 89.579C41.0625 90.6048 47.7201 93.8304 46.7565 94.2418C46.3705 95.1415 39.3269 91.2521 37.8514 90.7666L38.5987 91.1726C45.8778 95.0839 46.6443 95.5611 46.7538 95.9561C46.8852 96.5568 46.157 96.6034 45.7819 96.4114C43.3346 95.5063 40.1235 93.8825 37.3833 92.5714C38.3277 93.0898 39.2366 93.5835 40.0387 94.0196C45.8312 97.1712 45.8367 97.1876 45.9106 97.4482C45.9251 97.5018 45.929 97.5577 45.922 97.6128C45.9149 97.6678 45.8971 97.721 45.8695 97.7691C45.2235 98.4356 43.5536 97.0916 42.3464 96.672C40.5232 95.8107 37.9664 94.549 35.6422 93.4107C38.0157 94.8425 45.8285 98.9348 46.3185 99.6864C46.3815 101.214 42.8638 98.7867 41.5333 98.315C39.045 97.0971 35.7846 95.4487 32.7378 93.9072C35.582 95.5145 40.1701 98.0791 45.1414 100.83C45.5821 101.063 45.6533 101.173 45.5274 101.521C44.7937 102.281 42.3464 100.534 41.2076 100.15C45.5547 102.83 45.4343 102.374 45.396 103.312C44.7088 104.059 42.4312 102.328 41.016 101.782C38.5522 100.537 34.9414 98.6441 31.87 97.0313C36.1952 99.637 41.391 102.149 44.9497 104.645C44.9169 105.704 43.7617 104.846 43.0882 104.618C40.8462 103.625 37.5749 102.092 35.0099 100.89C36.3485 101.628 37.6981 102.366 38.878 103.011C45.0866 106.406 45.0921 106.428 45.1742 106.694C45.2755 107.945 42.6201 106.48 41.8208 106.42C43.3291 107.402 46.4636 108.576 44.8649 109.05V109.05ZM49.6254 97.2562C49.592 97.3105 49.5706 97.3713 49.5624 97.4345C49.572 97.3742 49.5934 97.3164 49.6254 97.2644V97.2562ZM52.5408 60.8475L52.8502 61.0231L52.5408 60.8475ZM102.848 53.1264C102.607 53.2635 102.142 53.2718 102.103 52.9097C101.934 52.7616 102.859 52.0868 103.185 51.7824C101.32 51.9332 101.559 52.1554 101.268 51.6343C101.381 51.0363 102.456 50.9458 102.993 50.5728C101.463 50.6852 101.679 50.88 101.394 50.3726C101.504 49.7527 103.061 49.5003 103.686 49.0862C102.922 49.0587 100.592 49.7307 100.576 49.0697C100.683 48.3154 103.332 48.0082 104.258 47.5803C103.031 47.6571 99.6313 48.4032 99.9187 47.7449C99.8859 47.0839 103.327 46.7218 104.247 46.3323C101.58 46.5408 98.9059 47.1963 98.9442 46.4996C98.9442 45.7179 103.946 45.194 105.095 44.7689C103.53 44.8622 100.376 45.4738 99.322 45.2955C98.3693 44.3054 103.729 43.8391 104.652 43.4551C99.0592 44.1545 98.4296 44.1518 98.2023 43.9735C97.8602 43.6663 98.2023 43.3124 98.5664 43.3015C101.427 42.7529 104.384 42.2372 107.71 41.579C106.847 41.6887 105.949 41.8094 105.112 41.9191C98.4898 42.7995 97.7561 42.8407 97.4933 42.635C97.1539 42.2948 97.4495 41.9876 97.9313 41.952C100.921 41.3678 104.096 40.7945 107.491 40.1362C104.192 40.3968 99.4479 41.2114 96.631 41.2142C95.1883 40.0484 105.881 39.1735 107.179 38.7456C103.431 39.0775 99.8613 39.8427 96.7761 39.9086C95.3937 38.762 105.49 37.8487 106.817 37.4153C102.418 37.8651 95.2404 38.9074 95.5497 38.5618C94.2932 37.3577 103.138 36.6418 104.381 36.2578L102.12 36.5321C95.0022 37.3769 95.0022 37.3769 94.827 37.2398C94.493 36.9298 94.8462 36.5842 95.202 36.5979C100.403 35.8409 108.777 34.7136 114.619 33.685C111.761 33.6548 94.9091 36.6857 94.7695 35.6736C94.9091 34.6532 101.613 34.1623 103.256 33.7015C95.9083 34.6121 92.0621 35.2347 94.0304 33.9758C96.256 33.4656 98.8456 32.9554 101.312 32.4014C99.864 32.5275 93.5376 33.4656 93.8524 33.1803C93.2009 32.3849 95.6455 32.0558 96.2012 31.7019C95.38 31.7403 93.2748 32.1326 92.9901 31.946C92.7711 31.7431 92.8396 31.1835 92.752 30.7776C92.3468 30.8379 91.9006 30.8736 91.8924 30.7776L92.1059 30.5033L92.4454 30.4676C92.4359 30.383 92.3953 30.305 92.3315 30.2487C92.2678 30.1925 92.1854 30.162 92.1004 30.1632C93.5048 29.9547 93.3652 30.0041 93.5048 31.3042C94.159 31.3783 99.3302 30.3195 99.1495 31.0546C99.0619 31.6937 97.2031 31.9186 96.5489 32.2944L97.4495 32.1847C104.553 31.3042 104.989 31.3179 105.205 31.4852C106.185 32.5522 100.42 33.1063 99.5136 33.4875L102.432 33.1282C111.394 32.0311 111.86 32.0311 112.09 32.2121C113.365 33.2818 105.438 33.8386 104.244 34.2363C106.962 33.9319 117.365 32.437 117.841 32.9883C118.742 34.0855 114.433 34.2692 113.562 34.5655C116.226 34.4036 115.985 34.1979 116.316 34.7465C116.229 35.4103 115.194 35.1771 114.469 35.4048C110.967 35.9534 106.902 36.5486 102.848 37.2096C113.82 35.9643 115.509 35.6379 115.35 36.2523C115.216 36.9902 113.781 36.8009 112.851 37.0944C111.307 37.3687 108.802 37.7856 106.746 38.1312C113.316 37.3577 114.036 37.4071 114.261 37.5826C114.663 38.0544 114.189 38.2738 113.48 38.389C111.29 38.8224 108.985 39.157 106.245 39.5959L109.273 39.2695C113.311 38.8388 113.319 38.8471 113.472 38.9678C114.8 39.936 106.902 40.7698 105.928 41.1346C111.805 40.4983 112.046 40.0759 112.525 40.8055C112.396 41.7682 107.37 42.1769 106.021 42.6048C109.651 42.1934 110.773 41.8203 110.762 42.4046C110.642 43.2686 106.053 43.6855 104.791 44.1271C109.85 43.5593 109.861 43.5785 110.017 43.6937C111.017 44.6811 105.194 45.2626 104.269 45.6548C105.216 45.6302 107.129 45.1502 108.339 45.2736C109.04 46.2089 105.952 46.442 105.197 46.7931C107.335 46.634 107.113 46.4366 107.422 46.9659C107.305 47.712 104.917 47.9534 103.995 48.3758C104.49 48.3538 105.744 48.1015 105.873 48.277C106.502 49.0011 104.263 49.4263 103.77 49.7966C105.213 49.6814 104.98 49.4784 105.26 49.9748C105.167 50.57 104.074 50.7099 103.565 51.072C104.449 51.0034 104.337 50.9047 104.531 51.3134C104.553 51.5246 104.553 51.5246 103.13 52.7479L102.987 52.8713C102.984 52.9215 102.97 52.9704 102.946 53.0146C102.922 53.0587 102.889 53.0969 102.848 53.1264V53.1264ZM110.006 49.1355C109.965 49.2047 109.95 49.2864 109.963 49.3659C109.977 49.4454 110.018 49.5174 110.08 49.5689C110.018 49.5174 109.977 49.4454 109.963 49.3659C109.95 49.2864 109.965 49.2047 110.006 49.1355V49.1355ZM181.028 145.98C176.648 144.389 172.2 141.66 167.393 139.315C169.804 140.673 172.824 142.357 176.599 144.45C177.716 145.136 177.653 144.858 177.562 145.44C176.864 146.211 173.683 144.09 172.265 143.572C173.256 144.285 173.432 144.203 173.292 144.776C172.728 145.687 165.86 141.556 164.143 140.92C165.238 141.608 168.43 143.191 168.586 143.597C168.586 144.513 167.628 143.898 167.072 143.701C165.684 143.128 163.451 142.151 161.805 141.43C164.661 143.111 164.543 142.651 164.485 143.408C164.012 144.08 160.864 142.195 159.815 141.915C160.765 142.448 160.776 142.486 160.817 142.631C161.044 144.003 156.872 141.852 156.027 141.745C155.851 142.752 154.932 141.688 154.231 141.435C152.796 140.659 152.794 140.651 152.736 140.451C152.446 139.142 156.177 141.156 156.974 141.243C153.341 139.109 153.456 139.565 153.508 138.761C153.806 138.084 157.453 140.231 158.46 140.489C154.918 138.396 155.019 138.813 155.074 138.021C155.241 137.244 161.176 140.489 162.441 140.865C160.94 139.932 156.144 137.466 155.818 136.929C155.835 135.632 158.071 137.253 159.062 137.579C161.307 138.643 164.551 140.264 167.124 141.526C165.011 140.272 156.092 135.659 156.768 135.637C156.753 135.586 156.749 135.533 156.756 135.481C156.762 135.428 156.78 135.378 156.807 135.333C157.283 134.809 157.877 135.549 158.561 135.777C161.573 137.305 164.715 138.934 168.345 140.761C167.409 140.237 166.462 139.702 165.537 139.181C157.466 134.622 157.414 134.43 157.346 134.189C157.346 133.465 157.822 133.599 158.728 134.052C162.821 136.029 167.962 138.767 172.501 141.073C168.868 138.879 161.784 135.33 159.227 133.393C158.808 131.564 166.202 136.136 167.439 136.534C166.369 135.944 165.337 135.371 164.395 134.839C159.908 132.302 159.837 132.055 159.771 131.822C159.673 131.273 160.209 131.185 160.653 131.476C164.891 133.558 169.605 135.999 174.458 138.333C173.065 137.573 171.526 136.748 170.116 135.991C161.934 131.602 160.809 130.903 160.691 130.478C160.675 130.424 160.67 130.367 160.676 130.311C160.683 130.254 160.701 130.2 160.73 130.151C161.168 129.627 161.844 130.368 162.501 130.563C165.372 131.912 168.641 133.47 171.978 135.028C168.863 133.13 164.039 130.788 161.562 128.972C161.083 127.115 169.169 131.953 170.448 132.343C167.811 130.749 165.14 129.688 163.185 128.204C162.826 126.558 169.254 130.192 170.382 130.464C168.581 129.337 164.737 127.568 163.656 126.522C163.434 124.986 168.427 127.825 169.405 128.039C168.233 127.386 166.686 126.531 165.726 125.99C164.466 125.211 164.505 125.477 164.6 124.877C164.855 124.18 169.388 126.671 170.839 127.071C169.52 126.289 165.83 124.487 166.166 124.347C166.029 123.058 169.213 124.773 170.204 124.926L169.843 124.726C166.604 122.94 166.604 122.938 166.541 122.71C166.369 121.558 169.235 122.891 170.015 122.891C169.016 122.279 168.126 122.087 168.455 121.566C168.553 121.399 168.559 121.385 169.963 121.136C168.756 120.524 168.887 120.455 169.758 119.312C169.544 119.188 169.503 119.15 169.465 119.013L169.845 118.911L169.988 118.991L169.845 118.911L170.062 118.582C171.113 119.067 170.73 119.312 170.032 120.272C170.483 120.614 171.786 120.987 171.425 121.522C171.529 121.679 170.368 121.862 169.908 121.939C172.098 123.121 172.613 123.445 172.534 123.585C172.783 124.699 170.218 123.629 169.303 123.538L170.226 124.048C173.746 125.988 173.749 126.004 173.815 126.243C174.001 127.526 170.653 125.738 169.832 125.642C174.992 128.629 174.836 128.064 174.817 128.997C174.193 129.649 171.852 128.174 170.65 127.853C175.277 130.596 175.115 130.031 175.088 130.908C174.814 131.643 169.725 128.848 168.499 128.525C175.203 132.326 176.645 132.889 176.164 133.391C175.701 134.128 170.883 131.358 169.577 130.982C177.114 135.333 177.401 135.039 177.371 136.032C176.823 136.855 171.472 133.525 169.9 132.963C171.485 133.862 173.07 134.762 174.447 135.552C178.43 137.829 178.433 137.842 178.493 138.056C178.447 139.085 177.308 138.248 176.637 138.032C174.532 137.115 171.376 135.632 168.945 134.488L170.489 135.311C178.578 139.655 179.49 140.231 179.605 140.634C179.621 140.689 179.626 140.746 179.619 140.802C179.613 140.858 179.595 140.912 179.566 140.961C178.948 141.968 171.143 137.395 169.386 136.729C172.577 138.547 180.609 142.664 179.908 142.7C179.936 142.803 179.922 142.913 179.87 143.007C179.243 143.671 177.393 142.225 176.15 141.784C174.193 140.835 171.439 139.444 168.95 138.193C171.77 139.883 180.683 144.576 181.422 145.498C181.433 145.556 181.43 145.616 181.415 145.673C181.4 145.73 181.373 145.784 181.336 145.83C181.298 145.875 181.251 145.913 181.198 145.939C181.145 145.965 181.087 145.979 181.028 145.98V145.98ZM146.087 152.98C146.064 153.019 146.049 153.062 146.04 153.106C146.049 153.062 146.065 153.02 146.087 152.98V152.98Z" fill="#72C3D1"/>
<path opacity="0.5" d="M34.0572 150.034C16.4223 149.719 16.425 123.703 34.0572 123.385C51.6895 123.703 51.6867 149.713 34.0572 150.034ZM34.0572 128.327C22.9649 128.525 22.9649 144.894 34.0572 145.092C45.1496 144.886 45.1468 128.514 34.0572 128.319V128.327ZM164.781 75.0144C152.736 74.7977 152.736 57.024 164.781 56.8101C176.826 57.024 176.823 74.8005 164.781 75.0144ZM164.781 60.1865C157.206 60.3209 157.206 71.5035 164.781 71.6379C172.358 71.5008 172.358 60.3209 164.781 60.1865ZM196.219 115.631C188.187 115.488 188.189 103.636 196.219 103.493C204.248 103.639 204.245 115.488 196.219 115.631ZM196.219 105.756C191.165 105.847 191.168 113.302 196.219 113.39C201.269 113.28 201.266 105.836 196.219 105.745V105.756Z" fill="#72C3D1"/>
</g>
<path d="M119.226 171.813C119.675 173.494 99.3247 173.494 99.7736 171.813C99.3247 170.131 119.675 170.131 119.226 171.813Z" fill="#F37E2E"/>
<path d="M110.277 171.813C109.73 171.695 108.087 172.175 108.104 171.193V117.318H110.896C110.321 117.943 112.032 171.95 110.277 171.813V171.813Z" fill="#FAA740"/>
<path d="M152.722 117.317C155.079 119.885 63.9124 119.885 66.2776 117.317C63.9206 114.75 155.088 114.75 152.722 117.317Z" fill="#FAA740"/>
<path d="M37.0986 133.103L26.9698 170.916H25.7407L35.0728 131.416L37.0986 133.103Z" fill="url(#paint0_linear_2_13988)"/>
<path d="M46.7018 133.103L36.5703 170.916H35.3411L44.6733 131.416L46.7018 133.103Z" fill="url(#paint1_linear_2_13988)"/>
<path d="M57.4629 133.103L67.5916 170.916H68.8207L59.4886 131.416L57.4629 133.103Z" fill="url(#paint2_linear_2_13988)"/>
<path d="M58.2348 136.517H37.3121C36.0655 136.521 34.8578 136.083 33.9032 135.279C32.9485 134.476 32.3087 133.36 32.0972 132.129L28.1962 108.809C28.0753 108.055 28.1193 107.284 28.3251 106.549C28.531 105.813 28.8937 105.132 29.3884 104.551C29.883 103.97 30.4977 103.504 31.1899 103.184C31.8822 102.865 32.6354 102.7 33.3975 102.701H49.5487C50.6258 102.698 51.6781 103.024 52.5646 103.637C53.4512 104.25 54.1296 105.119 54.5091 106.129L63.187 129.444C63.4803 130.241 63.5765 131.097 63.4673 131.939C63.3581 132.781 63.0468 133.585 62.56 134.28C62.0732 134.975 61.4254 135.542 60.6721 135.932C59.9189 136.322 59.0826 136.523 58.2348 136.517V136.517Z" fill="url(#paint3_linear_2_13988)"/>
<path d="M55.5165 131.325C58.514 131.325 78.9905 126.413 77.2468 137.453L54.3202 136.284L55.5165 131.325Z" fill="url(#paint4_linear_2_13988)"/>
<path style="mix-blend-mode:multiply" opacity="0.3" d="M49.0286 105.581L47.3588 134.26C33.7151 133.712 36.6688 136.94 32.475 120.318C28.188 100.918 30.5779 104.179 47.6051 104.026L49.0286 105.581Z" fill="url(#paint5_linear_2_13988)"/>
<path d="M73.7154 103.008L73.6908 103.033C73.417 103.419 73.1159 103.803 72.8257 104.185C72.5591 103.707 72.1849 103.299 71.7329 102.991C71.281 102.684 70.7637 102.487 70.2224 102.416C70.57 102.075 70.8657 101.793 71.0901 101.593C71.2517 100.899 70.8711 100.32 70.8383 99.6315C70.8766 99.0199 70.2716 98.8663 70.2634 98.6798C70.2552 98.4932 70.3209 98.4576 70.7261 98.5673C71.0765 98.4576 72.2508 100.976 72.7272 99.7467L73.0009 98.4576C73.0009 98.4576 72.8695 97.6731 72.7272 96.9682C72.7409 94.1129 73.9481 98.9129 73.7045 99.3243C74.0658 98.8279 73.9782 98.592 74.2054 97.451C75.1909 94.8041 74.6845 99.6453 74.3177 99.9717C74.7119 99.5657 74.679 99.2887 75.0376 98.219C76.212 95.9643 75.44 99.648 75.0376 100.271C75.2101 99.9525 76.2202 98.1312 76.0614 99.4258C75.8671 100.172 75.1718 101.705 74.7995 101.985C74.4326 102.204 74.0685 102.769 73.7045 103.044L73.7154 103.008Z" fill="url(#paint6_linear_2_13988)"/>
<path d="M60.5261 112.01C62.3301 114.372 63.4114 114.983 65.5138 112.94C68.1774 110.142 70.4824 107.18 72.8367 104.182C72.5702 103.703 72.1958 103.294 71.7433 102.986C71.2908 102.679 70.7728 102.481 70.2306 102.41C67.2549 105.282 63.3184 109.259 60.5261 112.01V112.01Z" fill="url(#paint7_linear_2_13988)"/>
<path d="M60.8984 101.933C62.415 104.865 62.9625 108.343 64.939 111.003L62.6641 114.064C59.8637 112.117 52.122 100.624 52.6859 97.2288C53.655 90.3387 59.839 99.5273 60.8984 101.933V101.933Z" fill="url(#paint8_linear_2_13988)"/>
<path d="M70.9012 164.489C70.9012 164.489 70.8793 166.135 70.9012 166.958C70.9149 167.32 67.0687 169.081 66.2475 166.609L66.7704 164.632L69.9705 163.496L70.9012 164.489Z" fill="url(#paint9_linear_2_13988)"/>
<path d="M78.6018 171.121C69.5955 171.563 65.4235 170.825 65.4235 170.825C65.2809 169.369 65.5664 167.902 66.2448 166.607C68.161 169.056 72.7381 165.293 75.9355 166.881C77.6492 167.465 78.6456 169.451 78.6018 171.121Z" fill="url(#paint10_linear_2_13988)"/>
<path d="M85.9712 156.37C85.9712 156.37 86.5187 157.925 86.8143 158.691C86.9512 159.025 83.9208 161.982 82.3111 159.919L82.1305 157.884L84.7612 155.745L85.9712 156.37Z" fill="url(#paint11_linear_2_13988)"/>
<path d="M95.4676 160.04C87.1401 163.469 82.9599 164.154 82.9599 164.154C82.3372 162.832 82.1118 161.357 82.3111 159.909C84.9337 161.579 87.9696 156.507 91.5338 156.935C93.3323 156.916 94.9447 158.452 95.4676 160.04Z" fill="url(#paint12_linear_2_13988)"/>
<path d="M76.6281 142.275C74.8378 152.349 70.9177 165.073 70.9177 165.073C69.4846 165.351 68.0118 165.351 66.5787 165.073C66.5787 165.073 67.8791 157.07 66.5787 149.741C65.2784 142.412 67.9475 137.453 67.9475 137.453C67.1591 135.59 59.3764 135.245 52.7653 134.691C59.0753 134.09 72.8805 129.282 74.7228 131.399C74.7146 131.408 73.8495 136.26 76.6281 142.275V142.275Z" fill="url(#paint13_linear_2_13988)"/>
<path d="M76.6281 142.275C73.8495 136.26 74.7119 131.408 74.7119 131.408C72.0948 128.868 56.5923 135.684 49.9703 134.425C46.8633 134.093 44.3667 133.643 43.5673 132.848C40.9612 130.261 44.186 121.053 44.186 121.053L49.6446 116.972L55.3659 122.12C55.3659 122.12 76.5569 124.731 77.4275 132.924C77.6629 135.146 77.2933 138.528 76.6281 142.275Z" fill="url(#paint14_linear_2_13988)"/>
<path d="M86.1327 156.768C84.8546 157.47 83.4544 157.922 82.0073 158.098C82.2236 158.373 79.9952 147.906 76.6281 142.275C77.2933 138.528 77.6629 135.143 77.4302 132.924C76.5597 124.731 55.3687 122.12 55.3687 122.12L50.6876 117.91L50.9613 117.534L58.2403 121.081C58.2403 121.081 78.9714 116.665 82.3303 124.191C85.6892 131.717 86.1327 156.768 86.1327 156.768Z" fill="url(#paint15_linear_2_13988)"/>
<path d="M52.7571 134.691C56.8305 135.031 61.3474 135.294 64.4024 135.881C74.5476 131.767 70.5371 135.036 76.2613 144.219C76.3927 143.564 76.5131 142.914 76.6281 142.275C73.8495 136.26 74.7118 131.408 74.7118 131.408C72.8722 129.282 59.067 134.087 52.7571 134.691V134.691Z" fill="url(#paint16_linear_2_13988)"/>
<path style="mix-blend-mode:multiply" opacity="0.3" d="M52.7571 134.691C56.8305 135.031 61.3474 135.294 64.4024 135.881C74.5476 131.767 70.5371 135.036 76.2613 144.219C76.3927 143.564 76.5131 142.914 76.6281 142.275C73.8495 136.26 74.7118 131.408 74.7118 131.408C72.8722 129.282 59.067 134.087 52.7571 134.691V134.691Z" fill="url(#paint17_linear_2_13988)"/>
<path d="M51.7689 87.0308C51.7689 87.0308 51.2624 93.1501 53.2033 93.866C53.2033 93.866 50.2961 97.1355 47.1151 92.5302C47.1151 92.5302 47.6434 89.3047 46.9673 86.8059L51.7689 87.0308Z" fill="url(#paint18_linear_2_13988)"/>
<path d="M52.1631 102.41C48.7932 98.5344 47.4491 93.6905 47.1863 92.6263C47.46 92.9883 48.7384 94.3872 51.2268 94.4174C52.0481 94.3954 52.3054 93.9483 52.3355 93.4793C52.7465 96.4468 52.6883 99.4607 52.1631 102.41V102.41Z" fill="#DAECEF"/>
<path d="M56.2474 106.714L55.9737 106.79C56.0667 106.772 56.1583 106.746 56.2474 106.714Z" fill="url(#paint19_linear_2_13988)"/>
<path d="M56.6662 75.6535C56.6662 75.6535 51.6128 69.8935 45.9708 73.7006C45.3943 74.0323 44.8911 74.4782 44.492 75.0111C44.0929 75.5439 43.8063 76.1526 43.6494 76.8C43.6494 76.8 41.3527 76.8795 41.3965 80.4535C41.4403 84.0274 46.2692 88.5723 46.2692 88.5723L47.7666 79.5703L56.6662 75.6535Z" fill="url(#paint20_linear_2_13988)"/>
<path d="M56.8661 78.9065C55.5493 82.9906 59.6665 87.659 54.2353 91.8199C52.5162 91.6114 45.9407 91.4414 45.2509 85.525C44.9306 84.5404 43.4058 84.1536 43.9095 82.464C44.4132 80.7744 45.2646 81.7673 45.2646 81.7673C45.2646 81.7673 45.3221 80.4837 45.4562 79.403C45.5903 78.3223 56.8661 78.9065 56.8661 78.9065V78.9065Z" fill="url(#paint21_linear_2_13988)"/>
<path d="M45.3631 83.3828C45.3631 83.3828 47.0056 87.467 47.5531 87.648C49.3051 86.57 46.5156 81.8606 49.3954 80.5906C51.0872 79.8473 56.888 84.7762 62.9242 79.9131C61.0216 80.736 58.7495 78.7995 57.931 77.2443C54.0574 70.0553 42.3217 76.032 45.3631 83.3828V83.3828Z" fill="url(#paint22_linear_2_13988)"/>
<path d="M58.0761 112.797C58.0761 113.373 57.66 116.741 57.5997 117.221C57.5997 117.178 57.7202 116.069 58.0761 112.797Z" fill="url(#paint23_linear_2_13988)"/>
<path d="M58.8891 120.96C58.3416 121.651 54.3175 123.59 54.3175 123.59L53.6906 122.537C53.5866 122.51 53.2471 123.599 53.2033 123.769C47.1808 125.856 42.3464 124.816 42.3464 124.816C43.0308 121.758 43.1348 119.056 42.5353 116.412C41.3708 111.294 40.6093 106.092 40.2577 100.855C40.1783 99.36 39.7348 96.5376 41.1611 95.5419C42.6229 94.4941 45.8586 92.4123 47.1206 92.5495C47.534 93.7042 48.7001 98.4576 52.1631 102.424C52.8858 97.6484 52.6586 94.9933 52.133 92.426C52.6531 93.2791 53.6988 93.77 54.5666 94.1952C55.2619 94.8727 56.2091 94.8013 56.7018 95.7915C57.5669 97.5003 57.7366 99.9634 57.9748 101.84C58.4608 105.017 58.5289 108.244 58.1774 111.44C57.9365 114.026 57.5532 119.095 58.8891 120.96V120.96Z" fill="url(#paint24_linear_2_13988)"/>
<g style="mix-blend-mode:multiply" opacity="0.5">
<path d="M53.3949 106.486C53.4141 107.69 51.5115 107.69 51.528 106.486C51.5444 105.282 53.4141 105.285 53.3949 106.486ZM54.1368 116.972C54.1532 118.173 52.2507 118.173 52.2698 116.972C52.289 115.77 54.1532 115.768 54.1368 116.972Z" fill="#089DD2"/>
</g>
<path d="M49.4146 95.4459L50.1921 96.4526L51.3993 96.3428L51.6156 95.3499L50.5151 94.368L49.4146 95.4459V95.4459Z" fill="#F2696A"/>
<path d="M46.0119 99.2448L47.5695 97.344L45.4096 94.5189L47.0248 92.544L47.1343 92.4124C47.4737 93.7509 48.6809 98.3397 52.163 102.41L46.0119 99.2448Z" fill="#089DD2"/>
<path d="M52.1631 102.41C52.9186 97.7637 52.5874 94.9029 52.1631 92.4974L53.7043 93.7893L53.4552 96.1755L55.3112 97.9858L52.1631 102.41Z" fill="#089DD2"/>
<path d="M50.5151 94.368C50.5151 94.368 48.7658 95.8821 48.2867 97.0094C47.4441 95.6305 47.042 94.0266 47.1343 92.4124C47.1343 92.4124 48.8178 93.9538 50.5151 94.368V94.368ZM50.5151 94.368C51.4309 95.0606 52.2098 95.9182 52.8118 96.8969C52.8118 96.8969 53.1978 93.9621 52.1603 92.5248C51.7968 93.2826 51.2263 93.9217 50.5151 94.368V94.368Z" fill="#BDDEE2"/>
<path style="mix-blend-mode:multiply" opacity="0.5" d="M58.8891 120.96C58.3416 121.651 54.3175 123.59 54.3175 123.59L54.0437 123.138C55.7159 122.547 57.3366 121.818 58.8891 120.96V120.96Z" fill="url(#paint25_linear_2_13988)"/>
<path style="mix-blend-mode:multiply" opacity="0.5" d="M53.3265 123.36C53.2824 123.492 53.2413 123.626 53.2033 123.76C47.1808 125.848 42.3464 124.808 42.3464 124.808C44.0546 118.225 41.2514 112.649 40.7668 106.253L44.9278 103.03C44.9278 103.03 44.7855 108.853 44.6733 110.246C44.561 111.64 52.8721 109.868 53.9178 109.105C54.9635 108.343 56.8743 108.661 57.3753 107.578C58.2458 106.48 58.8097 110.32 58.692 111.036C56.8031 113.815 45.6943 115.151 44.9278 117.317C44.3064 119.018 44.5583 125.982 53.3265 123.36Z" fill="url(#paint26_linear_2_13988)"/>
<path d="M54.7007 112.69H54.6679C54.2134 112.849 53.7572 113.006 53.2991 113.159C53.3516 112.616 53.2751 112.068 53.0757 111.561C52.8764 111.053 52.5598 110.6 52.1521 110.238C52.6339 110.153 53.0363 110.085 53.3429 110.035C53.8713 109.552 53.8904 108.861 54.249 108.274C54.6295 107.792 54.2134 107.325 54.3147 107.177C54.416 107.029 54.4872 107.026 54.7609 107.344C55.1141 107.454 54.6514 110.186 55.7437 109.437L56.6991 108.524C56.6991 108.524 57.0331 107.802 57.3205 107.152C58.9411 104.818 57.2274 109.437 56.7894 109.643C57.3698 109.434 57.4382 109.196 58.2649 108.376C60.5809 106.744 57.4191 110.452 56.929 110.521C57.4765 110.405 57.6134 110.159 58.5168 109.478C60.767 108.272 58.035 110.885 57.3561 111.173C57.6055 111.077 57.8463 110.959 58.076 110.822C60.6767 109.893 56.4691 112.698 56.1844 112.454C55.7574 112.432 55.136 112.696 54.6679 112.709L54.7007 112.69Z" fill="url(#paint27_linear_2_13988)"/>
<path d="M38.6973 112.731C38.8479 115.718 39.4118 116.799 42.2889 116.297C46.0776 115.474 49.661 114.325 53.3101 113.162C53.3626 112.619 53.286 112.071 53.0867 111.563C52.8873 111.056 52.5708 110.603 52.1631 110.241C48.076 110.951 42.5654 112.032 38.6973 112.731Z" fill="url(#paint28_linear_2_13988)"/>
<path d="M44.7253 104.624C44.3064 107.89 42.7926 111.053 42.9158 114.38L39.2968 115.633C38.0868 112.457 38.221 98.6277 40.6108 96.1426C45.2865 91.0464 45.1907 102.152 44.7253 104.624Z" fill="url(#paint29_linear_2_13988)"/>
<path d="M142.158 102.007C142.166 102.014 142.172 102.022 142.178 102.031C142.426 102.443 142.678 102.852 142.936 103.258C143.242 102.806 143.648 102.433 144.124 102.167C144.599 101.9 145.129 101.749 145.673 101.724C145.414 101.418 145.15 101.115 144.882 100.816C144.784 100.109 145.216 99.5684 145.309 98.8964C145.326 98.282 145.944 98.1833 145.969 97.9995C145.994 97.8157 145.931 97.7718 145.517 97.8459C145.178 97.706 143.784 100.109 143.418 98.8443L143.267 97.536C143.267 97.536 143.467 96.7652 143.669 96.0768C143.913 93.2324 142.279 97.9062 142.487 98.3369C142.169 97.8102 142.268 97.5826 142.156 96.4169C141.408 93.696 141.479 98.5563 141.816 98.9184C141.466 98.4685 141.529 98.1942 141.255 97.0971C140.289 94.7465 140.729 98.485 141.069 99.1378C140.926 98.8059 140.083 96.9051 140.127 98.2052C140.253 98.9677 140.806 100.556 141.154 100.869C141.499 101.121 141.811 101.716 142.164 102.021L142.158 102.007Z" fill="url(#paint30_linear_2_13988)"/>
<path d="M142.158 102.007V102.027C142.159 102.02 142.159 102.013 142.158 102.007Z" fill="url(#paint31_linear_2_13988)"/>
<path d="M142.158 102.007V102.027C142.159 102.02 142.159 102.013 142.158 102.007Z" fill="url(#paint32_linear_2_13988)"/>
<path d="M154.488 112.139C152.484 114.333 151.348 114.846 149.437 112.624C147.034 109.607 145.003 106.453 142.928 103.252C143.236 102.799 143.645 102.424 144.123 102.158C144.601 101.891 145.135 101.74 145.682 101.716C148.386 104.84 151.953 109.166 154.488 112.139V112.139Z" fill="url(#paint33_linear_2_13988)"/>
<path d="M155.019 102.067C153.253 104.854 152.402 108.258 150.182 110.746L152.175 113.996C155.14 112.301 163.875 101.549 163.62 98.1093C163.262 91.1589 156.289 99.7687 155.019 102.067V102.067Z" fill="url(#paint34_linear_2_13988)"/>
<path d="M167.478 75.445C160.234 73.525 154.584 78.1741 155.041 85.5689C155.137 87.1625 155.652 96.4141 158.052 96.362C160.133 96.3181 160.059 93.5259 171.597 94.6971C176.799 95.2265 178.375 89.7216 175.884 85.7499C172.736 82.3021 172.438 76.8768 167.478 75.445V75.445Z" fill="url(#paint35_linear_2_13988)"/>
<path d="M174.754 136.668L184.354 170.916H185.52L176.673 135.141L174.754 136.668Z" fill="url(#paint36_linear_2_13988)"/>
<path d="M165.652 136.668L175.252 170.916H176.418L167.571 135.141L165.652 136.668Z" fill="url(#paint37_linear_2_13988)"/>
<path d="M155.449 136.668L145.846 170.916H144.68L153.527 135.141L155.449 136.668Z" fill="url(#paint38_linear_2_13988)"/>
<path d="M154.718 139.976H174.551C175.731 139.977 176.873 139.559 177.775 138.797C178.677 138.035 179.28 136.978 179.479 135.813L183.169 113.708C183.284 112.992 183.242 112.26 183.046 111.562C182.85 110.864 182.505 110.217 182.034 109.666C181.564 109.116 180.98 108.674 180.322 108.372C179.664 108.07 178.948 107.915 178.225 107.918H162.947C161.926 107.916 160.93 108.226 160.09 108.807C159.25 109.387 158.607 110.211 158.247 111.168L150.015 133.275C149.737 134.031 149.647 134.843 149.751 135.642C149.856 136.44 150.152 137.202 150.614 137.861C151.076 138.519 151.691 139.056 152.406 139.425C153.121 139.793 153.914 139.982 154.718 139.976Z" fill="url(#paint39_linear_2_13988)"/>
<path d="M157.294 135.056C154.45 135.056 135.041 130.393 136.694 140.862L158.427 139.765L157.294 135.056Z" fill="url(#paint40_linear_2_13988)"/>
<path style="mix-blend-mode:multiply" opacity="0.3" d="M163.442 110.65C163.442 110.65 165.025 137.659 165.036 137.84C177.99 137.318 175.164 140.352 179.147 124.619C183.21 106.242 180.946 109.319 164.806 109.174L163.442 110.65Z" fill="url(#paint41_linear_2_13988)"/>
<path d="M151.622 164.571C151.622 164.571 151.644 166.11 151.622 166.878C151.622 167.218 155.216 168.867 155.983 166.554L155.49 164.709L152.479 163.644L151.622 164.571Z" fill="url(#paint42_linear_2_13988)"/>
<path d="M144.417 170.784C152.843 171.198 156.749 170.51 156.749 170.51C156.879 169.147 156.61 167.775 155.975 166.563C154.146 168.856 149.875 165.326 146.902 166.837C145.307 167.361 144.373 169.234 144.417 170.784V170.784Z" fill="url(#paint43_linear_2_13988)"/>
<path d="M134.324 164.571C134.324 164.571 134.346 166.11 134.324 166.878C134.324 167.218 137.918 168.867 138.684 166.554L138.197 164.703L135.2 163.639L134.324 164.571Z" fill="url(#paint44_linear_2_13988)"/>
<path d="M127.119 170.784C135.547 171.198 139.451 170.51 139.451 170.51C139.581 169.147 139.312 167.775 138.676 166.563C136.848 168.856 132.577 165.326 129.604 166.837C128.008 167.361 127.075 169.234 127.119 170.784V170.784Z" fill="url(#paint45_linear_2_13988)"/>
<path d="M156.161 112.989C156.161 112.989 155.983 122.973 154.792 124.819C153.601 126.665 152.175 128.695 152.175 128.695L158.249 127.301L157.858 116.689L156.161 112.989Z" fill="url(#paint46_linear_2_13988)"/>
<path d="M134.337 165.008C135.648 165.448 137.03 165.634 138.411 165.556C138.32 165.765 138.526 155.775 140.768 149.9C141.811 147.215 141.397 140.401 140.721 139.441C145.224 136.841 155.723 139.622 161.22 138.75C173.87 137.823 171.075 131.794 167.467 124.707L161.685 121.81L160.864 122.858L160.554 122.554L154.51 126.668C149.035 126.61 133.686 127.691 132.388 133.989C130.519 141.562 134.337 165.008 134.337 165.008V165.008Z" fill="url(#paint47_linear_2_13988)"/>
<path d="M141.458 144.425C141.658 144.595 141.884 144.73 142.128 144.826L155.923 137.491L162.881 124.347L159.355 123.382L154.529 126.657C150.352 126.278 140.935 127.729 139.722 135.522C138.753 141.361 140.447 143.622 141.458 144.425V144.425Z" fill="url(#paint48_linear_2_13988)"/>
<path d="M159.624 97.9365L159.531 98.5317C159.676 98.4302 159.821 98.3232 159.963 98.208L159.886 97.6183C159.802 97.7253 159.714 97.8295 159.624 97.9365V97.9365Z" fill="url(#paint49_linear_2_13988)"/>
<path d="M162.208 89.4391C162.208 89.4391 163.029 95.9342 160.998 96.7351C160.998 96.7351 164.031 100.01 167.245 95.0894C167.245 95.0894 166.602 91.7157 167.245 89.0743L162.208 89.4391Z" fill="url(#paint50_linear_2_13988)"/>
<path d="M141.277 138.144C141.449 129.836 152.577 129.309 157.831 127.699C159.213 126.492 160.568 124.594 162.019 123.223C162.131 123.272 162.254 123.379 162.375 123.45C162.553 123.061 162.742 122.669 162.922 122.282C165 122.858 167.866 122.482 169.977 123.014C182.06 145.709 152.183 136.468 150.393 141.345C152.539 144.494 152.941 147.898 152.821 151.952C152.709 156.513 154.056 161.143 155.72 165.367C154.417 165.822 153.097 166.376 151.644 166.072C146.941 158.652 141.104 146.469 141.277 138.144V138.144Z" fill="url(#paint51_linear_2_13988)"/>
<path d="M156.492 116.547C156.738 119.984 156.812 123.258 156.467 125.05C156.467 125.05 162.32 128.341 171.217 125.324C170.981 125.349 177.124 107.221 173.538 99.8455C172.315 98.474 169.079 95.0619 167.242 95.0976C167.242 95.0976 165.996 97.0423 163.029 97.1547C161.283 97.1547 162.022 95.2813 162.09 95.1113C154.077 103.68 155.405 105.584 156.492 116.547V116.547Z" fill="url(#paint52_linear_2_13988)"/>
<path d="M157.256 125.623L154.316 128.152L153.973 128.914L154.773 128.824L157.784 126.248C158.06 126.067 157.455 125.403 157.256 125.623V125.623Z" fill="url(#paint53_linear_2_13988)"/>
<path d="M157.261 129.883H148.195V128.805H157.261V129.883Z" fill="url(#paint54_linear_2_13988)"/>
<path d="M157.872 126.235C157.872 126.235 156.741 125.785 156.396 126.034C155.928 126.481 153.968 127.598 155.802 127.329C154.433 128.075 155.077 127.688 155.528 128.464C155.32 129.098 155.413 129.073 156.054 129.348C156.328 129.935 155.86 130.231 156.875 129.984C156.976 129.948 157.05 129.904 157.122 130.009C157.247 130.19 158.123 130.031 158.871 128.805C159.692 127.433 157.872 126.235 157.872 126.235Z" fill="url(#paint55_linear_2_13988)"/>
<path style="mix-blend-mode:multiply" opacity="0.5" d="M167.302 117.224C168.436 107.026 168.822 114.095 157.261 109.983C165.263 111.486 165.799 109.709 166.476 107.918C167.152 106.127 168.586 108.491 168.586 108.491C168.772 107.509 168.907 106.845 168.907 106.845L173.287 116.119C172.227 125.903 165.988 127.935 158.441 125.804C158.427 125.818 167.401 119.224 167.302 117.224Z" fill="url(#paint56_linear_2_13988)"/>
<path d="M174.023 101.195C174.554 105.51 175.665 114.863 174.023 118.428C172.239 118.239 170.478 117.876 168.764 117.345C168.764 117.345 168.113 108.019 169.312 105.446C170.092 103.762 171.797 102.657 172.87 100.94C172.942 100.836 173.044 100.755 173.162 100.709C173.28 100.663 173.408 100.653 173.532 100.68C173.656 100.708 173.768 100.771 173.856 100.863C173.943 100.954 174.001 101.07 174.023 101.195V101.195Z" fill="url(#paint57_linear_2_13988)"/>
<path d="M174.023 118.428C174.023 118.428 168.904 126.352 158.854 128.805C158.854 128.805 157.872 127.653 157.872 126.235C157.872 126.235 167.412 120.598 168.764 117.345C170.116 114.092 174.023 118.428 174.023 118.428V118.428Z" fill="url(#paint58_linear_2_13988)"/>
<path d="M157.349 83.4761C158.991 86.8718 155.98 91.4304 161.181 94.3954C162.594 94.0526 168.403 93.024 168.241 87.8537C168.4 86.9596 169.681 86.4466 169.038 85.0313C168.395 83.616 167.773 84.587 167.773 84.587C167.773 84.587 167.571 83.4761 167.324 82.5518C167.078 81.6274 157.349 83.4761 157.349 83.4761V83.4761Z" fill="url(#paint59_linear_2_13988)"/>
<path d="M157.349 83.4761C157.349 83.4761 160.278 89.014 168.077 84.6364C175.876 80.2588 162.402 80.7964 162.402 80.7964L157.349 83.4761Z" fill="url(#paint60_linear_2_13988)"/>
<path d="M99.1988 58.3954C71.3393 59.6571 75.7056 51.2475 75.4647 80.4672L71.5035 87.2229C71.3689 87.4554 71.317 87.7268 71.3563 87.9928C71.3957 88.2587 71.5239 88.5034 71.72 88.6868C71.9161 88.8703 72.1686 88.9816 72.4361 89.0027C72.7035 89.0238 72.9702 88.9533 73.1925 88.8027L78.84 85.0533H99.1933C99.5995 85.0551 100.002 84.9767 100.378 84.8226C100.754 84.6685 101.096 84.4417 101.385 84.1552C101.673 83.8686 101.903 83.5279 102.06 83.1526C102.217 82.7772 102.299 82.3746 102.3 81.9675V61.4811C102.297 60.6601 101.968 59.874 101.387 59.2955C100.805 58.7169 100.018 58.3932 99.1988 58.3954V58.3954Z" fill="url(#paint61_linear_2_13988)"/>
<path opacity="0.8" d="M79.9186 62.8334H91.9335V65.2827H79.9186V62.8334ZM79.9186 66.6542H97.6466V69.1035H79.9186V66.6542ZM79.9186 70.4777H97.6466V72.9271H79.9186V70.4777ZM79.9186 74.2985H97.6466V76.7479H79.9186V74.2985ZM79.9186 78.1221H97.6466V80.5714H79.9186V78.1221Z" fill="white"/>
<path d="M119.495 72.5979C139.229 73.4811 136.374 67.5044 136.467 88.3858L139.3 93.2132C139.395 93.3795 139.432 93.5731 139.403 93.7626C139.375 93.9521 139.283 94.1264 139.143 94.2572C139.004 94.3881 138.824 94.4678 138.633 94.4834C138.443 94.499 138.252 94.4496 138.093 94.3433L134.05 91.669H119.495C118.91 91.6719 118.348 91.4427 117.931 91.0315C117.515 90.6203 117.278 90.0606 117.272 89.4747V74.8059C117.275 74.2179 117.51 73.6551 117.927 73.2411C118.344 72.827 118.908 72.5957 119.495 72.5979Z" fill="url(#paint62_linear_2_13988)"/>
<path opacity="0.8" d="M122.366 77.3842C122.394 79.1643 119.577 79.1643 119.601 77.3842C119.577 75.6041 122.394 75.6041 122.366 77.3842ZM123.79 76.6985H133.823V78.0699H123.79V76.6985ZM122.366 82.1678C122.394 83.9506 119.577 83.9506 119.601 82.1678C119.577 80.3876 122.394 80.3876 122.366 82.1678ZM123.79 81.482H133.823V82.8535H123.79V81.482ZM122.366 86.9486C122.394 88.7287 119.577 88.7287 119.601 86.9486C119.577 85.1739 122.394 85.1739 122.366 86.9486ZM123.79 86.2683H133.823V87.6398H123.79V86.2683Z" fill="white"/>
<defs>
<linearGradient id="paint0_linear_2_13988" x1="37.9691" y1="125.121" x2="27.828" y2="163.426" gradientUnits="userSpaceOnUse">
<stop stop-color="#FAA332"/>
<stop offset="1" stop-color="#FFE1A3"/>
</linearGradient>
<linearGradient id="paint1_linear_2_13988" x1="46.8496" y1="127.861" x2="36.7057" y2="166.163" gradientUnits="userSpaceOnUse">
<stop stop-color="#FAA332"/>
<stop offset="1" stop-color="#FFE1A3"/>
</linearGradient>
<linearGradient id="paint2_linear_2_13988" x1="67.8845" y1="134.035" x2="57.5456" y2="173.073" gradientUnits="userSpaceOnUse">
<stop stop-color="#FAA332"/>
<stop offset="1" stop-color="#FFE1A3"/>
</linearGradient>
<linearGradient id="paint3_linear_2_13988" x1="50.7478" y1="141.131" x2="38.198" y2="99.678" gradientUnits="userSpaceOnUse">
<stop stop-color="#FAA332"/>
<stop offset="1" stop-color="#FFE1A3"/>
</linearGradient>
<linearGradient id="paint4_linear_2_13988" x1="66.0559" y1="136.52" x2="53.4759" y2="94.9549" gradientUnits="userSpaceOnUse">
<stop stop-color="#FAA332"/>
<stop offset="1" stop-color="#FFE1A3"/>
</linearGradient>
<linearGradient id="paint5_linear_2_13988" x1="51.7607" y1="122.427" x2="28.2617" y2="113.669" gradientUnits="userSpaceOnUse">
<stop stop-color="#FAA332"/>
<stop offset="1" stop-color="#FFE1A3"/>
</linearGradient>
<linearGradient id="paint6_linear_2_13988" x1="67.9579" y1="98.9456" x2="72.0796" y2="94.0042" gradientUnits="userSpaceOnUse">
<stop stop-color="#EF877E"/>
<stop offset="1" stop-color="#FABEB2"/>
</linearGradient>
<linearGradient id="paint7_linear_2_13988" x1="72.5742" y1="115.013" x2="54.5083" y2="91.754" gradientUnits="userSpaceOnUse">
<stop stop-color="#1D64B0"/>
<stop offset="1" stop-color="#1AC1E5"/>
</linearGradient>
<linearGradient id="paint8_linear_2_13988" x1="68.883" y1="119.356" x2="52.2445" y2="94.3604" gradientUnits="userSpaceOnUse">
<stop stop-color="#1D64B0"/>
<stop offset="1" stop-color="#1AC1E5"/>
</linearGradient>
<linearGradient id="paint9_linear_2_13988" x1="69.5606" y1="162.555" x2="68.2272" y2="168.245" gradientUnits="userSpaceOnUse">
<stop stop-color="#EF877E"/>
<stop offset="1" stop-color="#FABEB2"/>
</linearGradient>
<linearGradient id="paint10_linear_2_13988" x1="73.4745" y1="166.239" x2="71.2771" y2="171.609" gradientUnits="userSpaceOnUse">
<stop stop-color="#005B8C"/>
<stop offset="1" stop-color="#141845"/>
</linearGradient>
<linearGradient id="paint11_linear_2_13988" x1="84.0563" y1="155.009" x2="84.7197" y2="160.813" gradientUnits="userSpaceOnUse">
<stop stop-color="#EF877E"/>
<stop offset="1" stop-color="#FABEB2"/>
</linearGradient>
<linearGradient id="paint12_linear_2_13988" x1="88.9937" y1="157.18" x2="88.7379" y2="162.958" gradientUnits="userSpaceOnUse">
<stop stop-color="#005B8C"/>
<stop offset="1" stop-color="#141845"/>
</linearGradient>
<linearGradient id="paint13_linear_2_13988" x1="75.399" y1="157.061" x2="62.5679" y2="133.34" gradientUnits="userSpaceOnUse">
<stop stop-color="#005B8C"/>
<stop offset="1" stop-color="#141845"/>
</linearGradient>
<linearGradient id="paint14_linear_2_13988" x1="86.4229" y1="139.913" x2="40.5725" y2="122.821" gradientUnits="userSpaceOnUse">
<stop stop-color="#005B8C"/>
<stop offset="1" stop-color="#141845"/>
</linearGradient>
<linearGradient id="paint15_linear_2_13988" x1="85.7768" y1="141.6" x2="39.9648" y2="124.521" gradientUnits="userSpaceOnUse">
<stop stop-color="#005B8C"/>
<stop offset="1" stop-color="#141845"/>
</linearGradient>
<linearGradient id="paint16_linear_2_13988" x1="51.2597" y1="144.414" x2="77.6015" y2="134.593" gradientUnits="userSpaceOnUse">
<stop stop-color="#005B8C"/>
<stop offset="1" stop-color="#141845"/>
</linearGradient>
<linearGradient id="paint17_linear_2_13988" x1="470.059" y1="137.845" x2="446.07" y2="126.769" gradientUnits="userSpaceOnUse">
<stop stop-color="#005B8C"/>
<stop offset="1" stop-color="#141845"/>
</linearGradient>
<linearGradient id="paint18_linear_2_13988" x1="49.712" y1="87.4731" x2="50.1478" y2="93.0893" gradientUnits="userSpaceOnUse">
<stop stop-color="#EF877E"/>
<stop offset="1" stop-color="#FABEB2"/>
</linearGradient>
<linearGradient id="paint19_linear_2_13988" x1="54.6673" y1="120.998" x2="57.7329" y2="90.7586" gradientUnits="userSpaceOnUse">
<stop stop-color="#1D64B0"/>
<stop offset="1" stop-color="#1AC1E5"/>
</linearGradient>
<linearGradient id="paint20_linear_2_13988" x1="52.7742" y1="66.4434" x2="40.9269" y2="88.2392" gradientUnits="userSpaceOnUse">
<stop stop-color="#005B8C"/>
<stop offset="1" stop-color="#141845"/>
</linearGradient>
<linearGradient id="paint21_linear_2_13988" x1="46.3309" y1="73.0778" x2="49.6653" y2="85.8554" gradientUnits="userSpaceOnUse">
<stop stop-color="#EF877E"/>
<stop offset="1" stop-color="#FABEB2"/>
</linearGradient>
<linearGradient id="paint22_linear_2_13988" x1="57.5889" y1="68.929" x2="45.6728" y2="90.8522" gradientUnits="userSpaceOnUse">
<stop stop-color="#005B8C"/>
<stop offset="1" stop-color="#141845"/>
</linearGradient>
<linearGradient id="paint23_linear_2_13988" x1="454.445" y1="115.288" x2="453.114" y2="114.79" gradientUnits="userSpaceOnUse">
<stop stop-color="#005B8C"/>
<stop offset="1" stop-color="#141845"/>
</linearGradient>
<linearGradient id="paint24_linear_2_13988" x1="193.32" y1="60.7957" x2="173.772" y2="40.6979" gradientUnits="userSpaceOnUse">
<stop stop-color="#1D64B0"/>
<stop offset="1" stop-color="#1AC1E5"/>
</linearGradient>
<linearGradient id="paint25_linear_2_13988" x1="186.317" y1="66.1094" x2="173.946" y2="53.3914" gradientUnits="userSpaceOnUse">
<stop stop-color="#1D64B0"/>
<stop offset="1" stop-color="#1AC1E5"/>
</linearGradient>
<linearGradient id="paint26_linear_2_13988" x1="210.826" y1="79.0152" x2="128.157" y2="-5.9937" gradientUnits="userSpaceOnUse">
<stop stop-color="#1D64B0"/>
<stop offset="1" stop-color="#1AC1E5"/>
</linearGradient>
<linearGradient id="paint27_linear_2_13988" x1="54.8176" y1="109.907" x2="61.0583" y2="108.133" gradientUnits="userSpaceOnUse">
<stop stop-color="#EF877E"/>
<stop offset="1" stop-color="#FABEB2"/>
</linearGradient>
<linearGradient id="paint28_linear_2_13988" x1="195.456" y1="58.7861" x2="175.852" y2="38.6242" gradientUnits="userSpaceOnUse">
<stop stop-color="#1D64B0"/>
<stop offset="1" stop-color="#1AC1E5"/>
</linearGradient>
<linearGradient id="paint29_linear_2_13988" x1="199.415" y1="54.8635" x2="179.888" y2="34.7846" gradientUnits="userSpaceOnUse">
<stop stop-color="#1D64B0"/>
<stop offset="1" stop-color="#1AC1E5"/>
</linearGradient>
<linearGradient id="paint30_linear_2_13988" x1="145.984" y1="102.837" x2="142.288" y2="97.5481" gradientUnits="userSpaceOnUse">
<stop stop-color="#EF877E"/>
<stop offset="1" stop-color="#FABEB2"/>
</linearGradient>
<linearGradient id="paint31_linear_2_13988" x1="142.24" y1="102.069" x2="142.236" y2="102.122" gradientUnits="userSpaceOnUse">
<stop stop-color="#EF877E"/>
<stop offset="1" stop-color="#FABEB2"/>
</linearGradient>
<linearGradient id="paint32_linear_2_13988" x1="142.258" y1="101.829" x2="142.231" y2="102.171" gradientUnits="userSpaceOnUse">
<stop stop-color="#EF877E"/>
<stop offset="1" stop-color="#FABEB2"/>
</linearGradient>
<linearGradient id="paint33_linear_2_13988" x1="149.152" y1="119.998" x2="149.266" y2="100.948" gradientUnits="userSpaceOnUse">
<stop stop-color="#E65425"/>
<stop offset="1" stop-color="#F9A349"/>
</linearGradient>
<linearGradient id="paint34_linear_2_13988" x1="157.366" y1="120.194" x2="157.477" y2="100.931" gradientUnits="userSpaceOnUse">
<stop stop-color="#E65425"/>
<stop offset="1" stop-color="#F9A349"/>
</linearGradient>
<linearGradient id="paint35_linear_2_13988" x1="153.173" y1="71.7846" x2="166.472" y2="92.1905" gradientUnits="userSpaceOnUse">
<stop stop-color="#B96528"/>
<stop offset="1" stop-color="#5B2D0F"/>
</linearGradient>
<linearGradient id="paint36_linear_2_13988" x1="181.392" y1="163.584" x2="178.449" y2="140.716" gradientUnits="userSpaceOnUse">
<stop stop-color="#FAA332"/>
<stop offset="1" stop-color="#FFE1A3"/>
</linearGradient>
<linearGradient id="paint37_linear_2_13988" x1="172.452" y1="164.859" x2="169.511" y2="141.991" gradientUnits="userSpaceOnUse">
<stop stop-color="#FAA332"/>
<stop offset="1" stop-color="#FFE1A3"/>
</linearGradient>
<linearGradient id="paint38_linear_2_13988" x1="151.874" y1="167.915" x2="148.911" y2="144.898" gradientUnits="userSpaceOnUse">
<stop stop-color="#FAA332"/>
<stop offset="1" stop-color="#FFE1A3"/>
</linearGradient>
<linearGradient id="paint39_linear_2_13988" x1="161.814" y1="144.351" x2="173.71" y2="105.051" gradientUnits="userSpaceOnUse">
<stop stop-color="#FAA332"/>
<stop offset="1" stop-color="#FFE1A3"/>
</linearGradient>
<linearGradient id="paint40_linear_2_13988" x1="147.299" y1="139.979" x2="159.228" y2="100.574" gradientUnits="userSpaceOnUse">
<stop stop-color="#FAA332"/>
<stop offset="1" stop-color="#FFE1A3"/>
</linearGradient>
<linearGradient id="paint41_linear_2_13988" x1="160.853" y1="126.619" x2="183.13" y2="118.314" gradientUnits="userSpaceOnUse">
<stop stop-color="#FAA332"/>
<stop offset="1" stop-color="#FFE1A3"/>
</linearGradient>
<linearGradient id="paint42_linear_2_13988" x1="152.973" y1="163.36" x2="154.215" y2="168.694" gradientUnits="userSpaceOnUse">
<stop stop-color="#EF877E"/>
<stop offset="1" stop-color="#FABEB2"/>
</linearGradient>
<linearGradient id="paint43_linear_2_13988" x1="149.213" y1="166.214" x2="151.27" y2="171.242" gradientUnits="userSpaceOnUse">
<stop stop-color="#B96528"/>
<stop offset="1" stop-color="#5B2D0F"/>
</linearGradient>
<linearGradient id="paint44_linear_2_13988" x1="135.654" y1="163.331" x2="136.897" y2="168.668" gradientUnits="userSpaceOnUse">
<stop stop-color="#EF877E"/>
<stop offset="1" stop-color="#FABEB2"/>
</linearGradient>
<linearGradient id="paint45_linear_2_13988" x1="131.915" y1="166.214" x2="133.972" y2="171.242" gradientUnits="userSpaceOnUse">
<stop stop-color="#B96528"/>
<stop offset="1" stop-color="#5B2D0F"/>
</linearGradient>
<linearGradient id="paint46_linear_2_13988" x1="147.509" y1="130.357" x2="145.944" y2="99.9114" gradientUnits="userSpaceOnUse">
<stop stop-color="#E65425"/>
<stop offset="1" stop-color="#F9A349"/>
</linearGradient>
<linearGradient id="paint47_linear_2_13988" x1="133.322" y1="162.953" x2="157.257" y2="124.867" gradientUnits="userSpaceOnUse">
<stop stop-color="#B96528"/>
<stop offset="1" stop-color="#5B2D0F"/>
</linearGradient>
<linearGradient id="paint48_linear_2_13988" x1="174.267" y1="113.17" x2="149.023" y2="133.929" gradientUnits="userSpaceOnUse">
<stop stop-color="#B96528"/>
<stop offset="1" stop-color="#5B2D0F"/>
</linearGradient>
<linearGradient id="paint49_linear_2_13988" x1="155.617" y1="129.932" x2="154.051" y2="99.4921" gradientUnits="userSpaceOnUse">
<stop stop-color="#E65425"/>
<stop offset="1" stop-color="#F9A349"/>
</linearGradient>
<linearGradient id="paint50_linear_2_13988" x1="165.06" y1="88.9618" x2="163.901" y2="97.5107" gradientUnits="userSpaceOnUse">
<stop stop-color="#EF877E"/>
<stop offset="1" stop-color="#FABEB2"/>
</linearGradient>
<linearGradient id="paint51_linear_2_13988" x1="148.173" y1="161.609" x2="163.065" y2="117.297" gradientUnits="userSpaceOnUse">
<stop stop-color="#B96528"/>
<stop offset="1" stop-color="#5B2D0F"/>
</linearGradient>
<linearGradient id="paint52_linear_2_13988" x1="159.085" y1="129.783" x2="157.516" y2="99.3207" gradientUnits="userSpaceOnUse">
<stop stop-color="#E65425"/>
<stop offset="1" stop-color="#F9A349"/>
</linearGradient>
<linearGradient id="paint53_linear_2_13988" x1="147.715" y1="130.345" x2="146.152" y2="99.9356" gradientUnits="userSpaceOnUse">
<stop stop-color="#E65425"/>
<stop offset="1" stop-color="#F9A349"/>
</linearGradient>
<linearGradient id="paint54_linear_2_13988" x1="148.649" y1="125.486" x2="154.29" y2="130.804" gradientUnits="userSpaceOnUse">
<stop stop-color="#BDE6F8"/>
<stop offset="1" stop-color="#D6B9D9"/>
</linearGradient>
<linearGradient id="paint55_linear_2_13988" x1="159.717" y1="129.638" x2="155.59" y2="127.33" gradientUnits="userSpaceOnUse">
<stop stop-color="#EF877E"/>
<stop offset="1" stop-color="#FABEB2"/>
</linearGradient>
<linearGradient id="paint56_linear_2_13988" x1="158.499" y1="129.891" x2="156.926" y2="99.3394" gradientUnits="userSpaceOnUse">
<stop stop-color="#E65425"/>
<stop offset="1" stop-color="#F9A349"/>
</linearGradient>
<linearGradient id="paint57_linear_2_13988" x1="165.644" y1="129.454" x2="164.077" y2="98.9972" gradientUnits="userSpaceOnUse">
<stop stop-color="#E65425"/>
<stop offset="1" stop-color="#F9A349"/>
</linearGradient>
<linearGradient id="paint58_linear_2_13988" x1="158.383" y1="129.803" x2="156.818" y2="99.3849" gradientUnits="userSpaceOnUse">
<stop stop-color="#E65425"/>
<stop offset="1" stop-color="#F9A349"/>
</linearGradient>
<linearGradient id="paint59_linear_2_13988" x1="162.567" y1="79.2114" x2="161.199" y2="90.8122" gradientUnits="userSpaceOnUse">
<stop stop-color="#EF877E"/>
<stop offset="1" stop-color="#FABEB2"/>
</linearGradient>
<linearGradient id="paint60_linear_2_13988" x1="154.851" y1="70.5964" x2="168.215" y2="91.1042" gradientUnits="userSpaceOnUse">
<stop stop-color="#B96528"/>
<stop offset="1" stop-color="#5B2D0F"/>
</linearGradient>
<linearGradient id="paint61_linear_2_13988" x1="170.909" y1="66.2342" x2="118.757" y2="35.4063" gradientUnits="userSpaceOnUse">
<stop stop-color="#1D64B0"/>
<stop offset="1" stop-color="#1AC1E5"/>
</linearGradient>
<linearGradient id="paint62_linear_2_13988" x1="141.638" y1="115.976" x2="124.061" y2="76.1286" gradientUnits="userSpaceOnUse">
<stop stop-color="#1D64B0"/>
<stop offset="1" stop-color="#1AC1E5"/>
</linearGradient>
</defs>
</svg>
