<svg width="229" height="215" viewBox="0 0 229 215" fill="none" xmlns="http://www.w3.org/2000/svg">
<path d="M179.268 171.065C174.583 175.892 170.392 178.731 167.182 180.873C135.888 201.767 100.118 195.743 89.0569 193.687C71.2122 190.366 56.1513 188.021 43.2076 176.33C13.8017 149.764 15.2338 94.3406 37.7017 60.0091C40.3682 55.9414 62.7991 22.684 98.649 17.9929C99.5255 17.8756 100.18 17.8139 100.754 17.7521C106.297 17.1657 140.665 14.0671 168.688 37.5412C172.701 40.899 179.157 46.9604 185.138 56.2068C207.032 90.0137 207.1 142.369 179.268 171.065Z" fill="#F4F7FA"/>
<path d="M165.38 137.215C171.108 129.907 174.392 121.389 174.392 112.315C174.392 85.9275 146.332 64.083 110.834 63.5027C74.3108 62.904 43.9297 84.9213 43.9297 112.698C43.9297 140.474 74.317 162.312 110.834 161.504C124.253 161.207 136.598 157.88 146.745 152.467C153.411 153.479 163.683 155.183 169.071 156.09C170.651 156.356 175.947 154.56 175.386 153.053L165.38 137.215Z" fill="url(#paint0_linear_2_12853)"/>
<path d="M170.028 135.838C175.756 128.666 179.04 120.308 179.04 111.401C179.04 85.5078 150.98 64.0645 115.481 63.4966C78.9649 62.9164 48.5776 84.5201 48.5776 111.778C48.5776 139.036 78.9649 160.467 115.481 159.67C128.9 159.38 141.245 156.115 151.393 150.801C158.059 151.794 168.33 153.467 173.719 154.356C175.299 154.615 176.595 153.053 176.028 151.572L170.028 135.838Z" fill="url(#paint1_linear_2_12853)"/>
<g opacity="0.3">
<path d="M150.659 121.518C136.363 115.716 120.45 128.326 110.401 119.636C100.192 110.809 111.216 93.2789 101.445 80.7179C96.7602 74.6935 88.8471 71.7677 79.7365 70.6567C61.0831 79.1562 48.5776 94.3529 48.5776 111.778C48.5776 139.036 78.9649 160.467 115.481 159.67C128.9 159.38 141.245 156.115 151.393 150.801C156.652 151.584 164.164 152.794 169.744 153.702C165.633 132.678 158.035 124.518 150.659 121.518Z" fill="url(#paint2_linear_2_12853)"/>
</g>
<path d="M115.481 146.276C95.5874 146.603 79.1686 131.092 79.1686 111.692C79.1686 92.2913 95.5874 76.681 115.481 76.8971C135.073 77.1069 150.788 92.6246 150.788 111.488C150.788 130.351 135.073 145.955 115.481 146.276Z" fill="#D8DEE8"/>
<path d="M148.387 111.494C148.387 129.098 133.764 143.603 115.481 143.887C96.9392 144.177 81.7055 129.765 81.7055 111.685C81.7055 93.6061 96.9392 79.1068 115.481 79.292C133.758 79.471 148.387 93.8838 148.387 111.494Z" fill="white"/>
<path d="M123.993 87.1681C130.086 90.8963 131.789 97.396 132.178 98.97C134.869 109.883 126.58 115.42 130.11 123.135C133.005 129.456 141.184 131.456 140.85 132.147C140.548 132.764 134.709 129.746 129.067 128.376C110.679 123.913 94.6986 137.085 92.4333 133.789C90.8284 131.456 100.198 126.82 102.13 115.981C103.957 105.723 97.2787 100.266 101.334 92.6123C104.038 87.5076 109.266 85.6744 110.155 85.3781C117.086 83.0758 123.061 86.5941 123.993 87.1681Z" fill="url(#paint3_linear_2_12853)"/>
<path d="M86.304 134.375C86.304 134.375 114.494 116.827 149.418 134.326C149.418 134.326 144.967 149.35 118.401 150.338C91.0506 151.356 86.304 134.375 86.304 134.375Z" fill="url(#paint4_linear_2_12853)"/>
<path d="M113.401 111.531L112.346 119.913C111.988 122.771 110.136 125.166 107.562 126.092L98.97 129.191C98.97 129.191 115.426 137.628 136.227 129.184L126.74 125.666C124.049 124.586 122.216 121.876 122.098 118.79L121.827 111.636L113.401 111.531Z" fill="url(#paint5_linear_2_12853)"/>
<path d="M114.512 117.204C110.192 115.969 107.871 112.204 106.5 109.969C104.198 106.229 101.019 98.4824 104.013 94.0752C104.18 93.8283 104.377 93.7049 104.723 93.2728C106.753 90.7174 106.519 88.6311 107.309 87.2916C109.216 84.0572 116.975 85.4152 117.444 85.5016C125.734 87.0262 129.326 94.6184 129.4 94.7912C129.468 94.9455 129.53 95.106 129.53 95.106C130.03 96.3344 132.913 103.396 129.302 110.006C126.394 115.296 120.154 118.815 114.512 117.204Z" fill="url(#paint6_linear_2_12853)"/>
<path d="M126.234 104.278C126.234 111.352 122.234 118.926 117.271 118.889C112.284 118.852 108.223 111.142 108.223 104.001C108.223 96.8528 112.284 93.032 117.271 93.1431C122.228 93.248 126.234 97.2046 126.234 104.278Z" fill="url(#paint7_linear_2_12853)"/>
<path d="M107.914 108.605C108.772 108.568 107.531 101.13 110.864 99.1119C113.488 97.5194 117.747 100.581 119.074 101.507C120.098 102.223 123.827 104.84 124.604 109.099C124.969 111.074 124.567 112.71 125.203 112.938C125.931 113.198 127.314 111.34 128.024 110.111C130.067 106.55 131.388 99.5193 126.981 94.5566C123.901 91.0877 119.722 90.8963 118.728 90.8902C113.037 90.8223 107.815 95.2541 106.618 100.544C105.692 104.605 107.278 108.63 107.914 108.605Z" fill="url(#paint8_linear_2_12853)"/>
<path d="M40.4731 47.2752L48.843 52.096L57.5895 48.4171C58.861 47.8863 60.256 48.9788 59.9536 50.2689L57.8796 59.1203L64.4163 65.8792C65.3668 66.8606 64.7373 68.4408 63.3484 68.5457L53.7872 69.2926L49.1023 77.2181C48.4171 78.3785 46.6086 78.2797 46.0469 77.0452L42.1706 68.6012L32.5847 66.7125C31.1773 66.4347 30.6959 64.7743 31.7699 63.8978L39.0905 57.929L37.8992 48.806C37.7264 47.4728 39.251 46.5654 40.4731 47.2752Z" fill="url(#paint9_linear_2_12853)"/>
<path d="M76.3848 32.1402L82.7116 39.0226L92.0259 38.0905C93.3777 37.9547 94.3468 39.3744 93.6678 40.4916L88.989 48.1702L93.0197 56.3673C93.6061 57.5586 92.5259 58.861 91.1926 58.5647L81.9956 56.5278L75.1318 62.6262C74.1256 63.5213 72.4652 62.9102 72.3171 61.5893L71.3233 52.5651L62.9349 48.0591C61.7066 47.3987 61.7745 45.7074 63.0522 45.1951L71.7677 41.7076L73.5022 32.8501C73.7553 31.5477 75.4589 31.1341 76.3848 32.1402Z" fill="url(#paint10_linear_2_12853)"/>
<path d="M186.305 50.4541L178.799 54.6946L170.855 50.8553C169.688 50.2936 168.411 51.2812 168.688 52.5342L170.59 61.077L164.578 67.3606C163.695 68.2803 164.281 69.8111 165.565 69.953L174.324 70.9098L178.571 78.5575C179.188 79.6747 180.817 79.613 181.324 78.4526L184.799 70.5456L193.304 69.0148C194.539 68.7926 194.965 67.2433 194.02 66.3977L187.539 60.5647L188.595 51.9972C188.749 50.7504 187.397 49.8368 186.305 50.4541Z" fill="url(#paint11_linear_2_12853)"/>
<path d="M153.411 34.2945L147.43 40.6583L138.511 39.288C137.202 39.0843 136.27 40.4299 136.925 41.5657L141.431 49.3122L137.554 57.1945C136.986 58.3487 138.03 59.6573 139.32 59.4166L148.109 57.75L154.59 63.904C155.535 64.799 157.09 64.2558 157.226 62.9904L158.158 54.2996L165.942 50.2874C167.071 49.701 167.01 48.0777 165.831 47.5283L157.738 43.7816L156.121 35.1216C155.88 33.8562 154.282 33.3686 153.411 34.2945Z" fill="url(#paint12_linear_2_12853)"/>
<path d="M117.352 28.3812L121.407 36.4672L130.425 37.9794C131.734 38.2017 132.258 39.7818 131.314 40.6583L124.796 46.6889L126.339 55.46C126.561 56.7377 125.185 57.6883 124.012 57.0648L115.901 52.7749L107.741 56.7686C106.544 57.3549 105.149 56.3488 105.377 55.0649L106.945 46.2876L100.303 39.8868C99.328 38.9485 99.865 37.3745 101.211 37.2202L110.377 36.1771L114.457 28.2948C115.043 27.1467 116.759 27.2022 117.352 28.3812Z" fill="url(#paint13_linear_2_12853)"/>
<path d="M159.652 171.293C129.444 177.552 98.2293 178.237 67.5457 173.231C66.7865 173.108 66.2865 172.373 66.4409 171.62C66.6445 170.639 66.8421 169.664 67.0458 168.682C67.1939 167.966 67.879 167.497 68.5951 167.621C98.5626 172.589 129.079 171.997 158.633 165.96C159.38 165.806 160.109 166.3 160.244 167.053C160.405 167.948 160.559 168.837 160.72 169.732C160.837 170.448 160.368 171.145 159.652 171.293Z" fill="#D8DEE8"/>
<path d="M159.535 180.41C129.351 186.817 98.0996 187.669 67.3297 182.799C66.5643 182.675 66.0582 181.941 66.2186 181.188C66.4223 180.206 66.6199 179.231 66.8235 178.256C66.9717 177.546 67.6507 177.077 68.3667 177.194C98.4206 182.027 128.968 181.274 158.498 175.083C159.251 174.929 159.979 175.416 160.115 176.176C160.275 177.071 160.43 177.96 160.59 178.855C160.714 179.564 160.251 180.256 159.535 180.41Z" fill="#D8DEE8"/>
<defs>
<linearGradient id="paint0_linear_2_12853" x1="43.9315" y1="112.505" x2="175.43" y2="112.505" gradientUnits="userSpaceOnUse">
<stop stop-color="#AB316D"/>
<stop offset="1" stop-color="#792D3D"/>
</linearGradient>
<linearGradient id="paint1_linear_2_12853" x1="48.577" y1="111.592" x2="179.038" y2="111.592" gradientUnits="userSpaceOnUse">
<stop stop-color="#FF9085"/>
<stop offset="1" stop-color="#FB6FBB"/>
</linearGradient>
<linearGradient id="paint2_linear_2_12853" x1="67.0444" y1="77.5667" x2="177.815" y2="223.449" gradientUnits="userSpaceOnUse">
<stop stop-color="#FF9085"/>
<stop offset="1" stop-color="#FB6FBB"/>
</linearGradient>
<linearGradient id="paint3_linear_2_12853" x1="153.262" y1="73.6489" x2="86.8777" y2="153.128" gradientUnits="userSpaceOnUse">
<stop stop-color="#AB316D"/>
<stop offset="1" stop-color="#792D3D"/>
</linearGradient>
<linearGradient id="paint4_linear_2_12853" x1="122.471" y1="113.095" x2="115.804" y2="143.839" gradientUnits="userSpaceOnUse">
<stop stop-color="#AA80F9"/>
<stop offset="0.996" stop-color="#6165D7"/>
</linearGradient>
<linearGradient id="paint5_linear_2_12853" x1="117.517" y1="114.383" x2="117.645" y2="139.169" gradientUnits="userSpaceOnUse">
<stop offset="0.004" stop-color="#F36F56"/>
<stop offset="1" stop-color="#FFC444"/>
</linearGradient>
<linearGradient id="paint6_linear_2_12853" x1="143.147" y1="69.0826" x2="85.1197" y2="138.557" gradientUnits="userSpaceOnUse">
<stop stop-color="#AB316D"/>
<stop offset="1" stop-color="#792D3D"/>
</linearGradient>
<linearGradient id="paint7_linear_2_12853" x1="121.056" y1="78.3997" x2="115.318" y2="117.068" gradientUnits="userSpaceOnUse">
<stop offset="0.004" stop-color="#F36F56"/>
<stop offset="1" stop-color="#FFC444"/>
</linearGradient>
<linearGradient id="paint8_linear_2_12853" x1="145.348" y1="70.9206" x2="87.3202" y2="140.394" gradientUnits="userSpaceOnUse">
<stop stop-color="#AB316D"/>
<stop offset="1" stop-color="#792D3D"/>
</linearGradient>
<linearGradient id="paint9_linear_2_12853" x1="34.0297" y1="56.4404" x2="78.614" y2="72.2645" gradientUnits="userSpaceOnUse">
<stop stop-color="#FCB148"/>
<stop offset="0.052" stop-color="#FDBA46"/>
<stop offset="0.142" stop-color="#FFC244"/>
<stop offset="0.318" stop-color="#FFC444"/>
<stop offset="0.485" stop-color="#FDB946"/>
<stop offset="0.775" stop-color="#F99C4D"/>
<stop offset="0.866" stop-color="#F8924F"/>
<stop offset="1" stop-color="#F8924F"/>
</linearGradient>
<linearGradient id="paint10_linear_2_12853" x1="67.4499" y1="38.7454" x2="104.271" y2="66.5418" gradientUnits="userSpaceOnUse">
<stop stop-color="#FCB148"/>
<stop offset="0.052" stop-color="#FDBA46"/>
<stop offset="0.142" stop-color="#FFC244"/>
<stop offset="0.318" stop-color="#FFC444"/>
<stop offset="0.485" stop-color="#FDB946"/>
<stop offset="0.775" stop-color="#F99C4D"/>
<stop offset="0.866" stop-color="#F8924F"/>
<stop offset="1" stop-color="#F8924F"/>
</linearGradient>
<linearGradient id="paint11_linear_2_12853" x1="191.753" y1="59.0979" x2="151.899" y2="73.2423" gradientUnits="userSpaceOnUse">
<stop stop-color="#FCB148"/>
<stop offset="0.052" stop-color="#FDBA46"/>
<stop offset="0.142" stop-color="#FFC244"/>
<stop offset="0.318" stop-color="#FFC444"/>
<stop offset="0.485" stop-color="#FDB946"/>
<stop offset="0.775" stop-color="#F99C4D"/>
<stop offset="0.866" stop-color="#F8924F"/>
<stop offset="1" stop-color="#F8924F"/>
</linearGradient>
<linearGradient id="paint12_linear_2_12853" x1="161.309" y1="40.9988" x2="127.172" y2="66.7679" gradientUnits="userSpaceOnUse">
<stop stop-color="#FCB148"/>
<stop offset="0.052" stop-color="#FDBA46"/>
<stop offset="0.142" stop-color="#FFC244"/>
<stop offset="0.318" stop-color="#FFC444"/>
<stop offset="0.485" stop-color="#FDB946"/>
<stop offset="0.775" stop-color="#F99C4D"/>
<stop offset="0.866" stop-color="#F8924F"/>
<stop offset="1" stop-color="#F8924F"/>
</linearGradient>
<linearGradient id="paint13_linear_2_12853" x1="107.086" y1="32.3122" x2="134.15" y2="67.9552" gradientUnits="userSpaceOnUse">
<stop stop-color="#FCB148"/>
<stop offset="0.052" stop-color="#FDBA46"/>
<stop offset="0.142" stop-color="#FFC244"/>
<stop offset="0.318" stop-color="#FFC444"/>
<stop offset="0.485" stop-color="#FDB946"/>
<stop offset="0.775" stop-color="#F99C4D"/>
<stop offset="0.866" stop-color="#F8924F"/>
<stop offset="1" stop-color="#F8924F"/>
</linearGradient>
</defs>
</svg>
