<svg width="34" height="34" viewBox="0 0 34 34" fill="none" xmlns="http://www.w3.org/2000/svg">
<g clip-path="url(#clip0_288_103)">
<path d="M14.4757 25.1356H17.9737V16.6703H20.3068L20.6163 13.7537H17.9737L17.9768 12.2928C17.9768 11.5321 18.0498 11.1247 19.1408 11.1247H20.5996V8.20703H18.2655C15.4625 8.20703 14.4757 9.62209 14.4757 12.0021V13.7537H12.7282V16.6713H14.4757V25.1356Z" fill="white"/>
<path d="M16.6722 1.04104C25.2908 1.04104 32.3025 8.05276 32.3025 16.6713C32.3025 25.2898 25.2908 32.3015 16.6722 32.3015C8.05374 32.3015 1.04202 25.2898 1.04202 16.6713C1.04202 8.05276 8.05374 1.04104 16.6722 1.04104ZM16.6722 -0.000976562C7.46396 -0.000976562 0 7.46298 0 16.6713C0 25.8796 7.46396 33.3435 16.6722 33.3435C25.8805 33.3435 33.3445 25.8796 33.3445 16.6713C33.3445 7.46298 25.8805 -0.000976562 16.6722 -0.000976562Z" fill="white"/>
</g>
<defs>
<clipPath id="clip0_288_103">
<rect width="33.3445" height="33.3445" fill="white" transform="translate(0 -0.000976562)"/>
</clipPath>
</defs>
</svg>
