<svg width="241" height="181" viewBox="0 0 241 181" fill="none" xmlns="http://www.w3.org/2000/svg">
<path d="M12.2428 159.69C12.2428 159.69 2.6028 146.079 7.2541 129.765C11.9054 113.451 23.4975 100.998 19.7138 82.0533C15.2553 59.6334 25.7388 40.737 44.2958 43.1745C75.4089 47.3737 97.7737 21.9372 109.149 19.3066C142.889 11.777 149.034 39.3132 167.254 41.992C206.537 47.784 218.683 66.3184 217.261 101.891C216.804 113.571 246.904 137.005 229.625 159.594L12.2428 159.69Z" fill="#E2E9FB"/>
<path d="M115.005 40.9543V37.3584L31.8361 37.3584V40.9543L115.005 40.9543Z" fill="#D3DDF8"/>
<path d="M114.981 68.2973V64.7014H31.812V68.2973H114.981Z" fill="#D3DDF8"/>
<path d="M115.005 95.6163V92.0204H31.8361V95.6163H115.005Z" fill="#D3DDF8"/>
<path d="M34.4871 15.566H31.1613V95.6404H34.4871V15.566Z" fill="#D3DDF8"/>
<path d="M61.8647 15.566H58.5389V95.6404H61.8647V15.566Z" fill="#D3DDF8"/>
<path d="M89.2664 15.566H85.9406V95.6404H89.2664V15.566Z" fill="#D3DDF8"/>
<path d="M116.668 15.566H113.342V95.6404H116.668V15.566Z" fill="#D3DDF8"/>
<path d="M52.8272 79.0366C52.221 80.1006 51.8281 81.2729 51.6704 82.4877C51.4535 83.3324 51.2607 84.2012 51.1161 85.0458H50.61C50.9205 82.6837 51.3549 80.3395 51.9114 78.023C52.071 77.3109 52.4264 76.6577 52.9375 76.1373C53.4486 75.617 54.095 75.2503 54.8034 75.0788C56.0325 74.6926 57.2134 74.3548 58.563 73.9928C56.8687 74.014 55.1811 74.2081 53.5261 74.572C52.9718 74.7409 52.2488 74.9098 51.5981 75.1753C52.3934 72.762 53.4297 70.2038 54.5142 67.694C52.4084 70.0116 50.8547 72.777 49.9698 75.7824C49.0848 78.7878 48.8917 81.955 49.405 85.0458H48.8989C48.4949 82.4134 47.956 79.8036 47.2842 77.2266C46.3184 75.0321 44.7984 73.1274 42.8739 71.7001C42.7052 71.5794 42.5606 71.7001 42.6088 71.9897C43.5246 74.2341 45.0188 76.0682 45.9587 78.2644C46.7299 80.0744 47.3324 81.9809 47.959 83.8633C47.1947 82.8809 46.0808 82.2324 44.8501 82.0533C42.7293 81.7637 41.7894 83.1152 41.1146 85.0941C41.1108 85.1348 41.12 85.1757 41.1408 85.2108C41.1617 85.2459 41.1931 85.2735 41.2306 85.2896C41.2681 85.3057 41.3098 85.3095 41.3496 85.3004C41.3893 85.2913 41.4252 85.2697 41.452 85.2389C41.8511 84.6795 42.3921 84.2369 43.0191 83.9569C43.6462 83.6769 44.3365 83.5696 45.0188 83.6461C46.2273 83.7232 47.3666 84.2379 48.2241 85.0941H46.7058L47.8867 92.7202H51.9355L53.02 85.0458H52.0078C52.3452 84.177 52.6344 83.2841 53.02 82.4394C53.4056 81.5948 53.984 80.2674 55.43 80.4846C56.3048 80.6781 57.1661 80.928 58.0087 81.2328C58.2256 81.3052 54.0322 77.5162 52.8272 79.0366ZM148.866 45.6844C144.563 42.2668 140.702 38.327 137.37 33.9556V18.1H135.804V33.9556C132.516 38.3336 128.685 42.2749 124.404 45.6844H133.466C133.466 46.4972 133.788 47.2768 134.362 47.8516C134.936 48.4264 135.715 48.7493 136.527 48.7493C137.338 48.7493 138.117 48.4264 138.691 47.8516C139.265 47.2768 139.587 46.4972 139.587 45.6844H148.769H148.866ZM187.233 63.181C182.991 59.7589 179.194 55.8187 175.93 51.4522V24.7608H174.364V51.4522C171.069 55.8246 167.24 59.765 162.964 63.181H172.026C172.026 63.9939 172.348 64.7735 172.922 65.3483C173.496 65.9231 174.275 66.246 175.087 66.246C175.898 66.246 176.677 65.9231 177.251 65.3483C177.825 64.7735 178.147 63.9939 178.147 63.181H187.329H187.233ZM192.39 44.9845V95.6645H239.217V44.9845H192.39ZM232.204 88.0625H199.403V52.5624H232.204V88.0625ZM172.026 71.9897V89.8484H188.534V71.9897H172.026ZM186.076 87.1696H174.484V74.6444H186.076V87.1696ZM151.83 71.9897V89.8484H168.363V71.9897H151.83ZM165.88 87.1696H154.24V74.6444H165.808L165.88 87.1696Z" fill="#D3DDF8"/>
<path d="M58.7558 48.7011C58.7558 56.2307 67.0221 62.3364 77.2164 62.3364C87.4107 62.3364 95.7011 56.2307 95.7011 48.7011C95.7011 41.1715 87.4348 35.0416 77.12 35.0416C66.8052 35.0416 58.7558 41.1715 58.7558 48.7011Z" fill="white"/>
<path d="M67.7451 56.6651C67.7451 56.6651 66.9016 66.1012 63.1179 66.8252C63.1179 66.8252 71.1673 66.2943 72.7579 61.0573C74.3485 55.8204 67.7451 56.6651 67.7451 56.6651Z" fill="white"/>
<path d="M71.0227 41.4128C71.0227 40.8819 70.3238 40.8819 70.2756 41.4128C70.1273 43.3477 70.0871 45.2895 70.1551 47.2289C69.2393 47.2289 68.3235 47.2289 67.4077 47.2289C67.4077 45.2259 67.4077 43.2228 67.4077 41.2439C67.4077 41.1415 67.3671 41.0432 67.2948 40.9708C67.2224 40.8984 67.1244 40.8577 67.0221 40.8577C66.9198 40.8577 66.8218 40.8984 66.7494 40.9708C66.6771 41.0432 66.6365 41.1415 66.6365 41.2439C66.6365 45.0328 66.6365 48.8459 66.6365 52.6589C66.6219 52.716 66.6206 52.7756 66.6325 52.8332C66.6445 52.8908 66.6694 52.945 66.7054 52.9915C66.7415 53.038 66.7877 53.0756 66.8405 53.1015C66.8933 53.1274 66.9513 53.1408 67.0101 53.1408C67.0688 53.1408 67.1268 53.1274 67.1796 53.1015C67.2324 53.0756 67.2786 53.038 67.3147 52.9915C67.3507 52.945 67.3756 52.8908 67.3876 52.8332C67.3995 52.7756 67.3982 52.716 67.3836 52.6589C67.3836 51.1144 67.3836 49.594 67.3836 48.0495C68.2994 48.0495 69.2152 48.0495 70.1551 48.0495C70.1551 49.5618 70.2756 51.0822 70.5166 52.6107C70.5166 53.1175 71.3119 52.9003 71.2396 52.3935C70.8062 48.7493 70.7336 45.0712 71.0227 41.4128ZM75.9391 51.7419C75.1197 51.9832 74.2762 52.0797 73.746 51.2351C73.6836 51.1377 73.6349 51.0321 73.6014 50.9213C74.6618 50.9213 75.8909 50.9213 76.2524 49.6664C76.7344 48.1219 75.1438 47.784 74.1075 48.0012C73.6738 48.1367 73.299 48.4161 73.0449 48.7933C72.7909 49.1706 72.6727 49.6232 72.7097 50.0767C72.6594 50.1174 72.6188 50.1689 72.5909 50.2273C72.563 50.2858 72.5486 50.3497 72.5486 50.4145C72.5486 50.4793 72.563 50.5433 72.5909 50.6017C72.6188 50.6602 72.6594 50.7117 72.7097 50.7524C72.6988 50.905 72.6988 51.0583 72.7097 51.2109C72.8303 51.5164 73.0119 51.7941 73.2434 52.0269C73.4749 52.2597 73.7514 52.4427 74.056 52.5647C74.3606 52.6867 74.6869 52.7451 75.0148 52.7364C75.3427 52.7277 75.6655 52.6521 75.9632 52.5141C76.5898 52.3693 76.397 51.5971 75.9391 51.7419ZM75.4812 49.5699C75.1438 50.2456 74.1798 50.2215 73.4568 50.1008C73.4693 49.7657 73.5514 49.437 73.6978 49.1355C74.0352 48.5804 76.0355 48.4597 75.4812 49.5699ZM81.2411 51.5005C79.7951 51.9591 79.53 51.6212 79.3372 50.1973C79.3372 49.4733 79.3372 48.7011 79.3372 47.9771V42.8125C79.3518 42.7555 79.3531 42.6959 79.3412 42.6383C79.3292 42.5806 79.3043 42.5265 79.2683 42.48C79.2322 42.4335 79.186 42.3959 79.1332 42.37C79.0804 42.3441 79.0224 42.3306 78.9636 42.3306C78.9049 42.3306 78.8469 42.3441 78.7941 42.37C78.7413 42.3959 78.6951 42.4335 78.659 42.48C78.623 42.5265 78.5981 42.5806 78.5861 42.6383C78.5742 42.6959 78.5755 42.7555 78.5901 42.8125V47.6392C78.4455 48.898 78.4455 50.1693 78.5901 51.4281C78.9275 52.7796 80.3735 52.6348 81.3857 52.2969C81.94 52.128 81.699 51.3557 81.2411 51.5005ZM85.8683 47.7116C85.5806 47.5809 85.2684 47.5133 84.9525 47.5133C84.6366 47.5133 84.3244 47.5809 84.0367 47.7116C84.0513 47.6546 84.0526 47.595 84.0407 47.5373C84.0287 47.4797 84.0038 47.4255 83.9678 47.379C83.9317 47.3325 83.8855 47.2949 83.8327 47.269C83.7799 47.2431 83.7219 47.2297 83.6632 47.2297C83.6044 47.2297 83.5464 47.2431 83.4936 47.269C83.4408 47.2949 83.3946 47.3325 83.3585 47.379C83.3225 47.4255 83.2976 47.4797 83.2856 47.5373C83.2737 47.595 83.275 47.6546 83.2896 47.7116C83.2776 47.8884 83.2776 48.0658 83.2896 48.2425C83.2528 48.3438 83.2528 48.4549 83.2896 48.5563C83.4342 51.5729 83.4583 54.5655 83.2896 57.5821C83.2896 57.6845 83.3302 57.7827 83.4025 57.8552C83.4748 57.9276 83.5729 57.9683 83.6752 57.9683C83.7775 57.9683 83.8755 57.9276 83.9479 57.8552C84.0202 57.7827 84.0608 57.6845 84.0608 57.5821C84.0608 55.5067 84.0608 53.4071 84.0608 51.3316C84.6334 51.56 85.2716 51.56 85.8442 51.3316C86.2046 51.1803 86.5045 50.9132 86.6965 50.5723C86.8885 50.2315 86.9617 49.8363 86.9046 49.4492C86.904 49.093 86.8075 48.7435 86.6251 48.4377C86.4427 48.1319 86.1812 47.881 85.8683 47.7116ZM84.1572 50.4387V48.6769C85.0489 48.2425 86.2539 48.1943 86.3262 49.594C86.3985 50.9937 84.9525 51.0661 84.1572 50.4387Z" fill="#D1E2EE"/>
<path d="M14.9179 149.313C14.0985 148.903 11.7608 150.158 11.7608 150.158L16.5808 156.36C16.5808 156.36 15.9783 154.405 15.4481 152.45C14.9179 150.495 15.5445 149.627 14.9179 149.313Z" fill="#635DAD"/>
<path d="M11.2547 150.64L16.0988 156.818L16.629 156.36L11.7608 150.158L11.2547 150.64Z" fill="#443E90"/>
<path d="M45.3803 159.015C44.5609 159.425 43.9584 162.176 43.9584 162.176H51.4776C51.4776 162.176 49.7183 161.428 47.9831 160.607C46.2479 159.787 46.0069 158.701 45.3803 159.015Z" fill="#635DAD"/>
<path d="M43.9584 162.9L51.4776 162.852V162.128L43.9584 162.176V162.9Z" fill="#443E90"/>
<path d="M47.5975 95.93C50.2726 112.823 46.7299 159.618 46.7299 159.618L44.5609 159.932C44.5609 159.932 35.0414 115.575 34.3666 113.716C33.6918 111.858 34.6799 99.55 34.6799 99.55L47.5975 95.93Z" fill="#208674"/>
<path d="M40.3434 111.593C39.765 109.879 33.9328 101.07 33.9328 101.07C33.756 105.291 33.901 109.518 34.3666 113.716C35.0414 115.575 44.5609 159.932 44.5609 159.932L46.1274 159.714C44.6091 155.901 40.97 113.427 40.3434 111.593Z" fill="#005644"/>
<path d="M15.3517 150.978L33.9569 131.503L41.0182 110.869L44.1994 108.214L43.6933 95.4715L27.233 96.8954L25.9557 129.499L13.3996 149.337L15.3517 150.978Z" fill="#208674"/>
<path d="M40.4639 113.596L35.6198 109.927L40.2952 111.062L44.8742 108.286L40.4639 113.596Z" fill="#005644"/>
<path d="M28.2934 131.84C28.2934 131.84 28.8236 111.906 32.1012 105.559C33.8846 102.132 48.441 101.481 48.441 101.481L45.79 95.1819L27.1848 96.8712L25.9075 129.499L13.3996 149.337L14.5082 150.278L28.2934 131.84Z" fill="#005644"/>
<path d="M70.7817 73.9687C69.5329 74.0394 68.3406 74.5136 67.3836 75.3202C66.3714 76.02 65.4797 76.5027 64.5398 77.1784C65.2706 78.1961 66.1571 79.092 67.1667 79.8331C68.3777 79.3569 69.5333 78.75 70.613 78.0231C70.9263 78.0231 72.0349 78.2886 72.5651 78.0231C73.0096 77.7224 73.3286 77.269 73.4619 76.7487C73.5951 76.2284 73.5333 75.6772 73.2881 75.1995C72.5844 74.562 71.7159 74.1355 70.7817 73.9687Z" fill="#FFA47F"/>
<path d="M77.12 74.2824C77.3369 74.1135 77.12 73.3412 76.879 73.3895C76.1668 73.5603 75.4899 73.8543 74.8787 74.2583C74.1907 74.6491 73.402 74.8255 72.6133 74.7651C71.8782 74.714 71.1463 74.6254 70.4202 74.4996C70.0346 74.4996 69.9864 74.9099 70.4202 74.9582H70.8781C70.7094 74.9582 70.7576 75.2719 70.8781 75.3443C72.1142 75.9066 73.516 75.9841 74.8064 75.5615C75.6187 75.2144 76.3939 74.7859 77.12 74.2824Z" fill="#FFA47F"/>
<path d="M77.602 76.0682C77.8189 75.8993 77.602 75.2477 77.602 75.2477C76.8534 75.2214 76.1168 75.4419 75.5053 75.8752C74.8082 76.2652 74.0121 76.4414 73.2158 76.382C72.4887 76.3307 71.7648 76.2421 71.0468 76.1165C70.6612 76.1165 70.613 76.5268 71.0468 76.575H71.4806C71.336 76.575 71.3601 76.8646 71.4806 76.9612C72.7216 77.5297 74.1273 77.6241 75.433 77.2266C76.1878 76.9035 76.9135 76.5159 77.602 76.0682Z" fill="#FFA47F"/>
<path d="M76.5898 77.4439C76.8308 77.3232 77.1682 77.2267 77.1682 76.9612C77.1682 76.6957 77.1682 76.5751 77.0477 76.5509C76.2192 76.4553 75.3809 76.6064 74.6377 76.9853C73.8994 77.2955 73.0859 77.3794 72.3 77.2267C71.5986 77.0542 70.9068 76.8447 70.2274 76.5992C69.8659 76.5992 69.6972 76.9129 70.0587 77.0336L70.4684 77.1784C70.2756 77.1784 69.6249 77.6611 69.8177 77.7817C71.1849 78.4793 72.7454 78.7002 74.2521 78.4092C75.0595 78.1606 75.8421 77.8374 76.5898 77.4439Z" fill="#FFA47F"/>
<path d="M77.7707 75.1995C77.9876 75.0306 77.7707 74.3548 77.4574 74.4031C76.8118 74.4905 76.1896 74.7037 75.6258 75.0306C74.9331 75.4319 74.1334 75.6089 73.3363 75.5374C72.6097 75.494 71.8857 75.4135 71.1673 75.296C70.7817 75.296 70.7335 75.6822 71.1673 75.7304H71.6011C71.4565 75.7304 71.6011 76.0442 71.6011 76.1166C72.8453 76.6804 74.2551 76.7579 75.5535 76.3338C76.3283 76.0302 77.071 75.6502 77.7707 75.1995ZM74.1557 73.6067C74.3003 73.6067 74.1557 72.7138 73.8906 72.6655C72.9117 72.569 71.9236 72.6926 70.9986 73.0275C69.9455 73.5057 68.9706 74.1404 68.1066 74.9099C67.962 75.0547 68.9501 74.9099 69.1188 74.9099C69.124 74.9593 69.146 75.0054 69.1811 75.0406C69.2162 75.0757 69.2623 75.0977 69.3116 75.103C70.3961 75.296 70.8058 74.4996 71.7216 74.1376C72.6374 73.7756 73.505 74.0894 74.1557 73.6067Z" fill="#FFA47F"/>
<path d="M38.7769 75.7304C38.7769 75.7304 42.8257 87.4109 52.4898 90.7896C57.0447 92.3582 69.3598 80.5812 69.3598 80.5812L66.2991 74.8133C66.2991 74.8133 55.43 81.4982 54.8275 81.4017C53.3333 81.1604 47.5975 68.056 42.2473 66.9217C40.0783 66.2701 37.9334 71.4346 38.7769 75.7304Z" fill="#635DAD"/>
<path d="M44.7296 70.3728C44.7296 70.3728 48.8266 86.0112 53.1405 87.4351C56.3217 88.4728 69.3598 80.5812 69.3598 80.5812C69.3598 80.5812 58.5871 91.5377 53.261 90.9585C47.9349 90.3793 41.934 81.3052 41.934 81.3052L44.7296 70.3728Z" fill="#443E90"/>
<path d="M35.8367 65.16C40.1265 64.9669 43.0667 66.6563 44.0548 69.3351C47.2056 79.1168 48.9423 89.2997 49.2122 99.5741C49.2122 99.5741 34.7522 103.629 26.7751 101.987C26.7751 101.987 24.3651 77.4197 27.0643 70.3487C28.92 65.4255 32.7519 65.16 35.8367 65.16Z" fill="#FFA44A"/>
<path d="M40.6567 65.9323C41.5966 65.9323 43.0667 66.608 44.0548 69.2868C47.3547 79.4131 49.6473 89.8411 50.8992 100.419C49.8557 100.806 48.7577 101.026 47.6457 101.07C47.6457 101.07 45.9828 70.7348 40.6567 65.9323ZM35.8367 65.16C37.7406 73.4378 41.5966 102.543 41.5966 102.543C36.4571 104.016 31.0483 104.289 25.787 103.339C25.787 103.339 24.3651 77.3956 27.0643 70.3246C28.92 65.4255 32.7519 65.16 35.8367 65.16Z" fill="#635DAD"/>
<path d="M41.5966 59.8506C41.5063 60.0614 41.4338 60.2794 41.3797 60.5022C41.2057 61.0458 41.0767 61.6027 40.9941 62.1674C40.9061 62.6702 40.8498 63.178 40.8254 63.6878C40.7487 64.5711 40.7487 65.4593 40.8254 66.3425C39.4785 66.9123 38.0112 67.1378 36.5557 66.9987C35.1001 66.8597 33.7019 66.3605 32.4868 65.5461C32.6889 64.858 32.842 64.1564 32.9447 63.4465C33.1857 61.9261 33.2821 60.4057 33.3062 59.9713V59.8506H41.5966Z" fill="#FFA47F"/>
<path d="M41.5966 59.8506C41.5063 60.0614 41.4338 60.2794 41.3797 60.5022C41.1906 61.0415 41.0613 61.5999 40.9941 62.1674C40.9061 62.6702 40.8498 63.178 40.8254 63.6878C39.0989 64.5844 37.1316 64.9057 35.2101 64.6049C34.3907 64.3979 33.6312 64.0011 32.9929 63.4465C33.2339 61.9261 33.3303 60.4057 33.3544 59.9713V59.8506H41.5966Z" fill="#F27049"/>
<path d="M31.33 64.6773C33.5149 66.1923 36.0959 67.0315 38.7528 67.0906C38.3478 68.0215 38.0409 68.992 37.837 69.9866C37.837 69.9866 32.3181 68.2008 31.33 64.6773ZM40.6567 65.9081C40.1843 66.4975 39.518 66.8996 38.7769 67.0424L40.8254 69.0454C40.8254 69.0454 41.1146 66.3666 41.0905 66.0288C41.0664 65.6909 40.6567 65.9081 40.6567 65.9081Z" fill="white"/>
<path d="M30.2455 80.3157C29.1742 84.2664 29.1742 88.4317 30.2455 92.3824C32.053 97.0401 32.2217 101.36 41.5966 102.374C36.4832 103.998 31.0374 104.273 25.787 103.17C25.787 103.17 25.3532 84.2736 25.787 78.192C25.9316 76.1407 30.2455 80.3157 30.2455 80.3157Z" fill="#443E90"/>
<path d="M29.643 52.7072H30.607C30.607 52.7072 29.8117 44.164 32.7278 40.6405C33.0981 40.174 33.5719 39.8002 34.1115 39.5489C34.6511 39.2975 35.2418 39.1755 35.8367 39.1925C36.6129 39.165 37.3856 39.3111 38.0984 39.62C38.8113 39.9289 39.4464 40.3929 39.9578 40.9784C41.2517 42.9292 41.8621 45.2551 41.693 47.5909H42.6329C42.8501 44.9701 42.1609 42.3543 40.6808 40.182C40.0869 39.4898 39.3457 38.9397 38.5116 38.5722C37.6774 38.2047 36.7716 38.029 35.8608 38.0582C35.1304 38.0336 34.4045 38.1826 33.7426 38.493C33.0808 38.8035 32.5018 39.2665 32.053 39.8441C28.92 43.7296 29.5948 52.3452 29.643 52.7072Z" fill="#412014"/>
<path d="M39.4035 54.4448C39.4035 55.2412 39.7168 56.5444 40.4398 56.8582C42.1509 57.6787 43.8379 56.0376 43.7897 53.6484C43.8541 52.9208 43.6416 52.1956 43.1947 51.6183C42.7477 51.041 42.0995 50.6541 41.3797 50.5352C41.2199 50.5118 41.0575 50.5118 40.8977 50.5352C40.6429 50.6037 40.4077 50.7311 40.211 50.9071C40.0143 51.0832 39.8615 51.3029 39.765 51.5488C39.4494 52.4796 39.3264 53.4649 39.4035 54.4448Z" fill="#9F4424"/>
<path d="M39.4035 54.4448C39.4035 55.2412 39.7168 56.5444 40.4398 56.8581C40.0171 55.8634 39.8444 54.78 39.9369 53.703C40.0293 52.6259 40.384 51.5879 40.97 50.68C40.7152 50.7485 40.48 50.8759 40.2833 51.0519C40.0866 51.2279 39.9338 51.4477 39.8373 51.6936C39.5162 52.5739 39.3689 53.5083 39.4035 54.4448Z" fill="#412014"/>
<path opacity="0.3" d="M42.3196 54.9998C42.6108 54.3654 42.6788 53.6508 42.5124 52.9726C42.4841 52.9158 42.4686 52.8535 42.4669 52.79C42.4653 52.7265 42.4776 52.6634 42.5029 52.6052C42.5283 52.547 42.566 52.495 42.6136 52.453C42.6612 52.411 42.7173 52.3799 42.7782 52.362C42.839 52.3441 42.9031 52.3398 42.9658 52.3493C43.0285 52.3588 43.0883 52.382 43.1411 52.4172C43.1939 52.4524 43.2383 52.4988 43.2713 52.5531C43.3042 52.6073 43.3249 52.6682 43.3318 52.7313C43.5848 53.6578 43.4905 54.645 43.0667 55.5066C42.8257 55.9893 42.0786 55.5066 42.3196 54.9998Z" fill="white"/>
<path d="M31.8602 56.5927C31.8602 56.5927 32.5109 61.4193 34.0533 62.264C35.5957 63.1087 41.0664 63.2776 42.2232 61.7813C43.38 60.2851 43.1631 47.9047 42.7293 46.9393C42.2955 45.974 34.7522 42.4023 32.1976 46.336C29.643 50.2697 31.8602 56.5927 31.8602 56.5927Z" fill="#FFA47F"/>
<path d="M44.6814 42.1368C43.0908 40.2061 38.801 40.3027 34.8486 40.8336C31.5951 41.2439 29.4502 45.4913 29.4984 45.6603C28.679 45.9257 28.0283 48.0736 28.3175 49.6664C29.3297 55.4584 32.053 56.4479 32.5591 56.3031C34.9691 55.5791 35.1378 50.8248 33.8123 47.1565C35.8345 46.7704 37.9115 46.7704 39.9337 47.1565C41.5814 47.6154 43.3229 47.6154 44.9706 47.1565C46.4648 46.1671 45.5731 43.1987 44.6814 42.1368Z" fill="#FFA44A"/>
<path d="M35.2101 48.2666C36.3278 47.8267 37.5424 47.6934 38.7287 47.8805C38.9201 48.4107 38.9201 48.9914 38.7287 49.5216C37.5975 49.5681 36.4648 49.479 35.3547 49.2561C35.232 48.9416 35.1825 48.6032 35.2101 48.2666ZM43.9102 48.9906C42.9448 48.3639 41.8302 48.0057 40.6808 47.9529C40.4288 48.4434 40.3523 49.0056 40.4639 49.5457C41.5109 49.8139 42.5885 49.9437 43.6692 49.9318C43.8283 49.6438 43.9113 49.3198 43.9102 48.9906Z" fill="#FFA44A"/>
<path d="M37.0658 52.49C37.0658 53.1658 37.5478 53.6243 37.9575 53.5036C38.3672 53.383 38.6323 52.659 38.5359 51.8867C38.4395 51.1144 37.9816 50.6318 37.5719 50.849C37.3398 51.0455 37.1687 51.3045 37.079 51.5953C36.9893 51.8862 36.9848 52.1967 37.0658 52.49ZM41.4761 52.3211C41.4761 53.021 41.7653 53.576 42.1027 53.576C42.4401 53.576 42.6811 52.9486 42.657 52.2004C42.6329 51.4523 42.3196 50.8731 41.9822 50.9455C41.6448 51.0179 41.4279 51.6212 41.4761 52.3211ZM38.56 58.644C39.6568 58.9902 40.8432 58.9127 41.8858 58.4268C41.8858 58.4268 41.8858 60.3334 40.7772 60.6471C39.6686 60.9608 38.9697 59.6335 38.56 58.644Z" fill="#412014"/>
<path d="M41.8376 58.4268C41.7926 58.7202 41.7032 59.0051 41.5725 59.2715C40.7335 59.6237 39.8025 59.6915 38.9215 59.4646C38.7858 59.198 38.6651 58.9241 38.56 58.644C39.6463 58.9385 40.7996 58.8621 41.8376 58.4268Z" fill="white"/>
<path d="M40.6326 53.5036C40.6326 53.5036 41.6689 55.9169 41.4279 56.6409C41.1869 57.3649 39.4758 56.9305 39.4758 56.9305L40.6326 53.5036Z" fill="#FFA47F"/>
<path d="M40.6326 53.5036C41.1777 54.266 41.548 55.1395 41.7171 56.0617C41.7287 56.1982 41.7287 56.3355 41.7171 56.472C41.7017 56.66 41.6255 56.8379 41.5002 56.9788C41.4016 57.0736 41.284 57.1462 41.1552 57.192C41.0264 57.2378 40.8893 57.2556 40.7531 57.2443C40.3014 57.2379 39.8568 57.1307 39.4517 56.9305C39.8728 56.9028 40.2915 56.8464 40.7049 56.7616C40.8573 56.7384 40.9996 56.6713 41.1146 56.5685C41.1146 56.5685 41.1146 56.3755 41.1146 56.1583C41.1146 55.9411 40.9459 55.3136 40.8495 54.8792C40.7519 54.425 40.6795 53.9658 40.6326 53.5036Z" fill="#F27049"/>
<path d="M32.1012 54.0346C31.5951 53.4554 29.3779 52.7796 29.1128 53.7208C28.6549 55.2654 30.366 58.1855 32.3904 57.003C33.1375 56.5686 32.5591 54.5414 32.1012 54.0346Z" fill="#FFA47F"/>
<path d="M31.7156 54.9999C31.7156 54.9999 30.1009 53.8656 29.9563 54.3724C29.643 55.386 30.9926 56.2307 31.3541 56.3755C31.3541 56.3755 30.6311 55.5067 30.8239 55.1206C31.0167 54.7344 31.7156 54.9999 31.7156 54.9999Z" fill="#F27049"/>
<path d="M29.643 52.7072H30.607C30.607 52.7072 29.8117 44.164 32.7278 40.6405C33.0981 40.174 33.5719 39.8002 34.1115 39.5489C34.6511 39.2976 35.2418 39.1755 35.8367 39.1925C36.571 39.1915 37.3017 39.2972 38.0057 39.5063L38.2708 38.5168C37.4917 38.269 36.6782 38.1468 35.8608 38.1548C35.1326 38.1451 34.4117 38.3007 33.7522 38.61C33.0927 38.9193 32.5117 39.3743 32.053 39.9407C28.92 43.7296 29.5948 52.3452 29.643 52.7072ZM34.5594 61.3711C35.3676 61.351 36.1732 61.2703 36.9694 61.1297V60.454C35.7234 60.7319 34.4317 60.7319 33.1857 60.454C32.3904 60.092 31.6433 57.7993 31.3541 56.4237L30.7275 56.5685C30.7275 56.9788 31.5951 60.4781 32.9447 61.1056C33.463 61.2889 34.0097 61.3788 34.5594 61.3711Z" fill="#412014"/>
<path d="M32.7519 55.5067C32.7519 56.2789 32.4627 57.5821 31.7397 57.92H31.6192C29.9081 58.7647 28.2211 57.1236 28.2693 54.7344C28.199 54.0056 28.4094 53.2775 28.8573 52.6989C29.3053 52.1202 29.957 51.7347 30.6793 51.6212C30.838 51.5858 31.0026 51.5858 31.1613 51.6212C31.4169 51.6799 31.6541 51.8009 31.8517 51.9735C32.0494 52.1461 32.2013 52.365 32.294 52.6107C32.6513 53.5322 32.8074 54.5197 32.7519 55.5067Z" fill="#9F4424"/>
<path d="M32.7519 55.5067C32.7519 56.2789 32.4627 57.5821 31.7397 57.92H31.6192C32.0778 56.9237 32.2827 55.829 32.2154 54.734C32.1481 53.639 31.8108 52.5778 31.2336 51.6453C31.4892 51.704 31.7264 51.825 31.924 51.9976C32.1217 52.1703 32.2736 52.3891 32.3663 52.6348C32.6956 53.5541 32.827 54.5329 32.7519 55.5067Z" fill="#412014"/>
<path opacity="0.3" d="M29.8599 56.0618C29.5686 55.4358 29.5005 54.7288 29.6671 54.0587C29.8117 53.4795 28.9923 53.214 28.8477 53.7932C28.6073 54.7127 28.7013 55.6879 29.1128 56.5444C29.3538 57.0754 30.1009 56.5927 29.8599 56.0618Z" fill="white"/>
<path d="M37.7406 60.5264C37.7471 60.6849 37.7222 60.8431 37.6676 60.992C37.6129 61.1408 37.5295 61.2775 37.422 61.394C37.3146 61.5106 37.1853 61.6048 37.0414 61.6712C36.8976 61.7377 36.7421 61.7751 36.5838 61.7813C36.3219 61.7064 36.0916 61.5481 35.9275 61.3304C35.7635 61.1127 35.6748 60.8474 35.6748 60.5746C35.6748 60.3019 35.7635 60.0366 35.9275 59.8189C36.0916 59.6012 36.3219 59.4429 36.5838 59.368C36.8868 59.3799 37.1742 59.5058 37.3886 59.7205C37.603 59.9352 37.7287 60.223 37.7406 60.5264Z" fill="#412014"/>
<path d="M33.74 47.1807C35.3383 46.9792 36.9501 46.9065 38.56 46.9635C39.6445 47.1566 43.7656 48.3632 45.1393 47.1324C46.513 45.9016 45.5249 43.7779 45.5249 43.7779C45.5249 43.7779 45.1634 47.3979 42.7293 46.9394C40.2952 46.4808 35.8126 45.4914 33.74 47.1807Z" fill="#E9A754"/>
<path d="M10.5799 93.5408L30.2214 84.8046C30.3122 84.7632 30.4108 84.7418 30.5106 84.7418C30.6104 84.7418 30.709 84.7632 30.7998 84.8046L31.6192 85.1666L31.3541 85.6251L36.4151 98.9467C36.4913 99.143 36.4915 99.3607 36.4157 99.5571C36.3399 99.7536 36.1936 99.9146 36.0054 100.009L17.0387 108.431L16.629 109.107L15.8096 108.745C15.6219 108.659 15.475 108.503 15.3999 108.31L10.1702 94.5785C10.0952 94.3857 10.0958 94.1716 10.1718 93.9792C10.2477 93.7868 10.3935 93.6302 10.5799 93.5408Z" fill="#412014"/>
<path d="M17.1833 109.107L36.8248 100.371C37.0152 100.286 37.1649 100.13 37.2415 99.9356C37.3181 99.7415 37.3156 99.5251 37.2345 99.3328L32.0289 85.601C31.9943 85.5061 31.9409 85.4193 31.8719 85.3456C31.8029 85.272 31.7198 85.2131 31.6274 85.1725C31.5351 85.132 31.4356 85.1105 31.3347 85.1095C31.2339 85.1084 31.1339 85.1279 31.0408 85.1666L11.3993 93.9028C11.2167 93.9963 11.0744 94.1533 10.999 94.3443C10.9235 94.5353 10.9202 94.7473 10.9896 94.9406L16.2193 108.6C16.2433 108.7 16.2885 108.795 16.3518 108.876C16.4151 108.958 16.4951 109.025 16.5864 109.073C16.6777 109.121 16.7782 109.148 16.8811 109.154C16.9841 109.16 17.0871 109.144 17.1833 109.107Z" fill="#584441"/>
<path d="M17.1833 109.107L36.8248 100.371L18.2437 90.862L11.3993 93.9028C11.2167 93.9963 11.0744 94.1533 10.999 94.3443C10.9235 94.5353 10.9202 94.7472 10.9896 94.9405L16.2193 108.6C16.2433 108.7 16.2885 108.795 16.3518 108.876C16.4151 108.958 16.4951 109.025 16.5864 109.073C16.6777 109.121 16.7782 109.148 16.8811 109.154C16.9841 109.16 17.0871 109.144 17.1833 109.107Z" fill="#9F4424"/>
<path d="M29.8599 102.398C29.589 101.578 29.0088 100.897 28.2433 100.5C27.4777 100.104 26.5875 100.022 25.7629 100.274C25.285 100.566 24.9013 100.991 24.6577 101.496C24.4141 102.001 24.3209 102.565 24.3892 103.122C24.3892 104.184 24.3892 105.849 25.305 106.5C25.3824 106.544 25.4687 106.569 25.5573 106.574C25.6459 106.578 25.7343 106.563 25.8159 106.528C25.8974 106.493 25.9698 106.439 26.0275 106.372C26.0852 106.304 26.1266 106.224 26.1485 106.138C26.2494 106.263 26.3788 106.36 26.5257 106.423C26.6727 106.486 26.8326 106.513 26.992 106.5C27.1379 106.49 27.2781 106.439 27.3972 106.354C27.5163 106.269 27.6095 106.153 27.6668 106.018C27.7208 106.106 27.7922 106.183 27.8765 106.244C27.9609 106.304 28.0566 106.347 28.1578 106.369C28.2591 106.392 28.3638 106.394 28.4658 106.375C28.5677 106.356 28.6649 106.316 28.7513 106.259C28.9469 106.137 29.0922 105.948 29.161 105.728C29.2968 105.868 29.4765 105.956 29.6697 105.978C29.863 106 30.0579 105.954 30.2214 105.849C31.33 105.221 30.2214 103.194 29.8599 102.398Z" fill="#FFA47F"/>
<path d="M30.5106 100.177C29.6199 99.9968 28.7021 99.9968 27.8114 100.177C27.695 100.18 27.5815 100.214 27.4837 100.277C27.3859 100.341 27.3075 100.43 27.2575 100.535C27.2074 100.64 27.1877 100.757 27.2004 100.873C27.2131 100.989 27.2577 101.099 27.3294 101.191C27.7632 101.722 28.3175 102.349 28.9682 102.301C29.6189 102.253 29.643 101.939 30.0045 102.012C30.366 102.084 30.848 102.929 31.0408 103.339C31.2336 103.749 32.7037 103.339 32.4627 102.47C32.3284 101.967 32.0834 101.499 31.7457 101.103C31.4079 100.706 30.986 100.39 30.5106 100.177Z" fill="#FFA47F"/>
<path d="M27.8837 101.167L25.9316 96.9436L22.7263 99.2363L25.0158 103.073L27.8837 101.167Z" fill="#FFA47F"/>
<path d="M29.4502 66.8011C29.4502 66.8011 16.0988 74.0411 13.5924 84.7322C12.4115 89.7519 22.7263 101.963 22.7263 101.963L27.8596 98.3192C27.8596 98.3192 21.69 88.69 21.69 88.0867C21.8346 86.4456 28.5585 82.9463 30.2696 80.3158C30.8239 76.744 31.9325 70.6624 29.4502 66.8011Z" fill="#635DAD"/>
<path d="M30.2455 80.3157C30.2455 80.3157 19.0872 83.8392 20.2199 87.5557C21.3526 91.2723 27.8596 98.3192 27.8596 98.3192C27.8596 98.3192 21.5454 89.2933 21.69 88.0867C21.8346 86.88 29.0646 82.8015 30.2455 80.3157Z" fill="#443E90"/>
<path d="M135.683 46.3601C135.683 53.2864 143.299 58.9095 152.673 58.9095C162.048 58.9095 169.543 53.2864 169.543 46.3601C169.543 39.4339 161.952 33.8108 152.673 33.8108C143.395 33.8108 135.683 39.4339 135.683 46.3601Z" fill="white"/>
<path d="M161.47 53.6725C161.47 53.6725 162.241 62.3605 165.736 63.0363C165.736 63.0363 158.313 62.5295 156.746 57.7269C155.18 52.9244 161.47 53.6725 161.47 53.6725Z" fill="white"/>
<path d="M141.13 41.6059C142.985 42.1368 144.335 41.0508 145.95 40.5923C146.385 40.4515 146.843 40.3942 147.299 40.4233C148.022 40.4233 149.709 41.4128 150.167 40.5923C150.198 40.5475 150.24 40.5109 150.288 40.4856C150.336 40.4603 150.39 40.4471 150.444 40.4471C150.499 40.4471 150.552 40.4603 150.601 40.4856C150.649 40.5109 150.69 40.5475 150.721 40.5923C150.894 40.7688 151.1 40.9091 151.328 41.0049C151.556 41.1007 151.8 41.15 152.047 41.15C152.294 41.15 152.538 41.1007 152.766 41.0049C152.993 40.9091 153.2 40.7688 153.372 40.5923C153.493 40.5923 153.686 40.4233 153.806 40.5923C155.18 41.6783 156.216 40.8819 157.662 40.9784C158.409 40.9784 159.06 41.5817 159.783 41.7265C160.822 41.9306 161.898 41.8127 162.868 41.3887C163.278 41.1956 163.47 41.8955 163.061 42.0644C161.881 42.5697 160.568 42.6715 159.325 42.354C158.475 42.0054 157.568 41.8172 156.65 41.7989C156.195 41.8712 155.731 41.8712 155.276 41.7989C154.843 41.7989 154.312 41.3404 153.927 41.3163C153.541 41.2921 153.204 41.63 152.818 41.7024C152.458 41.7775 152.087 41.7732 151.729 41.6898C151.371 41.6065 151.035 41.4461 150.745 41.2197C149.661 42.3057 147.974 40.906 146.6 41.2197C144.6 41.63 143.178 42.9332 141.057 42.3299C140.961 42.3203 140.873 42.2729 140.812 42.1982C140.751 42.1236 140.722 42.0277 140.732 41.9317C140.742 41.8357 140.789 41.7474 140.863 41.6863C140.938 41.6252 141.034 41.5963 141.13 41.6059ZM155.879 44.8156C156.963 45.5155 158.747 44.9363 159.976 44.9845C161.205 45.0328 163.422 45.8775 164.169 44.9845C164.458 44.6225 164.94 45.1293 164.675 45.4913C163.567 46.8669 161.952 45.9257 160.53 45.7809C159.108 45.6361 156.963 46.4084 155.517 45.4913C155.132 45.2017 155.493 44.5743 155.879 44.8156ZM141.539 44.9845C142.118 45.1293 142.768 44.526 143.347 44.6467C144.455 44.8397 145.203 45.8533 146.287 44.6467C146.355 44.5803 146.445 44.5432 146.54 44.5432C146.635 44.5432 146.726 44.5803 146.793 44.6467C147.031 44.9143 147.322 45.1285 147.648 45.2752C147.974 45.4219 148.327 45.4978 148.685 45.4978C149.042 45.4978 149.396 45.4219 149.722 45.2752C150.048 45.1285 150.339 44.9143 150.577 44.6467C150.89 44.3088 151.372 44.8156 151.059 45.1535C150.741 45.53 150.341 45.8281 149.89 46.0248C149.438 46.2216 148.948 46.3115 148.456 46.2877C147.733 46.2877 147.01 45.5637 146.432 45.612C145.853 45.6603 145.66 46.0464 145.203 46.0947C144.861 46.1022 144.52 46.0616 144.19 45.974C143.672 45.7928 143.123 45.7189 142.576 45.7568C142.17 45.8414 141.752 45.8414 141.347 45.7568C141.296 45.7441 141.248 45.7216 141.206 45.6905C141.164 45.6593 141.129 45.6203 141.102 45.5754C141.075 45.5306 141.057 45.4809 141.05 45.4292C141.042 45.3775 141.045 45.3248 141.057 45.2741C141.07 45.2234 141.092 45.1757 141.124 45.1337C141.155 45.0917 141.194 45.0563 141.238 45.0294C141.283 45.0025 141.333 44.9847 141.384 44.977C141.436 44.9693 141.489 44.9718 141.539 44.9845ZM161.181 48.2667C161.329 48.1421 161.508 48.0605 161.7 48.0308C161.891 48.001 162.086 48.0241 162.265 48.0977C162.94 48.3391 163.446 48.7976 164.097 48.0977C164.167 48.0454 164.253 48.0201 164.339 48.0262C164.426 48.0324 164.508 48.0697 164.569 48.1314C164.631 48.193 164.668 48.2747 164.674 48.3617C164.681 48.4486 164.655 48.5348 164.603 48.6045C164.258 48.9522 163.791 49.1513 163.302 49.1596C163.095 49.1566 162.891 49.1157 162.699 49.0389C162.434 49.0389 161.928 48.4839 161.687 48.7011C161.446 48.9183 160.819 48.6045 161.181 48.2667ZM143.708 48.4839C145.084 48.3028 146.478 48.3028 147.853 48.4839C148.456 48.4839 149.059 48.2184 149.685 48.2184C150.312 48.2184 151.107 48.2184 151.854 48.2184H152.481L154.24 48.2667C154.416 48.1339 154.611 48.0281 154.818 47.9529C155.397 47.784 155.204 47.8081 155.59 47.8081C155.975 47.8081 156.457 48.2184 156.891 48.4115C157.261 48.497 157.645 48.5047 158.018 48.4341C158.392 48.3634 158.746 48.216 159.06 48.0012C159.446 47.784 159.807 48.3873 159.397 48.6045C158.967 48.8833 158.481 49.0645 157.973 49.1354C157.465 49.2062 156.948 49.1651 156.457 49.0148L155.903 48.7735C155.361 48.7128 154.812 48.796 154.312 49.0148C153.985 49.1621 153.634 49.2519 153.276 49.2803C151.927 49.0738 150.567 48.9528 149.203 48.9183C147.45 48.8166 145.692 48.8731 143.949 49.0872C143.882 49.082 143.817 49.0581 143.763 49.0181C143.708 48.978 143.666 48.9235 143.641 48.8607C143.616 48.7979 143.609 48.7293 143.621 48.6627C143.633 48.5961 143.663 48.5341 143.708 48.4839ZM146.648 51.4764C147.832 51.446 149.016 51.5025 150.191 51.6453C151.083 51.6453 151.806 51.4281 152.601 51.4281C153.879 51.4281 154.698 52.2487 156.168 51.9832C156.602 51.9832 156.795 52.5865 156.337 52.6831C155.53 52.7802 154.712 52.7229 153.927 52.5141C153.18 52.3573 152.408 52.3573 151.661 52.5141C151.377 52.6265 151.075 52.6917 150.77 52.7072C150.191 52.7072 149.83 52.3693 149.251 52.3693C148.673 52.3693 147.444 52.128 146.624 52.2004C146.215 52.2245 146.215 51.5247 146.648 51.4764Z" fill="#D1E2EE"/>
<path d="M178.34 76.2372C178.108 76.4798 177.953 76.7852 177.893 77.1156C177.833 77.446 177.871 77.7867 178.003 78.0955C178.173 78.41 178.445 78.6569 178.774 78.7953C178.918 78.7953 179.69 78.916 180.099 78.9884C180.509 79.0608 180.943 78.8195 180.774 77.8541C180.605 76.8888 180.437 76.4061 179.786 76.0924C179.302 75.9643 178.789 76.0158 178.34 76.2372Z" fill="#FFA47F"/>
<path d="M177.304 74.8133C177.304 74.6444 177.304 74.4755 177.304 74.3307C177.329 74.3158 177.358 74.308 177.388 74.308C177.418 74.308 177.447 74.3158 177.472 74.3307C177.819 74.5802 178.059 74.9504 178.147 75.3684C178.268 75.7983 178.554 76.1627 178.942 76.382C179.28 76.5751 179.617 76.7199 179.979 76.8888C180.34 77.0577 179.979 77.2508 179.834 77.1784H179.617C179.625 77.2042 179.626 77.2315 179.621 77.2579C179.617 77.2844 179.605 77.3093 179.589 77.3305C179.572 77.3518 179.551 77.3688 179.527 77.3801C179.502 77.3914 179.475 77.3967 179.449 77.3956C179.087 77.3777 178.736 77.2715 178.425 77.0865C178.114 76.9014 177.853 76.643 177.665 76.3337C177.484 75.8435 177.362 75.333 177.304 74.8133Z" fill="#FFA47F"/>
<path d="M176.436 75.5132C176.436 75.3442 176.436 75.1512 176.436 75.0305C176.465 75.0136 176.499 75.0046 176.532 75.0046C176.566 75.0046 176.6 75.0136 176.629 75.0305C176.975 75.2801 177.216 75.6502 177.304 76.0682C177.425 76.4981 177.711 76.8625 178.099 77.0818C178.436 77.2749 178.774 77.4197 179.135 77.5886C179.497 77.7576 179.135 77.9506 178.991 77.8782H178.774C178.777 77.9055 178.775 77.9333 178.767 77.9595C178.759 77.9858 178.745 78.0101 178.727 78.0306C178.708 78.0512 178.686 78.0676 178.661 78.0788C178.636 78.09 178.608 78.0957 178.581 78.0954C178.225 78.0698 177.88 77.9602 177.574 77.7757C177.269 77.5911 177.011 77.3369 176.822 77.0336C176.635 76.5432 176.506 76.0331 176.436 75.5132Z" fill="#FFA47F"/>
<path d="M176.267 76.6474C176.267 76.5026 176.075 76.3337 176.267 76.1648C176.297 76.1478 176.33 76.1389 176.364 76.1389C176.398 76.1389 176.431 76.1478 176.46 76.1648C176.894 76.3096 177.063 76.6233 177.304 77.0094C177.519 77.3919 177.873 77.6769 178.292 77.8059C178.655 77.9198 179.025 78.0085 179.4 78.0713C179.593 78.0713 179.4 78.4092 179.4 78.385H179.184C179.184 78.385 180.485 79.0608 180.364 79.0608C179.187 79.1172 178.029 78.7394 177.111 77.9989C176.771 77.5879 176.487 77.1334 176.267 76.6474Z" fill="#FFA47F"/>
<path d="M176.725 77.6369L179.834 75.6097L176.34 68.9731L173.207 71.0003L176.725 77.6369Z" fill="#412014"/>
<path d="M173.134 70.6865L174.942 69.5281L175.087 69.8419L174.171 70.4211L173.52 70.8555C173.43 70.9639 173.38 71.1005 173.38 71.2416C173.38 71.3827 173.43 71.5193 173.52 71.6277L176.34 76.9612C176.365 77.0238 176.404 77.0803 176.453 77.127C176.502 77.1737 176.56 77.2096 176.623 77.2324C176.687 77.2551 176.755 77.2642 176.822 77.2591C176.89 77.2539 176.955 77.2347 177.015 77.2025L178.581 76.1889L178.894 76.8164L177.111 77.9989C177.051 78.0311 176.986 78.0503 176.919 78.0555C176.851 78.0606 176.783 78.0515 176.72 78.0287C176.656 78.006 176.598 77.9701 176.549 77.9234C176.5 77.8767 176.462 77.8202 176.436 77.7576L173.11 71.4588C173.019 71.3497 172.971 71.2105 172.975 71.0681C172.979 70.9256 173.036 70.7897 173.134 70.6865Z" fill="#412014"/>
<path d="M173.207 71.3382L176.532 77.6369C176.558 77.6964 176.596 77.7499 176.643 77.7944C176.69 77.839 176.746 77.8735 176.807 77.896C176.867 77.9186 176.932 77.9286 176.997 77.9256C177.061 77.9225 177.125 77.9064 177.183 77.8783L179.81 76.1648C179.905 76.0586 179.957 75.9212 179.957 75.7787C179.957 75.6362 179.905 75.4987 179.81 75.3926L176.484 69.0938C176.461 69.0319 176.425 68.9758 176.379 68.9292C176.332 68.8826 176.276 68.8466 176.214 68.8237C176.152 68.8008 176.086 68.7915 176.021 68.7965C175.955 68.8014 175.891 68.8205 175.834 68.8524L173.183 70.5659C173.096 70.6771 173.051 70.8153 173.055 70.9564C173.059 71.0975 173.113 71.2326 173.207 71.3382ZM179.256 75.658L177.087 77.0578C177.029 77.0897 176.965 77.1088 176.9 77.1137C176.834 77.1187 176.768 77.1094 176.706 77.0865C176.644 77.0635 176.588 77.0276 176.542 76.981C176.495 76.9344 176.459 76.8782 176.436 76.8164L173.52 71.483C173.432 71.3784 173.383 71.2459 173.383 71.1089C173.383 70.9719 173.432 70.8394 173.52 70.7348L174.171 70.3004C174.199 70.3201 174.233 70.3307 174.267 70.3307C174.302 70.3307 174.335 70.3201 174.363 70.3004L174.918 69.9384C174.935 69.9091 174.944 69.8758 174.944 69.8419C174.944 69.808 174.935 69.7747 174.918 69.7454L175.568 69.311C175.785 69.1662 176.075 69.311 176.219 69.5764L179.376 74.8134C179.424 74.8767 179.458 74.9489 179.478 75.0256C179.498 75.1024 179.502 75.1822 179.491 75.2607C179.48 75.3391 179.453 75.4146 179.413 75.4827C179.372 75.5509 179.319 75.6105 179.256 75.658Z" fill="#9F4424"/>
<path d="M178.099 77.0578L178.75 76.6234C178.775 76.5929 178.789 76.5545 178.789 76.5148C178.789 76.475 178.775 76.4366 178.75 76.4062C178.721 76.3864 178.688 76.3759 178.653 76.3759C178.619 76.3759 178.585 76.3864 178.557 76.4062L177.882 76.8406C177.882 76.8406 177.882 76.9854 177.882 77.0819C177.897 77.0959 177.915 77.1065 177.935 77.113C177.955 77.1194 177.975 77.1216 177.996 77.1193C178.017 77.117 178.036 77.1103 178.054 77.0997C178.072 77.0891 178.087 77.0748 178.099 77.0578ZM174.99 69.9867C174.99 69.9867 175.014 69.9867 174.99 69.9867V69.9867ZM174.653 70.228L174.894 70.0591L174.653 70.2039C174.653 70.2039 174.653 70.2039 174.653 70.3246C174.653 70.3246 174.605 70.2522 174.653 70.228Z" fill="#412014"/>
<path d="M178.34 74.8133C178.34 74.8133 178.34 74.6202 178.533 74.6685C179.018 74.8085 179.469 75.0467 179.858 75.3684C180.152 75.7863 180.35 76.2644 180.437 76.7681C180.437 76.7681 180.437 76.937 180.316 76.9612C180.294 76.9719 180.269 76.9775 180.244 76.9775C180.219 76.9775 180.194 76.9719 180.172 76.9612C179.593 76.8405 179.593 76.2854 179.28 75.8752C178.967 75.4649 178.581 75.5132 178.34 74.8133Z" fill="#FFA47F"/>
<path d="M207.621 53.4553C207.621 53.1657 208.369 46.4808 205.477 42.9815C204.922 42.3289 204.225 41.8131 203.439 41.4741C202.653 41.135 201.8 40.9819 200.946 41.0267C199.847 40.9538 198.746 41.1334 197.727 41.5517C196.707 41.9699 195.797 42.6158 195.065 43.44C194.044 44.8287 193.588 46.5538 193.788 48.2667L194.8 48.1219C194.66 46.7247 195.037 45.3246 195.861 44.1881C196.506 43.4971 197.298 42.9605 198.178 42.6179C199.058 42.2753 200.004 42.1356 200.946 42.2092C201.656 42.1864 202.362 42.3268 203.009 42.6196C203.657 42.9125 204.229 43.35 204.681 43.8985C207.236 47.0117 206.561 53.4071 206.537 53.5519L207.621 53.4553Z" fill="#412014"/>
<path d="M193.571 47.3254C193.571 47.3254 194.366 65.4737 190.39 67.5733C191.667 69.3833 196.463 69.9866 200.922 68.0077C200.922 68.0077 199.114 57.9682 199.644 55.3618C197.308 52.9346 195.269 50.2367 193.571 47.3254Z" fill="#FF765F"/>
<path d="M195.21 47.9047C194.49 51.3896 194.359 54.971 194.824 58.4992C195.474 62.0604 195.072 65.7339 193.668 69.0696C199.048 69.4957 204.461 68.9895 209.67 67.5734C210.658 67.2838 207.26 47.5427 206.465 47.422C205.669 47.3014 195.21 47.9047 195.21 47.9047Z" fill="#F1543B"/>
<path d="M193.692 94.5544C192.463 104.811 201.428 160.028 201.428 160.028H202.127C202.127 160.028 203.332 103.267 203.308 101.167C203.283 99.0673 197.62 92.4066 197.62 92.4066L193.692 94.5544Z" fill="#FF765F"/>
<path d="M197.62 92.4066C197.62 92.4066 202.006 149.723 201.934 159.98H202.054C202.054 159.98 203.259 103.218 203.235 101.119C203.211 99.0191 197.62 92.4066 197.62 92.4066Z" fill="#F1543B"/>
<path d="M208.369 92.3824C213.912 106.525 205.332 159.956 205.332 159.956H204.609L200.03 106.187L197.933 104.015L197.62 92.4065L208.369 92.3824Z" fill="#FF765F"/>
<path d="M208.369 92.3824L206.224 93.3236C211.237 106.838 206.682 151.943 204.922 160.028H205.332C205.332 160.028 213.912 106.525 208.369 92.3824Z" fill="#F1543B"/>
<path d="M200.464 66.1494C201.765 66.6804 200.151 73.6308 192.463 85.1182C190.511 88.0384 187.956 83.6944 188.992 81.8602C190.028 80.0261 194.294 72.2069 194.294 72.2069C194.294 72.2069 198.054 65.16 200.464 66.1494Z" fill="#635DAD"/>
<path d="M200.464 66.1495C201.765 66.6804 200.151 73.6308 192.463 85.1183C194.511 78.0472 194.608 75.7787 195.403 72.7137C195.933 70.6383 198.054 65.16 200.464 66.1495Z" fill="#443E90"/>
<path d="M191.474 85.794C191.209 86.2767 190.39 86.2043 188.51 85.1424C187.04 84.346 179.931 78.9884 179.931 78.9884L180.533 77.1543C183.877 78.6186 187.101 80.3455 190.173 82.3188C191.33 83.622 192.101 84.708 191.474 85.794Z" fill="#635DAD"/>
<path d="M200.873 62.5294C200.729 62.6424 200.55 62.7021 200.367 62.6984C200.184 62.7 200.002 62.6587 199.837 62.5777C199.891 62.4889 199.964 62.4141 200.052 62.3595C200.14 62.3049 200.24 62.2722 200.343 62.264C200.446 62.2666 200.546 62.2918 200.638 62.3376C200.73 62.3835 200.81 62.449 200.873 62.5294Z" fill="#F27049"/>
<path d="M192.631 95.4956C200.44 98.3434 209.501 95.1095 209.501 95.1095C208.193 90.994 207.17 86.7928 206.441 82.536C206.24 79.8771 206.24 77.2068 206.441 74.5479C206.545 72.7975 206.812 71.0605 207.236 69.3592C207.646 68.1043 206.561 67.0907 205.597 66.4632L205.019 66.1254C204.803 66.0015 204.577 65.8965 204.344 65.8116C204.344 65.8116 203.452 65.691 200.729 65.4738C200.332 65.4812 199.943 65.5811 199.592 65.7654C199.24 65.9497 198.936 66.2134 198.704 66.5356C196.294 69.4075 194.752 77.0578 194.8 78.6023C194.78 79.1473 194.973 79.6788 195.337 80.0841C195.701 80.4895 196.209 80.7371 196.752 80.7743C195.643 85.7518 194.267 90.666 192.631 95.4956Z" fill="#635DAD"/>
<path d="M196.945 80.8467C198.454 80.8585 199.959 80.6884 201.428 80.3399C200.1 81.5309 198.39 82.2071 196.608 82.2464L196.945 80.8467ZM207.115 69.9867C206.557 74.5737 206.411 79.2019 206.682 83.8151C207.405 87.1696 209.574 95.0129 209.574 95.0129C209.574 95.0129 204.754 96.2679 202.127 96.5816C203.248 95.8376 204.139 94.7953 204.701 93.5717C205.263 92.3481 205.473 90.9919 205.308 89.6553C204.826 84.8287 204.898 71.9415 206.368 69.4075C207.838 66.8735 207.115 69.9867 207.115 69.9867Z" fill="#443E90"/>
<path d="M226.733 75.9235C226.058 75.9235 225.745 76.5509 225.359 77.106C224.973 77.6611 223.672 78.0231 223.72 78.0472C223.768 78.0713 223.961 79.0125 224.299 79.278C224.636 79.5435 225.889 78.4575 226.082 78.4333C226.275 78.4092 226.636 78.6023 226.781 78.6023C226.939 78.6109 227.098 78.5876 227.247 78.5337C227.396 78.4798 227.532 78.3964 227.649 78.2885C227.86 78.0632 228 77.7804 228.052 77.4756C228.103 77.1707 228.064 76.8574 227.938 76.5751C227.618 76.2318 227.195 76.003 226.733 75.9235Z" fill="#FFA47F"/>
<path d="M229.263 75.6339C229.263 75.4891 229.48 75.3684 229.408 75.1995C229.386 75.1867 229.361 75.1801 229.336 75.1801C229.31 75.1801 229.285 75.1867 229.263 75.1995C228.829 75.1995 228.637 75.5373 228.372 75.8511C228.118 76.1636 227.757 76.3701 227.359 76.4303C227.014 76.4551 226.668 76.4551 226.323 76.4303C226.154 76.4303 226.179 76.744 226.323 76.744H226.54C226.524 76.7597 226.511 76.7785 226.503 76.7992C226.494 76.8199 226.489 76.8422 226.489 76.8647C226.489 76.8871 226.494 76.9094 226.503 76.9301C226.511 76.9508 226.524 76.9696 226.54 76.9853C226.848 77.1018 227.181 77.1364 227.506 77.0856C227.831 77.0348 228.138 76.9005 228.396 76.6957C228.73 76.3814 229.022 76.0244 229.263 75.6339Z" fill="#FFA47F"/>
<path d="M229.769 76.6234C229.769 76.4786 229.986 76.3579 229.914 76.189C229.868 76.1702 229.816 76.1702 229.769 76.189C229.4 76.2842 229.081 76.5173 228.878 76.8406C228.627 77.1568 228.265 77.3643 227.866 77.4198C227.528 77.4198 227.191 77.4198 226.829 77.4198C226.468 77.4198 226.685 77.7094 226.829 77.7094H227.046C227.026 77.7226 227.01 77.7405 226.999 77.7615C226.987 77.7826 226.981 77.8061 226.981 77.83C226.981 77.8539 226.987 77.8774 226.999 77.8985C227.01 77.9196 227.026 77.9375 227.046 77.9507C227.353 78.0659 227.684 78.102 228.008 78.0556C228.332 78.0092 228.64 77.8818 228.902 77.6852C229.229 77.364 229.52 77.0079 229.769 76.6234Z" fill="#FFA47F"/>
<path d="M229.577 77.6611C229.577 77.6611 229.818 77.4439 229.793 77.2749C229.808 77.2278 229.808 77.1773 229.793 77.1301C229.413 77.1406 229.051 77.296 228.781 77.5645C228.478 77.8157 228.089 77.9371 227.697 77.9024C227.348 77.8696 227.002 77.8132 226.661 77.7335C226.492 77.7335 226.468 77.9989 226.661 78.0231H226.877C226.877 78.0231 226.54 78.4333 226.636 78.4816C226.97 78.6474 227.337 78.7337 227.709 78.7337C228.081 78.7337 228.448 78.6474 228.781 78.4816C229.072 78.2339 229.338 77.9592 229.577 77.6611Z" fill="#FFA47F"/>
<path d="M229.769 76.0442C229.769 75.9235 229.962 75.7787 229.769 75.6097C229.747 75.599 229.722 75.5935 229.697 75.5935C229.672 75.5935 229.647 75.599 229.625 75.6097C229.255 75.705 228.936 75.9381 228.733 76.2614C228.615 76.4192 228.467 76.5517 228.298 76.6512C228.128 76.7507 227.94 76.8151 227.745 76.8406C227.392 76.8645 227.038 76.8645 226.685 76.8406C226.516 76.8406 226.54 77.1543 226.685 77.1543H226.902C226.881 77.1701 226.865 77.1903 226.854 77.2132C226.843 77.2362 226.837 77.2615 226.837 77.287C226.837 77.3126 226.843 77.3378 226.854 77.3608C226.865 77.3838 226.881 77.4039 226.902 77.4198C227.209 77.5362 227.542 77.5708 227.868 77.52C228.193 77.4693 228.499 77.3349 228.757 77.1301C229.133 76.8061 229.472 76.4419 229.769 76.0442ZM228.323 75.4167C228.323 75.4167 228.323 75.1995 228.179 75.2236C227.734 75.127 227.274 75.127 226.829 75.2236C226.453 75.4793 226.139 75.8178 225.913 76.2131C225.898 76.2267 225.886 76.2434 225.877 76.2621C225.869 76.2808 225.864 76.3011 225.864 76.3217C225.864 76.3422 225.869 76.3625 225.877 76.3813C225.886 76.4 225.898 76.4167 225.913 76.4303C225.903 76.4699 225.903 76.5114 225.913 76.5509C226.444 76.5509 226.612 76.1648 227.022 75.9235C227.432 75.6821 228.155 76.02 228.323 75.4167Z" fill="#FFA47F"/>
<path d="M227.793 76.5268C227.956 76.8093 228.042 77.1298 228.042 77.456C228.042 77.7822 227.956 78.1026 227.793 78.3851C227.869 77.768 227.869 77.1439 227.793 76.5268ZM227.046 76.4303C227.085 76.6315 227.067 76.8395 226.994 77.0312C226.922 77.2229 226.798 77.3908 226.636 77.5163C226.636 77.5163 227.118 77.1302 227.191 76.913C227.206 76.8268 227.201 76.7381 227.176 76.6543C227.151 76.5704 227.107 76.4936 227.046 76.4303Z" fill="#F29866"/>
<path d="M204.368 67.694C204.764 70.0824 205.528 72.3946 206.633 74.5479C208.407 78.2351 210.453 81.7845 212.755 85.1666C214.731 88.1108 217.262 83.7427 216.249 81.9327C215.237 80.1227 210.947 72.1587 210.947 72.1587C210.947 72.1587 208.272 67.332 205.983 66.2701C205.739 66.1659 205.476 66.1165 205.212 66.1253C205.06 66.1001 204.905 66.1001 204.754 66.1253C204.44 66.3425 204.296 66.8493 204.368 67.694Z" fill="#635DAD"/>
<path d="M213.767 85.8423C214.032 86.325 214.851 86.2526 216.731 85.2148C218.177 84.3943 225.311 79.0608 225.311 79.0608L225.022 77.2267C221.617 78.7041 218.33 80.4387 215.189 82.4154C213.887 83.6944 213.14 84.7804 213.767 85.8423Z" fill="#635DAD"/>
<path d="M199.018 68.6352C199.211 69.7212 199.934 71.0486 201.139 70.4452C201.978 69.9181 202.741 69.2764 203.404 68.5387L204.368 67.694L205.79 66.4632C205.86 66.4051 205.925 66.3404 205.983 66.2702C205.739 66.1659 205.476 66.1165 205.212 66.1254C204.996 66.0015 204.77 65.8965 204.537 65.8116C204.537 65.8116 203.645 65.691 200.922 65.4738C200.525 65.4812 200.136 65.5811 199.784 65.7654C199.433 65.9497 199.129 66.2134 198.897 66.5356C198.835 67.2376 198.876 67.945 199.018 68.6352ZM205.621 72.207C207.392 76.6817 209.707 80.9209 212.514 84.8287C213.14 85.7458 213.863 87.0248 216.37 85.4079C219.358 83.4772 220.322 82.7291 220.322 82.7291C220.322 82.7291 215.285 85.9388 214.153 85.4079C213.02 84.877 205.621 72.207 205.621 72.207Z" fill="#443E90"/>
<path d="M216.105 81.6672C215.652 81.9294 215.245 82.2636 214.9 82.6567C215.096 81.4298 215.005 80.1742 214.635 78.9884L216.105 81.6672Z" fill="#443E90"/>
<path d="M200.223 60.3333C200.369 62.1968 200.369 64.0688 200.223 65.9322C201.042 68.5869 204.874 65.9322 204.874 65.9322C204.834 65.3054 204.834 64.6767 204.874 64.0498C204.874 62.6984 204.874 61.3228 204.874 60.9366L200.223 60.3333Z" fill="#FFA47F"/>
<path d="M200.199 61.2262V61.8296C200.23 62.3279 200.23 62.8276 200.199 63.3258C200.199 63.8085 200.199 64.5566 200.199 65.0634C201.211 66.0046 203.934 63.9292 204.729 62.6501C204.729 61.2504 204.898 59.73 204.898 59.73L200.199 61.2262Z" fill="#F27049"/>
<path d="M206.489 50.0043C206.489 50.0043 206.73 57.2443 205.332 59.9955C203.934 62.7467 201.09 64.8222 200.126 64.6774C197.572 64.1947 195.306 57.4374 195.306 52.6107C195.475 46.4808 200.657 43.7538 206.489 50.0043Z" fill="#FFA47F"/>
<path d="M203.115 54.0104C203.115 53.2864 202.585 52.8037 202.151 52.9485C201.717 53.0933 201.428 53.8415 201.548 54.662C201.669 55.4825 202.127 55.9893 202.56 55.7721C202.994 55.5549 203.211 54.7585 203.115 54.0104ZM198.415 54.1793C198.415 53.4312 198.102 52.852 197.74 52.852C197.379 52.852 197.114 53.5277 197.138 54.3241C197.162 55.1205 197.499 55.7239 197.861 55.6515C198.222 55.5791 198.439 54.9275 198.415 54.1793Z" fill="#412014"/>
<path d="M196.68 53.6242C196.68 53.6242 197.837 52.852 198.656 53.1416C198.602 52.9849 198.496 52.8515 198.356 52.7636C198.216 52.6758 198.049 52.6388 197.885 52.6589C197.283 52.7072 196.68 53.6242 196.68 53.6242ZM203.452 53.5518C203.124 53.3832 202.765 53.2815 202.397 53.2525C202.028 53.2235 201.658 53.2678 201.307 53.3829C201.389 53.1883 201.526 53.0223 201.702 52.9063C201.878 52.7902 202.085 52.7293 202.295 52.7313C202.994 52.7072 203.452 53.5518 203.452 53.5518Z" fill="#412014"/>
<path d="M200.03 55.8204C199.965 56.5107 199.819 57.1911 199.596 57.8476C199.585 57.9195 199.585 57.9928 199.596 58.0648C199.671 58.1301 199.763 58.1721 199.861 58.1854L200.777 58.4509C200.473 58.6123 200.133 58.6952 199.789 58.6922C199.673 58.7038 199.556 58.6879 199.447 58.646C199.338 58.6041 199.241 58.5373 199.162 58.4509C199.099 58.2879 199.099 58.1071 199.162 57.9441V57.6545C199.319 56.9885 199.614 56.3633 200.03 55.8204Z" fill="#F27049"/>
<path d="M201.38 59.8506C201.38 59.8506 199.837 60.5746 198.97 59.8506C198.97 59.8506 199.114 61.8778 199.909 61.8537C200.705 61.8296 201.114 60.9366 201.38 59.8506Z" fill="white"/>
<path d="M201.5 50.5111C201.211 50.5111 201.283 51.1386 201.5 51.2351C202.623 51.3622 203.707 51.724 204.681 52.297C204.85 52.3452 202.826 50.1732 201.5 50.5111ZM198.68 50.5111C198.97 50.5111 198.873 51.1386 198.68 51.2351C197.557 51.3622 196.474 51.724 195.499 52.297C195.499 52.297 197.355 50.1732 198.68 50.5111Z" fill="#F1543B"/>
<path d="M200.295 65.9805C200.946 67.6457 203.91 66.4873 204.826 65.9805C205.26 65.6909 205.621 66.1977 205.163 66.4873C203.717 67.4044 200.343 68.4904 199.861 66.1253C199.813 65.7875 200.151 65.6185 200.295 65.9805Z" fill="white"/>
<path d="M200.054 106.235L196.294 103.411L200.054 103.918V106.235Z" fill="#F1543B"/>
<path d="M201.982 156.867C202.705 157.18 203.308 159.859 203.308 159.859H196.536C197.634 159.391 198.677 158.8 199.644 158.097C201.211 157.06 201.404 156.698 201.982 156.867Z" fill="#635DAD"/>
<path d="M203.308 159.932H196.536V160.511H203.308V159.932Z" fill="#443E90"/>
<path d="M205.284 156.867C204.561 157.18 203.958 159.859 203.958 159.859H210.73C209.631 159.391 208.589 158.8 207.622 158.097C206.055 157.06 205.862 156.698 205.284 156.867Z" fill="#635DAD"/>
<path d="M203.958 160.535H210.73V159.956H203.958V160.535Z" fill="#443E90"/>
<path d="M205.935 50.4869C205.602 52.2329 205.602 54.0261 205.935 55.7721C206.485 55.4179 207.14 55.2645 207.79 55.3377C207.79 55.3377 211.767 50.873 210.056 47.3496C209.446 46.0677 208.474 44.9935 207.26 44.2605C205.633 43.2064 203.715 42.6947 201.78 42.7988C199.845 42.9028 197.992 43.6172 196.487 44.8397C191.667 42.7401 191.908 51.6694 191.908 51.6694C193.998 50.4061 196.351 49.6423 198.783 49.4372C201.216 49.2321 203.663 49.5913 205.935 50.4869Z" fill="#FF765F"/>
<path d="M203.404 68.5387C208.224 71.3381 215.454 67.4768 215.454 67.4768C212.466 62.8673 213.044 53.214 210.032 47.3496C209.748 50.5787 208.28 53.588 205.91 55.7963C206.465 58.3785 204.537 65.8116 203.404 68.5387Z" fill="#FF765F"/>
<path d="M205.187 54.9757C205.693 54.3724 207.597 53.0209 207.862 54.3C208.128 55.579 206.416 59.7541 205.115 57.7269C204.88 57.3039 204.763 56.8254 204.775 56.3414C204.788 55.8574 204.93 55.3858 205.187 54.9757Z" fill="#FFA47F"/>
<path d="M205.669 55.5067C205.669 55.5067 207.067 54.2035 207.115 55.0964C207.163 55.5273 207.083 55.9625 206.886 56.3485C206.689 56.7345 206.383 57.0542 206.007 57.2684C206.234 56.8742 206.327 56.4169 206.272 55.9652C206.151 55.2895 205.669 55.5067 205.669 55.5067Z" fill="#F27049"/>
<path d="M207.622 53.4553C207.622 53.1657 208.369 46.4808 205.477 42.9814C204.922 42.3289 204.225 41.813 203.439 41.474C202.653 41.135 201.8 40.9819 200.946 41.0266C199.958 41.0328 198.976 41.1791 198.03 41.461L198.319 42.5229C199.174 42.2825 200.057 42.1527 200.946 42.1368C201.664 42.1083 202.379 42.2459 203.035 42.5389C203.691 42.8319 204.271 43.2723 204.729 43.8261C207.284 46.9393 206.609 53.3346 206.585 53.4794L207.622 53.4553ZM203.139 63.0121C204.28 63.077 205.419 62.8702 206.465 62.4088C207.814 61.5882 208.248 57.7752 208.296 57.3408H207.622C207.453 58.837 206.923 61.371 206.127 61.8537C204.845 62.3061 203.479 62.4709 202.127 62.3364V63.0845L203.139 63.0121Z" fill="#412014"/>
<path d="M204.85 56.8823C204.85 57.7028 205.163 59.1025 205.935 59.5369H206.055C207.911 60.4299 209.67 58.6681 209.646 56.1341C209.715 55.3471 209.477 54.5639 208.983 53.9479C208.49 53.3319 207.777 52.9306 206.995 52.8279C206.828 52.792 206.656 52.792 206.489 52.8279C206.216 52.8984 205.964 53.0308 205.75 53.215C205.537 53.3992 205.369 53.6301 205.26 53.8897C204.94 54.8535 204.802 55.868 204.85 56.8823Z" fill="#9F4424"/>
<path d="M204.85 56.8823C204.85 57.7028 205.163 59.1025 205.934 59.5369H206.055C205.568 58.4741 205.352 57.3066 205.428 56.1395C205.504 54.9725 205.868 53.8427 206.489 52.852C206.216 52.9225 205.964 53.055 205.75 53.2391C205.537 53.4233 205.369 53.6542 205.26 53.9139C204.943 54.87 204.805 55.876 204.85 56.8823Z" fill="#412014"/>
<path opacity="0.3" d="M207.959 57.4614C208.271 56.7905 208.347 56.0335 208.176 55.3136C208.148 55.2541 208.134 55.1895 208.133 55.124C208.133 55.0585 208.147 54.9936 208.173 54.9338C208.2 54.874 208.239 54.8206 208.288 54.7772C208.337 54.7339 208.395 54.7015 208.457 54.6824C208.52 54.6632 208.586 54.6577 208.651 54.6662C208.716 54.6748 208.778 54.6971 208.834 54.7318C208.889 54.7664 208.937 54.8126 208.973 54.8672C209.009 54.9217 209.033 54.9834 209.043 55.0481C209.289 56.0176 209.186 57.0424 208.754 57.9441C208.489 58.5233 207.694 57.92 207.959 57.4614Z" fill="white"/>
<path d="M201.211 62.4571C201.223 62.6243 201.268 62.7874 201.344 62.9367C201.42 63.086 201.526 63.2186 201.654 63.3266C201.782 63.4346 201.93 63.5158 202.09 63.5654C202.25 63.615 202.418 63.632 202.585 63.6155C202.922 63.5619 203.225 63.3775 203.428 63.102C203.631 62.8265 203.718 62.4822 203.669 62.1433C203.657 61.9752 203.612 61.8111 203.536 61.6606C203.46 61.51 203.355 61.3759 203.228 61.266C203.1 61.1561 202.952 61.0726 202.792 61.0202C202.632 60.9678 202.463 60.9477 202.295 60.9608C201.956 61.0201 201.653 61.2094 201.45 61.4888C201.248 61.7681 201.162 62.1154 201.211 62.4571Z" fill="#9F4424"/>
<path d="M84.35 104.473C84.4612 104.497 84.5762 104.497 84.6874 104.473C84.8507 104.369 84.9687 104.206 85.0179 104.018C85.067 103.83 85.0437 103.631 84.9525 103.46L77.7225 89.1968L87.1938 75.9717L93.7008 81.2569C93.7735 81.3167 93.8578 81.3606 93.9484 81.3858C94.0389 81.411 94.1338 81.417 94.2268 81.4034C94.3199 81.3898 94.409 81.3568 94.4886 81.3067C94.5682 81.2565 94.6364 81.1902 94.6889 81.1121C94.7959 80.9472 94.8402 80.7492 94.8136 80.5543C94.7871 80.3594 94.6915 80.1805 94.5443 80.0503L87.483 74.3307C87.4141 74.2674 87.332 74.2204 87.2426 74.193C87.1532 74.1656 87.0589 74.1586 86.9665 74.1725C86.874 74.1864 86.7859 74.2208 86.7085 74.2732C86.631 74.3257 86.5663 74.3948 86.519 74.4755L76.3006 88.5693C76.2236 88.6923 76.1828 88.8345 76.1828 88.9796C76.1828 89.1247 76.2236 89.2669 76.3006 89.3899L83.6752 104.063C83.7304 104.194 83.8253 104.304 83.9464 104.377C84.0676 104.451 84.2087 104.484 84.35 104.473Z" fill="#FF765F"/>
<path d="M93.7731 83.8151L97.0989 80.6053L95.8698 79.1091C95.6826 78.8776 95.4494 78.6876 95.1849 78.5513C94.9205 78.4149 94.6306 78.3351 94.3337 78.3169C94.0368 78.2988 93.7393 78.3427 93.4603 78.4458C93.1812 78.5489 92.9266 78.709 92.7127 78.916C92.2722 79.3634 92.0115 79.9576 91.9804 80.5852C91.9492 81.2128 92.1499 81.8299 92.544 82.3188L93.7731 83.8151Z" fill="#FF765F"/>
<path d="M103.1 83.4048L95.7252 90.6448L95.6047 90.5L93.0019 87.3385C92.174 86.3331 91.7223 85.0699 91.7246 83.7668C91.7271 82.5999 92.089 81.4622 92.7609 80.5088C92.8184 80.4091 92.8916 80.3194 92.9778 80.2433C93.0943 80.0736 93.232 79.9195 93.3875 79.7848C93.865 79.3355 94.429 78.9884 95.045 78.7647C95.661 78.541 96.316 78.4455 96.9702 78.4839C97.6243 78.5223 98.2637 78.6938 98.8494 78.988C99.4351 79.2822 99.9547 79.6929 100.377 80.195L103.1 83.4048Z" fill="#F1543B"/>
<path d="M101.413 84.4667C101.75 84.2012 102.088 83.9357 102.401 83.6461L99.7981 80.5329C99.0516 79.5915 97.9721 78.9737 96.7832 78.8075C95.5943 78.6413 94.3871 78.9394 93.4116 79.64C93.3317 79.7306 93.2592 79.8274 93.1947 79.9296C94.1438 79.4987 95.2094 79.3976 96.2224 79.6425C97.2354 79.8873 98.1376 80.4641 98.7859 81.2811L101.413 84.4667Z" fill="#9F4424"/>
<path d="M95.7252 90.5483C96.2313 91.1758 98.3039 90.0898 100.352 88.135C102.401 86.1802 103.606 84.0564 103.1 83.429C102.594 82.8015 101.509 83.429 100.087 84.4908C99.519 84.9127 98.9795 85.3723 98.4726 85.8664C97.95 86.3748 97.4591 86.9148 97.0025 87.4834C95.8939 88.859 95.3396 90.0898 95.7252 90.5483Z" fill="#FF765F"/>
<path d="M97.0025 87.4592C97.1868 87.6504 97.4077 87.8025 97.652 87.9064C97.8963 88.0103 98.159 88.0638 98.4244 88.0638C98.6898 88.0638 98.9525 88.0103 99.1968 87.9064C99.4411 87.8025 99.662 87.6504 99.8463 87.4592C100.23 87.0576 100.463 86.5358 100.507 85.9818C100.551 85.4278 100.403 84.8755 100.087 84.4184C99.519 84.8403 98.9795 85.2999 98.4726 85.794C97.9485 86.318 97.4575 86.8741 97.0025 87.4592Z" fill="#FFC17D"/>
<path d="M85.7478 74.8134C85.7667 74.5643 85.8579 74.3263 86.0103 74.1286C86.1626 73.9309 86.3694 73.7822 86.6052 73.7008C86.841 73.6194 87.0954 73.6089 87.337 73.6706C87.5787 73.7323 87.797 73.8635 87.9651 74.048C88.1331 74.2325 88.2436 74.4622 88.2828 74.7088C88.3221 74.9555 88.2883 75.2082 88.1858 75.4358C88.0833 75.6635 87.9165 75.8561 87.706 75.9899C87.4954 76.1238 87.2503 76.1929 87.001 76.1889C86.6536 76.1702 86.3276 76.0155 86.0931 75.7581C85.8587 75.5008 85.7347 75.1614 85.7478 74.8134Z" fill="#9F4424"/>
<path d="M86.278 74.8133C86.2828 74.6655 86.3313 74.5224 86.4174 74.4021C86.5034 74.2819 86.6231 74.1899 86.7614 74.1377C86.8996 74.0856 87.0502 74.0757 87.1941 74.1092C87.338 74.1427 87.4687 74.2183 87.5697 74.3262C87.6708 74.4341 87.7376 74.5696 87.7617 74.7155C87.7859 74.8615 87.7663 75.0113 87.7054 75.1461C87.6446 75.2809 87.5451 75.3946 87.4198 75.4728C87.2944 75.5511 87.1486 75.5903 87.001 75.5856C86.9029 75.5825 86.8063 75.56 86.7169 75.5195C86.6274 75.479 86.5468 75.4213 86.4797 75.3495C86.4125 75.2778 86.3601 75.1935 86.3255 75.1015C86.2909 75.0095 86.2748 74.9116 86.278 74.8133Z" fill="#F1543B"/>
<path d="M75.915 89.2933C75.9337 89.0453 76.0243 88.8082 76.1755 88.6109C76.3268 88.4136 76.5322 88.2648 76.7666 88.1826C77.001 88.1004 77.2543 88.0885 77.4954 88.1482C77.7365 88.2079 77.9549 88.3367 78.1241 88.5189C78.2932 88.701 78.4056 88.9286 78.4476 89.1737C78.4896 89.4188 78.4593 89.6709 78.3604 89.899C78.2615 90.1272 78.0983 90.3215 77.8909 90.4583C77.6834 90.595 77.4407 90.6682 77.1923 90.6689C77.0182 90.6627 76.847 90.6222 76.6886 90.5496C76.5301 90.4771 76.3875 90.374 76.2689 90.2463C76.1503 90.1185 76.0579 89.9686 75.9972 89.8051C75.9365 89.6415 75.9086 89.4676 75.915 89.2933Z" fill="#9F4424"/>
<path d="M76.4693 89.2933C76.4833 89.1541 76.5373 89.0219 76.6247 88.9127C76.7122 88.8035 76.8293 88.7221 76.9621 88.6782C77.0948 88.6343 77.2373 88.6299 77.3725 88.6655C77.5077 88.7011 77.6296 88.7751 77.7236 88.8787C77.8177 88.9823 77.8797 89.1109 77.9022 89.249C77.9248 89.3871 77.9068 89.5288 77.8506 89.657C77.7944 89.7851 77.7023 89.8942 77.5854 89.971C77.4686 90.0478 77.3321 90.089 77.1923 90.0897C77.092 90.0867 76.9934 90.0635 76.9023 90.0215C76.8112 89.9794 76.7295 89.9195 76.662 89.8452C76.5945 89.7708 76.5427 89.6837 76.5096 89.5889C76.4765 89.4941 76.4628 89.3935 76.4693 89.2933ZM74.8546 106.766H92.9296C92.9558 105.942 92.6569 105.14 92.0977 104.535C91.5384 103.93 90.7638 103.57 89.9412 103.532H77.8912C77.4828 103.548 77.0815 103.644 76.7103 103.815C76.339 103.986 76.005 104.228 75.7275 104.528C75.4499 104.829 75.2342 105.181 75.0927 105.565C74.9512 105.949 74.8867 106.357 74.9028 106.766H74.8546Z" fill="#F1543B"/>
<path d="M138.72 160.101C138.687 160.478 138.545 160.838 138.312 161.137C138.078 161.435 137.763 161.659 137.405 161.782C137.047 161.904 136.661 161.92 136.294 161.826C135.927 161.733 135.595 161.534 135.339 161.255C135.082 160.977 134.912 160.629 134.85 160.255C134.787 159.881 134.834 159.497 134.986 159.15C135.137 158.802 135.386 158.506 135.703 158.298C136.019 158.09 136.389 157.978 136.768 157.977C137.307 158.002 137.814 158.239 138.18 158.637C138.545 159.034 138.739 159.56 138.72 160.101ZM147.347 160.101C147.315 160.478 147.173 160.838 146.94 161.137C146.706 161.435 146.391 161.659 146.033 161.782C145.675 161.904 145.288 161.92 144.921 161.826C144.555 161.733 144.223 161.534 143.966 161.255C143.71 160.977 143.54 160.629 143.477 160.255C143.415 159.881 143.462 159.497 143.613 159.15C143.765 158.802 144.014 158.506 144.33 158.298C144.647 158.09 145.017 157.978 145.395 157.977C145.934 158.002 146.442 158.239 146.807 158.637C147.173 159.034 147.367 159.56 147.347 160.101ZM155.975 160.101C155.942 160.478 155.801 160.838 155.567 161.137C155.334 161.435 155.019 161.659 154.661 161.782C154.302 161.904 153.916 161.92 153.549 161.826C153.182 161.733 152.851 161.534 152.594 161.255C152.338 160.977 152.168 160.629 152.105 160.255C152.043 159.881 152.09 159.497 152.241 159.15C152.393 158.802 152.642 158.506 152.958 158.298C153.275 158.09 153.645 157.978 154.023 157.977C154.562 158.002 155.07 158.239 155.435 158.637C155.801 159.034 155.995 159.56 155.975 160.101Z" fill="#635DAD"/>
<path d="M147.588 107.683H143.226V158.966H147.588V107.683Z" fill="#635DAD"/>
<path d="M149.251 123.177H141.539V131.285H149.251V123.177Z" fill="#443E90"/>
<path d="M148.287 126.314H142.479V134.423H148.287V126.314Z" fill="#443E90"/>
<path d="M157.084 158.677H133.707C133.681 157.957 133.94 157.257 134.427 156.728C134.915 156.199 135.591 155.884 136.31 155.853H154.481C155.199 155.884 155.876 156.199 156.363 156.728C156.851 157.257 157.11 157.957 157.084 158.677ZM167.109 85.7216L166.82 87.5557L161.47 123.08H137.683L142.817 88.9313C142.931 88.0431 143.358 87.2247 144.02 86.6232C144.683 86.0216 145.538 85.6763 146.432 85.6492L167.109 85.7216Z" fill="#443E90"/>
<path d="M166.82 87.5557L161.47 123.08H139.009L143.829 90.7896C143.942 89.8989 144.368 89.0776 145.03 88.4721C145.692 87.8665 146.548 87.5161 147.444 87.4833L166.82 87.5557Z" fill="#635DAD"/>
<path d="M163.88 123.876L159.397 123.08L164.748 87.6281C164.817 87.0902 165.076 86.5948 165.478 86.2318C165.88 85.8687 166.399 85.6621 166.941 85.6492C167.272 85.678 167.593 85.775 167.885 85.9341C168.177 86.0933 168.433 86.3112 168.636 86.5741C168.84 86.837 168.987 87.1392 169.069 87.4618C169.15 87.7844 169.164 88.1204 169.11 88.4486L163.88 123.876Z" fill="#443E90"/>
<path d="M121.56 126.483H149.251C149.524 126.473 149.791 126.411 150.039 126.297C150.287 126.184 150.51 126.024 150.696 125.824C150.882 125.625 151.027 125.39 151.122 125.135C151.217 124.879 151.261 124.608 151.252 124.335C151.265 124.06 151.223 123.786 151.129 123.528C151.035 123.269 150.891 123.032 150.705 122.83C150.519 122.628 150.294 122.465 150.045 122.351C149.795 122.236 149.526 122.172 149.251 122.163H121.56C121.286 122.172 121.016 122.236 120.767 122.351C120.517 122.465 120.293 122.628 120.107 122.83C119.921 123.032 119.777 123.269 119.683 123.528C119.589 123.786 119.547 124.06 119.56 124.335C119.55 124.608 119.595 124.879 119.69 125.135C119.785 125.39 119.93 125.625 120.116 125.824C120.301 126.024 120.525 126.184 120.773 126.297C121.02 126.411 121.288 126.473 121.56 126.483Z" fill="#635DAD"/>
<path d="M145.974 126.483H162.169C162.441 126.473 162.709 126.41 162.957 126.297C163.205 126.184 163.428 126.024 163.614 125.824C163.799 125.625 163.944 125.39 164.039 125.135C164.135 124.879 164.179 124.608 164.169 124.335C164.182 124.06 164.14 123.786 164.047 123.528C163.953 123.269 163.809 123.032 163.622 122.83C163.436 122.628 163.212 122.465 162.963 122.351C162.713 122.236 162.443 122.172 162.169 122.163H145.974C145.699 122.172 145.43 122.236 145.18 122.351C144.931 122.465 144.706 122.628 144.52 122.83C144.334 123.032 144.19 123.269 144.096 123.528C144.002 123.786 143.96 124.06 143.973 124.335C143.964 124.608 144.008 124.879 144.103 125.135C144.198 125.39 144.343 125.625 144.529 125.824C144.715 126.024 144.938 126.184 145.186 126.297C145.434 126.41 145.701 126.473 145.974 126.483ZM161.47 93.1788H146.287C146.138 93.1665 145.999 93.0967 145.9 92.9842C145.802 92.8717 145.75 92.7252 145.757 92.5755C145.754 92.5026 145.765 92.4297 145.79 92.3612C145.815 92.2926 145.853 92.2296 145.902 92.1758C145.951 92.122 146.011 92.0784 146.077 92.0476C146.143 92.0168 146.214 91.9994 146.287 91.9963H161.47C161.545 91.9962 161.619 92.0113 161.688 92.0407C161.757 92.0701 161.819 92.1132 161.871 92.1673C161.923 92.2214 161.963 92.2855 161.989 92.3556C162.016 92.4258 162.028 92.5006 162.024 92.5755C162.028 92.6516 162.016 92.7275 161.99 92.799C161.964 92.8706 161.924 92.9362 161.872 92.9922C161.821 93.0483 161.759 93.0936 161.69 93.1256C161.621 93.1576 161.546 93.1757 161.47 93.1788ZM159.976 100.829H144.793C144.644 100.817 144.505 100.747 144.406 100.634C144.307 100.522 144.256 100.375 144.263 100.226C144.259 100.153 144.271 100.08 144.295 100.011C144.32 99.9428 144.359 99.8798 144.408 99.826C144.457 99.7722 144.516 99.7287 144.582 99.6979C144.648 99.6671 144.72 99.6496 144.793 99.6465H159.976C160.051 99.6465 160.125 99.6616 160.194 99.691C160.263 99.7204 160.325 99.7634 160.377 99.8176C160.428 99.8717 160.469 99.9358 160.495 100.006C160.521 100.076 160.533 100.151 160.53 100.226C160.533 100.302 160.522 100.378 160.495 100.449C160.469 100.521 160.429 100.586 160.378 100.643C160.326 100.699 160.264 100.744 160.195 100.776C160.126 100.808 160.052 100.826 159.976 100.829ZM158.458 108.6H143.275C143.125 108.588 142.987 108.518 142.888 108.405C142.789 108.293 142.738 108.146 142.744 107.997C142.741 107.924 142.752 107.851 142.777 107.782C142.802 107.714 142.84 107.651 142.889 107.597C142.939 107.543 142.998 107.5 143.064 107.469C143.13 107.438 143.202 107.421 143.275 107.417H158.458C158.532 107.417 158.606 107.433 158.675 107.462C158.744 107.491 158.806 107.534 158.858 107.588C158.91 107.643 158.95 107.707 158.977 107.777C159.003 107.847 159.015 107.922 159.012 107.997C159.015 108.073 159.003 108.149 158.977 108.22C158.951 108.292 158.911 108.357 158.86 108.413C158.808 108.469 158.746 108.515 158.677 108.547C158.608 108.579 158.533 108.597 158.458 108.6Z" fill="#443E90"/>
<path d="M62.5877 109.252H60.1295V161.886H62.5877V109.252Z" fill="#635DAD"/>
<path d="M59.4547 161.911H60.1295L60.1295 109.276H59.4547L59.4547 161.911Z" fill="#443E90"/>
<path d="M83.1932 109.252H80.735V161.886H83.1932V109.252Z" fill="#635DAD"/>
<path d="M80.0602 161.911H80.735V109.276H80.0602V161.911Z" fill="#443E90"/>
<path d="M131.586 109.252H129.128V161.886H131.586V109.252Z" fill="#443E90"/>
<path d="M128.453 161.911H129.128V109.276H128.453V161.911Z" fill="#635DAD"/>
<path d="M155.927 109.252H153.469V161.886H155.927V109.252Z" fill="#443E90"/>
<path d="M152.794 161.911H153.469V109.276H152.794V161.911Z" fill="#635DAD"/>
<path d="M157.614 106.597H56.4904V109.783H157.614V106.597Z" fill="#635DAD"/>
<path d="M157.614 106.597H125.802V109.783H157.614V106.597Z" fill="#443E90"/>
<path d="M117.415 93.2029H127.923C128.205 93.2123 128.482 93.2772 128.738 93.3938C128.995 93.5105 129.226 93.6767 129.419 93.8829C129.611 94.0891 129.761 94.3313 129.86 94.5956C129.959 94.8599 130.005 95.1411 129.995 95.4232C130.015 95.9953 129.808 96.5521 129.42 96.9723C129.032 97.3926 128.494 97.6425 127.923 97.6676H117.415C117.33 97.6615 117.25 97.6232 117.192 97.5605C117.134 97.4978 117.102 97.4153 117.102 97.3298V93.5408C117.099 93.4976 117.104 93.4542 117.118 93.4133C117.133 93.3724 117.155 93.3349 117.185 93.3032C117.214 93.2715 117.25 93.2462 117.289 93.2289C117.329 93.2117 117.372 93.2028 117.415 93.2029Z" fill="#F1543B"/>
<path d="M109.052 93.5408H119.56C120.042 93.5596 120.496 93.7678 120.826 94.1202C121.155 94.4726 121.332 94.9407 121.319 95.4232C121.329 95.6641 121.291 95.9045 121.208 96.1308C121.125 96.357 120.998 96.5646 120.834 96.7417C120.671 96.9188 120.474 97.0619 120.256 97.1628C120.037 97.2637 119.801 97.3204 119.56 97.3297H109.052V93.5408Z" fill="white"/>
<path d="M109.052 93.2029H119.56C119.842 93.2123 120.119 93.2772 120.376 93.3938C120.632 93.5105 120.863 93.6767 121.056 93.8829C121.248 94.0891 121.398 94.3313 121.497 94.5956C121.596 94.8599 121.642 95.1411 121.633 95.4232C121.652 95.9953 121.446 96.5521 121.057 96.9723C120.669 97.3926 120.131 97.6425 119.56 97.6676H109.052C108.967 97.6615 108.888 97.6232 108.829 97.5605C108.771 97.4978 108.739 97.4153 108.739 97.3298C108.736 97.2866 108.742 97.2432 108.756 97.2023C108.77 97.1614 108.793 97.1239 108.822 97.0921C108.851 97.0604 108.887 97.0351 108.927 97.0178C108.966 97.0006 109.009 96.9917 109.052 96.9919H119.56C119.976 96.9919 120.374 96.8266 120.668 96.5324C120.962 96.2382 121.127 95.8393 121.127 95.4232C121.127 95.0072 120.962 94.6082 120.668 94.314C120.374 94.0198 119.976 93.8545 119.56 93.8545H109.052C108.969 93.8545 108.89 93.8215 108.831 93.7627C108.772 93.7038 108.739 93.624 108.739 93.5408C108.736 93.4976 108.742 93.4542 108.756 93.4133C108.77 93.3724 108.793 93.3349 108.822 93.3032C108.851 93.2715 108.887 93.2462 108.927 93.2289C108.966 93.2117 109.009 93.2028 109.052 93.2029Z" fill="#FF765F"/>
<path d="M119.657 102.132H130.14C130.422 102.142 130.699 102.206 130.956 102.323C131.212 102.44 131.443 102.606 131.636 102.812C131.828 103.018 131.978 103.261 132.077 103.525C132.176 103.789 132.222 104.07 132.213 104.353C132.232 104.925 132.025 105.481 131.637 105.902C131.249 106.322 130.711 106.572 130.14 106.597H119.657C119.615 106.594 119.575 106.583 119.538 106.564C119.501 106.545 119.469 106.52 119.442 106.488C119.415 106.457 119.394 106.42 119.382 106.381C119.369 106.342 119.364 106.3 119.367 106.259V102.47C119.364 102.429 119.369 102.387 119.382 102.348C119.394 102.309 119.415 102.272 119.442 102.241C119.469 102.21 119.501 102.184 119.538 102.165C119.575 102.146 119.615 102.135 119.657 102.132Z" fill="#005644"/>
<path d="M111.294 102.47H121.801C122.283 102.489 122.738 102.697 123.067 103.05C123.396 103.402 123.574 103.87 123.561 104.353C123.57 104.593 123.533 104.834 123.449 105.06C123.366 105.286 123.239 105.494 123.076 105.671C122.912 105.848 122.716 105.991 122.497 106.092C122.278 106.193 122.042 106.25 121.801 106.259H111.294V102.47Z" fill="white"/>
<path d="M111.294 102.132H121.801C122.083 102.142 122.36 102.206 122.617 102.323C122.874 102.44 123.105 102.606 123.297 102.812C123.49 103.018 123.64 103.261 123.739 103.525C123.838 103.789 123.884 104.07 123.874 104.353C123.894 104.925 123.687 105.481 123.299 105.902C122.911 106.322 122.373 106.572 121.801 106.597H111.294C111.204 106.597 111.119 106.561 111.055 106.498C110.992 106.435 110.956 106.349 110.956 106.259C110.956 106.169 110.992 106.084 111.055 106.02C111.119 105.957 111.204 105.921 111.294 105.921H121.801C122.18 105.874 122.529 105.69 122.782 105.403C123.034 105.116 123.174 104.747 123.174 104.365C123.174 103.982 123.034 103.613 122.782 103.326C122.529 103.04 122.18 102.855 121.801 102.808H111.294C111.209 102.802 111.129 102.764 111.071 102.701C111.013 102.638 110.98 102.556 110.981 102.47C110.977 102.427 110.983 102.384 110.997 102.343C111.011 102.302 111.034 102.264 111.063 102.233C111.093 102.201 111.128 102.175 111.168 102.158C111.208 102.141 111.251 102.132 111.294 102.132Z" fill="#208674"/>
<path d="M114.547 97.6676H125.055C125.337 97.677 125.614 97.7418 125.87 97.8585C126.127 97.9752 126.358 98.1413 126.551 98.3475C126.743 98.5537 126.893 98.7959 126.992 99.0602C127.091 99.3245 127.137 99.6058 127.128 99.8879C127.147 100.46 126.94 101.017 126.552 101.437C126.164 101.857 125.626 102.107 125.055 102.132H114.547C114.462 102.126 114.382 102.088 114.324 102.025C114.266 101.962 114.234 101.88 114.234 101.794V98.0055C114.231 97.9623 114.236 97.9189 114.251 97.878C114.265 97.8371 114.287 97.7996 114.317 97.7678C114.346 97.7361 114.382 97.7108 114.422 97.6936C114.461 97.6763 114.504 97.6675 114.547 97.6676Z" fill="#443E90"/>
<path d="M106.185 98.0055H116.692C117.174 98.0244 117.629 98.2326 117.958 98.5849C118.287 98.9373 118.465 99.4054 118.452 99.8879C118.461 100.129 118.423 100.369 118.34 100.596C118.257 100.822 118.13 101.029 117.967 101.206C117.803 101.384 117.607 101.527 117.388 101.627C117.169 101.728 116.933 101.785 116.692 101.794H106.185V98.0055Z" fill="white"/>
<path d="M106.185 97.6676H116.692C116.974 97.677 117.251 97.7418 117.508 97.8585C117.764 97.9752 117.996 98.1413 118.188 98.3475C118.381 98.5537 118.531 98.7959 118.63 99.0602C118.728 99.3245 118.774 99.6058 118.765 99.8879C118.784 100.46 118.578 101.017 118.19 101.437C117.801 101.857 117.263 102.107 116.692 102.132H106.185C106.099 102.126 106.02 102.088 105.961 102.025C105.903 101.962 105.871 101.88 105.871 101.794C105.868 101.751 105.874 101.708 105.888 101.667C105.902 101.626 105.925 101.589 105.954 101.557C105.984 101.525 106.019 101.5 106.059 101.482C106.099 101.465 106.141 101.456 106.185 101.457H116.692C117.071 101.409 117.42 101.225 117.673 100.938C117.925 100.652 118.065 100.282 118.065 99.8999C118.065 99.5175 117.925 99.1483 117.673 98.8616C117.42 98.575 117.071 98.3907 116.692 98.3433H106.185C106.099 98.3372 106.02 98.2989 105.961 98.2362C105.903 98.1735 105.871 98.091 105.871 98.0055C105.868 97.9623 105.874 97.9189 105.888 97.878C105.902 97.8371 105.925 97.7996 105.954 97.7678C105.984 97.7361 106.019 97.7108 106.059 97.6936C106.099 97.6763 106.141 97.6675 106.185 97.6676Z" fill="#635DAD"/>
</svg>
