<svg width="34" height="34" viewBox="0 0 34 34" fill="none" xmlns="http://www.w3.org/2000/svg">
<path d="M23.9913 2.08398H10.0422C5.83728 2.08398 2.42853 5.49274 2.42853 9.69765V23.6468C2.42853 27.8517 5.83728 31.2604 10.0422 31.2604H23.9913C28.1962 31.2604 31.605 27.8517 31.605 23.6468V9.69765C31.605 5.49274 28.1962 2.08398 23.9913 2.08398Z" stroke="white" stroke-linecap="round" stroke-linejoin="round"/>
<path d="M17.0168 24.3137C21.237 24.3137 24.6582 20.8925 24.6582 16.6722C24.6582 12.452 21.237 9.03076 17.0168 9.03076C12.7965 9.03076 9.37531 12.452 9.37531 16.6722C9.37531 20.8925 12.7965 24.3137 17.0168 24.3137Z" stroke="white" stroke-linecap="round" stroke-linejoin="round"/>
<path d="M25.3529 7.64131C25.7365 7.64131 26.0476 7.33029 26.0476 6.94663C26.0476 6.56297 25.7365 6.25195 25.3529 6.25195C24.9692 6.25195 24.6582 6.56297 24.6582 6.94663C24.6582 7.33029 24.9692 7.64131 25.3529 7.64131Z" stroke="white" stroke-linecap="round" stroke-linejoin="round"/>
</svg>
