<svg width="286" height="191" viewBox="0 0 286 191" fill="none" xmlns="http://www.w3.org/2000/svg">
<path d="M121.63 50.1302C135.291 40.6401 172.34 15.198 210.057 36.3288C247.775 57.4596 236.18 124.77 221.093 142.403C206.006 160.035 159.052 161.295 121.552 162.764C84.0523 164.233 66.2412 144.082 55.1355 124.98C44.0298 105.879 53.8782 72.8587 79.652 67.6431C105.426 62.4274 113.044 56.095 121.63 50.1302Z" fill="#EDF3FF"/>
<path opacity="0.51" d="M147.82 153.483C159.617 153.483 169.18 151.114 169.18 148.192C169.18 145.271 159.617 142.902 147.82 142.902C136.023 142.902 126.459 145.271 126.459 148.192C126.459 151.114 136.023 153.483 147.82 153.483Z" fill="#3177DB"/>
<path opacity="0.51" d="M193.271 148.668C207.83 148.668 219.633 146.299 219.633 143.377C219.633 140.456 207.83 138.087 193.271 138.087C178.711 138.087 166.908 140.456 166.908 143.377C166.908 146.299 178.711 148.668 193.271 148.668Z" fill="#3177DB"/>
<path d="M242.511 135.265H43.4403V136.949H242.511V135.265Z" fill="#6980E0"/>
<path opacity="0.37" d="M46.1251 71.8792C46.1251 71.8792 47.6 90.4185 84.8945 90.3819C122.189 90.3454 146.866 74.5199 171.238 84.1442C195.61 93.7686 239.114 76.3674 239.114 76.3674L247.705 101.872L225.563 136.595H51.5732L29.5712 98.0873L46.1251 71.8792Z" fill="#A4C5FF"/>
<path opacity="0.37" d="M39.2102 109.455C39.2102 109.455 68.5461 128.586 111.293 116.497C154.039 104.409 178.883 96.6064 207.112 101.872C235.342 107.138 239.742 94.0726 239.742 94.0726L227.589 136.107H55.764L39.2102 109.455Z" fill="#A4C5FF"/>
<path d="M90.8871 146.708L90.7429 146.236C90.7759 146.395 90.824 146.552 90.8871 146.708ZM124.245 145.727L124.185 146.268C124.224 146.09 124.245 145.909 124.245 145.727Z" fill="#8C98D3"/>
<path d="M107.468 139.347C98.2013 139.347 90.6896 142.203 90.6896 145.727C90.6896 145.898 90.7079 146.068 90.7428 146.236L90.887 146.708C92.1281 149.765 99.0787 152.106 107.467 152.106C116.253 152.106 123.461 149.538 124.185 146.269L124.245 145.727C124.245 142.203 116.734 139.347 107.468 139.347Z" fill="#8C98D3"/>
<path opacity="0.62" d="M109.173 124.477C98.0287 119.338 94.9626 114.022 83.4057 117.743L90.7418 146.424L90.7429 146.427C90.7759 146.586 90.824 146.744 90.8871 146.899C92.1281 149.957 99.0788 152.297 107.468 152.297C116.254 152.297 123.461 149.73 124.185 146.46C124.224 146.281 124.245 146.101 124.245 145.918L130.518 116.503C130.518 116.503 120.317 129.616 109.173 124.477Z" fill="url(#paint0_linear_2_13191)"/>
<path d="M84.1702 136.857C84.1702 136.857 87.9683 104.787 60.0396 89.858C60.0396 89.858 58.3636 121.583 84.1702 136.857Z" fill="#A4B2F7"/>
<path d="M84.344 137.67C84.2601 137.67 84.1811 137.619 84.1493 137.536C79.2466 124.742 74.1363 114.555 70.7126 108.262C67.0029 101.443 64.4194 97.6002 64.3938 97.5622C64.3292 97.4666 64.3543 97.3368 64.4497 97.2722C64.5451 97.2076 64.6747 97.2326 64.7392 97.3282C64.7649 97.3663 67.3568 101.221 71.0753 108.055C74.5059 114.361 79.6264 124.568 84.5386 137.386C84.5799 137.494 84.5262 137.615 84.4187 137.656C84.3941 137.666 84.3688 137.67 84.344 137.67Z" fill="white"/>
<path d="M83.1144 136.685C83.1144 136.685 81.5139 135.303 79.9822 130.947C78.3935 126.429 76.569 121.351 70.063 113.263C63.5569 105.175 56.239 99.508 51.8528 101.743C47.4667 103.978 56.3471 106.3 54.6767 109.585C53.0064 112.871 52.6376 116.124 58.1598 119.423C63.6821 122.723 57.8356 125.792 62.3794 129.099C66.9233 132.406 68.1166 130.301 73.359 132.434C78.6015 134.568 83.1144 136.685 83.1144 136.685Z" fill="#8491EF"/>
<g opacity="0.69">
<path d="M81.6511 136.214C74.0173 121.358 67.3533 113.432 63.1072 109.398C58.5327 105.053 55.744 104.194 55.7164 104.185L55.8491 103.735C55.9664 103.769 58.7742 104.634 63.43 109.057C66.1511 111.642 68.9432 114.917 71.7288 118.79C75.2068 123.626 78.6854 129.416 82.0682 135.999L81.6511 136.214Z" fill="#3147AF"/>
</g>
<path d="M113.926 34.0043L64.2124 41.1562C63.6211 41.2413 63.1002 41.5903 62.7959 42.1052L59.7136 47.3216C59.431 47.7998 59.3626 48.3751 59.5252 48.9064L81.0533 118.562C81.4526 119.867 82.7414 120.686 84.0901 120.492L133.336 113.806C133.927 113.721 134.448 113.372 134.752 112.857L137.502 107.576C137.785 107.098 137.853 106.523 137.691 105.991L116.091 35.3805C115.807 34.4501 114.888 33.866 113.926 34.0043Z" fill="url(#paint1_linear_2_13191)"/>
<path d="M136.138 108.157L86.3468 115.318C85.4492 115.447 84.5915 114.902 84.3257 114.033L62.7478 43.5149C62.4168 42.4331 63.1277 41.3106 64.2458 41.1497L114.037 33.9884C114.935 33.8593 115.793 34.4044 116.058 35.273L137.636 105.792C137.967 106.873 137.256 107.996 136.138 108.157Z" fill="#F7AAAA"/>
<path d="M129.185 104.756L89.9968 110.393C88.0056 110.679 86.1017 109.473 85.5057 107.549L68.6913 53.2522C67.9454 50.8432 69.5267 48.337 72.019 47.9785L111.207 42.3423C113.198 42.0559 115.102 43.2614 115.698 45.1861L132.512 99.4826C133.258 101.892 131.677 104.398 129.185 104.756Z" fill="#FFF5F5"/>
<path d="M110.821 41.1442C112.019 40.8481 112.721 39.5131 112.389 38.1624C112.056 36.8117 110.815 35.9568 109.616 36.2529C108.418 36.5491 107.716 37.8841 108.049 39.2348C108.381 40.5855 109.622 41.4404 110.821 41.1442Z" fill="#E5CACA"/>
<path d="M111.616 40.9022C112.815 40.6061 113.517 39.2711 113.184 37.9204C112.852 36.5697 111.61 35.7148 110.412 36.011C109.213 36.3071 108.511 37.6421 108.844 38.9928C109.177 40.3435 110.418 41.1984 111.616 40.9022Z" fill="white"/>
<path d="M104.843 40.3852L73.7678 44.9101C73.2119 44.991 72.6958 44.6052 72.615 44.0484C72.5342 43.4915 72.9193 42.9746 73.4752 42.8936L104.55 38.3688C105.106 38.2878 105.622 38.6736 105.703 39.2305C105.784 39.7872 105.399 40.3043 104.843 40.3852Z" fill="#E5CACA"/>
<path d="M105.418 39.8685L74.343 44.3933C73.7872 44.4743 73.271 44.0885 73.1902 43.5316C73.1094 42.9748 73.4946 42.4578 74.0504 42.3768L105.125 37.852C105.681 37.7711 106.197 38.1569 106.278 38.7137C106.359 39.2705 105.974 39.7876 105.418 39.8685Z" fill="white"/>
<path d="M101.733 44.4455C101.733 44.4455 105.338 44.1492 106.246 48.1668C107.154 52.1844 103.529 53.8561 103.529 53.8561C103.529 53.8561 103.059 57.6409 106.822 63.163C110.584 68.6851 116.609 73.4358 111.427 82.5534C106.244 91.671 90.1933 87.9578 82.2818 83.5729C74.3703 79.1881 72.1981 73.1517 76.4958 67.7595C80.7936 62.3673 83.4474 62.7239 83.7904 58.8384C84.1335 54.953 83.584 52.3768 84.5756 49.3853C85.5671 46.3938 88.4417 46.358 88.4417 46.358C88.4417 46.358 89.2753 42.4957 94.4481 42.1766C99.6209 41.8575 101.733 44.4455 101.733 44.4455Z" fill="url(#paint2_linear_2_13191)"/>
<path opacity="0.55" d="M82.9522 81.3718C82.9522 81.3718 77.8183 79.4826 79.7042 73.1329C81.5901 66.7831 83.1617 67.2554 87.4573 64.894C91.7529 62.5325 90.6528 60.9057 89.8146 58.3343C88.9765 55.7629 89.9194 53.3548 92.69 53.6813C95.4607 54.0078 95.6473 50.2528 93.8835 49.3432C93.8835 49.3432 97.0529 50.3753 98.9692 49.4307C100.885 48.4861 101.287 48.6785 102.963 48.731C104.64 48.7834 103.732 44.988 101.733 44.4455C99.733 43.9031 101.733 44.4455 101.733 44.4455L104.989 44.3404L108.237 47.5765L108.08 52.107L105.408 54.7658C105.408 54.7658 102.422 58.0661 103.516 60.7249C104.611 63.3837 106.215 65.133 106.926 68.1184C107.637 71.1037 111.502 81.8791 102.422 84.5379C93.342 87.1967 82.9522 81.3718 82.9522 81.3718Z" fill="#132660"/>
<path d="M108.609 85.242C108.609 85.242 108.734 92.1514 109.316 92.1465C109.899 92.1416 121.19 92.752 122.819 92.208C124.449 91.664 130.326 89.7937 130.758 92.9434C131.19 96.0932 123.392 95.1173 123.392 95.1173C123.392 95.1173 111.03 96.2087 107.829 96.1389C104.629 96.0691 104.624 91.1562 104.398 89.5333C104.171 87.9105 103.988 85.7286 103.988 85.7286C103.988 85.7286 106.359 84.69 108.609 85.242Z" fill="#EF8626"/>
<path d="M105.808 102.47C105.179 104.571 101.491 104.208 98.3647 102.876C95.501 101.657 93.9282 101.354 89.547 100.021C89.5258 98.5818 89.4644 97.2019 89.3712 95.9871C92.5979 97.3208 96.1148 98.6205 97.1423 98.9193C99.2199 99.5235 100.576 98.9164 102.289 99.1147C104.001 99.313 106.437 100.369 105.808 102.47Z" fill="#F37375"/>
<path d="M119.29 106.179L89.9965 110.393C89.5824 110.452 89.1721 110.448 88.7763 110.384C88.7914 110.312 88.8065 110.24 88.8224 110.168C89.4057 107.47 89.5999 103.565 89.547 100.021C93.9282 101.354 95.501 101.657 98.3647 102.876C101.491 104.208 105.179 104.571 105.808 102.47C106.437 100.369 104.001 99.313 102.289 99.1147C100.576 98.9164 99.2198 99.5235 97.1422 98.9193C96.1147 98.6205 92.5978 97.3208 89.3712 95.9871C89.2444 94.3391 89.0613 92.9944 88.844 92.2172C88.074 89.4569 86.5102 81.6343 86.5102 81.6343L85.3041 85.1366C85.0123 85.2304 84.7282 85.3032 84.4525 85.3571C82.0079 85.8381 80.204 84.8557 79.2713 84.1442C78.8021 83.787 78.5532 83.4981 78.5532 83.4981C78.5532 83.4981 80.1883 78.6316 81.5821 74.3078C82.9753 69.9839 84.8923 67.1012 87.207 66.7027C89.5217 66.3035 93.695 65.7352 93.695 65.7352L99.5341 66.5164C99.5341 66.5164 103.657 66.9624 105.473 67.4226C107.289 67.8835 109.68 70.0753 109.551 74.1914C109.422 78.3082 109.327 85.3982 109.327 85.3982L105.944 86.1149C104.803 89.6624 105.197 93.0762 105.453 95.7277C105.71 98.3799 107.665 99.5085 115.419 104.012C116.712 104.763 118.015 105.489 119.29 106.179Z" fill="#FF5F76"/>
<path d="M107.399 95.9871C106.613 96.5028 86.7065 96.5902 86.7065 96.5902L85.177 116.225L126.17 111.056L128.406 105.249L107.399 95.9871Z" fill="#CC1944"/>
<path d="M87.8939 93.424C87.8939 93.424 97.0245 98.2971 107.102 92.5144L107.521 97.4123C107.521 97.4123 98.9997 102.73 87.1256 98.4618L87.8939 93.424Z" fill="#FFDAB6"/>
<path opacity="0.49" d="M105.688 73.0803C105.688 73.0803 107.207 76.229 107.364 79.0103C107.521 81.7916 105.944 86.1149 105.944 86.1149L106.543 86.462C106.543 86.462 106.846 85.8263 107.277 84.1442C107.707 82.4621 108.941 80.0948 107.998 77.0045C107.055 73.9142 105.688 73.0803 105.688 73.0803Z" fill="#DD223D"/>
<path opacity="0.16" d="M86.5389 83.0052L86.5102 81.6343C86.5102 81.6343 88.8718 76.8587 88.9765 73.3427C88.9765 73.3427 87.5621 81.5639 91.3339 84.1442C95.1056 86.7244 91.0719 87.5641 91.3862 90.2404C91.7005 92.9167 92.1196 95.9871 92.1196 95.9871C92.1196 95.9871 92.0149 99.5289 94.8437 100.264C97.6725 100.998 102.819 102.775 102.891 103.959C102.963 105.144 102.319 105.826 98.9217 104.882C95.5247 103.937 88.6621 100.316 88.6621 100.316C88.6621 100.316 87.1954 92.0246 87.1954 91.4474C87.1954 90.8702 86.5389 83.0052 86.5389 83.0052Z" fill="#680019"/>
<g opacity="0.71">
<path d="M100.192 85.9854C100.174 85.9854 100.156 85.983 100.139 85.9782C100.029 85.9486 99.9644 85.8357 99.994 85.7262C100.005 85.684 101.125 81.4628 100.612 77.2773C100.099 73.0921 97.1214 67.8955 97.0914 67.8435C97.0347 67.7452 97.0682 67.6195 97.1662 67.5627C97.2643 67.5059 97.3898 67.5394 97.4466 67.6377C97.477 67.6904 100.496 72.9582 101.019 77.2272C101.542 81.4946 100.402 85.7905 100.39 85.8334C100.365 85.9251 100.283 85.9854 100.192 85.9854Z" fill="white"/>
</g>
<path opacity="0.16" d="M103.398 103.097C103.398 103.097 108.778 105.091 110.559 109.342C110.559 109.342 111.398 108.065 109.739 106.124C108.08 104.182 105.212 103.097 103.398 103.097Z" fill="#680019"/>
<path d="M103.759 50.6377C103.759 50.6377 104.455 55.6497 104.225 58.8681C103.994 62.0864 102.06 64.1419 99.7838 63.0382C98.9912 62.6596 98.9213 67.1025 98.9213 67.1025C98.9213 67.1025 97.2146 68.9255 94.1158 66.4141C94.1158 66.4141 94.9502 62.6285 95.3553 61.8501C95.7604 61.0717 95.9845 59.8315 94.8044 58.5433C93.6242 57.2551 93.18 55.1771 94.3638 54.8754C95.5475 54.5738 99.4975 52.9486 99.8253 51.2639C99.8253 51.2639 103.129 51.5488 103.759 50.6377Z" fill="#FFB966"/>
<path d="M94.6125 60.0951C94.6125 60.0951 96.5782 60.3517 97.4048 58.1127C98.2313 55.8736 96.1824 54.7191 96.1824 54.7191C96.1824 54.7191 98.9181 54.3809 100.431 52.3168C100.431 52.3168 103.773 52.7949 104.483 51.5121L103.936 49.8562L98.0981 50.6376L92.6086 54.3692L93.9939 57.9144L94.6125 60.0951Z" fill="#EF8626"/>
<path d="M99.9164 63.4508L99.7074 63.0165C99.7074 63.0165 96.7384 61.7365 96.5637 61.3255C96.3891 60.9144 97.4281 65.3226 99.6632 65.34L99.9164 63.4508Z" fill="#F4983D"/>
<path d="M100.319 60.9971C96.7457 60.9974 95.1952 58.6461 94.6705 57.5606C94.6614 57.5418 94.6545 57.5272 94.6493 57.5171C94.6079 57.4573 94.5995 57.3774 94.6343 57.3077C94.685 57.2062 94.8082 57.165 94.9096 57.2159C94.9758 57.2491 94.9972 57.2933 95.0398 57.3814C95.5764 58.4914 97.2661 61.0194 101.354 60.5211C101.466 60.5074 101.569 60.5877 101.582 60.7003C101.596 60.813 101.516 60.9154 101.403 60.9291C101.023 60.9755 100.662 60.9971 100.319 60.9971ZM94.726 57.5835H94.7266H94.726ZM94.7256 57.5833H94.7257C94.7257 57.5833 94.7257 57.5833 94.7256 57.5833Z" fill="white"/>
<path d="M94.6718 59.1576C95.942 59.0971 96.9229 58.0165 96.8625 56.744C96.8021 55.4715 95.7233 54.4889 94.453 54.5494C93.1828 54.6099 92.2019 55.6905 92.2623 56.9631C92.3227 58.2356 93.4015 59.2181 94.6718 59.1576Z" fill="#E1E5FF"/>
<path d="M102.073 61.2838C102.789 61.2125 103.337 60.8235 103.296 60.4149C103.256 60.0064 102.642 59.7329 101.926 59.8042C101.21 59.8755 100.662 60.2645 100.703 60.6731C100.743 61.0816 101.357 61.3551 102.073 61.2838Z" fill="#E1E5FF"/>
<path d="M95.7449 64.3025C96.5076 64.9422 97.4106 65.4012 97.4106 65.4012C97.4106 65.4012 96.4153 68.3399 96.8518 70.4914C96.8518 70.4914 92.8548 67.4752 92.9044 66.3042C92.9539 65.1333 94.3325 63.0025 94.7783 63.3096C95.0503 63.497 95.3933 64.0078 95.7449 64.3025ZM97.9556 65.3199C97.9556 65.3199 99.1096 64.7666 99.3221 64.5143C99.5345 64.262 100.094 65.6144 100.189 66.6765C100.285 67.7386 99.2441 70.1066 99.2441 70.1066C99.2441 70.1066 98.8425 67.2951 97.9556 65.3199Z" fill="white"/>
<path d="M134.969 96.0691L123.448 95.7117L103.398 101.229L103.401 102.196L115.484 102.811L135.268 96.9366L134.969 96.0691Z" fill="#061D66"/>
<path d="M103.398 101.229L115.39 101.872L134.969 96.0691L123.448 95.7117L103.398 101.229Z" fill="#15299E"/>
<path d="M114.032 100.022L118.192 82.4568C118.292 82.0342 118.631 81.7102 119.057 81.63L138.546 77.9616C138.859 77.9027 139.154 77.981 139.383 78.1448C139.413 78.1663 139.443 78.1893 139.47 78.2137L140.176 78.7709C140.325 78.842 140.455 78.9454 140.557 79.0718C140.769 79.3328 140.865 79.6906 140.763 80.058L136.457 95.6407C136.355 96.0079 136.071 96.2963 135.706 96.4029L116.363 102.054C116.04 102.148 115.724 102.089 115.474 101.931L115.474 101.931L115.473 101.93C115.415 101.894 115.361 101.852 115.312 101.806L114.585 101.248C114.458 101.168 114.38 101.115 114.296 101.025H114.296C114.06 100.772 113.94 100.407 114.032 100.022Z" fill="#315ADD"/>
<path d="M140.763 80.0581L136.457 95.6407C136.355 96.0079 136.071 96.2963 135.706 96.403L116.363 102.054C115.555 102.29 114.793 101.565 114.988 100.745L119.148 83.1793C119.248 82.7567 119.587 82.4327 120.013 82.3525L139.502 78.684C140.301 78.5338 140.98 79.2739 140.763 80.0581Z" fill="#4D86F7"/>
<path d="M112.725 103.36C112.725 103.36 126.415 99.9312 132.072 91.8848C137.73 83.8383 138.044 77.7859 138.044 77.7859C138.044 77.7859 143.702 78.0658 144.051 78.1007C144.4 78.1357 136.437 101.872 136.437 101.872L115.833 102.811L112.725 103.36Z" fill="#347AEA"/>
<path d="M131.292 90.8051C131.865 89.1641 131.322 87.4806 130.079 87.0448C128.836 86.609 127.363 87.586 126.79 89.2269C126.217 90.8679 126.76 92.5514 128.003 92.9872C129.246 93.423 130.719 92.4461 131.292 90.8051Z" fill="white"/>
<path d="M105.808 102.47C105.179 104.571 101.491 104.208 98.3647 102.876C95.501 101.657 93.9282 101.354 89.547 100.021C89.145 99.899 88.7201 99.7682 88.2684 99.6273C82.9657 97.9735 78.5696 96.5996 78.0261 95.3445C77.213 93.4667 79.0101 85.3021 79.2714 84.1443C80.2041 84.8558 82.008 85.8382 84.4526 85.3572L84.7719 85.287C84.7719 85.287 82.9295 91.8882 83.3446 92.9346C83.5457 93.4424 86.3298 94.7299 89.3713 95.9871C92.598 97.3208 96.1148 98.6206 97.1424 98.9193C99.22 99.5235 100.576 98.9164 102.289 99.1148C104.001 99.313 106.437 100.369 105.808 102.47Z" fill="#FFB966"/>
<path d="M83.9824 83.9432C83.9824 83.9432 82.7252 88.4632 82.376 90.6113C82.0267 92.7593 81.3632 94.1159 85.2397 95.7116C89.1162 97.3073 98.6079 99.2611 98.6079 99.2611L96.9741 96.9924L84.3316 92.7593L86.4271 83.9081L83.9824 83.9432Z" fill="#F4983D"/>
<path d="M171.881 114.003C171.881 114.003 167.699 143.61 169.239 144.503C170.78 145.395 174.522 114.464 174.522 114.464L171.881 114.003Z" fill="#8C98D3"/>
<path d="M169.259 117.339C169.259 117.339 172.692 120.525 175.527 119.926L176.405 114.846L170.496 114.766L169.259 117.339Z" fill="#5E71B7"/>
<path d="M195.912 115.337C195.912 115.337 200.094 144.944 198.554 145.836C197.013 146.729 193.271 115.797 193.271 115.797L195.912 115.337Z" fill="#8C98D3"/>
<path d="M193.271 121.485C193.271 121.485 196.847 122.125 198.404 120.926L196.967 117.339L191.617 118.326L193.271 121.485Z" fill="#5E71B7"/>
<path d="M207.701 113.24C207.701 113.24 216.717 141.745 215.345 142.881C213.973 144.017 205.172 114.132 205.172 114.132L207.701 113.24Z" fill="#6C75AD"/>
<path d="M205.172 119.046C205.172 119.046 209.999 118.646 210.33 116.326L208.785 112.966L205.471 114.966L205.172 119.046Z" fill="#4D5999"/>
<path d="M183.396 109.455C183.396 109.455 181.17 139.273 182.766 140.062C184.362 140.851 186.062 109.74 186.062 109.74L183.396 109.455Z" fill="#6C75AD"/>
<path d="M181.516 121.445C181.516 121.445 184.43 122.965 186.506 121.965L186.387 117.926L182.354 118.366L181.516 121.445Z" fill="#4D5999"/>
<path d="M195.477 65.4712C195.543 65.294 201.396 58.4392 211.507 60.3284C221.617 62.2176 224.708 70.2467 223.555 77.1211C222.403 83.9957 215.771 109.928 206.488 115.39C197.205 120.852 170.163 123.13 165.591 109.237C161.824 97.7902 172.485 94.2132 181.42 92.1089C187.794 90.6077 190.954 77.5409 195.477 65.4712Z" fill="#505CD4"/>
<path d="M165.04 111.914C165.04 111.914 174.313 117.686 189.243 116.374C204.173 115.062 208.783 108.922 213.288 96.5902C217.793 84.258 221.861 74.1501 219.207 63.4259L227.31 70.0542L223.784 95.5L207.682 119.943L191.059 122.182L179.735 119.646L169.196 117.339L165.04 111.914Z" fill="#3647C1"/>
<path d="M163.476 111.765C163.476 111.765 163.957 114.304 171.71 113.24C179.464 112.176 180.779 110.287 186.827 109.867C192.875 109.447 199.368 103.793 199.79 97.2724C200.211 90.7522 202.729 94.1307 205.31 89.3693C207.892 84.6079 208.433 81.6984 210.048 80.1794C211.664 78.6605 219.137 67.4653 215.226 60.7482C211.314 54.0312 191.548 60.3984 191.338 62.3575C191.129 64.3167 165.704 105.599 165.983 105.599C166.263 105.599 163.476 111.765 163.476 111.765Z" fill="#3647C1"/>
<path d="M155.837 134.991C155.837 134.991 156.886 138.858 156.661 139.775L158.926 140.826L162.034 139.567L160.876 134.096L155.837 134.991Z" fill="#FCAE41"/>
<path d="M159.1 139.695C160.372 139.614 161.214 138.996 161.885 138.86C162.556 138.725 162.812 139.755 163.249 141.622C163.685 143.489 164.72 145.716 162.827 146.221C160.933 146.726 151.871 148.796 149.698 148.526C147.525 148.255 147.666 145.95 149.594 145.073C151.521 144.197 156.34 140.268 156.507 139.667C156.675 139.065 157.595 139.79 159.1 139.695Z" fill="#0F3CB8"/>
<path d="M147.587 147.554C147.587 147.554 160.64 146.382 164.567 144.355L164.548 146.346L149.373 149.402L147.587 147.554Z" fill="#0535A0"/>
<path d="M175.256 90.6078C175.256 90.6078 158.178 94.701 154.563 95.9604C150.949 97.2199 148.12 98.1645 148.591 104.042C149.063 109.919 154.878 135.686 154.878 135.686C154.878 135.686 158.911 137.26 161.635 134.321C161.635 134.321 159.592 110.602 158.23 105.669L182.642 99.0184L175.256 90.6078Z" fill="#00259B"/>
<path opacity="0.72" d="M157.218 137.461C157.218 137.461 158.754 138.175 159.243 134.096C159.732 130.018 158.195 120.048 158.195 120.048C158.195 120.048 156.694 109.552 156.24 106.858C155.786 104.164 155.541 103.346 158.37 102.811C161.199 102.275 158.056 98.217 156.868 96.8176L176.391 92.8293C176.391 92.8293 182.017 95.7253 182.19 95.7117C182.363 95.6981 180.861 100.071 180.861 100.071L159.196 106.823L164.813 130.333L164.167 136.107L157.218 137.461Z" fill="#001760"/>
<path d="M143.622 133.625C143.622 133.625 141.184 136.802 140.32 137.177L140.855 139.62L143.738 141.336L147.383 137.101L143.622 133.625Z" fill="#FCAE41"/>
<path d="M141.86 139.074C142.694 140.039 143.694 140.336 144.208 140.789C144.722 141.242 144.059 142.07 142.839 143.548C141.62 145.027 140.478 147.2 138.93 145.996C137.383 144.792 130.252 138.819 129.151 136.923C128.05 135.026 129.968 133.743 131.831 134.75C133.695 135.756 139.733 137.22 140.312 136.99C140.892 136.759 140.873 137.931 141.86 139.074Z" fill="#0F3CB8"/>
<path d="M128.828 134.398C128.828 134.398 137.352 143.433 141.736 146.269L139.99 147.296L128.108 137.937C128.108 137.937 127.374 135.294 127.433 135.234C127.493 135.175 128.828 134.398 128.828 134.398Z" fill="#0535A0"/>
<path d="M178.969 96.5901C178.969 96.5901 163.05 103.307 160.588 105.196C158.126 107.086 141.362 134.846 141.362 134.846C141.362 134.846 144.243 138.729 147.858 137.995C147.858 137.995 156.921 125.925 158.859 122.986C160.797 120.047 164.959 114.718 166.752 113.855C168.544 112.992 177.561 110.024 181.909 108.607C186.257 107.191 192.525 104.503 193.27 102.03L178.969 96.5901Z" fill="#00259B"/>
<path opacity="0.72" d="M141.933 137.48C142.002 137.505 145.774 136.735 148.009 134.659C150.244 132.584 153.923 127.406 155.483 124.117C157.043 120.829 160.396 114.322 162.538 112.456C164.68 110.59 167.473 110.419 171.362 109.455C175.25 108.491 174.342 106.298 171.967 104.806C169.592 103.313 165.407 101.47 165.407 101.47L174.313 97.7971L186.062 97.6396L194.848 101.208L191.81 108.397L173.37 115.587L162.474 130.071L148.108 139.674L141.933 137.48Z" fill="#001760"/>
<path d="M180.088 74.4761L179.735 75.1194C179.735 75.1194 180.612 75.5996 181.815 75.3187C183.018 75.0378 187.794 71.0698 187.794 71.0698L185.75 68.3516L180.088 74.4761Z" fill="#E88B1C"/>
<path opacity="0.63" d="M196.364 59.8561C196.364 59.8561 195.529 59.3663 194.219 59.9785C192.91 60.5908 184.912 66.5207 184.912 66.5207C184.912 66.5207 184.889 70.5673 188.172 71.7335L196.364 59.8561Z" fill="#FFD2DD"/>
<path d="M203.579 60.7482L203.823 60.9582C203.823 60.9582 207.786 61.7439 210.057 63.3371C214.973 66.7852 211.49 74.3133 210.582 76.5174C209.674 78.7214 206.001 85.3821 201.878 91.208C199.777 94.1754 197.624 97.7971 193.381 102.415C193.381 102.415 178.818 103.989 174.522 90.5028C174.522 90.5028 179.743 86.0773 182.887 80.4797C186.03 74.8821 190.36 66.9056 192.106 64.2467C193.853 61.5878 195.023 59.4363 196.472 59.6812C197.921 59.9261 199.929 60.1185 199.929 60.1185L203.579 60.7482Z" fill="white"/>
<path opacity="0.63" d="M208.466 65.702C208.466 65.702 202.848 74.6757 200.177 79.1887C197.505 83.7017 185.122 94.4596 180.506 94.5121C175.89 94.5645 175.293 93.2014 175.293 93.2014L178.541 101.866L189.199 105.211L197.505 101.866L205.31 89.3693L208.803 69.2181L208.466 65.702Z" fill="#FFD2DD"/>
<path d="M187.703 101.315L187.797 100.366L187.796 100.366C187.813 100.274 187.775 100.173 187.672 100.124L171.271 92.3798C171.235 92.3631 171.195 92.3562 171.156 92.36L158.292 93.5955C158.155 93.6086 158.083 93.7268 158.094 93.8385L158.006 94.7384C157.976 94.8381 158.013 94.9578 158.131 95.0081L170.96 100.621C170.966 100.623 170.972 100.626 170.978 100.629L174.487 102.505C174.525 102.525 174.567 102.534 174.609 102.531L187.499 101.534C187.628 101.524 187.702 101.421 187.703 101.315Z" fill="#C4334C"/>
<path d="M171.074 99.641L174.584 101.517C174.621 101.537 174.663 101.546 174.705 101.542L187.595 100.546C187.822 100.528 187.878 100.221 187.672 100.124L173.185 93.343C173.149 93.3263 173.11 93.3195 173.07 93.3232L160.207 94.5586C159.978 94.5805 159.93 94.893 160.141 94.9829L171.056 99.6325C171.062 99.6351 171.068 99.6379 171.074 99.641Z" fill="#C9415E"/>
<path d="M175.432 100.507L174.185 85.5784C174.155 85.2193 173.916 84.9115 173.576 84.7929L158.037 79.3707C157.787 79.2836 157.536 79.3115 157.328 79.4175C157.3 79.4314 157.273 79.4466 157.247 79.4632L156.599 79.833C156.469 79.8731 156.349 79.9417 156.25 80.0328C156.043 80.2207 155.921 80.5026 155.959 80.8166L157.571 94.1362C157.609 94.4501 157.806 94.7219 158.093 94.8546L173.269 101.886C173.522 102.003 173.788 101.993 174.013 101.895L174.013 101.895L174.014 101.894C174.066 101.872 174.115 101.844 174.162 101.813L174.827 101.444C174.941 101.394 175.012 101.36 175.091 101.297C175.316 101.119 175.46 100.835 175.432 100.507Z" fill="#F2707C"/>
<path d="M155.959 80.8167L157.571 94.1364C157.609 94.4502 157.806 94.722 158.093 94.8547L173.269 101.886C173.902 102.18 174.617 101.679 174.559 100.982L173.311 86.053C173.281 85.6938 173.043 85.386 172.703 85.2675L157.163 79.8453C156.527 79.6232 155.878 80.1465 155.959 80.8167Z" fill="#F49298"/>
<path opacity="0.15" d="M173.31 84.3077C173.31 84.3077 170.459 93.063 155.629 95.0965L162.644 100.367L176.166 104.745L179.081 99.1185C179.081 99.1185 175.665 86.6111 175.738 86.4073C175.81 86.2034 174.18 84.199 174.18 84.199L173.31 84.3077Z" fill="#B20D60"/>
<path d="M165.241 92.2183C166.319 92.04 167.003 90.7416 166.769 89.3182C166.534 87.8948 165.47 86.8854 164.392 87.0636C163.313 87.2419 162.629 88.5403 162.864 89.9637C163.098 91.3871 164.162 92.3965 165.241 92.2183Z" fill="white"/>
<path d="M204.174 77.8649C204.174 77.8649 200.344 86.3079 199.11 87.2409C197.876 88.1738 185.082 94.4792 185.082 94.4792C185.082 94.4792 181.427 94.3626 179.006 96.3684C176.584 98.3742 177.748 100.846 180.635 100.03C183.522 99.2138 186.13 98.0709 186.572 97.0448C186.572 97.0448 193.429 94.4945 196.409 93.2816C199.389 92.0688 202.533 91.0892 203.091 90.3196C203.65 89.5499 208.819 79.451 208.819 79.451L204.174 77.8649Z" fill="#FFB966"/>
<path d="M207.537 79.2478C207.537 79.2478 203.739 88.7441 202.717 89.4096C201.695 90.0751 186.381 96.6825 186.381 96.6825C186.381 96.6825 185.549 97.7258 184.552 97.9941C183.555 98.2623 178.288 100.468 178.288 100.468L182.811 100.19L187.988 97.334L203.996 91.0789L209.555 79.2374L207.537 79.2478Z" fill="#E88B1C"/>
<path d="M205.948 69.9486C206.924 67.4305 208.801 65.0174 209.853 64.7475C210.906 64.4776 212.141 64.6426 212.804 66.8582C213.468 69.074 210.837 77.1904 209.545 80.2341C209.545 80.2341 206.052 81.2836 203.293 78.1001C203.293 78.1001 205.005 72.38 205.948 69.9486Z" fill="white"/>
<path opacity="0.63" d="M211.396 64.281C211.396 64.281 212.21 66.2868 211.396 69.1089C210.581 71.931 207.042 81.6568 207.042 81.6568L210.93 81.8201L214.772 66.9259L211.396 64.281Z" fill="#FFD2DD"/>
<path d="M193 50.2586C193.75 50.2703 194.708 51.1466 194.111 54.1546C193.514 57.1627 192.823 59.3483 192.389 59.5296C192.389 59.5296 183.276 76.6611 179.965 75.2476C177.338 74.1261 179.933 70.2539 181.388 68.3978C182.932 66.4287 190.561 58.3335 190.561 58.3335C190.561 58.3335 190.493 56.0272 190.795 54.0459C191.096 52.0647 191.84 50.2405 193 50.2586Z" fill="#FFB966"/>
<path d="M195.594 58.1164L191.366 56.4778C190.988 56.3313 190.8 55.9054 190.946 55.5267L193.86 47.9814C194.006 47.6026 194.432 47.4144 194.81 47.5609L199.038 49.1995C199.416 49.346 199.604 49.7718 199.457 50.1506L196.543 57.6959C196.397 58.0746 195.972 58.2629 195.594 58.1164Z" fill="#505CD4"/>
<path d="M195.432 57.4333L191.945 56.082C191.622 55.9567 191.461 55.5925 191.586 55.2686L194.16 48.6036C194.285 48.2797 194.649 48.1187 194.972 48.244L198.459 49.5953C198.782 49.7206 198.943 50.0848 198.818 50.4087L196.244 57.0737C196.119 57.3977 195.755 57.5587 195.432 57.4333Z" fill="white"/>
<path opacity="0.27" d="M197.337 48.8169L191.327 53.0862L191.406 53.739L197.814 49.1716L197.337 48.8169Z" fill="#8C98F4"/>
<path opacity="0.27" d="M198.369 53.129L192.359 57.3983L192.438 58.0511L198.845 53.4837L198.369 53.129Z" fill="#8C98F4"/>
<path opacity="0.27" d="M191.059 55.2348L200.256 49.7172L200.353 50.8706L191.531 56.5417L191.059 55.2348Z" fill="#8C98F4"/>
<path d="M199.336 47.8738C199.336 47.8738 196.262 47.314 196.367 44.1304C196.472 40.9468 198.991 39.7008 200.674 39.4075C202.281 39.1276 204.12 39.9672 204.015 40.6494C204.015 40.6494 206.111 40.2821 209.481 41.8215C212.851 43.3608 213.876 46.1013 213.2 49.4831C212.525 52.865 206.705 59.034 204.889 58.206L204.05 57.9845L204.155 55.7804L204.993 53.6464L204.295 50.4278L199.336 47.8738Z" fill="#1D1D89"/>
<path opacity="0.66" d="M195.995 42.2995C195.995 42.2995 196.251 45.3549 200.139 44.8418C204.027 44.3287 204.679 44.422 206.425 46.3111C208.171 48.2003 208.427 48.0837 209.01 47.7805C209.592 47.4773 206.961 52.5151 210.011 52.9583C213.061 53.4014 213.736 51.7455 213.736 51.7455C213.736 51.7455 209.196 58.5792 209.126 58.5792C209.056 58.5792 204.702 59.9994 204.702 59.9994L202.584 57.2963L204.726 50.5326C204.726 50.5326 197.484 49.2175 197.387 49.1799C197.29 49.1422 194.528 44.5852 194.528 44.5852L195.995 42.2995Z" fill="#101F51"/>
<path d="M198.416 46.4511C198.416 46.4511 195.343 55.4188 197.345 56.7016C199.347 57.9844 201.137 56.9782 201.137 57.398C201.137 57.8179 199.929 60.1185 199.929 60.1185C199.929 60.1185 201.286 62.3109 203.823 60.9581L204.889 58.206C204.889 58.206 204.446 57.2031 204.772 56.2935C205.098 55.3839 205.657 55.0341 206.565 54.9641C207.473 54.8941 207.979 54.3548 208.093 53.4364C208.206 52.518 207.202 51.8183 206.329 52.2644C206.329 52.2644 206.617 50.5064 207.272 49.4831C207.272 49.4831 205.893 49.4655 205.063 48.4335C204.234 47.4015 204.077 46.6406 203.046 46.212C202.016 45.7834 201.607 46.5185 201.056 46.6318C200.468 46.7526 198.416 46.4511 198.416 46.4511Z" fill="#FFB966"/>
<path d="M197.704 47.1158C197.704 47.1158 199.638 47.8271 200.861 47.6872C202.083 47.5472 203.084 47.1974 203.666 48.1186C204.248 49.0399 205.68 49.9495 206.181 49.8329C206.181 49.8329 205.156 52.037 205.773 52.5268C206.39 53.0166 207.915 52.2119 207.915 52.2119L208.346 48.7485L204.574 45.8797L200.628 44.9117L198.812 45.8563L197.704 47.1158ZM200.558 57.7337L201.056 57.3001C201.056 57.3001 203.528 56.8627 204.121 56.5023C204.121 56.5023 201.6 59.0106 200.325 59.0514L200.558 57.7337Z" fill="#EA8B1B"/>
<path d="M171.442 43.1829H135.745C132.042 43.1829 129.04 40.1756 129.04 36.4658C129.04 32.7561 132.042 29.7487 135.745 29.7487H171.442C175.146 29.7487 178.148 32.7561 178.148 36.4658C178.148 40.1756 175.146 43.1829 171.442 43.1829Z" fill="#8C98F4"/>
<path d="M126.858 39.5771C126.858 39.5771 137.689 41.3026 154.352 39.9911C171.014 38.6795 175.144 30.9894 171.83 27.8298L180.595 31.1682L180.417 41.8391L174.287 48.8169L140.129 46.4492L130.31 44.8402L126.858 39.5771Z" fill="#6A7EEF"/>
<path opacity="0.65" d="M184.99 39.7714C185.636 39.124 185.636 38.0744 184.99 37.427C184.344 36.7796 183.296 36.7797 182.649 37.427C182.003 38.0744 182.003 39.124 182.65 39.7714C183.296 40.4188 184.344 40.4188 184.99 39.7714Z" fill="#8C98F4"/>
<path opacity="0.27" d="M190.355 42.8967C190.565 42.0057 190.014 41.1128 189.125 40.9024C188.235 40.692 187.344 41.2438 187.134 42.1348C186.924 43.0258 187.475 43.9187 188.364 44.1291C189.254 44.3395 190.145 43.7878 190.355 42.8967Z" fill="#8C98F4"/>
<path d="M168.778 39.5771H138.183C137.644 39.5771 137.206 39.1388 137.206 38.5982C137.206 38.0576 137.644 37.6194 138.183 37.6194H168.778C169.318 37.6194 169.755 38.0576 169.755 38.5982C169.755 39.1388 169.318 39.5771 168.778 39.5771ZM168.778 34.9981H138.183C137.644 34.9981 137.206 34.5598 137.206 34.0192C137.206 33.4786 137.644 33.0403 138.183 33.0403H168.778C169.318 33.0403 169.755 33.4786 169.755 34.0192C169.755 34.5598 169.318 34.9981 168.778 34.9981Z" fill="white"/>
<path d="M170.219 65.6009C174.639 61.1733 174.639 53.9948 170.219 49.5673C165.799 45.1398 158.633 45.1399 154.213 49.5675C149.793 53.9952 149.793 61.1737 154.213 65.6012C158.633 70.0287 165.799 70.0286 170.219 65.6009Z" fill="#B0CAFF"/>
<path d="M162.217 67.2126C167.526 67.2126 171.83 62.9015 171.83 57.5835C171.83 52.2655 167.526 47.9544 162.217 47.9544C156.909 47.9544 152.605 52.2655 152.605 57.5835C152.605 62.9015 156.909 67.2126 162.217 67.2126Z" fill="white"/>
<path opacity="0.47" d="M162.217 57.7878C162.113 57.7878 162.024 57.7086 162.014 57.6028L161.236 49.3896C161.225 49.2773 161.308 49.1776 161.42 49.1669C161.532 49.1563 161.631 49.2386 161.642 49.351L162.42 57.5642C162.431 57.6765 162.349 57.7762 162.237 57.7869C162.23 57.7875 162.224 57.7878 162.217 57.7878Z" fill="#1D1D89"/>
<path opacity="0.47" d="M167.66 61.716C167.619 61.716 167.577 61.7035 167.541 61.6774L162.098 57.7492C162.007 57.6833 161.986 57.5556 162.052 57.464C162.118 57.3725 162.245 57.3517 162.337 57.4177L167.78 61.3459C167.871 61.4118 167.892 61.5395 167.826 61.6311C167.786 61.6865 167.724 61.716 167.66 61.716Z" fill="#FF5F76"/>
<path d="M162.709 58.0779C162.981 57.8052 162.981 57.3632 162.709 57.0905C162.437 56.8179 161.995 56.8179 161.723 57.0906C161.451 57.3632 161.451 57.8052 161.723 58.0779C161.995 58.3505 162.437 58.3505 162.709 58.0779Z" fill="#8A9BFF"/>
<path opacity="0.72" d="M195.219 34.5266L193.023 37.2706L196.365 37.6367L195.219 34.5266Z" fill="#FF5F76"/>
<path opacity="0.72" d="M220.325 47.972L216.94 47.0404L217.929 50.2585L220.325 47.972Z" stroke="#1D1D89" stroke-width="5" stroke-miterlimit="10" stroke-linecap="round" stroke-linejoin="round"/>
<path opacity="0.72" d="M204.711 33.2223L202.776 31.2831L200.84 33.2222L202.776 35.1614L204.711 33.2223Z" stroke="#1D1D89" stroke-width="5" stroke-miterlimit="10" stroke-linecap="round" stroke-linejoin="round"/>
<path opacity="0.72" d="M222.756 41.1869L223.587 39.5688L221.971 38.7368L221.141 40.3549L222.756 41.1869Z" stroke="#1D1D89" stroke-width="5" stroke-miterlimit="10" stroke-linecap="round" stroke-linejoin="round"/>
<path opacity="0.72" d="M213.845 37.9173C213.993 37.2925 213.607 36.6664 212.983 36.5188C212.359 36.3713 211.734 36.7582 211.587 37.383C211.439 38.0079 211.826 38.634 212.449 38.7816C213.073 38.9291 213.698 38.5422 213.845 37.9173Z" fill="#FF5F76"/>
<defs>
<linearGradient id="paint0_linear_2_13191" x1="106.991" y1="112.159" x2="106.755" y2="151.694" gradientUnits="userSpaceOnUse">
<stop offset="0.004" stop-color="white"/>
<stop offset="1" stop-color="#F49298"/>
</linearGradient>
<linearGradient id="paint1_linear_2_13191" x1="76.2854" y1="41.7362" x2="126.023" y2="120.155" gradientUnits="userSpaceOnUse">
<stop stop-color="#FF9497"/>
<stop offset="1" stop-color="#E86464"/>
</linearGradient>
<linearGradient id="paint2_linear_2_13191" x1="74.3272" y1="65.1625" x2="113.44" y2="65.1625" gradientUnits="userSpaceOnUse">
<stop stop-color="#605FE1"/>
<stop offset="1" stop-color="#3449BC"/>
</linearGradient>
</defs>
</svg>
