<svg width="576" height="357" viewBox="0 0 576 357" fill="none" xmlns="http://www.w3.org/2000/svg">
<path d="M551.947 320.34H0V356.09H551.947V320.34Z" fill="#E6E6E6"/>
<path d="M432.969 336.006L418.159 339.199L408.024 344.937L443.935 345.179L441.765 334.076L432.969 336.006Z" fill="#FFCFBF"/>
<path d="M418.388 338.818L426.07 337.552L427.602 338.385C429.204 339.256 430.157 340.976 430.047 342.797C430.047 342.797 441.555 342.991 441.765 334.076L443.965 345.51L407.633 345.239L418.388 338.818Z" fill="#BD2710"/>
<path d="M94.5495 51.7629H38.2043V63.9721H94.5495V51.7629Z" fill="#E6E6E6"/>
<path d="M89.0766 54.9817H43.6771V60.7533H89.0766V54.9817Z" fill="#F0F0F0"/>
<path d="M94.5495 51.7629H66.4453V63.9721H94.5495V51.7629Z" fill="#F0F0F0"/>
<path d="M86.9308 39.8191H45.8228V52.0283H86.9308V39.8191Z" fill="#EDEDED"/>
<path d="M86.9308 39.8191H66.3606V52.0283H86.9308V39.8191Z" fill="#F7F7F7"/>
<path d="M98.3692 33.2339V64.2043H106.485V33.2339H98.3692Z" fill="#EDEDED"/>
<path d="M106.242 17.965V64.2046H116.135V17.965H106.242Z" fill="#E6E6E6"/>
<path d="M115.892 26.3506V64.2041H125.786V26.3506H115.892Z" fill="#EDEDED"/>
<path d="M89.0764 54.9817H66.2336V60.7533H89.0764V54.9817Z" fill="#FAFAFA"/>
<path d="M83.8834 43.4189H48.8702V49.1904H83.8834V43.4189Z" fill="#FAFAFA"/>
<path d="M83.8834 43.4189H66.2664V49.1904H83.8834V43.4189Z" fill="white"/>
<path d="M106.57 22.7932H115.882" stroke="#9C9C9C" stroke-width="0.623" stroke-miterlimit="10"/>
<path d="M106.57 58.709H115.882" stroke="#9C9C9C" stroke-width="0.623" stroke-miterlimit="10"/>
<path d="M118.421 26.605V64.2996H122.653V26.605H118.421Z" fill="#E6E6E6"/>
<path d="M116.051 53.2876H125.362" stroke="#9C9C9C" stroke-width="0.623" stroke-miterlimit="10"/>
<path d="M116.051 36.8545H125.362" stroke="#9C9C9C" stroke-width="0.623" stroke-miterlimit="10"/>
<path d="M109.109 17.9647V33.2966H113.342V17.9647H109.109Z" fill="#EDEDED"/>
<path d="M138.737 63.9607H33.6008V71.076H138.737V63.9607Z" fill="#D1D1D1"/>
<path d="M65.7568 66.4915H58.3293V82.0136H65.7568V66.4915Z" fill="#D1D1D1"/>
<path d="M108.419 66.4915H100.991V82.0136H108.419V66.4915Z" fill="#D1D1D1"/>
<path d="M121.96 191.654H15.1785V226.877H121.96V191.654Z" fill="#E8E8E8"/>
<path d="M121.96 226.876H15.1785V262.099H121.96V226.876Z" fill="#E8E8E8"/>
<path d="M121.96 262.099H15.1785V297.321H121.96V262.099Z" fill="#E8E8E8"/>
<path d="M121.96 297.322H15.1785V332.544H121.96V297.322Z" fill="#E8E8E8"/>
<path d="M121.96 191.654L145.211 183.468V317.033L121.96 332.544V191.654Z" fill="#D1D1D1"/>
<path d="M15.1785 191.654L41.0129 183.468H145.211L121.96 191.654H15.1785Z" fill="#E0E0E0"/>
<path d="M82.8321 212.084H54.3068C52.7513 212.084 51.4902 210.822 51.4902 209.265C51.4902 207.709 52.7513 206.447 54.3068 206.447H82.8321C84.3877 206.447 85.6487 207.709 85.6487 209.265C85.6487 210.822 84.3877 212.084 82.8321 212.084ZM82.8321 247.127H54.3068C52.7513 247.127 51.4902 245.865 51.4902 244.308C51.4902 242.752 52.7513 241.49 54.3068 241.49H82.8321C84.3877 241.49 85.6487 242.752 85.6487 244.308C85.6487 245.865 84.3877 247.127 82.8321 247.127ZM82.8321 282.17H54.3068C52.7513 282.17 51.4902 280.908 51.4902 279.351C51.4902 277.795 52.7513 276.533 54.3068 276.533H82.8321C84.3877 276.533 85.6487 277.795 85.6487 279.351C85.6487 280.908 84.3877 282.17 82.8321 282.17ZM82.8321 318.075H54.3068C52.7513 318.075 51.4902 316.813 51.4902 315.257C51.4902 313.7 52.7513 312.438 54.3068 312.438H82.8321C84.3877 312.438 85.6487 313.7 85.6487 315.257C85.6487 316.813 84.3877 318.075 82.8321 318.075Z" fill="#D1D1D1"/>
<path d="M15.1785 226.876H121.96" stroke="#A3A3A3" stroke-width="2.845" stroke-miterlimit="10"/>
<path d="M15.1785 260.699H121.96" stroke="#A3A3A3" stroke-width="2.845" stroke-miterlimit="10"/>
<path d="M15.1785 294.521H121.96" stroke="#A3A3A3" stroke-width="2.845" stroke-miterlimit="10"/>
<path d="M434.007 122.107L409.859 139.022C409.859 139.022 409.342 124.351 398.303 123.316C403.65 114.686 419.863 93.4564 425.21 90.8675C430.385 88.2784 440.561 98.6341 434.007 122.107Z" fill="#FFC968"/>
<path d="M453.492 337.386L438.682 340.58L428.548 346.318L464.458 346.559L462.289 335.457L453.492 337.386Z" fill="#FFCFBF"/>
<path d="M438.911 340.199L446.593 338.932L448.125 339.766C449.727 340.637 450.68 342.357 450.57 344.178C450.57 344.178 462.078 344.372 462.289 335.457L464.488 346.891L428.156 346.62L438.911 340.199Z" fill="#BD2710"/>
<path d="M462.892 153.704C464.473 153.704 472.903 167.412 477.645 185.865C463.946 198.518 442.871 212.227 442.871 212.227L418.107 194.301C418.107 194.301 421.269 154.759 430.753 151.595C440.236 148.432 462.892 153.704 462.892 153.704Z" fill="#1D1C1C"/>
<path d="M441.818 209.59L440.178 273.048L443.627 338.29L464.325 336.909C464.325 336.909 463.846 281.682 468.81 256.133C473.35 232.765 484.29 192.97 473.984 174.437C466.071 160.208 441.818 209.59 441.818 209.59Z" fill="#1D1C1C"/>
<path d="M418.107 194.301L422.929 336.909L445.697 335.873C445.697 335.873 448.666 205.9 446.032 195.355C443.398 184.811 428.118 164.776 418.107 194.301Z" fill="#1D1C1C"/>
<path d="M381.346 143.509C381.691 144.027 381.864 154.901 389.625 156.282C397.387 157.662 402.044 157.49 410.323 142.646C389.97 142.819 381.346 143.509 381.346 143.509Z" fill="#FFCFBF"/>
<path d="M440.221 86.4371L424.352 91.441C424.352 91.441 424.812 105.768 419.063 117.044C413.313 128.321 424.582 134.074 425.732 140.518C426.882 146.961 425.962 157.317 425.962 157.317C425.962 157.317 452.409 170.606 463.448 154.267C461.206 139.193 460.689 123.832 467.588 119.517C464.598 110.312 465.288 96.5629 477.477 98.4039C475.177 93.1109 458.159 84.8263 440.221 86.4371Z" fill="#FFC968"/>
<path d="M463.448 154.266C461.777 143.034 461.067 131.644 463.667 124.782C461.54 127.726 457.813 131.172 452.237 130.563C442.75 129.528 439.991 123.659 431.884 126.766C423.777 129.873 420.155 129.528 420.673 123.141C419.983 127.284 422.053 135.051 425.847 140.574C426.983 143.82 426.236 154.998 426.039 156.322C426.036 156.373 426.032 156.418 426.029 156.466C427.292 158.506 441.904 154.547 449.305 151.275C455.257 148.643 455.876 156.793 451.788 161.899C456.256 160.985 460.429 158.736 463.448 154.266ZM465.801 121.059L465.863 120.898C465.863 120.898 465.839 120.959 465.793 121.069C465.796 121.066 465.798 121.062 465.801 121.059Z" fill="#FFA647"/>
<path d="M355.493 95.7683L375.685 144.725H460.171L459.826 142.129L422.681 142.072L403.694 96.4918L355.493 95.7683Z" fill="#B5B5B5"/>
<path d="M355.817 95.7683L359.673 94.3213L405.947 95.0448L404.018 96.4918L355.817 95.7683Z" fill="#F0F0F0"/>
<path d="M392.155 150.643C392.155 150.643 383.186 149.953 379.047 142.589C395.145 141.438 395.145 141.438 395.145 141.438C395.145 141.438 399.745 149.953 392.155 150.643Z" fill="#FFCFBF"/>
<path d="M381.691 146.271L376.344 142.128L373.408 134.488C373.144 133.802 373.581 133.048 374.307 132.936C374.802 132.86 375.288 133.112 375.512 133.559L378.759 140.057L383.933 145.235L381.691 146.271ZM385.831 144.89C385.486 144.199 379.966 139.539 379.966 139.539L378.604 133.13C378.422 132.276 379.107 131.485 379.977 131.543C380.495 131.578 380.945 131.914 381.124 132.401L383.244 138.159L389.281 144.372L385.831 144.89Z" fill="#FFCFBF"/>
<path d="M389.108 145.408C389.108 144.89 385.141 137.986 385.141 137.986L385.19 133.221C385.256 132.536 385.896 132.056 386.572 132.184C387.086 132.281 387.473 132.708 387.52 133.229L387.901 137.123L391.868 144.027L389.108 145.408Z" fill="#FFCFBF"/>
<path d="M391.695 143.969C391.695 143.452 390.89 137.526 390.89 137.526L392.057 133.575C392.239 132.959 392.882 132.603 393.501 132.778C394.123 132.953 394.486 133.601 394.312 134.224L393.42 137.411L396.008 143.279L391.695 143.969Z" fill="#FFCFBF"/>
<path d="M384.336 148.572L378.472 147.306L375.685 144.725H379.851L384.336 148.572Z" fill="#FFCFBF"/>
<path d="M442.937 334.377C442.89 334.457 442.84 334.536 442.773 334.603C442.71 334.669 442.617 334.722 442.519 334.703C442.423 334.679 442.352 334.607 442.295 334.534C442.236 334.459 442.192 334.376 442.149 334.293C441.988 333.954 441.885 333.592 441.791 333.231C441.609 332.507 441.479 331.771 441.362 331.035C441.137 329.561 440.975 328.078 440.83 326.595C440.545 323.627 440.341 320.653 440.163 317.679C439.829 311.728 439.616 305.772 439.469 299.814C439.312 293.857 439.244 287.899 439.198 281.941C439.163 275.982 439.182 270.023 439.231 264.065C439.298 258.107 439.398 252.149 439.553 246.192C439.721 240.236 439.915 234.28 440.212 228.327C440.501 222.375 440.865 216.425 441.389 210.487C441.661 207.519 441.97 204.553 442.378 201.599C442.585 200.123 442.813 198.649 443.107 197.186C443.256 196.456 443.422 195.728 443.623 195.01C443.83 194.295 444.052 193.575 444.422 192.927C444.073 193.586 443.874 194.309 443.69 195.028C443.513 195.749 443.37 196.48 443.243 197.212C442.987 198.677 442.791 200.152 442.62 201.63C442.281 204.586 442.042 207.553 441.839 210.522C441.63 213.491 441.459 216.463 441.314 219.436C441.17 222.409 441.038 225.383 440.93 228.358C440.719 234.308 440.541 240.26 440.425 246.213C440.296 252.166 440.203 258.12 440.152 264.074C440.085 270.028 440.063 275.983 440.068 281.938C440.063 287.892 440.113 293.847 440.185 299.801C440.222 302.778 440.281 305.754 440.346 308.73C440.411 311.707 440.498 314.682 440.612 317.657C440.721 320.632 440.856 323.606 441.072 326.574C441.182 328.058 441.312 329.54 441.499 331.016C441.593 331.753 441.699 332.489 441.859 333.215C441.94 333.576 442.032 333.939 442.181 334.277C442.219 334.361 442.261 334.444 442.315 334.518C442.369 334.591 442.435 334.661 442.522 334.686C442.611 334.706 442.702 334.66 442.767 334.596C442.835 334.533 442.888 334.456 442.937 334.377Z" fill="#4D5282"/>
<path d="M437.748 189.06C438.816 189.514 439.835 190.046 440.84 190.6C441.842 191.159 442.825 191.747 443.791 192.362C444.758 192.976 445.707 193.618 446.636 194.29C447.564 194.965 448.477 195.664 449.34 196.441C448.271 195.988 447.252 195.457 446.247 194.902C445.245 194.344 444.262 193.755 443.297 193.139C442.331 192.524 441.382 191.882 440.452 191.21C439.524 190.535 438.611 189.836 437.748 189.06ZM458.122 161.174C459.235 161.946 460.316 162.738 461.4 163.521C462.483 164.304 463.56 165.089 464.654 165.846C465.75 166.599 466.846 167.35 467.976 168.049C469.107 168.747 470.257 169.403 471.47 170.013C470.133 169.77 468.852 169.269 467.625 168.683C467.323 168.53 467.02 168.375 466.719 168.215C466.419 168.056 466.131 167.877 465.837 167.707C465.69 167.621 465.544 167.534 465.4 167.445L464.973 167.169C464.692 166.98 464.403 166.8 464.128 166.603C463.014 165.83 461.958 164.981 460.947 164.083C459.944 163.177 458.976 162.23 458.122 161.174ZM441.261 186.951C441.07 184.881 440.97 182.811 440.903 180.741C440.86 179.706 440.851 178.671 440.826 177.636L440.8 174.531L440.825 171.426C440.85 170.391 440.858 169.356 440.901 168.321C440.969 166.251 441.069 164.181 441.261 162.111C441.453 164.181 441.553 166.251 441.62 168.321C441.663 169.356 441.671 170.391 441.697 171.426L441.721 174.531L441.695 177.636C441.671 178.671 441.661 179.706 441.619 180.741C441.551 182.811 441.451 184.881 441.261 186.951Z" fill="#4D5282"/>
<path d="M425.502 107.263C425.502 107.263 423.605 115.375 422.225 116.928C420.673 118.481 419.293 124.522 420.673 131.081C414.636 116.928 414.636 116.928 414.636 116.928C414.636 116.928 419.465 115.892 425.502 107.263C431.539 98.6326 425.502 107.263 425.502 107.263Z" fill="#FFA647"/>
<path d="M405.8 95.0566L425.573 142.313L423.043 144.604L403.615 96.4951L405.8 95.0566Z" fill="#9C9C9C"/>
<path d="M460.287 114.655C460.133 115.276 475.191 151.353 475.191 151.353L488.451 140.78L478.778 99.8376C478.778 99.8376 467.63 85.0939 460.287 114.655Z" fill="#FFCFBF"/>
<path d="M484.986 138.797L523.843 142.719L522.851 149.683C522.851 149.683 483.097 162.998 474.718 151.124C475.513 140.66 484.986 138.797 484.986 138.797Z" fill="#FFCFBF"/>
<path d="M460.287 114.655C460.133 115.276 475.191 151.353 475.191 151.353L488.451 140.78L478.778 99.8376C478.778 99.8376 467.63 85.0939 460.287 114.655Z" fill="#FFCFBF"/>
<path d="M484.986 138.797L523.843 142.719L522.851 149.683C522.851 149.683 483.097 162.998 474.718 151.124C475.513 140.66 484.986 138.797 484.986 138.797Z" fill="#FFCFBF"/>
<path d="M515.116 149.136L516.036 143.138L524.21 140.737L530.113 142.14L528.881 154.808L515.116 149.136Z" fill="#FFCFBF"/>
<path d="M519.61 143.34L527.921 133.875C528.154 133.61 528.514 133.495 528.857 133.577C529.468 133.722 529.774 134.409 529.474 134.961L527.293 138.965L525.338 144.269L519.61 143.34ZM527.77 142.111L539.562 141.138C540.291 141.077 540.859 141.761 540.667 142.468C540.561 142.86 540.238 143.157 539.838 143.23L528.249 145.345L527.77 142.111ZM528.332 145.449C528.706 145.31 536.624 146.279 539.962 146.696C540.75 146.795 541.285 147.546 541.122 148.324C540.98 149 540.355 149.461 539.668 149.398L527.681 148.294L528.332 145.449ZM529.486 148.788L537.903 152.235C538.45 152.46 538.683 153.109 538.403 153.63C538.182 154.043 537.703 154.246 537.253 154.118L528.557 151.651C528.027 151.5 527.72 150.948 527.871 150.418L528.15 149.437C528.313 148.866 528.936 148.563 529.486 148.788Z" fill="#FFCFBF"/>
<path d="M528.094 151.388L533.814 155.816C534.319 156.207 534.372 156.95 533.927 157.409C533.551 157.798 532.943 157.844 532.512 157.517L527.15 153.444L528.094 151.388Z" fill="#FFCFBF"/>
<path d="M476.813 138.406C476.813 138.406 473.969 139.566 470.859 140.93C472.63 145.206 474.115 148.772 474.793 150.4C474.765 150.638 474.737 150.877 474.718 151.124C480.956 159.964 504.578 154.844 516.246 151.649C486.674 157.55 476.813 138.406 476.813 138.406Z" fill="#FFA28E"/>
<path d="M459.291 113.296L471.392 144.985C471.392 144.985 477.643 132.543 487.568 136.024C486.374 126.467 480.798 101.743 477.214 97.3931C473.778 93.1113 462.929 90.4654 459.291 113.296Z" fill="#FFC968"/>
<path d="M462.011 102.962C461.212 104.89 460.499 107.215 459.905 109.992C459.656 112.01 459.701 113.59 459.853 114.767L471.392 144.984C471.392 144.984 472.546 142.21 476.813 138.406C469.349 131.131 464.051 112.524 462.011 102.962Z" fill="#FFA647"/>
<path d="M475.747 95.0962C474.674 94.7655 473.565 94.6044 472.468 94.5958C471.92 94.5852 471.375 94.6326 470.838 94.7058C470.304 94.8017 469.773 94.9026 469.266 95.0848C468.25 95.432 467.295 95.9378 466.462 96.6108C465.622 97.2735 464.889 98.0726 464.257 98.9497L463.789 99.6144L463.369 100.315C463.3 100.432 463.225 100.546 463.162 100.667L462.976 101.033L462.604 101.764L462.268 102.516L462.1 102.893C462.044 103.018 462.001 103.15 461.95 103.278L461.658 104.052C461.551 104.307 461.469 104.572 461.382 104.835C460.675 106.935 460.159 109.11 459.664 111.306C459.762 109.058 460.075 106.811 460.663 104.616C460.938 103.513 461.341 102.444 461.775 101.384C461.89 101.122 462.024 100.867 462.149 100.609L462.339 100.223C462.403 100.094 462.481 99.9722 462.552 99.8467L462.987 99.0994L463.478 98.3827C464.17 97.4546 464.968 96.5877 465.91 95.8872C466.853 95.1944 467.921 94.6546 469.054 94.366C469.616 94.2101 470.195 94.1263 470.772 94.0802C471.35 94.0557 471.928 94.0569 472.498 94.1258C473.634 94.2683 474.75 94.5666 475.747 95.0962Z" fill="#ED9636"/>
<path d="M325.141 0H238.132C232.006 0 227.04 4.9694 227.04 11.0995V59.3403C227.04 65.4703 232.006 70.4397 238.132 70.4397H256.316L248.657 83.7512L250.968 83.672L270.274 70.4397H325.141C331.267 70.4397 336.233 65.4703 336.233 59.3403V11.0995C336.233 4.9694 331.267 0 325.141 0Z" fill="#FFA647"/>
<path d="M327.36 0H240.351C234.225 0 229.259 4.9694 229.259 11.0995V59.3403C229.259 65.4703 234.225 70.4397 240.351 70.4397H258.535L250.876 83.7512L272.493 70.4397H327.36C333.486 70.4397 338.452 65.4703 338.452 59.3403V11.0995C338.452 4.9694 333.486 0 327.36 0Z" fill="#FFC968"/>
<path d="M258.494 12.8308H246.075V55.9801H258.494V12.8308Z" fill="#E53E38"/>
<path d="M260.565 12.8308H248.146V55.9801H260.565V12.8308Z" fill="#FF6D60"/>
<path d="M278.617 23.875H266.198V55.9802H278.617V23.875Z" fill="#E53E38"/>
<path d="M280.688 23.875H268.269V55.9802H280.688V23.875Z" fill="#FF6D60"/>
<path d="M298.74 38.0281H286.321V55.9803H298.74V38.0281Z" fill="#E53E38"/>
<path d="M300.811 38.0281H288.392V55.9803H300.811V38.0281Z" fill="#FF6D60"/>
<path d="M318.863 20.0779H306.444V55.9803H318.863V20.0779Z" fill="#E53E38"/>
<path d="M320.934 20.0779H308.515V55.9803H320.934V20.0779Z" fill="#FF6D60"/>
<path d="M242.282 55.635H325.764" stroke="#ED9636" stroke-width="6.104" stroke-miterlimit="10" stroke-linecap="round"/>
<path d="M328.753 36.9925C327.61 36.9925 326.684 36.0653 326.684 34.9214V16.7411C326.684 15.5972 327.61 14.6699 328.753 14.6699C329.896 14.6699 330.823 15.5972 330.823 16.7411V34.9214C330.823 36.0653 329.896 36.9925 328.753 36.9925Z" fill="white"/>
<path d="M331.032 9.97214C331.236 8.71758 330.384 7.53548 329.13 7.33186C327.877 7.12824 326.695 7.9802 326.492 9.23476C326.288 10.4893 327.14 11.6714 328.393 11.875C329.647 12.0787 330.829 11.2267 331.032 9.97214Z" fill="white"/>
<path d="M391.984 52.7419C401.377 52.7419 408.991 42.8778 408.991 30.7098C408.991 18.5418 401.377 8.67773 391.984 8.67773C382.592 8.67773 374.978 18.5418 374.978 30.7098C374.978 42.8778 382.592 52.7419 391.984 52.7419Z" fill="#FFA647"/>
<path d="M393.504 50.0053C402.896 50.0053 410.51 40.1412 410.51 27.9732C410.51 15.8053 402.896 5.94116 393.504 5.94116C384.111 5.94116 376.497 15.8053 376.497 27.9732C376.497 40.1412 384.111 50.0053 393.504 50.0053Z" fill="#FFC968"/>
<path d="M393.504 47.2512C401.722 47.2512 408.385 38.6201 408.385 27.9731C408.385 17.3261 401.722 8.69507 393.504 8.69507C385.285 8.69507 378.623 17.3261 378.623 27.9731C378.623 38.6201 385.285 47.2512 393.504 47.2512Z" fill="#FFA647"/>
<path d="M393.504 45.6774C401.051 45.6774 407.17 37.7509 407.17 27.9731C407.17 18.1953 401.051 10.2688 393.504 10.2688C385.956 10.2688 379.838 18.1953 379.838 27.9731C379.838 37.7509 385.956 45.6774 393.504 45.6774Z" fill="#FFC968"/>
<path d="M391.7 36.8183C389.134 36.5566 386.594 35.6395 384.631 34.2249L386.987 30.7402C388.663 31.9192 390.234 32.6265 391.857 32.8885V29.7449C387.641 28.7754 385.495 27.3345 385.495 24.0858V24.0332C385.495 20.9417 387.746 18.7935 391.752 18.5053V17.012H394.475V18.5839C396.622 18.8196 398.428 19.5531 399.999 20.6274L397.853 24.1378C396.779 23.378 395.522 22.8543 394.344 22.5658V25.6051C398.507 26.5743 400.602 28.0679 400.602 31.3164V31.369C400.602 34.5652 398.141 36.53 394.423 36.8708V39.4383H391.7V36.8183H391.7ZM391.883 22.3303C390.6 22.435 390.103 22.9591 390.103 23.6402V23.6929C390.103 24.374 390.47 24.7668 391.883 25.1598V22.3303ZM396.072 31.7097V31.6573C396.072 30.9498 395.68 30.5568 394.318 30.164V33.0459C395.522 32.9149 396.072 32.4693 396.072 31.7097Z" fill="#FFA647"/>
<path d="M392.915 36.8183C390.349 36.5566 387.81 35.6395 385.846 34.2249L388.203 30.7402C389.878 31.9192 391.449 32.6265 393.073 32.8885V29.7449C388.857 28.7754 386.71 27.3345 386.71 24.0858V24.0332C386.71 20.9417 388.962 18.7935 392.968 18.5053V17.012H395.691V18.5839C397.838 18.8196 399.644 19.5531 401.215 20.6274L399.068 24.1378C397.995 23.378 396.738 22.8543 395.56 22.5658V25.6051C399.723 26.5743 401.817 28.0679 401.817 31.3164V31.369C401.817 34.5652 399.356 36.53 395.638 36.8708V39.4383H392.916V36.8183H392.915ZM393.099 22.3303C391.816 22.435 391.318 22.9591 391.318 23.6402V23.6929C391.318 24.374 391.685 24.7668 393.099 25.1598V22.3303ZM397.288 31.7097V31.6573C397.288 30.9498 396.895 30.5568 395.534 30.164V33.0459C396.738 32.9149 397.288 32.4693 397.288 31.7097Z" fill="white"/>
<path d="M366.136 80.0446C370.969 80.0446 374.887 74.9688 374.887 68.7074C374.887 62.446 370.969 57.3701 366.136 57.3701C361.302 57.3701 357.384 62.446 357.384 68.7074C357.384 74.9688 361.302 80.0446 366.136 80.0446Z" fill="#FFA647"/>
<path d="M366.918 78.6364C371.751 78.6364 375.669 73.5606 375.669 67.2992C375.669 61.0378 371.751 55.9619 366.918 55.9619C362.084 55.9619 358.166 61.0378 358.166 67.2992C358.166 73.5606 362.084 78.6364 366.918 78.6364Z" fill="#FFC968"/>
<path d="M366.918 77.2192C371.147 77.2192 374.575 72.7778 374.575 67.2992C374.575 61.8205 371.147 57.3792 366.918 57.3792C362.689 57.3792 359.26 61.8205 359.26 67.2992C359.26 72.7778 362.689 77.2192 366.918 77.2192Z" fill="#FFA647"/>
<path d="M366.918 76.4094C370.801 76.4094 373.95 72.3306 373.95 67.2992C373.95 62.2678 370.801 58.189 366.918 58.189C363.034 58.189 359.885 62.2678 359.885 67.2992C359.885 72.3306 363.034 76.4094 366.918 76.4094Z" fill="#FFC968"/>
<path d="M365.989 71.8507C364.669 71.716 363.362 71.2441 362.352 70.5162L363.564 68.7231C364.426 69.3298 365.235 69.6938 366.07 69.8286V68.211C363.901 67.7121 362.796 66.9707 362.796 65.299V65.2719C362.796 63.6812 363.955 62.5757 366.016 62.4274V61.6589H367.417V62.4679C368.522 62.5891 369.452 62.9666 370.26 63.5195L369.155 65.3258C368.603 64.935 367.956 64.6653 367.35 64.5169V66.0808C369.492 66.5794 370.57 67.3481 370.57 69.0196V69.0467C370.57 70.6913 369.303 71.7024 367.39 71.8777V73.199H365.989V71.8507ZM366.084 64.3955C365.423 64.4494 365.167 64.719 365.167 65.0695V65.0965C365.167 65.4469 365.356 65.6491 366.084 65.8514V64.3955ZM368.239 69.222V69.1949C368.239 68.8309 368.037 68.6286 367.337 68.4264V69.9094C367.956 69.842 368.239 69.6128 368.239 69.222Z" fill="#FFA647"/>
<path d="M366.615 71.8507C365.294 71.716 363.988 71.2441 362.977 70.5162L364.19 68.7231C365.052 69.3298 365.86 69.6938 366.696 69.8286V68.211C364.526 67.7121 363.422 66.9707 363.422 65.299V65.2719C363.422 63.6812 364.58 62.5757 366.642 62.4274V61.6589H368.043V62.4679C369.148 62.5891 370.077 62.9666 370.886 63.5195L369.781 65.3258C369.229 64.935 368.582 64.6653 367.975 64.5169V66.0808C370.118 66.5794 371.195 67.3481 371.195 69.0196V69.0467C371.195 70.6913 369.929 71.7024 368.016 71.8777V73.199H366.615V71.8507ZM366.709 64.3955C366.049 64.4494 365.793 64.719 365.793 65.0695V65.0965C365.793 65.4469 365.982 65.6491 366.709 65.8514V64.3955ZM368.865 69.222V69.1949C368.865 68.8309 368.663 68.6286 367.962 68.4264V69.9094C368.582 69.842 368.865 69.6128 368.865 69.222Z" fill="white"/>
<path d="M197.898 35.1636H155.549V75.0416H197.898V35.1636Z" fill="#F2F2F2"/>
<path d="M192.329 39.4258H161.277V70.9917H192.329V39.4258Z" fill="#D1D1D1"/>
<path d="M194.073 38.136H159.532V72.2819H194.073V38.136Z" stroke="#C7C7C7" stroke-width="0.888" stroke-miterlimit="10"/>
<path d="M190.425 41.1375H163.181V69.3216H190.425V41.1375Z" fill="#F2F2F2"/>
<path d="M182.142 49.7058H171.463V60.7532H182.142V49.7058Z" fill="#D1D1D1"/>
<path d="M194.073 72.282L197.898 75.0417" stroke="#C7C7C7" stroke-width="0.888" stroke-miterlimit="10"/>
<path d="M194.073 38.136L197.898 35.1636" stroke="#C7C7C7" stroke-width="0.888" stroke-miterlimit="10"/>
<path d="M159.532 38.136L155.549 35.1636" stroke="#C7C7C7" stroke-width="0.888" stroke-miterlimit="10"/>
<path d="M159.532 72.282L155.549 75.0417" stroke="#C7C7C7" stroke-width="0.888" stroke-miterlimit="10"/>
<path d="M301.612 86.3509C292.989 92.501 279.261 102.804 279.261 102.804L304.34 125.111L317.392 100.709C319.763 96.6027 319.215 91.435 316.036 87.9188C312.321 83.81 306.121 83.1346 301.612 86.3509Z" fill="#FF6D60"/>
<path d="M313.63 87.6225L325.705 78.6377L363.169 120.154L344.05 182.893L341.805 181.809L360.692 120.774L325.473 81.3485L315.178 89.7912L313.63 87.6225Z" fill="#971110"/>
<path d="M329.884 188.238L332.903 181.267H352.177L354.731 187.773L329.884 188.238Z" fill="#971110"/>
<path d="M318.041 194.047L323.382 187.541H360.768L365.645 194.279L318.041 194.047Z" fill="#E53E38"/>
<path d="M304.317 125.092C306.074 123.086 301.821 116.482 294.819 110.343C287.816 104.203 280.715 100.852 278.959 102.858C277.202 104.865 281.454 111.468 288.457 117.608C295.46 123.748 302.561 127.099 304.317 125.092Z" fill="#E53E38"/>
<path d="M310.856 100.73L305.527 109.082C305.182 109.623 305.267 110.333 305.731 110.776L306.1 111.13C306.732 111.734 307.762 111.583 308.195 110.824L313.154 102.118C313.494 101.522 313.33 100.765 312.773 100.363C312.147 99.9113 311.271 100.079 310.856 100.73Z" fill="white"/>
<path d="M294.82 110.332C292.367 108.182 289.903 106.375 287.661 105.02C287.338 106.003 287.156 107.053 287.156 108.148C287.156 113.581 291.454 117.985 296.755 117.985C298.338 117.985 299.828 117.585 301.145 116.889C299.49 114.8 297.334 112.536 294.82 110.332Z" fill="#FFC968"/>
<path d="M199.885 113.969V250.925H139.576V131.527C139.576 121.83 147.432 113.969 157.122 113.969H199.885Z" fill="#2C2E4A"/>
<path d="M156.227 113.969V250.925H139.576V130.631C139.576 121.429 147.031 113.969 156.227 113.969Z" fill="#4D5282"/>
<path d="M195.558 251.057H168.288V263.389H195.558V251.057Z" fill="#1D1C1C"/>
<path d="M184.808 263.389H179.038V307.732H184.808V263.389Z" fill="#2C2E4A"/>
<path d="M212.865 311.668C212.864 308.335 210.164 305.633 206.833 305.633V305.633H184.938V305.633H178.907V305.633H157.013V305.633C153.682 305.633 150.981 308.335 150.981 311.668V311.668H150.982V319.478C150.982 319.729 151.186 319.933 151.437 319.933H156.558C156.809 319.933 157.013 319.729 157.013 319.478V313.871C157.013 312.654 157.998 311.668 159.214 311.668H178.453C178.704 311.668 178.908 311.872 178.908 312.123V319.478C178.908 319.729 179.111 319.933 179.363 319.933H184.484C184.735 319.933 184.939 319.729 184.939 319.478V312.123C184.939 311.872 185.142 311.668 185.394 311.668H204.539C205.806 311.668 206.833 312.696 206.833 313.964V319.478C206.833 319.729 207.037 319.933 207.288 319.933H212.41C212.661 319.933 212.864 319.729 212.864 319.478V311.668H212.865V311.668H212.865Z" fill="#2C2E4A"/>
<path d="M182.448 251.057H168.288V263.389H182.448V251.057Z" fill="#2C2E4A"/>
<path d="M153.965 330.232C157.169 330.232 159.766 327.632 159.766 324.426C159.766 321.22 157.169 318.621 153.965 318.621C150.761 318.621 148.164 321.22 148.164 324.426C148.164 327.632 150.761 330.232 153.965 330.232Z" fill="#4D5282"/>
<path d="M182.088 330.232C185.292 330.232 187.889 327.632 187.889 324.426C187.889 321.22 185.292 318.621 182.088 318.621C178.884 318.621 176.286 321.22 176.286 324.426C176.286 327.632 178.884 330.232 182.088 330.232Z" fill="#4D5282"/>
<path d="M209.227 330.232C212.431 330.232 215.028 327.632 215.028 324.426C215.028 321.22 212.431 318.621 209.227 318.621C206.023 318.621 203.425 321.22 203.425 324.426C203.425 327.632 206.023 330.232 209.227 330.232Z" fill="#4D5282"/>
<path d="M222.618 165.232L239.678 198.948L262.753 196.062L260.105 177.199L225.378 129.792L222.618 165.232Z" fill="#FFC968"/>
<path d="M238.367 170.348C239.416 170.61 257.247 199.997 257.247 199.997L237.843 196.062L223.308 166.153L223.998 156.257L238.367 170.348Z" fill="#FFA647"/>
<path d="M268.323 314.103L266.225 330.361L312.113 331.158L299.526 323.286L285.629 319.875L280.909 312.791L268.323 314.103Z" fill="#FFCFBF"/>
<path d="M285.629 319.875C285.629 319.875 273.305 326.435 267.274 321.187C265.7 332.47 265.701 332.47 265.701 332.47H280.909L282.482 330.633L287.595 331.224L289.562 333.191L316.57 333.519L300.575 323.286L285.629 319.875Z" fill="#4D5282"/>
<path d="M234.891 315.087L232.793 331.345L278.68 332.142L266.094 324.27L252.197 320.859L247.477 313.775L234.891 315.087Z" fill="#FFCFBF"/>
<path d="M252.197 320.859C252.197 320.859 239.873 327.419 233.842 322.171C232.268 333.454 232.268 333.454 232.268 333.454H247.477L249.05 331.617L254.163 332.208L256.13 334.175L283.138 334.503L267.143 324.27L252.197 320.859Z" fill="#4D5282"/>
<path d="M242.364 203.696L280.504 215.133C288.549 217.546 294.101 224.9 294.221 233.303L294.282 237.544L266.356 243.054L242.364 203.696Z" fill="#1D1C1C"/>
<path d="M294.282 234.273L297.56 321.639L267.929 318.228L264.783 232.821L294.282 234.273Z" fill="#1D1C1C"/>
<path d="M165.273 192.282C165.273 192.282 154.26 233.214 170.386 239.118C228.204 239.512 228.204 239.512 228.204 239.512L244.33 206.451L219.158 194.653L165.273 192.282Z" fill="#1D1C1C"/>
<path d="M225.451 239.423L266.061 243.447L263.341 219.711L223.189 202.909L225.451 239.423Z" fill="#1D1C1C"/>
<path d="M237.644 234.002L228.86 321.639L267.143 323.344L271.599 240.338C272.015 232.591 268.936 225.065 263.21 219.833L237.644 234.002Z" fill="#1D1C1C"/>
<path d="M188.872 119.47C188.872 119.47 164.045 123.292 154.236 130.63C159.766 199.17 159.373 198.186 159.373 198.186L222.305 196.49C222.305 196.49 225.608 130.843 225.608 130.252C225.608 129.662 201.655 120.454 201.655 120.454L188.872 119.47Z" fill="#FFC968"/>
<path d="M171.173 144.275C171.173 144.275 177.269 164.15 190.446 171.235C218.645 186.397 224.271 164.544 224.271 164.544L222.894 196.916L200.279 187.962L186.119 186.256L165.863 183.632C165.863 183.633 165.076 163.757 171.173 144.275Z" fill="#FFA647"/>
<path d="M199.823 187.893L215.206 186.976L214.86 199.563L207.498 199.303L198.61 195.186L199.823 187.893Z" fill="#FFCFBF"/>
<path d="M214.368 187.343L220.649 185.013L227.253 186.924C227.883 187.106 228.232 187.78 228.016 188.4C227.826 188.95 227.252 189.269 226.684 189.141L220.126 187.667L214.149 190.208L214.368 187.343Z" fill="#FFCFBF"/>
<path d="M213.255 188.241C213.738 188.259 220.106 189.003 220.106 189.003L226.092 191.657C226.722 191.936 227.003 192.678 226.715 193.306C226.451 193.882 225.795 194.165 225.195 193.962L218.697 191.767L212.714 191.378L213.255 188.241ZM212.839 192.634L218.147 192.828L223.394 196.059C224.106 196.497 224.154 197.515 223.487 198.018C223.183 198.246 222.789 198.316 222.426 198.205L217.472 196.008L212.716 196.015L212.839 192.634Z" fill="#FFCFBF"/>
<path d="M212.958 195.597L217.038 197.509L220.483 200.443C221.184 201.04 220.999 202.17 220.143 202.511C219.77 202.66 219.348 202.616 219.013 202.394L214.025 199.078L212.958 195.597Z" fill="#FFCFBF"/>
<path d="M226.685 189.141C226.123 189.088 225.566 189.011 225.012 188.922C224.457 188.833 223.905 188.734 223.356 188.624C223.08 188.573 222.806 188.515 222.533 188.455C222.259 188.395 221.984 188.341 221.712 188.275L220.894 188.083L220.079 187.877L220.21 187.865C220.003 187.947 219.793 188.019 219.584 188.096C219.376 188.173 219.164 188.244 218.954 188.315C218.531 188.458 218.106 188.593 217.672 188.706C218.056 188.473 218.449 188.262 218.845 188.058C219.043 187.956 219.241 187.854 219.442 187.758C219.642 187.662 219.84 187.561 220.043 187.47L220.101 187.444L220.173 187.458L220.998 187.62L221.82 187.797C222.094 187.854 222.365 187.923 222.638 187.985C222.911 188.048 223.184 188.113 223.455 188.184C223.998 188.32 224.54 188.467 225.079 188.624C225.618 188.78 226.154 188.95 226.685 189.141ZM215.128 196.103C215.322 196.062 215.517 196.03 215.711 195.999C215.906 195.971 216.1 195.94 216.295 195.918C216.489 195.894 216.684 195.868 216.879 195.851C217.074 195.833 217.268 195.809 217.463 195.795L217.506 195.793L217.558 195.814C217.978 195.981 218.397 196.149 218.81 196.332C219.223 196.514 219.635 196.699 220.041 196.899C220.448 197.095 220.851 197.3 221.25 197.515C221.649 197.73 222.042 197.956 222.426 198.205C221.984 198.087 221.552 197.948 221.125 197.796C220.698 197.645 220.276 197.484 219.857 197.314C219.437 197.148 219.023 196.967 218.611 196.782C218.198 196.6 217.791 196.402 217.386 196.203L217.481 196.221C217.285 196.224 217.089 196.216 216.893 196.213C216.698 196.211 216.502 196.201 216.306 196.193C216.11 196.187 215.914 196.171 215.717 196.16C215.521 196.144 215.325 196.128 215.128 196.103ZM200.751 196.213C201.907 196.659 203.051 197.132 204.191 197.613C205.33 198.096 206.464 198.591 207.595 199.093L207.506 199.072L209.347 199.125C209.961 199.142 210.574 199.167 211.188 199.192C211.801 199.216 212.415 199.239 213.028 199.272C213.641 199.303 214.254 199.329 214.867 199.368L214.928 199.372L214.97 199.402C215.653 199.887 216.33 200.381 217.006 200.876L218.014 201.629C218.349 201.881 218.682 202.136 219.013 202.394C218.652 202.18 218.293 201.964 217.936 201.744L216.867 201.081C216.159 200.633 215.452 200.182 214.75 199.725L214.853 199.758C214.239 199.754 213.625 199.737 213.012 199.725C212.398 199.714 211.784 199.694 211.17 199.675C210.557 199.657 209.943 199.638 209.33 199.612L207.49 199.535L207.442 199.533L207.402 199.514C206.283 198.986 205.168 198.451 204.059 197.903C202.949 197.355 201.844 196.797 200.751 196.213Z" fill="#FFA28E"/>
<path d="M267.929 307.217C268.234 298.932 268.636 290.654 269.073 282.377C269.282 278.238 269.526 274.102 269.753 269.964L270.489 257.555L271.278 245.148L272.118 232.752C272.23 230.73 271.955 228.686 271.302 226.766C270.971 225.808 270.553 224.878 270.023 224.011C269.502 223.138 268.889 222.321 268.189 221.585C266.799 220.098 264.995 219.021 263.038 218.42C262.918 218.375 262.794 218.344 262.669 218.315L262.296 218.222L261.922 218.13C261.797 218.097 261.669 218.085 261.543 218.061L260.782 217.936C260.526 217.906 260.269 217.89 260.013 217.865C259.5 217.801 258.983 217.821 258.466 217.805L258.273 217.802L258.079 217.812L257.692 217.833L256.916 217.874C258.965 217.604 261.083 217.629 263.113 218.156L263.867 218.377C264.116 218.457 264.357 218.562 264.603 218.654C264.851 218.741 265.086 218.86 265.322 218.975L265.677 219.147C265.797 219.201 265.905 219.277 266.02 219.341C266.937 219.857 267.786 220.5 268.534 221.245C269.284 221.987 269.941 222.822 270.506 223.713C271.079 224.6 271.54 225.559 271.912 226.548C272.645 228.535 272.962 230.669 272.887 232.785C272.791 234.869 272.674 236.928 272.558 239L272.211 245.206L271.474 257.615L270.684 270.022C270.403 274.156 270.138 278.291 269.839 282.424C269.258 290.692 268.642 298.957 267.929 307.217ZM236.988 240.571C237.779 240.253 238.574 239.95 239.37 239.648L241.762 238.758L244.161 237.891L246.568 237.045L247.308 236.785L247.065 237.55C246.346 239.817 245.612 242.08 244.858 244.336C244.103 246.591 243.332 248.841 242.54 251.084L241.342 254.445C240.93 255.561 240.528 256.681 240.109 257.794C239.275 260.023 238.422 262.245 237.513 264.448C238.133 262.147 238.81 259.865 239.505 257.589C239.851 256.45 240.213 255.317 240.566 254.181L241.662 250.786C242.4 248.524 243.159 246.27 243.933 244.021C244.709 241.773 245.505 239.531 246.315 237.294L246.812 237.799L244.368 238.528L241.917 239.235L239.458 239.919C238.636 240.142 237.815 240.363 236.988 240.571Z" fill="#4D5282"/>
<path d="M187.333 104.893L186.476 120.973C186.4 122.408 186.827 123.825 187.685 124.977L188.233 125.713C190.028 128.125 192.81 129.604 195.811 129.741C198.122 129.847 200.398 129.15 202.253 127.767L202.791 127.366C203.393 126.918 203.918 126.39 204.357 125.802C205.268 124.583 205.806 123.106 205.877 121.552L206.142 115.76L192.789 104.031L187.333 104.893Z" fill="#FFCFBF"/>
<path d="M189.133 102.412L192.684 106.798C192.684 106.798 193.175 121.72 205.766 121.426L205.977 116.809L192.624 105.079L189.133 102.412Z" fill="#FFA28E"/>
<path d="M194.799 113.59C196.888 116.335 200.776 119.589 206.952 118.173C213.655 117.368 216.126 111.922 217.264 99.1882C217.847 86.4288 217.068 79.1662 208.929 74.9024L189.526 74.0144L185.384 103.844L186.002 104.378C189.224 107.158 192.221 110.203 194.799 113.59Z" fill="#FFCFBF"/>
<path d="M210.665 93.5854C210.7 93.8389 210.772 94.085 210.829 94.3343L211.017 95.0784L211.395 96.5662C211.642 97.559 211.887 98.5525 212.119 99.5488L212.466 101.044L212.636 101.792C212.693 102.049 212.732 102.337 212.694 102.61C212.631 103.16 212.367 103.685 211.951 104.042C211.746 104.22 211.513 104.371 211.257 104.461C211.001 104.553 210.732 104.596 210.465 104.598L210.479 104.596C210.147 104.64 209.815 104.675 209.482 104.714C209.15 104.754 208.818 104.792 208.485 104.823C208.811 104.746 209.138 104.676 209.465 104.607C209.792 104.539 210.119 104.466 210.447 104.401L210.45 104.401L210.461 104.4C210.948 104.367 211.417 104.168 211.756 103.83C212.1 103.5 212.314 103.045 212.354 102.577C212.377 102.339 212.34 102.114 212.288 101.873L212.111 101.126C211.99 100.628 211.881 100.129 211.768 99.6292C211.543 98.6305 211.333 97.6285 211.138 96.623C211.041 96.1201 210.946 95.6166 210.864 95.1106L210.745 94.3506C210.708 94.0975 210.668 93.8424 210.665 93.5854ZM201.57 93.3714C201.655 93.1255 201.795 92.9177 201.952 92.7254C202.11 92.5346 202.295 92.3663 202.5 92.2203C202.911 91.9325 203.418 91.7329 203.973 91.7144C204.248 91.7046 204.533 91.741 204.8 91.8346C205.066 91.9276 205.314 92.0667 205.518 92.2447C205.924 92.6063 206.176 93.0754 206.224 93.5846C205.765 93.3546 205.39 93.154 205.033 93.0393C204.675 92.9286 204.356 92.886 204.01 92.8985C203.666 92.9099 203.295 92.9697 202.893 93.0613C202.489 93.151 202.068 93.2688 201.57 93.3714ZM198.388 89.1893C198.63 88.7372 198.958 88.3502 199.314 87.9919C199.673 87.6358 200.074 87.3197 200.509 87.0461C201.379 86.5053 202.409 86.1329 203.513 86.0947C204.062 86.0735 204.625 86.1446 205.156 86.3161C205.685 86.4893 206.184 86.7459 206.61 87.0809C206.719 87.161 206.814 87.2575 206.914 87.3459L207.061 87.4807C207.107 87.5283 207.15 87.5796 207.194 87.6291C207.28 87.7293 207.368 87.8264 207.45 87.9278L207.671 88.249C207.82 88.459 207.926 88.6969 208.038 88.9229C208.143 89.1542 208.218 89.4007 208.287 89.6425C207.461 89.0517 206.708 88.5273 205.93 88.1937C205.15 87.8688 204.376 87.7191 203.565 87.7526C202.756 87.7784 201.917 87.9575 201.06 88.2238C200.198 88.4889 199.333 88.8322 198.388 89.1893ZM210.723 89.2762C210.841 88.9332 211.035 88.6435 211.252 88.3753C211.473 88.1092 211.729 87.8745 212.015 87.6709C212.585 87.2662 213.293 86.9935 214.065 86.9657C214.834 86.9267 215.65 87.2065 216.218 87.7049C216.291 87.764 216.353 87.8352 216.419 87.9006L216.515 88.0001C216.545 88.0348 216.572 88.0726 216.6 88.1089C216.655 88.1827 216.711 88.2534 216.761 88.328L216.894 88.5621C217.06 88.8772 217.165 89.2158 217.197 89.5724C216.557 89.2537 216.035 88.976 215.537 88.8175C215.038 88.6676 214.599 88.6043 214.118 88.6234C213.639 88.6373 213.125 88.7252 212.565 88.8484C212.003 88.9724 211.417 89.1351 210.723 89.2762ZM212.872 94.1525C213.042 93.7336 213.338 93.4036 213.69 93.1382C214.045 92.8789 214.478 92.6835 214.97 92.6458C215.458 92.604 216.005 92.7691 216.363 93.1118C216.722 93.4501 216.906 93.8913 216.917 94.3377C216.545 94.0849 216.231 93.8693 215.927 93.7549C215.625 93.6369 215.35 93.6137 215.041 93.631C214.733 93.6527 214.397 93.7301 214.039 93.8291C213.679 93.9276 213.305 94.047 212.872 94.1525Z" fill="#1D1C1C"/>
<path d="M205.12 94.7739C205.084 95.5709 204.555 96.1943 203.94 96.1661C203.324 96.1379 202.855 95.469 202.891 94.672C202.928 93.875 203.456 93.2518 204.072 93.28C204.687 93.308 205.157 93.977 205.12 94.7739ZM215.195 95.5884C215.162 96.3106 214.683 96.8755 214.125 96.8499C213.567 96.8244 213.142 96.2182 213.175 95.496C213.208 94.7738 213.687 94.2089 214.244 94.2345C214.802 94.26 215.228 94.8662 215.195 95.5884ZM205.064 107.859C205.064 107.859 203.491 110.614 205.85 111.664C208.014 112.517 208.8 109.893 208.8 109.893C208.8 109.893 206.965 110.286 205.064 107.859Z" fill="#1D1C1C"/>
<path d="M210.333 109.535C209.772 109.832 209.145 110.008 208.488 110.042C207.836 110.076 207.139 109.938 206.551 109.578C205.96 109.225 205.508 108.674 205.24 108.074C204.974 107.471 204.844 106.82 204.907 106.184C205.119 106.781 205.372 107.334 205.696 107.824C206.017 108.314 206.416 108.726 206.893 109.012C207.366 109.302 207.919 109.461 208.503 109.524C209.088 109.594 209.7 109.567 210.333 109.535ZM191.625 89.6561C191.625 89.6561 197.918 79.7183 198.902 79.6199C199.885 79.5215 203.622 78.1439 209.423 84.1461C215.224 90.1481 230.367 85.8187 227.418 79.0296C224.468 72.2404 219.355 76.373 219.355 76.373C219.355 76.373 228.302 75.389 223.583 67.7142C218.863 60.0393 217.781 70.666 210.308 68.8949C202.835 67.1239 188.676 62.0073 185.922 69.4852C183.169 76.9633 185.431 78.6359 185.431 78.6359C185.431 78.6359 174.418 77.8488 176.286 87.885C178.253 97.8228 185.136 99.2004 185.136 99.2004L191.625 89.6561Z" fill="#1D1C1C"/>
<path d="M194.606 95.4352C194.903 88.948 192.123 83.5508 188.396 83.3803C184.67 83.2097 181.41 88.3304 181.113 94.8176C180.816 101.305 183.597 106.702 187.323 106.873C191.049 107.043 194.31 101.922 194.606 95.4352Z" fill="#BD2710"/>
<path d="M193.441 95.3033C193.738 88.8161 190.958 83.4192 187.232 83.2488C183.506 83.0785 180.245 88.1993 179.948 94.6865C179.651 101.174 182.431 106.571 186.157 106.741C189.883 106.911 193.144 101.791 193.441 95.3033Z" fill="#FF6D60"/>
<path d="M184.806 91.8345C184.889 90.0159 184.109 88.5028 183.065 88.455C182.02 88.4072 181.106 89.8427 181.023 91.6614C180.94 93.48 181.719 94.9931 182.764 95.0409C183.808 95.0887 184.722 93.6532 184.806 91.8345Z" fill="white"/>
<path d="M189.708 103.48C189.694 103.792 192.649 110.967 200.601 109.688C200.555 110.703 200.555 110.703 200.555 110.703C200.555 110.703 192.432 112.286 188.577 104.289C185.994 97.5227 189.708 103.48 189.708 103.48Z" fill="#FF6D60"/>
<path d="M202.586 110.659C202.624 109.819 201.87 109.101 200.9 109.057C199.931 109.012 199.114 109.658 199.076 110.499C199.037 111.339 199.792 112.056 200.761 112.101C201.73 112.145 202.547 111.5 202.586 110.659Z" fill="#BD2710"/>
<path d="M188.823 86.9373C189.007 86.3202 191.934 66.7449 205.796 67.8487C202.698 67.2376 192.821 64.4393 187.292 86.2415C188.227 86.2844 188.823 86.9373 188.823 86.9373Z" fill="#BD2710"/>
<path d="M186.504 86.362C186.504 86.362 188.127 64.5372 200.379 66.6623C205.796 67.8487 205.796 67.8487 205.796 67.8487C205.796 67.8487 191.17 62.9559 188.305 88.0086C187.561 87.1925 186.504 86.362 186.504 86.362Z" fill="#FF6D60"/>
<path d="M161.209 217.349C161.209 217.349 160.684 229.419 163.831 229.944C170.124 224.433 215.225 217.349 215.225 217.349C215.225 217.349 161.209 217.087 161.209 217.349Z" fill="#FFC968"/>
<path d="M225.833 194.076C225.216 193.953 224.607 193.805 224.002 193.646C223.396 193.487 222.794 193.317 222.195 193.138C221.895 193.052 221.597 192.957 221.299 192.863C221.001 192.769 220.702 192.679 220.406 192.577L219.517 192.281L218.632 191.969L218.686 191.979L217.907 191.904C217.648 191.88 217.389 191.847 217.13 191.818C216.87 191.79 216.612 191.752 216.353 191.719C216.094 191.682 215.835 191.642 215.577 191.597C215.839 191.58 216.1 191.569 216.362 191.561C216.623 191.556 216.884 191.546 217.145 191.547C217.406 191.546 217.667 191.541 217.927 191.546L218.709 191.557L218.73 191.557L218.763 191.567L219.662 191.832L220.556 192.112C220.855 192.204 221.151 192.306 221.447 192.404C221.744 192.502 222.041 192.6 222.335 192.706C222.925 192.911 223.513 193.126 224.096 193.352C224.68 193.578 225.26 193.815 225.833 194.076Z" fill="#FFA28E"/>
<path d="M154.236 130.63C154.236 130.63 147.457 140.76 146.301 152.758C138.433 189.984 136.405 196.334 149.449 201.843C161.036 201.727 168.117 188.553 165.216 181.932C164.582 173.463 168.506 145.887 168.506 145.887C168.506 145.887 168.628 123.473 154.236 130.63Z" fill="#FFC968"/>
<path d="M158.756 127.782C160.076 127.409 161.436 127.122 162.824 127.09C163.517 127.073 164.215 127.112 164.902 127.242C165.59 127.37 166.264 127.589 166.897 127.904C167.53 128.218 168.108 128.643 168.617 129.136C169.128 129.63 169.552 130.207 169.908 130.817C170.618 132.044 171.043 133.405 171.311 134.775C171.579 136.149 171.686 137.544 171.711 138.934C171.733 140.324 171.669 141.712 171.549 143.093C171.303 145.855 170.83 148.585 170.257 151.287C169.969 152.639 169.647 153.981 169.299 155.317C169.127 155.985 168.946 156.654 168.766 157.308C168.674 157.636 168.613 157.972 168.536 158.303L168.315 159.3C168.032 160.641 167.756 161.983 167.511 163.33C167.253 164.675 167.028 166.026 166.82 167.378C166.41 170.084 166.113 172.805 165.967 175.53C165.9 176.892 165.872 178.256 165.923 179.614C165.948 180.292 165.991 180.97 166.062 181.641C166.096 181.977 166.142 182.31 166.191 182.642C166.217 182.807 166.245 182.971 166.277 183.134C166.308 183.292 166.347 183.465 166.383 183.596L166.05 183.319L184.021 185.672L193.006 186.852L197.5 187.432L199.748 187.715C200.498 187.803 201.247 187.901 202 187.953C201.245 187.927 200.493 187.856 199.74 187.795L197.483 187.59L192.973 187.141C189.967 186.83 186.963 186.507 183.96 186.178L174.953 185.166L165.95 184.117L165.692 184.086L165.617 183.839C165.557 183.64 165.52 183.478 165.481 183.3C165.443 183.126 165.409 182.952 165.378 182.778C165.318 182.431 165.266 182.083 165.227 181.736C165.144 181.041 165.092 180.346 165.058 179.651C164.988 178.262 165 176.874 165.051 175.489C165.103 174.105 165.205 172.724 165.347 171.349C165.489 169.973 165.657 168.601 165.861 167.235C166.065 165.87 166.287 164.506 166.541 163.15C166.791 161.792 167.076 160.443 167.366 159.094L167.595 158.079C167.676 157.742 167.74 157.4 167.834 157.067C168.022 156.396 168.203 155.738 168.377 155.076C168.724 153.752 169.051 152.422 169.356 151.089C169.96 148.421 170.449 145.727 170.74 143.015C171.029 140.307 171.116 137.56 170.689 134.888C170.468 133.558 170.096 132.246 169.458 131.07C169.137 130.486 168.761 129.93 168.299 129.451C167.839 128.972 167.312 128.553 166.723 128.235C165.547 127.593 164.185 127.316 162.825 127.296C161.461 127.274 160.094 127.476 158.756 127.782Z" fill="#ED9636"/>
<path d="M159.336 183.558C159.336 183.558 162.464 182.729 168.581 184.885C176.681 186.843 201.605 187.888 201.605 187.888L200.477 199.123C200.477 199.123 170.697 206.886 161.48 204.797C152.262 202.708 149.213 202.597 147.034 200.81C148.777 196.111 159.336 183.558 159.336 183.558Z" fill="#FFC968"/>
<path d="M139.94 190.085C139.94 190.085 145.997 202.451 156.714 201.648C167.431 200.845 182.751 199.3 200.761 196.46C200.505 199.598 200.17 200.192 200.17 200.192C200.17 200.192 177.276 206.011 168.999 208.496C158.827 209.945 141.176 206.058 139.94 190.085Z" fill="#FFA647"/>
<path d="M165.894 184.2C165.6 184.135 165.26 184.082 164.936 184.041C164.607 184.001 164.276 183.968 163.944 183.949C163.28 183.907 162.611 183.903 161.944 183.938C160.61 184.004 159.283 184.232 157.999 184.609C157.358 184.802 156.731 185.038 156.116 185.307C155.505 185.582 154.912 185.897 154.338 186.247C153.196 186.956 152.148 187.82 151.214 188.797L150.489 189.556L150.904 188.601C151.567 187.073 152.278 185.57 153.01 184.078C153.743 182.587 154.496 181.107 155.272 179.638C154.552 181.135 153.855 182.642 153.179 184.158C152.504 185.674 151.851 187.2 151.249 188.743L150.939 188.546C151.855 187.511 152.899 186.582 154.053 185.804C154.633 185.42 155.236 185.07 155.86 184.76C156.488 184.458 157.132 184.187 157.792 183.961C159.116 183.518 160.492 183.227 161.885 183.106C162.582 183.043 163.282 183.021 163.983 183.039C164.334 183.046 164.685 183.067 165.036 183.097C165.212 183.112 165.387 183.131 165.563 183.153C165.742 183.175 165.91 183.199 166.105 183.236L165.894 184.2Z" fill="#ED9636"/>
<path d="M153.67 199.77C148.557 198.982 144.034 193.472 145.214 173.203C146.901 150.415 154.664 133.854 156.839 129.604C156.028 129.833 155.163 130.169 154.236 130.63C154.236 130.63 147.457 140.76 146.301 152.758C140.068 182.249 137.502 192.362 143.19 198.03C149.134 199.07 155.86 200.231 153.67 199.77Z" fill="#FFA647"/>
<path d="M198.902 79.6197C199.405 79.1704 199.951 78.7694 200.516 78.3973C201.082 78.0268 201.668 77.6858 202.274 77.3802C203.488 76.7768 204.784 76.3114 206.135 76.0852C207.482 75.8424 208.885 75.866 210.231 76.1661C210.401 76.1956 210.565 76.2506 210.732 76.2958C210.897 76.3441 211.065 76.3859 211.225 76.4502L211.711 76.6279C211.87 76.6942 212.026 76.7682 212.184 76.8381L212.42 76.9446L212.647 77.0672L213.102 77.3137C213.389 77.4985 213.69 77.6826 213.964 77.8714C215.067 78.6351 216.195 79.3602 217.362 80.0133C218.525 80.6708 219.733 81.2528 220.995 81.6656C221.625 81.8692 222.273 82.0192 222.927 82.0819C223.581 82.1495 224.245 82.0973 224.865 81.8925C225.17 81.7813 225.473 81.6489 225.737 81.4531L225.839 81.3843L225.934 81.3053C225.996 81.2522 226.061 81.2007 226.123 81.1462C226.235 81.0256 226.362 80.9171 226.46 80.7831C226.882 80.2702 227.19 79.6631 227.418 79.0292C227.241 79.6791 226.972 80.3136 226.563 80.8642C226.165 81.4213 225.593 81.8606 224.948 82.1198C224.297 82.3677 223.591 82.4477 222.904 82.4048C222.214 82.3668 221.539 82.2237 220.882 82.0343C219.566 81.6526 218.33 81.0656 217.136 80.4227C215.944 79.7718 214.801 79.0417 213.684 78.2779C213.405 78.0832 213.131 77.9152 212.853 77.7334L212.421 77.4959L212.204 77.3775L211.98 77.275C211.39 76.9817 210.76 76.7852 210.125 76.6201C208.847 76.3089 207.506 76.2734 206.195 76.4644C204.882 76.6509 203.598 77.0549 202.376 77.5979C201.15 78.135 199.982 78.8144 198.902 79.6197Z" fill="#4D5282"/>
<path d="M198.05 79.8589C198.172 79.1851 198.334 78.5186 198.524 77.8595C198.714 77.2006 198.929 76.548 199.179 75.907C199.434 75.2678 199.725 74.6416 200.069 74.0408C200.415 73.4424 200.816 72.867 201.314 72.3691C201.378 72.3077 201.438 72.2438 201.504 72.1846L201.708 72.0144C201.839 71.8948 201.996 71.8066 202.142 71.7035C202.451 71.5247 202.784 71.3696 203.142 71.3008C203.496 71.2098 203.867 71.2222 204.226 71.2597C204.404 71.2921 204.581 71.333 204.755 71.3788C204.922 71.4413 205.095 71.5007 205.256 71.5674C206.509 72.1257 207.743 72.7121 208.988 73.2755C210.229 73.8469 211.476 74.4033 212.734 74.9302C213.99 75.4624 215.262 75.9543 216.551 76.3914C217.197 76.608 217.848 76.8035 218.508 76.9633C219.167 77.1216 219.837 77.2444 220.51 77.2796C220.846 77.2966 221.184 77.2907 221.512 77.232C221.837 77.1706 222.164 77.0666 222.42 76.8555C222.682 76.6532 222.85 76.3469 222.926 76.0196C223.007 75.6914 222.998 75.344 222.96 75.0051C223.019 75.3411 223.05 75.6893 222.987 76.0324C222.926 76.373 222.763 76.7085 222.49 76.9397C222.225 77.1795 221.882 77.3058 221.543 77.3856C221.201 77.4631 220.851 77.4846 220.504 77.4829C219.809 77.4693 219.124 77.3603 218.451 77.219C217.777 77.0756 217.112 76.8961 216.455 76.6957C213.827 75.8847 211.309 74.7822 208.816 73.6528L205.096 71.9251C204.943 71.8594 204.792 71.8066 204.64 71.7459C204.485 71.7034 204.328 71.6647 204.171 71.6328C203.854 71.597 203.529 71.5789 203.217 71.6558C202.585 71.776 202.016 72.1438 201.535 72.5976C201.052 73.0539 200.647 73.5994 200.293 74.1743C199.94 74.7516 199.638 75.3619 199.366 75.9852C198.814 77.2302 198.389 78.5336 198.05 79.8589Z" fill="#4D5282"/>
<path d="M224.271 251.057H139.444V230.328H224.271C229.991 230.328 234.629 234.968 234.629 240.692C234.628 246.416 229.991 251.057 224.271 251.057Z" fill="#657296"/>
<path d="M188.217 230.328H139.707V251.057H188.217V230.328Z" fill="#4D5282"/>
<path d="M453.47 72.2573L453.576 86.38C453.586 87.6403 453.155 88.8645 452.357 89.8402L451.847 90.4632C450.179 92.5044 447.682 93.6882 445.046 93.6882C443.018 93.6882 441.052 92.9859 439.482 91.7006L439.026 91.3276C438.517 90.911 438.078 90.4271 437.717 89.8941C436.968 88.7894 436.555 87.4741 436.555 86.1101V81.0245L448.724 71.2832L453.47 72.2573Z" fill="#FFCFBF"/>
<path d="M451.992 70.0117L448.705 73.712C448.705 73.712 447.678 86.7657 436.658 86.0039V81.9495L448.827 72.2081L451.992 70.0117Z" fill="#FFA28E"/>
<path d="M452.694 37.2424C452.694 37.2424 450.747 29.9364 459.508 27.9883C463.288 27.1477 467.202 28.6475 469.517 31.6987C473.332 36.7266 471.317 43.9426 475.621 48.6089C478.265 51.4751 482.713 51.9523 484.121 55.9962C485.309 59.4104 484.047 63.5696 480.925 65.4921C475.084 68.9015 467.296 67.4404 461.455 58.1862C455.614 48.932 452.694 37.2424 452.694 37.2424Z" fill="#1D1C1C"/>
<path d="M446.581 79.5774C444.64 81.899 441.103 84.5943 435.749 83.1061C429.908 82.1321 427.961 77.2614 427.475 66.059C427.475 54.8565 428.448 48.5246 435.749 45.1152H452.785L455.219 71.4167L454.656 71.859C451.722 74.1657 448.975 76.7138 446.581 79.5774Z" fill="#FFCFBF"/>
<path d="M435.66 45.1716C435.66 45.1716 439.195 44.3159 440.655 49.6736C442.115 55.0312 444.062 64.7726 449.903 65.2596C449.903 70.1303 451.363 79.3844 460.125 79.8716C464.505 79.3845 471.32 76.9492 471.32 67.6949C469.373 61.3632 463.045 63.3113 463.532 57.9536C464.018 52.5959 468.886 42.8546 454.283 36.5228C451.363 36.0358 446.982 34.5745 440.655 39.4452C438.708 40.9065 438.221 39.9322 436.274 38.4711C435.03 37.5375 431.601 37.0016 428.271 39.0228C424.452 41.3404 422.744 46.0141 423.929 50.3242C424.475 52.3141 425.451 54.6829 424.279 56.6971C423.199 58.5541 421.806 59.6789 421.401 61.9431C420.679 65.9831 423.592 68.9654 427.647 69.0181C427.404 63.9037 426.073 51.2703 435.66 45.1716Z" fill="#1D1C1C"/>
<path d="M433.481 61.4144C433.467 61.6396 433.422 61.8613 433.38 62.082L433.245 62.743C433.152 63.1829 433.049 63.6203 432.945 64.0571C432.733 64.9302 432.509 65.7999 432.272 66.6658C432.153 67.0988 432.037 67.5324 431.912 67.9634L431.726 68.6109C431.671 68.8198 431.629 69.016 431.641 69.225C431.657 69.6364 431.825 70.0435 432.114 70.3473C432.397 70.6569 432.8 70.8495 433.226 70.8981L433.236 70.8992L433.238 70.8997L434.09 71.1197C434.374 71.1927 434.658 71.2678 434.94 71.3479C434.649 71.3069 434.36 71.261 434.07 71.2127L433.202 71.0692L433.214 71.071C432.98 71.0593 432.746 71.0101 432.526 70.9198C432.305 70.8306 432.107 70.6891 431.934 70.5244C431.584 70.195 431.374 69.7245 431.341 69.2405C431.318 68.9995 431.364 68.7488 431.424 68.5257L431.603 67.8768L431.967 66.5812C432.211 65.7175 432.465 64.8569 432.721 63.9969L433.111 62.7085C433.24 62.2786 433.383 61.852 433.481 61.4144ZM441.457 61.5917C441.026 61.4803 440.661 61.3625 440.311 61.2668C439.963 61.1704 439.64 61.1024 439.339 61.0792C439.036 61.0542 438.755 61.0788 438.437 61.1616C438.12 61.2485 437.781 61.4073 437.372 61.5915C437.435 61.1484 437.673 60.7456 438.043 60.4459C438.416 60.1511 438.936 59.9959 439.419 60.0435C439.904 60.0827 440.341 60.2771 440.689 60.5458C441.034 60.8195 441.316 61.1621 441.457 61.5917ZM442.541 57.5795C442.074 57.3845 441.647 57.1995 441.224 57.0501C440.802 56.9009 440.39 56.7947 439.99 56.7636C439.589 56.729 439.204 56.7833 438.809 56.9238C438.415 57.0692 438.024 57.3076 437.593 57.5795C437.735 57.0915 438.042 56.6498 438.481 56.3269C438.921 56.0098 439.506 55.8465 440.057 55.8998C440.61 55.9441 441.117 56.1558 441.539 56.4486C441.958 56.7466 442.316 57.1192 442.541 57.5795ZM432.867 57.4499C432.399 57.255 431.972 57.0698 431.549 56.9204C431.128 56.7712 430.715 56.665 430.316 56.6338C429.915 56.5991 429.53 56.6537 429.134 56.794C428.74 56.9394 428.349 57.1778 427.918 57.4497C428.06 56.9619 428.367 56.52 428.806 56.1971C429.247 55.8802 429.831 55.7167 430.382 55.7699C430.935 55.8145 431.443 56.0262 431.864 56.3188C432.283 56.617 432.641 56.9895 432.867 57.4499ZM431.524 61.8228C431.149 61.7131 430.826 61.5933 430.514 61.4925C430.205 61.3915 429.913 61.3102 429.644 61.2788C429.375 61.2515 429.132 61.2605 428.863 61.3518C428.592 61.4399 428.309 61.6163 427.973 61.8228C428 61.4323 428.179 61.053 428.507 60.7711C428.834 60.4852 429.32 60.3625 429.746 60.4185C430.176 60.4715 430.547 60.6599 430.848 60.9012C431.146 61.1479 431.392 61.4491 431.524 61.8228Z" fill="#1D1C1C"/>
<path d="M438.291 62.6782C438.291 63.3779 438.729 63.9452 439.269 63.9452C439.81 63.9452 440.248 63.3779 440.248 62.6782C440.248 61.9784 439.81 61.4111 439.269 61.4111C438.729 61.4113 438.291 61.9784 438.291 62.6782ZM429.432 62.988C429.432 63.6221 429.828 64.1362 430.318 64.1362C430.808 64.1362 431.205 63.6221 431.205 62.988C431.205 62.3538 430.808 61.8397 430.318 61.8397C429.829 61.8397 429.432 62.3538 429.432 62.988Z" fill="#1D1C1C"/>
<path d="M437.892 73.2449C437.892 73.2449 435.847 72.5139 435.409 74.7066C434.435 74.0731 433.364 74.0731 433.607 75.4863C434.532 75.7301 437.016 76.0711 437.892 73.2449Z" fill="#FF6D60"/>
<path d="M434.213 75.7479C434.213 75.7479 433.147 77.1588 434.694 77.503C436.242 77.8471 438.89 76.2986 437.892 73.5457C437.308 74.5092 436.826 75.9544 434.213 75.7479Z" fill="#FFA28E"/>
<path d="M438.021 72.6841C438.05 73.2438 437.91 73.8085 437.653 74.3257C437.393 74.8405 436.976 75.3054 436.444 75.5912C435.916 75.8837 435.299 75.9771 434.729 75.9209C434.155 75.8656 433.612 75.6856 433.132 75.402C433.686 75.4548 434.221 75.5027 434.736 75.465C435.25 75.4336 435.741 75.3164 436.168 75.0817C436.597 74.8509 436.964 74.506 437.265 74.0898C437.568 73.6734 437.812 73.1981 438.021 72.6841Z" fill="#1D1C1C"/>
<path d="M453.087 75.1164C456.359 75.1164 459.011 70.4992 459.011 64.8036C459.011 59.1079 456.359 54.4907 453.087 54.4907C449.816 54.4907 447.164 59.1079 447.164 64.8036C447.164 70.4992 449.816 75.1164 453.087 75.1164Z" fill="#BD2710"/>
<path d="M454.115 75.0481C457.386 75.0481 460.038 70.4308 460.038 64.7352C460.038 59.0396 457.386 54.4224 454.115 54.4224C450.843 54.4224 448.191 59.0396 448.191 64.7352C448.191 70.4308 450.843 75.0481 454.115 75.0481Z" fill="#FF6D60"/>
<path d="M457.556 64.9329C458.473 64.9329 459.216 63.6385 459.216 62.0418C459.216 60.445 458.473 59.1506 457.556 59.1506C456.639 59.1506 455.895 60.445 455.895 62.0418C455.895 63.6385 456.639 64.9329 457.556 64.9329Z" fill="white"/>
<path d="M451.136 72.033C451.136 72.307 448.26 78.4743 441.343 77.0353C441.343 77.9261 441.343 77.9261 441.343 77.9261C441.343 77.9261 448.397 79.6392 452.094 72.7868C454.628 66.9621 451.136 72.033 451.136 72.033Z" fill="#FF6D60"/>
<path d="M441.104 79.1594C441.955 79.1594 442.644 78.5611 442.644 77.8232C442.644 77.0853 441.955 76.4871 441.104 76.4871C440.253 76.4871 439.563 77.0853 439.563 77.8232C439.563 78.5611 440.253 79.1594 441.104 79.1594Z" fill="#BD2710"/>
<path d="M435.659 45.1717C435.345 45.0354 435.015 44.9399 434.682 44.8654C434.35 44.7907 434.011 44.7434 433.672 44.7254C432.995 44.6869 432.313 44.7811 431.683 45.01C431.366 45.1197 431.066 45.2732 430.78 45.4451C430.495 45.6208 430.232 45.8285 429.985 46.0546C429.493 46.509 429.092 47.0565 428.754 47.637C428.092 48.8082 427.623 50.1014 427.398 51.4285C427.286 52.0933 427.226 52.7668 427.208 53.4446C427.188 54.1225 427.212 54.8044 427.222 55.4929C427.229 56.1813 427.223 56.8822 427.101 57.584C426.976 58.2821 426.707 58.9789 426.261 59.5461C426.047 59.8364 425.785 60.0816 425.52 60.3175L425.11 60.6425C424.979 60.7451 424.847 60.8468 424.727 60.9617C424.232 61.4042 423.821 61.9364 423.528 62.5299C423.389 62.8294 423.277 63.1416 423.203 63.4639C423.135 63.7873 423.104 64.1178 423.11 64.4484C423.127 65.1096 423.324 65.7671 423.682 66.3296C424.039 66.8912 424.555 67.3572 425.163 67.6537C425.464 67.8093 425.789 67.9153 426.12 67.993C426.45 68.0796 426.792 68.1065 427.134 68.1277C426.451 68.1437 425.75 68.0459 425.114 67.7576C424.475 67.4826 423.912 67.0243 423.505 66.4474C423.104 65.8663 422.87 65.1703 422.827 64.4616C422.806 64.1069 422.832 63.7502 422.897 63.4004C422.968 63.0518 423.08 62.7128 423.222 62.3872C423.372 62.0647 423.552 61.7575 423.761 61.4704C423.976 61.1889 424.208 60.9189 424.471 60.6821C424.597 60.558 424.735 60.4479 424.872 60.3369L425.264 60.0177C425.506 59.7942 425.745 59.5648 425.934 59.2984C426.331 58.7787 426.571 58.1604 426.685 57.5105C426.795 56.8579 426.799 56.1804 426.79 55.4988C426.783 54.8159 426.762 54.1259 426.786 53.4325C426.809 52.7396 426.869 52.0431 426.996 51.357C427.122 50.6708 427.313 49.9965 427.557 49.3442C427.802 48.6921 428.103 48.0623 428.47 47.4667C428.838 46.8743 429.273 46.3147 429.803 45.8528C430.331 45.3908 430.946 45.0216 431.616 44.8104C432.285 44.6024 432.993 44.5403 433.681 44.6121C434.369 44.6809 435.045 44.8648 435.659 45.1717ZM454.115 54.4224C454.151 53.7099 454.235 52.9997 454.349 52.2945C454.464 51.5891 454.608 50.8877 454.79 50.1943C455.162 48.813 455.678 47.452 456.474 46.2356C456.877 45.6331 457.352 45.0665 457.933 44.6107C458.509 44.1521 459.193 43.8169 459.918 43.6533C460.643 43.4827 461.399 43.4977 462.121 43.6246C462.844 43.7548 463.539 43.9951 464.201 44.291L463.915 44.5699C463.841 44.41 463.735 44.2292 463.629 44.0642C463.521 43.8967 463.406 43.7328 463.285 43.5719C463.044 43.2504 462.779 42.9442 462.501 42.6506C461.945 42.0624 461.328 41.5297 460.68 41.0375C459.38 40.0573 457.956 39.2396 456.472 38.5505C455.729 38.2032 454.983 37.8798 454.197 37.6925C453.805 37.6035 453.407 37.5358 453.009 37.5386C452.612 37.5365 452.215 37.6019 451.856 37.7618C451.498 37.9202 451.184 38.1753 450.948 38.4969C450.71 38.8169 450.545 39.1924 450.434 39.5824C450.321 39.9731 450.26 40.3797 450.232 40.7884C450.205 41.1972 450.204 41.61 450.246 42.0198C450.122 41.2063 450.121 40.364 450.312 39.5502C450.409 39.1449 450.562 38.7459 450.801 38.3927C451.037 38.039 451.369 37.7388 451.76 37.5536C452.149 37.3647 452.58 37.2811 453.005 37.2699C453.431 37.2545 453.853 37.31 454.264 37.3953C455.087 37.5716 455.868 37.8887 456.621 38.2236C458.133 38.9003 459.593 39.7098 460.931 40.7041C461.596 41.2053 462.232 41.7497 462.811 42.356C463.1 42.6588 463.376 42.9757 463.63 43.3116C463.758 43.4793 463.879 43.653 463.993 43.8318C464.108 44.0146 464.213 44.1884 464.311 44.4032L464.544 44.9171L464.024 44.6819C463.388 44.3943 462.727 44.1631 462.047 44.0379C461.369 43.9176 460.672 43.8992 460.005 44.0447C459.338 44.1861 458.705 44.4833 458.161 44.9046C457.614 45.3243 457.141 45.8439 456.74 46.4164C455.938 47.568 455.399 48.8965 454.985 50.2498C454.567 51.6065 454.286 53.0073 454.115 54.4224ZM457.093 74.3629C457.789 74.7038 458.513 74.9754 459.251 75.1855C459.989 75.3958 460.743 75.5416 461.5 75.6075C463.013 75.7401 464.559 75.5084 465.896 74.8134C466.567 74.4746 467.186 74.0358 467.742 73.5229C467.88 73.3947 468.009 73.2549 468.143 73.1215C468.209 73.0535 468.277 72.9876 468.342 72.9179L468.524 72.699C468.644 72.5522 468.769 72.409 468.887 72.2593L469.222 71.7955C470.103 70.5458 470.756 69.1373 471.32 67.695C470.927 69.1929 470.355 70.6629 469.502 71.9836L469.179 72.476C469.063 72.6346 468.936 72.7861 468.816 72.9417L468.632 73.1736C468.567 73.2477 468.498 73.3185 468.431 73.3912C468.295 73.5341 468.165 73.6831 468.023 73.821C467.45 74.3678 466.798 74.8349 466.092 75.1999C465.381 75.5578 464.614 75.8053 463.829 75.9247C463.044 76.0408 462.246 76.0453 461.466 75.9424C460.684 75.8449 459.921 75.6484 459.186 75.3867C458.454 75.1169 457.743 74.7875 457.093 74.3629ZM464.832 45.5828C465.14 45.92 465.416 46.2879 465.673 46.6674C465.929 47.0476 466.165 47.4429 466.377 47.8513C466.803 48.6665 467.141 49.5326 467.364 50.4319C467.593 51.3294 467.698 52.2609 467.683 53.1915C467.663 54.1222 467.511 55.0506 467.243 55.9427C466.959 56.8309 466.56 57.6761 466.086 58.4731C465.829 58.8585 465.586 59.2541 465.292 59.6116C465.148 59.7921 465.017 59.9836 464.862 60.1543L464.398 60.6681C463.147 62.0251 461.67 63.1434 460.107 64.0843C461.57 62.9937 462.968 61.8142 464.147 60.4421L464.581 59.9232C464.728 59.7519 464.852 59.5631 464.989 59.384C465.268 59.0296 465.494 58.6401 465.735 58.2615C466.183 57.484 466.563 56.6692 466.83 55.8149C467.361 54.1058 467.416 52.2656 467.036 50.5083C466.848 49.6291 466.562 48.7675 466.187 47.9435C466.006 47.5282 465.796 47.1258 465.572 46.7304C465.345 46.3369 465.105 45.9486 464.832 45.5828ZM458.737 72.4443C459.537 72.0794 460.314 71.6709 461.072 71.2323C461.83 70.7962 462.568 70.3249 463.28 69.8209C463.988 69.3123 464.676 68.7765 465.318 68.1909C465.964 67.61 466.573 66.9882 467.108 66.3084C467.652 65.6355 468.13 64.9122 468.523 64.1448C468.916 63.3761 469.195 62.5552 469.383 61.7138C469.758 60.0214 469.599 58.2434 469.146 56.5468C469.771 58.1851 470.041 60.0103 469.715 61.7781C469.56 62.6593 469.277 63.5182 468.891 64.3269C468.493 65.13 468.001 65.8815 467.446 66.58C466.326 67.9736 464.944 69.125 463.469 70.0991C462.73 70.5865 461.96 71.023 461.172 71.4186C460.38 71.8085 459.573 72.168 458.737 72.4443Z" fill="#4D5282"/>
<path d="M452.437 35.9895C453.214 36.1798 453.969 36.4545 454.707 36.7642C455.446 37.0741 456.168 37.4252 456.872 37.8109C457.575 38.1982 458.255 38.6275 458.912 39.0889C459.245 39.3143 459.563 39.5603 459.885 39.8013C460.045 39.9228 460.199 40.053 460.356 40.1786C460.512 40.3053 460.67 40.4299 460.819 40.5648C462.04 41.6125 463.153 42.79 464.136 44.0669C465.115 45.3477 465.962 46.7282 466.676 48.1726C467.382 49.6211 467.964 51.1303 468.403 52.6789C468.611 53.4544 468.801 54.2333 469.003 55.0094C469.104 55.397 469.176 55.7947 469.263 56.1869C469.335 56.5827 469.405 56.9789 469.466 57.3761C469.58 58.1718 469.676 58.9694 469.735 59.7689C469.798 60.5679 469.842 61.3674 469.89 62.1642C469.938 62.961 469.989 63.7574 470.108 64.5445C470.229 65.3295 470.425 66.111 470.789 66.8251C470.383 66.1333 470.145 65.3515 469.995 64.5644C469.843 63.7755 469.759 62.9767 469.679 62.1806C469.537 60.5866 469.399 58.9974 469.132 57.4293C469.064 57.038 468.987 56.6482 468.907 56.2593C468.815 55.8729 468.741 55.4838 468.634 55.0996C468.424 54.3312 468.225 53.559 468.01 52.7931C467.564 51.2692 466.988 49.7849 466.288 48.3635C465.592 46.9391 464.762 45.5819 463.811 44.3142C462.863 43.043 461.772 41.8828 460.6 40.8137C460.456 40.6769 460.304 40.5504 460.153 40.4215C460.001 40.294 459.853 40.1616 459.697 40.0378C459.386 39.7921 459.078 39.541 458.754 39.3102C458.437 39.07 458.106 38.851 457.778 38.6257C457.444 38.4106 457.11 38.1955 456.767 37.9938C455.402 37.1772 453.959 36.4765 452.437 35.9895Z" fill="#4D5282"/>
<path d="M452.574 57.5744C452.437 57.0262 450.657 39.7581 438.467 40.1694C441.206 39.7582 449.972 37.7025 453.944 57.0263C453.122 57.0262 452.574 57.5744 452.574 57.5744Z" fill="#BD2710"/>
<path d="M454.628 57.1632C454.628 57.1632 454.08 37.9765 443.261 39.3469C438.467 40.1692 438.467 40.1692 438.467 40.1692C438.467 40.1692 451.478 36.4689 452.985 58.5335C453.669 57.8485 454.628 57.1632 454.628 57.1632Z" fill="#FF6D60"/>
<path d="M429.291 39.1413C427.98 39.5898 426.757 40.2811 425.708 41.1663C424.657 42.0475 423.789 43.1477 423.249 44.3982C422.713 45.6476 422.461 47.0135 422.505 48.376C422.519 49.057 422.569 49.7549 422.616 50.4422C422.666 51.1318 422.728 51.8204 422.799 52.5086C422.866 53.1976 422.948 53.8844 423.009 54.5825C423.037 54.932 423.061 55.2856 423.04 55.6519C423.022 56.0135 422.937 56.4089 422.727 56.7369C422.522 57.0675 422.242 57.3137 421.964 57.5353C421.683 57.7562 421.393 57.9529 421.104 58.1466L420.887 58.2912L420.689 58.4362C420.621 58.4819 420.566 58.5435 420.504 58.5963L420.413 58.6784L420.33 58.769C420.102 59.0051 419.918 59.2827 419.775 59.5815C419.481 60.1772 419.361 60.8557 419.353 61.5298C419.348 62.2066 419.466 62.8864 419.686 63.5312C419.909 64.1733 420.233 64.7922 420.704 65.2887C420.938 65.5363 421.209 65.7521 421.516 65.9044C421.821 66.0593 422.164 66.1449 422.512 66.14C422.165 66.1669 421.811 66.103 421.489 65.9639C421.166 65.8235 420.876 65.6135 420.623 65.3698C420.113 64.8803 419.748 64.2584 419.487 63.6045C419.234 62.9454 419.089 62.2436 419.07 61.5324C419.054 60.8235 419.166 60.0972 419.47 59.4373C419.618 59.1073 419.815 58.7944 420.062 58.5241L420.152 58.4212L420.253 58.3274C420.321 58.2672 420.383 58.198 420.458 58.1453L420.677 57.9799L420.891 57.8323C421.175 57.6368 421.456 57.4392 421.718 57.2273C421.977 57.0151 422.221 56.7882 422.377 56.523C422.701 55.9988 422.64 55.2953 422.587 54.6184C422.525 53.9346 422.439 53.2438 422.369 52.5522C422.301 51.86 422.242 51.1662 422.195 50.4719C422.152 49.775 422.101 49.0882 422.097 48.3815C422.086 48.0287 422.115 47.6755 422.135 47.323L422.198 46.7963C422.218 46.6205 422.259 46.4478 422.289 46.2735C422.426 45.5793 422.646 44.9007 422.948 44.2609C423.547 42.9772 424.475 41.8672 425.575 41.0022C426.13 40.5743 426.726 40.2039 427.348 39.8893C427.969 39.5762 428.618 39.3135 429.291 39.1413ZM452.711 34.8244C452.513 34.2501 452.409 33.6415 452.382 33.0276C452.356 32.4137 452.422 31.7879 452.61 31.1885C452.788 30.5868 453.118 30.0232 453.558 29.5636C453.999 29.103 454.548 28.7602 455.126 28.5146C455.71 28.2786 456.323 28.1526 456.935 28.0663C457.55 28.0117 458.166 27.9807 458.777 28.0276C459.999 28.098 461.2 28.328 462.366 28.6572C461.163 28.5044 459.964 28.3714 458.767 28.3656C458.169 28.3593 457.575 28.3979 456.988 28.4732C456.406 28.5677 455.828 28.6907 455.29 28.9152C454.753 29.1354 454.257 29.445 453.85 29.8498C453.795 29.8966 453.747 29.9495 453.702 30.0052L453.561 30.168C453.468 30.2778 453.394 30.4019 453.309 30.5183C453.239 30.6436 453.165 30.7682 453.1 30.8977C453.044 31.0311 452.972 31.1583 452.928 31.298C452.728 31.8451 452.617 32.4329 452.594 33.0284C452.562 33.6244 452.606 34.2276 452.711 34.8244ZM467.913 30.4045C469.526 29.9557 471.362 30.3613 472.668 31.4572C472.996 31.7266 473.295 32.0322 473.559 32.3641C473.832 32.6903 474.06 33.0493 474.279 33.412C474.702 34.147 475.022 34.9353 475.278 35.7395C475.779 37.3507 476.036 39.0379 476.045 40.7279C476.053 41.5728 475.985 42.4151 475.904 43.2483C475.827 44.0805 475.715 44.9101 475.752 45.7136C475.772 46.1137 475.839 46.5054 475.989 46.8609C476.137 47.217 476.37 47.5323 476.656 47.8019C476.946 48.0693 477.285 48.2883 477.636 48.4884C477.995 48.6772 478.365 48.8503 478.749 48.9982C478.94 49.0723 479.132 49.1476 479.332 49.2308L479.628 49.3522C479.726 49.3961 479.82 49.4466 479.916 49.4937L480.203 49.638L480.479 49.8031C480.666 49.9075 480.839 50.0352 481.013 50.1597L481.144 50.2529L481.268 50.3562L481.514 50.5627C481.672 50.7073 481.826 50.8583 481.974 51.0134C482.111 51.1785 482.262 51.3316 482.383 51.5091L482.574 51.7681L482.745 52.0402C483.199 52.7674 483.493 53.5845 483.657 54.4179C483.731 54.8365 483.784 55.2591 483.79 55.6833C483.805 56.1071 483.781 56.5313 483.727 56.9507C483.617 57.7891 483.378 58.6104 483.002 59.3646C482.623 60.1115 482.092 60.8092 481.369 61.2401C481.718 61.009 482.014 60.7089 482.264 60.3793C482.515 60.0496 482.729 59.6924 482.899 59.3148C483.239 58.5599 483.441 57.7472 483.516 56.9266C483.675 55.2903 483.342 53.5916 482.459 52.2195C482.019 51.5355 481.454 50.9345 480.79 50.4666C480.624 50.351 480.459 50.2317 480.28 50.1353L480.017 49.9818L479.743 49.8481C479.651 49.8048 479.56 49.7577 479.467 49.717L479.183 49.6049C478.997 49.5299 478.8 49.4551 478.6 49.3804C478.203 49.2344 477.816 49.0532 477.436 48.8556C477.061 48.6446 476.694 48.4107 476.367 48.112C476.045 47.8113 475.769 47.4428 475.594 47.0274C475.417 46.6129 475.342 46.1683 475.32 45.7363C475.285 44.8684 475.404 44.0345 475.484 43.2062C475.569 42.3783 475.633 41.5533 475.636 40.7274C475.652 39.0761 475.405 37.4274 474.961 35.8354C474.73 35.0435 474.436 34.2681 474.042 33.5454C473.838 33.1893 473.625 32.8356 473.369 32.5148C473.249 32.3481 473.108 32.1987 472.974 32.0441C472.829 31.8996 472.689 31.7486 472.531 31.618C471.923 31.068 471.178 30.6708 470.38 30.4616C469.98 30.3579 469.568 30.2988 469.153 30.2907C468.738 30.2799 468.319 30.3092 467.913 30.4045ZM478.801 65.7631C478.263 66.4057 477.634 66.9691 476.964 67.4775C476.293 67.9846 475.571 68.4295 474.803 68.7874C474.416 68.9598 474.023 69.1217 473.615 69.2437C473.206 69.3606 472.792 69.4653 472.368 69.5129C471.945 69.564 471.517 69.5741 471.095 69.5389C470.672 69.4926 470.257 69.4047 469.865 69.2579C470.281 69.3115 470.692 69.3398 471.101 69.3264C471.511 69.3112 471.915 69.2558 472.314 69.1793C473.11 69.0118 473.882 68.7415 474.621 68.3944C474.995 68.2285 475.357 68.0366 475.714 67.8355C476.074 67.6385 476.423 67.4204 476.772 67.2012C477.465 66.7538 478.14 66.2747 478.801 65.7631Z" fill="#1D1C1C"/>
<path d="M387.819 127.54C390.144 126.96 391.148 122.955 390.061 118.593C388.975 114.232 386.21 111.166 383.885 111.745C381.561 112.325 380.557 116.331 381.643 120.692C382.729 125.054 385.494 128.12 387.819 127.54Z" fill="white"/>
<path d="M425.573 142.313H460.689L423.662 138.907L425.573 142.313Z" fill="#9C9C9C"/>
<path d="M436.541 87.0685C436.767 88.0219 437.196 88.8999 437.749 89.6657C438.302 90.4332 438.996 91.0755 439.774 91.5813C440.161 91.8372 440.577 92.0454 440.998 92.2394C441.215 92.3252 441.425 92.4222 441.648 92.4924L441.978 92.6078L442.313 92.7061C443.211 92.9621 444.143 93.1118 445.086 93.1827L444.965 93.1878C445.978 93.021 446.974 92.8627 447.927 92.5986C448.879 92.3398 449.785 91.9628 450.571 91.4036C451.359 90.8473 452.007 90.0932 452.489 89.2207C452.736 88.7873 452.938 88.324 453.118 87.8483C453.205 87.6091 453.291 87.3683 453.361 87.1219C453.446 86.8786 453.501 86.6278 453.577 86.3796C453.552 86.8958 453.497 87.4136 453.395 87.9267C453.291 88.439 453.143 88.9458 452.949 89.4409C452.557 90.4277 451.914 91.3482 451.067 92.0441C450.226 92.7478 449.217 93.2153 448.201 93.5322C447.179 93.8459 446.143 94.0258 445.127 94.188L445.066 94.1978L445.007 94.193C444.005 94.1128 443.002 93.935 442.035 93.6163C441.549 93.4658 441.078 93.2619 440.62 93.0364C440.166 92.8004 439.728 92.5329 439.32 92.2219C438.51 91.596 437.817 90.8144 437.338 89.9234C436.865 89.0344 436.552 88.0557 436.541 87.0685ZM424.64 101.049C425.275 102.581 425.573 104.241 425.698 105.905C425.813 107.574 425.679 109.266 425.317 110.912C425.213 111.32 425.124 111.733 425.006 112.138L424.604 113.339L424.111 114.507C423.947 114.897 423.765 115.255 423.598 115.633C422.913 117.121 422.271 118.621 421.775 120.159C421.27 121.694 420.936 123.275 420.83 124.872C420.706 126.47 420.882 128.078 421.231 129.651C421.606 131.219 422.169 132.753 422.889 134.221C423.593 135.697 424.436 137.113 425.33 138.502C424.255 137.247 423.29 135.892 422.448 134.454C422.027 133.735 421.654 132.987 421.314 132.221L421.069 131.641C420.991 131.447 420.924 131.247 420.851 131.05L420.743 130.754L420.648 130.453C420.587 130.251 420.518 130.052 420.464 129.848C420.23 129.037 420.067 128.204 419.968 127.362C419.865 126.521 419.834 125.669 419.87 124.82C419.942 123.122 420.287 121.445 420.809 119.847C421.33 118.246 422.001 116.711 422.732 115.222C422.909 114.849 423.112 114.477 423.276 114.112L423.778 113.014L424.197 111.881C424.328 111.5 424.431 111.11 424.55 110.725C424.614 110.533 424.647 110.333 424.694 110.137L424.825 109.545C424.876 109.349 424.896 109.147 424.93 108.948L425.027 108.348C425.083 107.947 425.113 107.542 425.158 107.138C425.172 106.733 425.201 106.326 425.202 105.919C425.216 104.291 425.061 102.647 424.64 101.049Z" fill="#ED9636"/>
<path d="M480.289 275.809L490.539 347.604H521.288L529.938 276.102C529.938 276.103 480.494 276.015 480.289 275.809Z" fill="#1D1C1C"/>
<path d="M489.776 277.431L490.901 285.973L491.996 294.518L494.186 311.609L496.312 328.708L497.375 337.257L498.408 345.811L497.283 337.269L496.187 328.724L493.998 311.633L491.872 294.534L490.809 285.984L489.776 277.431Z" fill="white"/>
<path d="M506.2 278.51L506.396 286.787L506.563 295.064L506.894 311.619L507.162 328.175L507.296 336.452L507.399 344.731L507.203 336.454L507.037 328.177L506.705 311.622L506.437 295.066L506.304 286.789L506.2 278.51Z" fill="white"/>
<path d="M521.546 278.99L520.842 287.122L520.11 295.251L518.643 311.509L517.113 327.762L516.347 335.888L515.551 344.011L516.254 335.879L516.987 327.75L518.454 311.492L519.985 295.24L520.751 287.114L521.546 278.99Z" fill="white"/>
<path d="M484.621 285.708L489.716 285.662L494.811 285.636L505.002 285.614L515.192 285.635L520.287 285.662L525.382 285.708L520.287 285.755L515.192 285.781L505.002 285.803L494.811 285.781L489.716 285.754L484.621 285.708Z" fill="white"/>
<path d="M484.621 298.425L489.716 298.378L494.811 298.352L505.002 298.33L515.192 298.352L520.287 298.378L525.382 298.425L520.287 298.471L515.192 298.497L505.002 298.519L494.811 298.497L489.716 298.471L484.621 298.425Z" fill="white"/>
<path d="M484.621 311.141L489.716 311.095L494.811 311.068L505.002 311.046L515.192 311.068L520.287 311.095L525.382 311.141L520.287 311.187L515.192 311.214L505.002 311.236L494.811 311.214L489.716 311.187L484.621 311.141Z" fill="white"/>
<path d="M484.621 323.857L489.716 323.811L494.811 323.784L505.002 323.762L515.192 323.784L520.287 323.811L525.382 323.857L520.287 323.903L515.192 323.93L505.002 323.952L494.811 323.93L489.716 323.903L484.621 323.857Z" fill="white"/>
<path d="M484.621 336.573L489.716 336.527L494.811 336.501L505.002 336.479L515.192 336.5L520.287 336.527L525.382 336.573L520.287 336.62L515.192 336.646L505.002 336.668L494.811 336.646L489.716 336.619L484.621 336.573Z" fill="white"/>
<path d="M500.164 242.245C507.13 240.659 509.781 226.188 506.084 209.922C502.387 193.656 493.742 181.755 486.776 183.34C479.809 184.926 477.158 199.397 480.855 215.663C484.552 231.929 493.197 243.83 500.164 242.245Z" fill="#FF6D60"/>
<path d="M485.427 271.582C488.071 258.484 483.94 246.598 476.2 245.033C468.461 243.469 460.043 252.819 457.399 265.917C454.755 279.015 458.886 290.901 466.625 292.466C474.365 294.03 482.783 284.68 485.427 271.582Z" fill="#FF6D60"/>
<path d="M551.548 245.066C564.719 230.079 569.319 212.582 561.823 205.984C554.326 199.387 537.572 206.188 524.4 221.175C511.229 236.162 506.629 253.659 514.125 260.256C521.622 266.853 538.376 260.052 551.548 245.066Z" fill="#FF6D60"/>
<path d="M548.151 278.589C561.683 274.75 571.349 267.039 569.742 261.368C568.135 255.696 555.863 254.21 542.331 258.05C528.799 261.889 519.133 269.599 520.74 275.271C522.347 280.943 534.619 282.428 548.151 278.589Z" fill="#FF6D60"/>
<path d="M467.085 282.713C467.085 282.713 462.945 244.397 481.574 243.016C487.783 242.326 497.787 245.087 499.512 276.5M487.093 189.166C487.093 189.166 506.066 219.197 502.616 276.155M506.756 275.809C506.756 275.809 517.45 221.959 557.121 209.532M509.171 276.155C509.171 276.155 540.563 261.656 565.745 262.002" stroke="#4D5282" stroke-width="6.742" stroke-miterlimit="10" stroke-linecap="round" stroke-linejoin="round"/>
<path d="M107.327 156.187C120.606 142.899 120.606 121.354 107.326 108.066C94.0461 94.7774 72.5155 94.7778 59.2361 108.066C45.9567 121.355 45.9571 142.9 59.237 156.188C72.5168 169.476 94.0474 169.476 107.327 156.187Z" fill="#CCCCCC"/>
<path d="M104.732 153.591C116.578 141.736 116.578 122.516 104.731 110.662C92.8844 98.8079 73.6774 98.8082 61.831 110.663C49.9847 122.517 49.985 141.737 61.8318 153.591C73.6785 165.445 92.8856 165.445 104.732 153.591Z" fill="#9E9E9E"/>
<path d="M103.982 152.841C115.415 141.4 115.414 122.852 103.982 111.412C92.5489 99.9721 74.013 99.9725 62.5805 111.413C51.1481 122.853 51.1484 141.401 62.5813 152.841C74.0141 164.281 92.55 164.281 103.982 152.841Z" fill="#DBDBDB"/>
<path d="M83.7122 113.522C84.1513 113.522 84.5072 112.207 84.5072 110.585C84.5072 108.962 84.1513 107.647 83.7122 107.647C83.2732 107.647 82.9172 108.962 82.9172 110.585C82.9172 112.207 83.2732 113.522 83.7122 113.522Z" fill="#9E9E9E"/>
<path d="M71.6797 113.859C72.4904 115.264 72.8393 116.581 72.459 116.8C72.0787 117.02 71.1132 116.059 70.3027 114.654C69.492 113.249 69.1431 111.932 69.5233 111.712C69.9035 111.493 70.869 112.454 71.6797 113.859ZM64.8445 120.912C66.2487 121.723 67.2088 122.689 66.9893 123.069C66.7698 123.45 65.4535 123.101 64.0495 122.289C62.6453 121.478 61.6852 120.512 61.9046 120.132C62.1241 119.751 63.4405 120.1 64.8445 120.912ZM95.5882 113.859C94.7775 115.264 94.4286 116.581 94.8089 116.801C95.1892 117.02 96.1547 116.059 96.9652 114.654C97.7759 113.249 98.1248 111.932 97.7446 111.713C97.3644 111.493 96.3989 112.454 95.5882 113.859ZM102.423 120.912C101.019 121.723 100.059 122.689 100.279 123.069C100.498 123.45 101.814 123.101 103.218 122.29C104.623 121.478 105.583 120.512 105.363 120.132C105.144 119.751 103.827 120.1 102.423 120.912ZM71.6797 150.027C72.4904 148.622 72.8393 147.305 72.459 147.085C72.0787 146.866 71.1132 147.827 70.3027 149.232C69.492 150.637 69.1431 151.954 69.5233 152.173C69.9035 152.393 70.869 151.432 71.6797 150.027ZM64.8445 142.975C66.2487 142.163 67.2088 141.197 66.9893 140.817C66.7698 140.436 65.4535 140.785 64.0495 141.597C62.6453 142.408 61.6852 143.374 61.9046 143.754C62.1241 144.135 63.4405 143.786 64.8445 142.975ZM95.5882 150.027C94.7775 148.622 94.4286 147.305 94.8089 147.085C95.1892 146.866 96.1547 147.826 96.9652 149.231C97.7759 150.637 98.1248 151.954 97.7446 152.173C97.3644 152.393 96.3989 151.432 95.5882 150.027ZM102.423 142.974C101.019 142.163 100.059 141.197 100.279 140.816C100.498 140.436 101.814 140.785 103.218 141.596C104.623 142.408 105.583 143.373 105.363 143.754C105.144 144.135 103.827 143.785 102.423 142.974Z" fill="#CCCCCC"/>
<path d="M84.1689 135.509C85.3849 135.509 86.3706 134.523 86.3706 133.306C86.3706 132.089 85.3849 131.103 84.1689 131.103C82.9529 131.103 81.9671 132.089 81.9671 133.306C81.9671 134.523 82.9529 135.509 84.1689 135.509Z" fill="#9E9E9E"/>
<path d="M83.1042 123.542C84.3002 128.123 84.9831 131.912 84.6297 132.004C84.2761 132.097 83.0199 128.458 81.8238 123.877C80.6278 119.296 79.9447 115.507 80.2983 115.415C80.6519 115.322 81.908 118.961 83.1042 123.542ZM78.1127 131.481C81.3223 132.151 83.8533 133.034 83.7659 133.453C83.6784 133.873 81.0056 133.67 77.7961 133C74.5865 132.33 72.0556 131.447 72.1429 131.027C72.2304 130.608 74.903 130.811 78.1127 131.481Z" fill="#9E9E9E"/>
<path d="M83.7122 156.362C84.1513 156.362 84.5072 155.047 84.5072 153.424C84.5072 151.802 84.1513 150.487 83.7122 150.487C83.2732 150.487 82.9172 151.802 82.9172 153.424C82.9172 155.047 83.2732 156.362 83.7122 156.362Z" fill="#9E9E9E"/>
<path d="M105.974 133.29C107.595 133.29 108.91 132.933 108.91 132.494C108.91 132.055 107.595 131.698 105.974 131.698C104.353 131.698 103.039 132.055 103.039 132.494C103.039 132.933 104.353 133.29 105.974 133.29Z" fill="#9E9E9E"/>
<path d="M60.7163 133.29C62.3376 133.29 63.6519 132.933 63.6519 132.494C63.6519 132.055 62.3376 131.698 60.7163 131.698C59.095 131.698 57.7806 132.055 57.7806 132.494C57.7806 132.933 59.095 133.29 60.7163 133.29Z" fill="#9E9E9E"/>
<path d="M365.43 213.67H126.693C121.229 213.67 116.8 209.237 116.8 203.769C116.8 198.302 121.229 193.869 126.693 193.869H365.43C370.894 193.869 375.324 198.302 375.324 203.769C375.324 209.237 370.894 213.67 365.43 213.67Z" fill="#FF6D60"/>
<path d="M126.693 213.239L144.779 348.762C145.014 350.526 146.518 351.843 148.296 351.843C150.343 351.843 151.965 350.115 151.838 348.072L143.469 213.241" fill="#FF6D60"/>
<path d="M152.072 209.08L170.15 341.597C170.39 343.357 171.892 344.669 173.667 344.669C175.717 344.669 177.341 342.937 177.21 340.89L168.849 210.226L152.072 209.08Z" fill="#BD2710"/>
<path d="M365.43 213.239L347.345 348.762C347.109 350.526 345.606 351.843 343.827 351.843C341.781 351.843 340.158 350.115 340.285 348.072L348.654 213.241" fill="#FF6D60"/>
<path d="M340.051 209.08L321.973 341.598C321.733 343.357 320.232 344.669 318.458 344.669C316.408 344.669 314.784 342.935 314.917 340.888L323.275 211.948L340.051 209.08Z" fill="#BD2710"/>
<path d="M374.342 208.074H117.782C119.382 211.385 122.771 213.67 126.693 213.67H365.43C369.353 213.67 372.742 211.385 374.342 208.074Z" fill="#E53E38"/>
<path d="M357.544 213.67L357.067 213.24L348.654 213.241L340.285 348.071C340.194 349.545 341.013 350.85 342.243 351.466L357.544 213.67ZM134.663 213.67L135.14 213.24L143.553 213.241L151.922 348.071C152.014 349.545 151.194 350.85 149.964 351.466L134.663 213.67Z" fill="#E53E38"/>
<path d="M160.891 213.885H169.279L177.086 340.969C177.178 342.443 176.358 343.747 175.128 344.364L160.891 213.885ZM330.942 213.454H322.554L314.747 340.538C314.655 342.012 315.475 343.317 316.705 343.933L330.942 213.454Z" fill="#971110"/>
<path d="M314.945 137.991L291.694 194.363H185.52L193.179 191.308H237.58L259.443 138.825L314.945 137.991Z" fill="#B5B5B5"/>
<path d="M314.571 137.991L310.131 136.325L256.85 137.158L259.07 138.824L314.571 137.991Z" fill="#F0F0F0"/>
<path d="M257.018 137.172L234.25 191.586L237.164 194.224L259.534 138.828L257.018 137.172Z" fill="#9C9C9C"/>
<path d="M284.841 166.716C286.092 161.694 284.936 157.081 282.259 156.414C279.582 155.746 276.398 159.277 275.148 164.299C273.897 169.321 275.053 173.933 277.73 174.601C280.407 175.268 283.59 171.738 284.841 166.716Z" fill="white"/>
<path d="M223.998 167.994C223.929 164.974 223.956 161.958 224.017 158.944C224.079 155.93 224.175 152.917 224.31 149.907C224.442 146.895 224.615 143.886 224.821 140.879C225.027 137.871 225.269 134.865 225.608 131.863C225.679 134.883 225.652 137.899 225.591 140.913C225.528 143.927 225.433 146.94 225.296 149.951C225.163 152.961 224.99 155.971 224.784 158.978C224.578 161.986 224.337 164.992 223.998 167.994Z" fill="#ED9636"/>
<path d="M224.228 153.265C224.444 152.263 224.749 151.3 225.081 150.349C225.417 149.399 225.789 148.465 226.191 147.544C226.593 146.624 227.026 145.716 227.495 144.825C227.967 143.935 228.467 143.057 229.058 142.219C228.844 143.222 228.539 144.185 228.206 145.136C227.87 146.086 227.498 147.02 227.095 147.94C226.692 148.86 226.259 149.767 225.79 150.659C225.318 151.549 224.818 152.427 224.228 153.265Z" fill="#ED9636"/>
</svg>
