<svg width="34" height="34" viewBox="0 0 34 34" fill="none" xmlns="http://www.w3.org/2000/svg">
<g clip-path="url(#clip0_288_111)">
<path d="M17.0502 33.3445C7.8805 33.3445 0.377991 25.842 0.377991 16.6722C0.377991 7.50251 7.8805 0 17.0502 0C26.22 0 33.7225 7.50251 33.7225 16.6722C33.7225 25.842 26.22 33.3445 17.0502 33.3445ZM17.0502 1.66722C8.79748 1.66722 2.04522 8.41949 2.04522 16.6722C2.04522 24.925 8.79748 31.6773 17.0502 31.6773C25.303 31.6773 32.0553 24.925 32.0553 16.6722C32.0553 8.41949 25.303 1.66722 17.0502 1.66722Z" fill="white"/>
<path fill-rule="evenodd" clip-rule="evenodd" d="M14.2993 20.0902L22.0519 13.0879C22.3854 12.7545 21.9685 12.6711 21.5517 12.9212L12.0486 18.9232L7.96388 17.6728C7.04691 17.4227 7.0469 16.7558 8.1306 16.339L24.2193 10.1703C24.9696 9.83681 25.6364 10.337 25.3864 11.504L22.6354 24.425C22.4687 25.342 21.8852 25.5921 21.1349 25.1753L16.9669 22.0909L14.9662 24.0082C14.7161 24.2583 14.3827 24.2583 14.3827 24.0082L14.2993 20.0902Z" fill="white"/>
</g>
<defs>
<clipPath id="clip0_288_111">
<rect width="33.3445" height="33.3445" fill="white" transform="translate(0.377991)"/>
</clipPath>
</defs>
</svg>
