<svg width="32" height="32" viewBox="0 0 32 32" fill="none" xmlns="http://www.w3.org/2000/svg">
<path d="M16 30.1666C23.824 30.1666 30.1667 23.824 30.1667 15.9999C30.1667 8.17588 23.824 1.83325 16 1.83325C8.17598 1.83325 1.83334 8.17588 1.83334 15.9999C1.83334 23.824 8.17598 30.1666 16 30.1666Z" fill="#39F2AA"/>
<path d="M9.62501 15.9999L13.875 20.2499L22.375 11.7499M30.1667 15.9999C30.1667 23.824 23.824 30.1666 16 30.1666C8.17598 30.1666 1.83334 23.824 1.83334 15.9999C1.83334 8.17588 8.17598 1.83325 16 1.83325C23.824 1.83325 30.1667 8.17588 30.1667 15.9999Z" stroke="white" stroke-width="2" stroke-linecap="round" stroke-linejoin="round"/>
</svg>
