<svg width="35" height="34" viewBox="0 0 35 34" fill="none" xmlns="http://www.w3.org/2000/svg">
<g clip-path="url(#clip0_288_114)">
<path d="M19.4598 9.96587C17.9604 10.5108 17.0132 11.9186 17.1216 13.4577L17.158 14.0516L16.5578 13.9787C14.3759 13.6994 12.4679 12.7543 10.8486 11.1652L10.0567 10.3775L9.85247 10.96C9.42107 12.2573 9.69721 13.6275 10.5965 14.5497C11.0758 15.0592 10.9674 15.1322 10.1411 14.829C9.85351 14.732 9.60134 14.6591 9.57738 14.6956C9.49402 14.781 9.78161 15.8835 10.0088 16.3201C10.3203 16.9265 10.956 17.5205 11.652 17.8727L12.2397 18.1519L11.5447 18.1644C10.8736 18.1644 10.8497 18.1769 10.9216 18.4322C11.1612 19.22 12.1084 20.0567 13.164 20.4215L13.908 20.6757L13.2609 21.0633C12.2816 21.6273 11.1761 21.9359 10.0463 21.9605C9.50548 21.973 9.06262 22.0209 9.06262 22.0574C9.06262 22.1783 10.5267 22.8566 11.3769 23.1244C13.9309 23.9122 16.9663 23.5725 19.2452 22.2273C20.8645 21.2686 22.4827 19.3659 23.2392 17.5215C23.6477 16.5399 24.0551 14.7446 24.0551 13.8849C24.0551 13.3264 24.0916 13.2545 24.7627 12.5876C25.1586 12.2 25.5306 11.7759 25.6025 11.6539C25.7223 11.4236 25.7098 11.4236 25.0992 11.6289C24.0801 11.9926 23.9353 11.9447 24.4396 11.3986C24.8106 11.011 25.2555 10.3077 25.2555 10.1013C25.2555 10.0649 25.0763 10.1253 24.871 10.2347C24.6553 10.3556 24.176 10.5379 23.8155 10.6463L23.1684 10.8526L22.5807 10.4514C22.2566 10.2337 21.8012 9.99088 21.5616 9.91794C20.9478 9.74809 20.0121 9.77205 19.4598 9.96587Z" fill="white"/>
<path d="M17.3612 1.04202C25.9798 1.04202 32.9915 8.05374 32.9915 16.6722C32.9915 25.2908 25.9798 32.3025 17.3612 32.3025C8.74273 32.3025 1.73101 25.2908 1.73101 16.6722C1.73101 8.05374 8.74273 1.04202 17.3612 1.04202ZM17.3612 0C8.15295 0 0.688995 7.465 0.688995 16.6722C0.688995 25.8795 8.15295 33.3445 17.3612 33.3445C26.5695 33.3445 34.0335 25.8795 34.0335 16.6722C34.0335 7.465 26.5695 0 17.3612 0Z" fill="white"/>
</g>
<defs>
<clipPath id="clip0_288_114">
<rect width="33.3445" height="33.3445" fill="white" transform="translate(0.688995)"/>
</clipPath>
</defs>
</svg>
