<svg width="34" height="34" viewBox="0 0 34 34" fill="none" xmlns="http://www.w3.org/2000/svg">
<g clip-path="url(#clip0_288_98)">
<path d="M21.498 19.5347C21.3625 19.5347 21.2646 19.5732 21.2052 19.6535C21.1458 19.7295 21.1177 19.8598 21.1177 20.0421V20.4787H21.87V20.0421C21.87 19.8608 21.8398 19.7306 21.7793 19.6535C21.7231 19.5722 21.6272 19.5347 21.498 19.5347ZM18.5637 19.519C18.5011 19.5185 18.4394 19.5328 18.3834 19.5607C18.3176 19.594 18.2583 19.6388 18.2083 19.6931V22.3898C18.2665 22.4517 18.3349 22.5032 18.4105 22.5419C18.4747 22.5724 18.5447 22.5884 18.6158 22.5888C18.72 22.5888 18.796 22.5586 18.845 22.4971C18.894 22.4367 18.92 22.3387 18.92 22.1991V19.964C18.92 19.8181 18.8898 19.7066 18.8294 19.6316C18.7966 19.5938 18.7556 19.564 18.7096 19.5445C18.6635 19.525 18.6136 19.5163 18.5637 19.519Z" fill="white"/>
<path d="M23.2923 16.1636C22.5932 15.4654 16.7026 15.4561 16.7026 15.4561C16.7026 15.4561 10.8132 15.4644 10.1119 16.1625C9.41166 16.8628 9.40958 20.315 9.40958 20.3348C9.40958 20.3608 9.41062 23.8068 10.1119 24.507C10.8121 25.2051 16.7026 25.2197 16.7026 25.2197C16.7026 25.2197 22.5932 25.2051 23.2923 24.507C23.9957 23.8057 24.002 20.3348 24.002 20.3348C24.002 20.316 23.9947 16.8638 23.2923 16.1636ZM13.9017 18.1986H12.9097V23.2139H11.95V18.1986H10.958V17.3463H13.9017V18.1986ZM16.7058 23.2128H15.8565V22.7366C15.7173 22.8981 15.5509 23.0339 15.3647 23.1378C15.214 23.2248 15.0437 23.2722 14.8697 23.2753C14.6718 23.2753 14.5259 23.2128 14.4248 23.0826C14.3268 22.9533 14.2758 22.7616 14.2758 22.5032V18.8843H15.1261V22.2041C15.1261 22.3073 15.1438 22.3802 15.1782 22.4271C15.2157 22.473 15.274 22.4959 15.3532 22.4959C15.4158 22.4959 15.496 22.4657 15.5908 22.4042C15.6867 22.3438 15.7732 22.2667 15.8555 22.1729V18.8843H16.7058V23.2128ZM19.7943 22.3188C19.7943 22.6251 19.7276 22.8596 19.5942 23.0232C19.4619 23.1868 19.2681 23.267 19.0159 23.267C18.8624 23.2704 18.7101 23.2383 18.571 23.1732C18.4299 23.1032 18.3058 23.0033 18.2073 22.8804V23.2128H17.3476V17.3452H18.2073V19.2344C18.323 19.1031 18.4439 19.001 18.572 18.9333C18.6924 18.867 18.8274 18.8315 18.9649 18.8301C19.2347 18.8301 19.44 18.9218 19.5817 19.1052C19.7255 19.2896 19.7953 19.5605 19.7953 19.9148V22.3188H19.7943ZM22.7453 21.1538H21.1177V21.9676C21.1177 22.1958 21.1458 22.3542 21.201 22.4428C21.2583 22.5313 21.3532 22.5741 21.4897 22.5741C21.6303 22.5741 21.7293 22.5365 21.7856 22.4626C21.8408 22.3875 21.871 22.2239 21.871 21.9686V21.7707H22.7463V21.9926C22.7463 22.4365 22.64 22.771 22.4264 22.9971C22.2139 23.2211 21.895 23.3326 21.4719 23.3326C21.0916 23.3326 20.7905 23.2149 20.5716 22.9763C20.3528 22.7397 20.2424 22.4125 20.2424 21.9947V20.0513C20.2424 19.6773 20.3643 19.3699 20.6039 19.1333C20.8447 18.8968 21.1541 18.779 21.5355 18.779C21.9252 18.779 22.2243 18.8884 22.4337 19.1073C22.6432 19.3261 22.7463 19.6397 22.7463 20.0513V21.1538H22.7453ZM21.4938 13.6409H20.5352V13.1146C20.3793 13.294 20.1927 13.444 19.9839 13.5575C19.8141 13.6531 19.6234 13.7054 19.4286 13.7096C19.2056 13.7096 19.0399 13.6388 18.9273 13.496C18.8158 13.3543 18.7596 13.1417 18.7596 12.8562V8.8726H19.7162V12.528C19.7162 12.6405 19.738 12.7228 19.7776 12.7729C19.8162 12.8239 19.8829 12.8489 19.9725 12.8489C20.0687 12.8398 20.1607 12.8053 20.2392 12.7489C20.3466 12.6822 20.4456 12.5968 20.5341 12.4915V8.8726H21.4928L21.4938 13.6409ZM17.604 9.09872C17.3497 8.86739 17.0246 8.75173 16.6287 8.75173C16.1941 8.75173 15.8461 8.86114 15.5887 9.07996C15.3303 9.29879 15.2011 9.59264 15.2011 9.96255V12.4342C15.2011 12.8396 15.3272 13.1615 15.5773 13.4012C15.8294 13.6398 16.165 13.7597 16.5839 13.7597C17.0194 13.7597 17.3602 13.644 17.6113 13.4116C17.8582 13.1793 17.9833 12.8594 17.9833 12.4519V9.99069C17.9879 9.82348 17.9564 9.65724 17.891 9.5033C17.8255 9.34937 17.7276 9.21137 17.604 9.09872ZM17.0059 12.5249C17.0087 12.5803 16.9999 12.6356 16.9802 12.6875C16.9605 12.7393 16.9302 12.7865 16.8912 12.826C16.8062 12.9012 16.6951 12.9401 16.5818 12.9344C16.4546 12.9344 16.3567 12.8989 16.289 12.8281C16.2166 12.7442 16.1796 12.6355 16.1858 12.5249V9.92712C16.1858 9.82292 16.2233 9.73852 16.2952 9.67391C16.3753 9.60776 16.477 9.5736 16.5807 9.57805C16.7068 9.57805 16.8089 9.60931 16.8871 9.67391C16.925 9.7041 16.9554 9.7427 16.9758 9.78664C16.9962 9.83058 17.0062 9.87868 17.0048 9.92712V12.5249H17.0059ZM12.5908 7.17725H11.504L12.7888 11.0806V13.6409H13.8673V10.9598L15.1229 7.17725H14.0257L13.3599 9.76144H13.2921L12.5908 7.17725Z" fill="white"/>
<path d="M16.7058 1.04202C25.3243 1.04202 32.336 8.05374 32.336 16.6722C32.336 25.2908 25.3243 32.3025 16.7058 32.3025C8.08725 32.3025 1.07552 25.2908 1.07552 16.6722C1.07552 8.05374 8.08725 1.04202 16.7058 1.04202ZM16.7058 0C7.49747 0 0.0335083 7.465 0.0335083 16.6722C0.0335083 25.8795 7.49747 33.3445 16.7058 33.3445C25.914 33.3445 33.378 25.8795 33.378 16.6722C33.378 7.465 25.914 0 16.7058 0Z" fill="white"/>
</g>
<defs>
<clipPath id="clip0_288_98">
<rect width="33.3445" height="33.3445" fill="white" transform="translate(0.0335083)"/>
</clipPath>
</defs>
</svg>
